%TF.GenerationSoftware,KiCad,Pcbnew,(7.0.0)*%
%TF.CreationDate,2023-08-06T15:33:45+09:30*%
%TF.ProjectId,ring_mono,72696e67-5f6d-46f6-9e6f-2e6b69636164,rev?*%
%TF.SameCoordinates,Original*%
%TF.FileFunction,Legend,Top*%
%TF.FilePolarity,Positive*%
%FSLAX46Y46*%
G04 Gerber Fmt 4.6, Leading zero omitted, Abs format (unit mm)*
G04 Created by KiCad (PCBNEW (7.0.0)) date 2023-08-06 15:33:45*
%MOMM*%
%LPD*%
G01*
G04 APERTURE LIST*
%ADD10C,0.200000*%
%ADD11C,0.120000*%
G04 APERTURE END LIST*
D10*
%TO.C,TP2*%
X135871076Y-93016704D02*
X136328219Y-93016704D01*
X136099647Y-93816704D02*
X136099647Y-93016704D01*
X136594886Y-93816704D02*
X136594886Y-93016704D01*
X136594886Y-93016704D02*
X136899648Y-93016704D01*
X136899648Y-93016704D02*
X136975838Y-93054800D01*
X136975838Y-93054800D02*
X137013933Y-93092895D01*
X137013933Y-93092895D02*
X137052029Y-93169085D01*
X137052029Y-93169085D02*
X137052029Y-93283371D01*
X137052029Y-93283371D02*
X137013933Y-93359561D01*
X137013933Y-93359561D02*
X136975838Y-93397657D01*
X136975838Y-93397657D02*
X136899648Y-93435752D01*
X136899648Y-93435752D02*
X136594886Y-93435752D01*
X137356790Y-93092895D02*
X137394886Y-93054800D01*
X137394886Y-93054800D02*
X137471076Y-93016704D01*
X137471076Y-93016704D02*
X137661552Y-93016704D01*
X137661552Y-93016704D02*
X137737743Y-93054800D01*
X137737743Y-93054800D02*
X137775838Y-93092895D01*
X137775838Y-93092895D02*
X137813933Y-93169085D01*
X137813933Y-93169085D02*
X137813933Y-93245276D01*
X137813933Y-93245276D02*
X137775838Y-93359561D01*
X137775838Y-93359561D02*
X137318695Y-93816704D01*
X137318695Y-93816704D02*
X137813933Y-93816704D01*
%TO.C,TP1*%
X135921876Y-71909304D02*
X136379019Y-71909304D01*
X136150447Y-72709304D02*
X136150447Y-71909304D01*
X136645686Y-72709304D02*
X136645686Y-71909304D01*
X136645686Y-71909304D02*
X136950448Y-71909304D01*
X136950448Y-71909304D02*
X137026638Y-71947400D01*
X137026638Y-71947400D02*
X137064733Y-71985495D01*
X137064733Y-71985495D02*
X137102829Y-72061685D01*
X137102829Y-72061685D02*
X137102829Y-72175971D01*
X137102829Y-72175971D02*
X137064733Y-72252161D01*
X137064733Y-72252161D02*
X137026638Y-72290257D01*
X137026638Y-72290257D02*
X136950448Y-72328352D01*
X136950448Y-72328352D02*
X136645686Y-72328352D01*
X137864733Y-72709304D02*
X137407590Y-72709304D01*
X137636162Y-72709304D02*
X137636162Y-71909304D01*
X137636162Y-71909304D02*
X137559971Y-72023590D01*
X137559971Y-72023590D02*
X137483781Y-72099780D01*
X137483781Y-72099780D02*
X137407590Y-72137876D01*
%TO.C,D6*%
X131313585Y-86400400D02*
X130913585Y-85707580D01*
X130913585Y-85707580D02*
X131078542Y-85612342D01*
X131078542Y-85612342D02*
X131196564Y-85588191D01*
X131196564Y-85588191D02*
X131300642Y-85616078D01*
X131300642Y-85616078D02*
X131371729Y-85663013D01*
X131371729Y-85663013D02*
X131480911Y-85775932D01*
X131480911Y-85775932D02*
X131538054Y-85874906D01*
X131538054Y-85874906D02*
X131581253Y-86025919D01*
X131581253Y-86025919D02*
X131586356Y-86110950D01*
X131586356Y-86110950D02*
X131558469Y-86215028D01*
X131558469Y-86215028D02*
X131478542Y-86305162D01*
X131478542Y-86305162D02*
X131313585Y-86400400D01*
X131903328Y-85136152D02*
X131771362Y-85212342D01*
X131771362Y-85212342D02*
X131724427Y-85283429D01*
X131724427Y-85283429D02*
X131710483Y-85335468D01*
X131710483Y-85335468D02*
X131701643Y-85472537D01*
X131701643Y-85472537D02*
X131744842Y-85623551D01*
X131744842Y-85623551D02*
X131897223Y-85887482D01*
X131897223Y-85887482D02*
X131968310Y-85934418D01*
X131968310Y-85934418D02*
X132020349Y-85948361D01*
X132020349Y-85948361D02*
X132105379Y-85943258D01*
X132105379Y-85943258D02*
X132237345Y-85867067D01*
X132237345Y-85867067D02*
X132284281Y-85795980D01*
X132284281Y-85795980D02*
X132298224Y-85743941D01*
X132298224Y-85743941D02*
X132293121Y-85658911D01*
X132293121Y-85658911D02*
X132197882Y-85493954D01*
X132197882Y-85493954D02*
X132126796Y-85447018D01*
X132126796Y-85447018D02*
X132074757Y-85433074D01*
X132074757Y-85433074D02*
X131989726Y-85438178D01*
X131989726Y-85438178D02*
X131857760Y-85514369D01*
X131857760Y-85514369D02*
X131810825Y-85585455D01*
X131810825Y-85585455D02*
X131796881Y-85637495D01*
X131796881Y-85637495D02*
X131801985Y-85722525D01*
%TO.C,D5*%
X141302280Y-85709691D02*
X141702280Y-85016870D01*
X141702280Y-85016870D02*
X141867237Y-85112108D01*
X141867237Y-85112108D02*
X141947164Y-85202243D01*
X141947164Y-85202243D02*
X141975052Y-85306321D01*
X141975052Y-85306321D02*
X141969948Y-85391351D01*
X141969948Y-85391351D02*
X141926749Y-85542365D01*
X141926749Y-85542365D02*
X141869606Y-85641339D01*
X141869606Y-85641339D02*
X141760424Y-85754257D01*
X141760424Y-85754257D02*
X141689337Y-85801192D01*
X141689337Y-85801192D02*
X141585259Y-85829080D01*
X141585259Y-85829080D02*
X141467237Y-85804929D01*
X141467237Y-85804929D02*
X141302280Y-85709691D01*
X142725015Y-85607346D02*
X142395100Y-85416870D01*
X142395100Y-85416870D02*
X142171633Y-85727737D01*
X142171633Y-85727737D02*
X142223672Y-85713793D01*
X142223672Y-85713793D02*
X142308702Y-85718897D01*
X142308702Y-85718897D02*
X142473660Y-85814135D01*
X142473660Y-85814135D02*
X142520595Y-85885222D01*
X142520595Y-85885222D02*
X142534539Y-85937261D01*
X142534539Y-85937261D02*
X142529435Y-86022291D01*
X142529435Y-86022291D02*
X142434197Y-86187249D01*
X142434197Y-86187249D02*
X142363110Y-86234184D01*
X142363110Y-86234184D02*
X142311071Y-86248128D01*
X142311071Y-86248128D02*
X142226040Y-86243024D01*
X142226040Y-86243024D02*
X142061083Y-86147786D01*
X142061083Y-86147786D02*
X142014148Y-86076699D01*
X142014148Y-86076699D02*
X142000204Y-86024660D01*
%TO.C,D4*%
X142030524Y-81396104D02*
X142030524Y-80596104D01*
X142030524Y-80596104D02*
X142221000Y-80596104D01*
X142221000Y-80596104D02*
X142335286Y-80634200D01*
X142335286Y-80634200D02*
X142411476Y-80710390D01*
X142411476Y-80710390D02*
X142449571Y-80786580D01*
X142449571Y-80786580D02*
X142487667Y-80938961D01*
X142487667Y-80938961D02*
X142487667Y-81053247D01*
X142487667Y-81053247D02*
X142449571Y-81205628D01*
X142449571Y-81205628D02*
X142411476Y-81281819D01*
X142411476Y-81281819D02*
X142335286Y-81358009D01*
X142335286Y-81358009D02*
X142221000Y-81396104D01*
X142221000Y-81396104D02*
X142030524Y-81396104D01*
X143173381Y-80862771D02*
X143173381Y-81396104D01*
X142982905Y-80558009D02*
X142792428Y-81129438D01*
X142792428Y-81129438D02*
X143287667Y-81129438D01*
%TO.C,D3*%
X130498924Y-81354104D02*
X130498924Y-80554104D01*
X130498924Y-80554104D02*
X130689400Y-80554104D01*
X130689400Y-80554104D02*
X130803686Y-80592200D01*
X130803686Y-80592200D02*
X130879876Y-80668390D01*
X130879876Y-80668390D02*
X130917971Y-80744580D01*
X130917971Y-80744580D02*
X130956067Y-80896961D01*
X130956067Y-80896961D02*
X130956067Y-81011247D01*
X130956067Y-81011247D02*
X130917971Y-81163628D01*
X130917971Y-81163628D02*
X130879876Y-81239819D01*
X130879876Y-81239819D02*
X130803686Y-81316009D01*
X130803686Y-81316009D02*
X130689400Y-81354104D01*
X130689400Y-81354104D02*
X130498924Y-81354104D01*
X131222733Y-80554104D02*
X131717971Y-80554104D01*
X131717971Y-80554104D02*
X131451305Y-80858866D01*
X131451305Y-80858866D02*
X131565590Y-80858866D01*
X131565590Y-80858866D02*
X131641781Y-80896961D01*
X131641781Y-80896961D02*
X131679876Y-80935057D01*
X131679876Y-80935057D02*
X131717971Y-81011247D01*
X131717971Y-81011247D02*
X131717971Y-81201723D01*
X131717971Y-81201723D02*
X131679876Y-81277914D01*
X131679876Y-81277914D02*
X131641781Y-81316009D01*
X131641781Y-81316009D02*
X131565590Y-81354104D01*
X131565590Y-81354104D02*
X131337019Y-81354104D01*
X131337019Y-81354104D02*
X131260828Y-81316009D01*
X131260828Y-81316009D02*
X131222733Y-81277914D01*
%TO.C,D2*%
X132740860Y-77051564D02*
X133152890Y-76365830D01*
X133152890Y-76365830D02*
X133316160Y-76463932D01*
X133316160Y-76463932D02*
X133394502Y-76555448D01*
X133394502Y-76555448D02*
X133420569Y-76659997D01*
X133420569Y-76659997D02*
X133413982Y-76744925D01*
X133413982Y-76744925D02*
X133368154Y-76895162D01*
X133368154Y-76895162D02*
X133309292Y-76993124D01*
X133309292Y-76993124D02*
X133198156Y-77104119D01*
X133198156Y-77104119D02*
X133126261Y-77149807D01*
X133126261Y-77149807D02*
X133021712Y-77175874D01*
X133021712Y-77175874D02*
X132904130Y-77149666D01*
X132904130Y-77149666D02*
X132740860Y-77051564D01*
X133766729Y-76823548D02*
X133819004Y-76810514D01*
X133819004Y-76810514D02*
X133903932Y-76817101D01*
X133903932Y-76817101D02*
X134067202Y-76915204D01*
X134067202Y-76915204D02*
X134112890Y-76987099D01*
X134112890Y-76987099D02*
X134125923Y-77039373D01*
X134125923Y-77039373D02*
X134119336Y-77124302D01*
X134119336Y-77124302D02*
X134080095Y-77189610D01*
X134080095Y-77189610D02*
X133988580Y-77267951D01*
X133988580Y-77267951D02*
X133361286Y-77424353D01*
X133361286Y-77424353D02*
X133785788Y-77679419D01*
%TO.C,D1*%
X139767385Y-77537166D02*
X139367385Y-76844346D01*
X139367385Y-76844346D02*
X139532342Y-76749108D01*
X139532342Y-76749108D02*
X139650364Y-76724957D01*
X139650364Y-76724957D02*
X139754442Y-76752844D01*
X139754442Y-76752844D02*
X139825529Y-76799779D01*
X139825529Y-76799779D02*
X139934711Y-76912698D01*
X139934711Y-76912698D02*
X139991854Y-77011672D01*
X139991854Y-77011672D02*
X140035053Y-77162685D01*
X140035053Y-77162685D02*
X140040156Y-77247716D01*
X140040156Y-77247716D02*
X140012269Y-77351794D01*
X140012269Y-77351794D02*
X139932342Y-77441928D01*
X139932342Y-77441928D02*
X139767385Y-77537166D01*
X140823111Y-76927643D02*
X140427214Y-77156214D01*
X140625162Y-77041928D02*
X140225162Y-76349108D01*
X140225162Y-76349108D02*
X140216322Y-76486178D01*
X140216322Y-76486178D02*
X140188435Y-76590256D01*
X140188435Y-76590256D02*
X140141499Y-76661342D01*
D11*
%TO.C,TP2*%
X135930600Y-92161400D02*
X135930600Y-90261400D01*
X135930600Y-90261400D02*
X137830600Y-90261400D01*
X137830600Y-90261400D02*
X137830600Y-92161400D01*
X137830600Y-92161400D02*
X135930600Y-92161400D01*
%TO.C,TP1*%
X135930600Y-73700600D02*
X137830600Y-73700600D01*
X135930600Y-75600600D02*
X135930600Y-73700600D01*
X137830600Y-75600600D02*
X135930600Y-75600600D01*
X137830600Y-73700600D02*
X137830600Y-75600600D01*
%TO.C,D6*%
X130041632Y-87586361D02*
X131176632Y-89552239D01*
X133406141Y-85643861D02*
X130041632Y-87586361D01*
X131176632Y-89552239D02*
X134541141Y-87609739D01*
%TO.C,D5*%
X142584568Y-89653839D02*
X143719568Y-87687961D01*
X139220059Y-87711339D02*
X142584568Y-89653839D01*
X143719568Y-87687961D02*
X140355059Y-85745461D01*
%TO.C,D4*%
X145033000Y-81796000D02*
X141148000Y-81796000D01*
X141148000Y-84066000D02*
X145033000Y-84066000D01*
X145033000Y-84066000D02*
X145033000Y-81796000D01*
%TO.C,D3*%
X128804400Y-81745200D02*
X128804400Y-84015200D01*
X132689400Y-81745200D02*
X128804400Y-81745200D01*
X128804400Y-84015200D02*
X132689400Y-84015200D01*
%TO.C,D2*%
X129917805Y-78459823D02*
X133247899Y-80460746D01*
X134417036Y-78514976D02*
X131086941Y-76514053D01*
X131086941Y-76514053D02*
X129917805Y-78459823D01*
%TO.C,D1*%
X142508368Y-76436761D02*
X139143859Y-78379261D01*
X140278859Y-80345139D02*
X143643368Y-78402639D01*
X143643368Y-78402639D02*
X142508368Y-76436761D01*
%TD*%
M02*
