%TF.GenerationSoftware,KiCad,Pcbnew,(7.0.0)*%
%TF.CreationDate,2023-08-06T15:33:45+09:30*%
%TF.ProjectId,ring_mono,72696e67-5f6d-46f6-9e6f-2e6b69636164,rev?*%
%TF.SameCoordinates,Original*%
%TF.FileFunction,Copper,L1,Top*%
%TF.FilePolarity,Positive*%
%FSLAX46Y46*%
G04 Gerber Fmt 4.6, Leading zero omitted, Abs format (unit mm)*
G04 Created by KiCad (PCBNEW (7.0.0)) date 2023-08-06 15:33:45*
%MOMM*%
%LPD*%
G01*
G04 APERTURE LIST*
G04 Aperture macros list*
%AMRoundRect*
0 Rectangle with rounded corners*
0 $1 Rounding radius*
0 $2 $3 $4 $5 $6 $7 $8 $9 X,Y pos of 4 corners*
0 Add a 4 corners polygon primitive as box body*
4,1,4,$2,$3,$4,$5,$6,$7,$8,$9,$2,$3,0*
0 Add four circle primitives for the rounded corners*
1,1,$1+$1,$2,$3*
1,1,$1+$1,$4,$5*
1,1,$1+$1,$6,$7*
1,1,$1+$1,$8,$9*
0 Add four rect primitives between the rounded corners*
20,1,$1+$1,$2,$3,$4,$5,0*
20,1,$1+$1,$4,$5,$6,$7,0*
20,1,$1+$1,$6,$7,$8,$9,0*
20,1,$1+$1,$8,$9,$2,$3,0*%
G04 Aperture macros list end*
%TA.AperFunction,SMDPad,CuDef*%
%ADD10R,1.500000X1.500000*%
%TD*%
%TA.AperFunction,SMDPad,CuDef*%
%ADD11RoundRect,0.250000X-0.012260X-0.728766X0.637260X-0.353766X0.012260X0.728766X-0.637260X0.353766X0*%
%TD*%
%TA.AperFunction,SMDPad,CuDef*%
%ADD12RoundRect,0.250000X0.637260X0.353766X-0.012260X0.728766X-0.637260X-0.353766X0.012260X-0.728766X0*%
%TD*%
%TA.AperFunction,SMDPad,CuDef*%
%ADD13RoundRect,0.250000X0.375000X0.625000X-0.375000X0.625000X-0.375000X-0.625000X0.375000X-0.625000X0*%
%TD*%
%TA.AperFunction,SMDPad,CuDef*%
%ADD14RoundRect,0.250000X-0.375000X-0.625000X0.375000X-0.625000X0.375000X0.625000X-0.375000X0.625000X0*%
%TD*%
%TA.AperFunction,SMDPad,CuDef*%
%ADD15RoundRect,0.250000X-0.643337X-0.342590X-0.000461X-0.728869X0.643337X0.342590X0.000461X0.728869X0*%
%TD*%
%TA.AperFunction,SMDPad,CuDef*%
%ADD16RoundRect,0.250000X0.012260X0.728766X-0.637260X0.353766X-0.012260X-0.728766X0.637260X-0.353766X0*%
%TD*%
%TA.AperFunction,ViaPad*%
%ADD17C,0.800000*%
%TD*%
%TA.AperFunction,Conductor*%
%ADD18C,0.250000*%
%TD*%
G04 APERTURE END LIST*
D10*
%TO.P,TP2,1,1*%
%TO.N,/GND*%
X136880599Y-91211399D03*
%TD*%
%TO.P,TP1,1,1*%
%TO.N,/GND*%
X136880599Y-74650599D03*
%TD*%
D11*
%TO.P,D6,1,K*%
%TO.N,/GND*%
X131375564Y-88126800D03*
%TO.P,D6,2,A*%
%TO.N,VCC*%
X133800436Y-86726800D03*
%TD*%
D12*
%TO.P,D5,1,K*%
%TO.N,/GND*%
X142385636Y-88228400D03*
%TO.P,D5,2,A*%
%TO.N,VCC*%
X139960764Y-86828400D03*
%TD*%
D13*
%TO.P,D4,2,A*%
%TO.N,VCC*%
X141348000Y-82931000D03*
%TO.P,D4,1,K*%
%TO.N,/GND*%
X144148000Y-82931000D03*
%TD*%
D14*
%TO.P,D3,1,K*%
%TO.N,/GND*%
X129689400Y-82880200D03*
%TO.P,D3,2,A*%
%TO.N,VCC*%
X132489400Y-82880200D03*
%TD*%
D15*
%TO.P,D2,2,A*%
%TO.N,VCC*%
X133661034Y-79384853D03*
%TO.P,D2,1,K*%
%TO.N,/GND*%
X131260966Y-77942747D03*
%TD*%
D16*
%TO.P,D1,2,A*%
%TO.N,VCC*%
X139884564Y-79262200D03*
%TO.P,D1,1,K*%
%TO.N,/GND*%
X142309436Y-77862200D03*
%TD*%
D17*
%TO.N,VCC*%
X137998200Y-82753200D03*
X135890000Y-82880200D03*
%TD*%
D18*
%TO.N,VCC*%
X141348000Y-82931000D02*
X141170200Y-82753200D01*
X141170200Y-82753200D02*
X137998200Y-82753200D01*
X141348000Y-82931000D02*
X141348000Y-85441164D01*
X141348000Y-85441164D02*
X139960764Y-86828400D01*
X141348000Y-80725636D02*
X139884564Y-79262200D01*
X141348000Y-82931000D02*
X141348000Y-80725636D01*
X138099800Y-82854800D02*
X137998200Y-82753200D01*
X132489400Y-82880200D02*
X135890000Y-82880200D01*
X132489400Y-85415764D02*
X133800436Y-86726800D01*
X132489400Y-82880200D02*
X132489400Y-85415764D01*
X132489400Y-80556487D02*
X132489400Y-82880200D01*
X133661034Y-79384853D02*
X132489400Y-80556487D01*
%TD*%
%TA.AperFunction,Conductor*%
%TO.N,/GND*%
G36*
X135674332Y-73450405D02*
G01*
X135720049Y-73500395D01*
X135732671Y-73566952D01*
X135708432Y-73630210D01*
X135692564Y-73651406D01*
X135684147Y-73666822D01*
X135639711Y-73785958D01*
X135636173Y-73800932D01*
X135630953Y-73849485D01*
X135630600Y-73856082D01*
X135630600Y-74384274D01*
X135634050Y-74397149D01*
X135646926Y-74400600D01*
X138114274Y-74400600D01*
X138127149Y-74397149D01*
X138130600Y-74384274D01*
X138130600Y-73856082D01*
X138130246Y-73849485D01*
X138125026Y-73800932D01*
X138121488Y-73785958D01*
X138077052Y-73666822D01*
X138068635Y-73651406D01*
X138052768Y-73630210D01*
X138028529Y-73566952D01*
X138041151Y-73500395D01*
X138086868Y-73450405D01*
X138152035Y-73431900D01*
X141375630Y-73431900D01*
X141423083Y-73441339D01*
X141463311Y-73468219D01*
X146445481Y-78450388D01*
X146472361Y-78490616D01*
X146481800Y-78538069D01*
X146481800Y-87224478D01*
X146472827Y-87270789D01*
X146447208Y-87310396D01*
X146148762Y-87620962D01*
X142747213Y-91160642D01*
X142745486Y-91162404D01*
X141463311Y-92444581D01*
X141423083Y-92471461D01*
X141375630Y-92480900D01*
X141302738Y-92480900D01*
X141302385Y-92480899D01*
X138120438Y-92471833D01*
X138055398Y-92453190D01*
X138009828Y-92403179D01*
X137997293Y-92336692D01*
X138021525Y-92273522D01*
X138068637Y-92210589D01*
X138077052Y-92195177D01*
X138121488Y-92076041D01*
X138125026Y-92061067D01*
X138130246Y-92012514D01*
X138130600Y-92005918D01*
X138130600Y-91477726D01*
X138127149Y-91464850D01*
X138114274Y-91461400D01*
X135646926Y-91461400D01*
X135634050Y-91464850D01*
X135630600Y-91477726D01*
X135630600Y-92005918D01*
X135630953Y-92012514D01*
X135636173Y-92061067D01*
X135639711Y-92076041D01*
X135684147Y-92195177D01*
X135692564Y-92210593D01*
X135734373Y-92266443D01*
X135758620Y-92329789D01*
X135745911Y-92396415D01*
X135700047Y-92446387D01*
X135634753Y-92464752D01*
X132613212Y-92456144D01*
X132566380Y-92446817D01*
X132526545Y-92420483D01*
X131569504Y-91477726D01*
X131028781Y-90945074D01*
X135630600Y-90945074D01*
X135634050Y-90957949D01*
X135646926Y-90961400D01*
X136614274Y-90961400D01*
X136627149Y-90957949D01*
X136630600Y-90945074D01*
X137130600Y-90945074D01*
X137134050Y-90957949D01*
X137146926Y-90961400D01*
X138114274Y-90961400D01*
X138127149Y-90957949D01*
X138130600Y-90945074D01*
X138130600Y-90416882D01*
X138130246Y-90410285D01*
X138125026Y-90361732D01*
X138121488Y-90346758D01*
X138077052Y-90227622D01*
X138068637Y-90212210D01*
X137993101Y-90111307D01*
X137980692Y-90098898D01*
X137879789Y-90023362D01*
X137864377Y-90014947D01*
X137745241Y-89970511D01*
X137730267Y-89966973D01*
X137681714Y-89961753D01*
X137675118Y-89961400D01*
X137146926Y-89961400D01*
X137134050Y-89964850D01*
X137130600Y-89977726D01*
X137130600Y-90945074D01*
X136630600Y-90945074D01*
X136630600Y-89977726D01*
X136627149Y-89964850D01*
X136614274Y-89961400D01*
X136086082Y-89961400D01*
X136079485Y-89961753D01*
X136030932Y-89966973D01*
X136015958Y-89970511D01*
X135896822Y-90014947D01*
X135881410Y-90023362D01*
X135780507Y-90098898D01*
X135768098Y-90111307D01*
X135692562Y-90212210D01*
X135684147Y-90227622D01*
X135639711Y-90346758D01*
X135636173Y-90361732D01*
X135630953Y-90410285D01*
X135630600Y-90416882D01*
X135630600Y-90945074D01*
X131028781Y-90945074D01*
X129206607Y-89150097D01*
X129206147Y-89149639D01*
X128436295Y-88379787D01*
X130226039Y-88379787D01*
X130229027Y-88390939D01*
X130737191Y-89271105D01*
X130740627Y-89276413D01*
X130795259Y-89352071D01*
X130804275Y-89362055D01*
X130924798Y-89469311D01*
X130936552Y-89477541D01*
X131078156Y-89553893D01*
X131091492Y-89559191D01*
X131111783Y-89564628D01*
X131123012Y-89564996D01*
X131125564Y-89554054D01*
X131125564Y-89545720D01*
X131625564Y-89545720D01*
X131628398Y-89556862D01*
X131639727Y-89554885D01*
X131692137Y-89531367D01*
X131697756Y-89528494D01*
X132428377Y-89106669D01*
X132433654Y-89103254D01*
X132509324Y-89048613D01*
X132519319Y-89039587D01*
X132626567Y-88919072D01*
X132634796Y-88907320D01*
X132711154Y-88765708D01*
X132716448Y-88752381D01*
X132758087Y-88596983D01*
X132760167Y-88582784D01*
X132761890Y-88523572D01*
X140996353Y-88523572D01*
X141001032Y-88684384D01*
X141003112Y-88698583D01*
X141044751Y-88853981D01*
X141050045Y-88867308D01*
X141126403Y-89008920D01*
X141134632Y-89020672D01*
X141241884Y-89141191D01*
X141251871Y-89150210D01*
X141327527Y-89204842D01*
X141332835Y-89208278D01*
X142063443Y-89630094D01*
X142069056Y-89632964D01*
X142121473Y-89656485D01*
X142132801Y-89658462D01*
X142133515Y-89655654D01*
X142635636Y-89655654D01*
X142638187Y-89666596D01*
X142649416Y-89666228D01*
X142669707Y-89660791D01*
X142683043Y-89655493D01*
X142824647Y-89579141D01*
X142836401Y-89570911D01*
X142956924Y-89463655D01*
X142965940Y-89453670D01*
X143020572Y-89378014D01*
X143024008Y-89372706D01*
X143532172Y-88492539D01*
X143535160Y-88481387D01*
X143524010Y-88478400D01*
X142651962Y-88478400D01*
X142639086Y-88481850D01*
X142635636Y-88494726D01*
X142635636Y-89655654D01*
X142133515Y-89655654D01*
X142135636Y-89647320D01*
X142135636Y-88494726D01*
X142132185Y-88481850D01*
X142119310Y-88478400D01*
X141018171Y-88478400D01*
X141006235Y-88481167D01*
X141001111Y-88492296D01*
X140997604Y-88509280D01*
X140996353Y-88523572D01*
X132761890Y-88523572D01*
X132764846Y-88421972D01*
X132763595Y-88407680D01*
X132760088Y-88390696D01*
X132754964Y-88379567D01*
X132743029Y-88376800D01*
X131641890Y-88376800D01*
X131629014Y-88380250D01*
X131625564Y-88393126D01*
X131625564Y-89545720D01*
X131125564Y-89545720D01*
X131125564Y-88393126D01*
X131122113Y-88380250D01*
X131109238Y-88376800D01*
X130237190Y-88376800D01*
X130226039Y-88379787D01*
X128436295Y-88379787D01*
X127888135Y-87831627D01*
X129986281Y-87831627D01*
X129987532Y-87845919D01*
X129991039Y-87862903D01*
X129996163Y-87874032D01*
X130008099Y-87876800D01*
X131109238Y-87876800D01*
X131122113Y-87873349D01*
X131125564Y-87860474D01*
X131625564Y-87860474D01*
X131629014Y-87873349D01*
X131641890Y-87876800D01*
X132513938Y-87876800D01*
X132525088Y-87873812D01*
X132522100Y-87862660D01*
X132013936Y-86982494D01*
X132010500Y-86977186D01*
X131955868Y-86901528D01*
X131946852Y-86891544D01*
X131826329Y-86784288D01*
X131814575Y-86776058D01*
X131672971Y-86699706D01*
X131659635Y-86694408D01*
X131639344Y-86688971D01*
X131628115Y-86688603D01*
X131625564Y-86699546D01*
X131625564Y-87860474D01*
X131125564Y-87860474D01*
X131125564Y-86707880D01*
X131122729Y-86696737D01*
X131111400Y-86698714D01*
X131058990Y-86722232D01*
X131053371Y-86725105D01*
X130322750Y-87146930D01*
X130317473Y-87150345D01*
X130241803Y-87204986D01*
X130231808Y-87214012D01*
X130124560Y-87334527D01*
X130116331Y-87346279D01*
X130039973Y-87487891D01*
X130034679Y-87501218D01*
X129993040Y-87656616D01*
X129990960Y-87670815D01*
X129986281Y-87831627D01*
X127888135Y-87831627D01*
X127494384Y-87437876D01*
X127467240Y-87397005D01*
X127458073Y-87348809D01*
X127458908Y-87274400D01*
X127500615Y-83552029D01*
X128564401Y-83552029D01*
X128564721Y-83558311D01*
X128574205Y-83651159D01*
X128577023Y-83664322D01*
X128627770Y-83817467D01*
X128633832Y-83830466D01*
X128718290Y-83967394D01*
X128727194Y-83978655D01*
X128840944Y-84092405D01*
X128852205Y-84101309D01*
X128989133Y-84185767D01*
X129002132Y-84191829D01*
X129155274Y-84242575D01*
X129168441Y-84245394D01*
X129261290Y-84254880D01*
X129267568Y-84255200D01*
X129423074Y-84255200D01*
X129435949Y-84251749D01*
X129439400Y-84238874D01*
X129439400Y-84238873D01*
X129939400Y-84238873D01*
X129942850Y-84251748D01*
X129955726Y-84255199D01*
X130111229Y-84255199D01*
X130117511Y-84254878D01*
X130210359Y-84245394D01*
X130223522Y-84242576D01*
X130376667Y-84191829D01*
X130389666Y-84185767D01*
X130526594Y-84101309D01*
X130537855Y-84092405D01*
X130651605Y-83978655D01*
X130660509Y-83967394D01*
X130744967Y-83830466D01*
X130751029Y-83817467D01*
X130801775Y-83664325D01*
X130804594Y-83651158D01*
X130814080Y-83558309D01*
X130814398Y-83552078D01*
X131363900Y-83552078D01*
X131363901Y-83555208D01*
X131364220Y-83558340D01*
X131364221Y-83558341D01*
X131373712Y-83651261D01*
X131373713Y-83651269D01*
X131374401Y-83657997D01*
X131376529Y-83664419D01*
X131376530Y-83664423D01*
X131414612Y-83779347D01*
X131429586Y-83824534D01*
X131433377Y-83830680D01*
X131517897Y-83967711D01*
X131517900Y-83967715D01*
X131521688Y-83973856D01*
X131645744Y-84097912D01*
X131651885Y-84101700D01*
X131651888Y-84101702D01*
X131700788Y-84131863D01*
X131794259Y-84189516D01*
X131795066Y-84190014D01*
X131794982Y-84190150D01*
X131844479Y-84233556D01*
X131863900Y-84300183D01*
X131863900Y-85337989D01*
X131863378Y-85349044D01*
X131861727Y-85356431D01*
X131861971Y-85364217D01*
X131861971Y-85364225D01*
X131863839Y-85423637D01*
X131863900Y-85427532D01*
X131863900Y-85455114D01*
X131864388Y-85458983D01*
X131864389Y-85458989D01*
X131864404Y-85459107D01*
X131865318Y-85470730D01*
X131866445Y-85506594D01*
X131866446Y-85506601D01*
X131866691Y-85514391D01*
X131868867Y-85521883D01*
X131868868Y-85521885D01*
X131872279Y-85533626D01*
X131876225Y-85552679D01*
X131878736Y-85572556D01*
X131881606Y-85579806D01*
X131881608Y-85579812D01*
X131894814Y-85613168D01*
X131898597Y-85624215D01*
X131910782Y-85666154D01*
X131914753Y-85672869D01*
X131914754Y-85672871D01*
X131920981Y-85683401D01*
X131929536Y-85700863D01*
X131934042Y-85712244D01*
X131934043Y-85712247D01*
X131936914Y-85719496D01*
X131958840Y-85749676D01*
X131962581Y-85754824D01*
X131968993Y-85764586D01*
X131987256Y-85795466D01*
X131987259Y-85795471D01*
X131991230Y-85802184D01*
X131996745Y-85807699D01*
X132005390Y-85816344D01*
X132018026Y-85831138D01*
X132025219Y-85841039D01*
X132025223Y-85841043D01*
X132029806Y-85847351D01*
X132035815Y-85852322D01*
X132035816Y-85852323D01*
X132063458Y-85875190D01*
X132072099Y-85883053D01*
X132378769Y-86189724D01*
X132406327Y-86231623D01*
X132415036Y-86281011D01*
X132410652Y-86431672D01*
X132410652Y-86431680D01*
X132410443Y-86438890D01*
X132411902Y-86445958D01*
X132411903Y-86445964D01*
X132429931Y-86533273D01*
X132445920Y-86610708D01*
X132488220Y-86704975D01*
X132489798Y-86707709D01*
X132489799Y-86707710D01*
X133156750Y-87862903D01*
X133163229Y-87874124D01*
X133223717Y-87957891D01*
X133354777Y-88074524D01*
X133361129Y-88077949D01*
X133361132Y-88077951D01*
X133458630Y-88130522D01*
X133509201Y-88157790D01*
X133632545Y-88190840D01*
X133671688Y-88201329D01*
X133671689Y-88201329D01*
X133678664Y-88203198D01*
X133854032Y-88208299D01*
X134025850Y-88172822D01*
X134120117Y-88130522D01*
X134856253Y-87705513D01*
X134940021Y-87645025D01*
X135056654Y-87513965D01*
X135139920Y-87359542D01*
X135185327Y-87190078D01*
X135190429Y-87014710D01*
X135154952Y-86842892D01*
X135112652Y-86748625D01*
X134437643Y-85579476D01*
X134377155Y-85495709D01*
X134246095Y-85379076D01*
X134239744Y-85375651D01*
X134239739Y-85375648D01*
X134098026Y-85299236D01*
X134098021Y-85299234D01*
X134091671Y-85295810D01*
X134084696Y-85293941D01*
X133929183Y-85252270D01*
X133929175Y-85252268D01*
X133922208Y-85250402D01*
X133914990Y-85250192D01*
X133754057Y-85245510D01*
X133754049Y-85245510D01*
X133746840Y-85245301D01*
X133739772Y-85246760D01*
X133739765Y-85246761D01*
X133581650Y-85279409D01*
X133581646Y-85279410D01*
X133575022Y-85280778D01*
X133568854Y-85283545D01*
X133568847Y-85283548D01*
X133483635Y-85321785D01*
X133483624Y-85321790D01*
X133480755Y-85323078D01*
X133478034Y-85324648D01*
X133478024Y-85324654D01*
X133436708Y-85348508D01*
X133385516Y-85364648D01*
X133332298Y-85357642D01*
X133287028Y-85328801D01*
X133151219Y-85192992D01*
X133124339Y-85152764D01*
X133114900Y-85105311D01*
X133114900Y-84300183D01*
X133134321Y-84233556D01*
X133183817Y-84190150D01*
X133183734Y-84190014D01*
X133183733Y-84190014D01*
X133333056Y-84097912D01*
X133457112Y-83973856D01*
X133549214Y-83824534D01*
X133604399Y-83657997D01*
X133608577Y-83617096D01*
X133629000Y-83560560D01*
X133673614Y-83520271D01*
X133731935Y-83505700D01*
X135186252Y-83505700D01*
X135236685Y-83516419D01*
X135274781Y-83544095D01*
X135274950Y-83543909D01*
X135276728Y-83545510D01*
X135278398Y-83546723D01*
X135284129Y-83553088D01*
X135437270Y-83664351D01*
X135610197Y-83741344D01*
X135795354Y-83780700D01*
X135978143Y-83780700D01*
X135984646Y-83780700D01*
X136169803Y-83741344D01*
X136342730Y-83664351D01*
X136495871Y-83553088D01*
X136622533Y-83412416D01*
X136717179Y-83248484D01*
X136775674Y-83068456D01*
X136795460Y-82880200D01*
X136782112Y-82753200D01*
X137092740Y-82753200D01*
X137093419Y-82759660D01*
X137111846Y-82934995D01*
X137111847Y-82935003D01*
X137112526Y-82941456D01*
X137114531Y-82947628D01*
X137114533Y-82947635D01*
X137169013Y-83115305D01*
X137171021Y-83121484D01*
X137174268Y-83127108D01*
X137174269Y-83127110D01*
X137247592Y-83254110D01*
X137265667Y-83285416D01*
X137270011Y-83290241D01*
X137270013Y-83290243D01*
X137384064Y-83416909D01*
X137392329Y-83426088D01*
X137545470Y-83537351D01*
X137718397Y-83614344D01*
X137903554Y-83653700D01*
X138086343Y-83653700D01*
X138092846Y-83653700D01*
X138278003Y-83614344D01*
X138450930Y-83537351D01*
X138604071Y-83426088D01*
X138609801Y-83419723D01*
X138611471Y-83418510D01*
X138613250Y-83416909D01*
X138613418Y-83417095D01*
X138651515Y-83389419D01*
X138701948Y-83378700D01*
X140098501Y-83378700D01*
X140160501Y-83395313D01*
X140205888Y-83440700D01*
X140222501Y-83502700D01*
X140222501Y-83606008D01*
X140222820Y-83609140D01*
X140222821Y-83609141D01*
X140232312Y-83702061D01*
X140232313Y-83702069D01*
X140233001Y-83708797D01*
X140235129Y-83715219D01*
X140235130Y-83715223D01*
X140273318Y-83830466D01*
X140288186Y-83875334D01*
X140291977Y-83881480D01*
X140376497Y-84018511D01*
X140376500Y-84018515D01*
X140380288Y-84024656D01*
X140504344Y-84148712D01*
X140510485Y-84152500D01*
X140510488Y-84152502D01*
X140559388Y-84182663D01*
X140652859Y-84240316D01*
X140653666Y-84240814D01*
X140653582Y-84240950D01*
X140703079Y-84284356D01*
X140722500Y-84350983D01*
X140722500Y-85130712D01*
X140713061Y-85178165D01*
X140686183Y-85218390D01*
X140525497Y-85379076D01*
X140474171Y-85430402D01*
X140428901Y-85459242D01*
X140375684Y-85466248D01*
X140324491Y-85450108D01*
X140283174Y-85426254D01*
X140283173Y-85426253D01*
X140280446Y-85424679D01*
X140251458Y-85411671D01*
X140192356Y-85385150D01*
X140192353Y-85385149D01*
X140186178Y-85382378D01*
X140179545Y-85381008D01*
X140179544Y-85381008D01*
X140021434Y-85348361D01*
X140021428Y-85348360D01*
X140014360Y-85346901D01*
X140007150Y-85347110D01*
X140007142Y-85347110D01*
X139846209Y-85351792D01*
X139846208Y-85351792D01*
X139838992Y-85352002D01*
X139832026Y-85353868D01*
X139832016Y-85353870D01*
X139676503Y-85395541D01*
X139676500Y-85395541D01*
X139669529Y-85397410D01*
X139663181Y-85400832D01*
X139663173Y-85400836D01*
X139521460Y-85477248D01*
X139521451Y-85477253D01*
X139515105Y-85480676D01*
X139509712Y-85485474D01*
X139509708Y-85485478D01*
X139389102Y-85592808D01*
X139389098Y-85592811D01*
X139384045Y-85597309D01*
X139380085Y-85602792D01*
X139380083Y-85602795D01*
X139325409Y-85678509D01*
X139325400Y-85678521D01*
X139323557Y-85681075D01*
X139321981Y-85683804D01*
X139321973Y-85683817D01*
X138650127Y-86847490D01*
X138650118Y-86847505D01*
X138648549Y-86850225D01*
X138647261Y-86853094D01*
X138647257Y-86853103D01*
X138625527Y-86901528D01*
X138606248Y-86944492D01*
X138604879Y-86951121D01*
X138604878Y-86951125D01*
X138572231Y-87109235D01*
X138572230Y-87109242D01*
X138570771Y-87116310D01*
X138570980Y-87123518D01*
X138570980Y-87123527D01*
X138575662Y-87284457D01*
X138575663Y-87284464D01*
X138575873Y-87291678D01*
X138577741Y-87298650D01*
X138577742Y-87298656D01*
X138619410Y-87454165D01*
X138619411Y-87454169D01*
X138621280Y-87461142D01*
X138624709Y-87467501D01*
X138701116Y-87609205D01*
X138701118Y-87609208D01*
X138704546Y-87615565D01*
X138821179Y-87746625D01*
X138904945Y-87807113D01*
X139641082Y-88232121D01*
X139735350Y-88274422D01*
X139907168Y-88309899D01*
X140082536Y-88304798D01*
X140251999Y-88259390D01*
X140406423Y-88176124D01*
X140537483Y-88059491D01*
X140597971Y-87975725D01*
X140598152Y-87975412D01*
X141236111Y-87975412D01*
X141247262Y-87978400D01*
X142119310Y-87978400D01*
X142132185Y-87974949D01*
X142135636Y-87962074D01*
X142635636Y-87962074D01*
X142639086Y-87974949D01*
X142651962Y-87978400D01*
X143753101Y-87978400D01*
X143765036Y-87975632D01*
X143770160Y-87964503D01*
X143773667Y-87947519D01*
X143774918Y-87933227D01*
X143770239Y-87772415D01*
X143768159Y-87758216D01*
X143726520Y-87602818D01*
X143721226Y-87589491D01*
X143644868Y-87447879D01*
X143636639Y-87436127D01*
X143529387Y-87315608D01*
X143519400Y-87306589D01*
X143443744Y-87251957D01*
X143438436Y-87248521D01*
X142707828Y-86826705D01*
X142702215Y-86823835D01*
X142649798Y-86800314D01*
X142638470Y-86798337D01*
X142635636Y-86809480D01*
X142635636Y-87962074D01*
X142135636Y-87962074D01*
X142135636Y-86801146D01*
X142133084Y-86790203D01*
X142121855Y-86790571D01*
X142101564Y-86796008D01*
X142088228Y-86801306D01*
X141946624Y-86877658D01*
X141934870Y-86885888D01*
X141814347Y-86993144D01*
X141805331Y-87003129D01*
X141750699Y-87078785D01*
X141747263Y-87084093D01*
X141239099Y-87964260D01*
X141236111Y-87975412D01*
X140598152Y-87975412D01*
X141272979Y-86806575D01*
X141315280Y-86712308D01*
X141350757Y-86540490D01*
X141346163Y-86382607D01*
X141354872Y-86333222D01*
X141382428Y-86291325D01*
X141735311Y-85938442D01*
X141743481Y-85931008D01*
X141749877Y-85926950D01*
X141795918Y-85877920D01*
X141798535Y-85875218D01*
X141818120Y-85855635D01*
X141820585Y-85852456D01*
X141828167Y-85843580D01*
X141830553Y-85841039D01*
X141858062Y-85811746D01*
X141867713Y-85794187D01*
X141878390Y-85777934D01*
X141890673Y-85762100D01*
X141908026Y-85721996D01*
X141913158Y-85711525D01*
X141930435Y-85680099D01*
X141930435Y-85680098D01*
X141934197Y-85673256D01*
X141939177Y-85653855D01*
X141945481Y-85635445D01*
X141950341Y-85624215D01*
X141953438Y-85617060D01*
X141960272Y-85573905D01*
X141962638Y-85562485D01*
X141971560Y-85527738D01*
X141973500Y-85520183D01*
X141973500Y-85500147D01*
X141975025Y-85480761D01*
X141978160Y-85460968D01*
X141974050Y-85417488D01*
X141973500Y-85405819D01*
X141973500Y-84350983D01*
X141992921Y-84284356D01*
X142042417Y-84240950D01*
X142042334Y-84240814D01*
X142042334Y-84240813D01*
X142191656Y-84148712D01*
X142315712Y-84024656D01*
X142407814Y-83875334D01*
X142462999Y-83708797D01*
X142473500Y-83606009D01*
X142473500Y-83602829D01*
X143023001Y-83602829D01*
X143023321Y-83609111D01*
X143032805Y-83701959D01*
X143035623Y-83715122D01*
X143086370Y-83868267D01*
X143092432Y-83881266D01*
X143176890Y-84018194D01*
X143185794Y-84029455D01*
X143299544Y-84143205D01*
X143310805Y-84152109D01*
X143447733Y-84236567D01*
X143460732Y-84242629D01*
X143613874Y-84293375D01*
X143627041Y-84296194D01*
X143719890Y-84305680D01*
X143726168Y-84306000D01*
X143881674Y-84306000D01*
X143894549Y-84302549D01*
X143898000Y-84289674D01*
X143898000Y-84289673D01*
X144398000Y-84289673D01*
X144401450Y-84302548D01*
X144414326Y-84305999D01*
X144569829Y-84305999D01*
X144576111Y-84305678D01*
X144668959Y-84296194D01*
X144682122Y-84293376D01*
X144835267Y-84242629D01*
X144848266Y-84236567D01*
X144985194Y-84152109D01*
X144996455Y-84143205D01*
X145110205Y-84029455D01*
X145119109Y-84018194D01*
X145203567Y-83881266D01*
X145209629Y-83868267D01*
X145260375Y-83715125D01*
X145263194Y-83701958D01*
X145272680Y-83609109D01*
X145273000Y-83602832D01*
X145273000Y-83197326D01*
X145269549Y-83184450D01*
X145256674Y-83181000D01*
X144414326Y-83181000D01*
X144401450Y-83184450D01*
X144398000Y-83197326D01*
X144398000Y-84289673D01*
X143898000Y-84289673D01*
X143898000Y-83197326D01*
X143894549Y-83184450D01*
X143881674Y-83181000D01*
X143039327Y-83181000D01*
X143026451Y-83184450D01*
X143023001Y-83197326D01*
X143023001Y-83602829D01*
X142473500Y-83602829D01*
X142473499Y-82664674D01*
X143023000Y-82664674D01*
X143026450Y-82677549D01*
X143039326Y-82681000D01*
X143881674Y-82681000D01*
X143894549Y-82677549D01*
X143898000Y-82664674D01*
X144398000Y-82664674D01*
X144401450Y-82677549D01*
X144414326Y-82681000D01*
X145256673Y-82681000D01*
X145269548Y-82677549D01*
X145272999Y-82664674D01*
X145272999Y-82259171D01*
X145272678Y-82252888D01*
X145263194Y-82160040D01*
X145260376Y-82146877D01*
X145209629Y-81993732D01*
X145203567Y-81980733D01*
X145119109Y-81843805D01*
X145110205Y-81832544D01*
X144996455Y-81718794D01*
X144985194Y-81709890D01*
X144848266Y-81625432D01*
X144835267Y-81619370D01*
X144682125Y-81568624D01*
X144668958Y-81565805D01*
X144576109Y-81556319D01*
X144569832Y-81556000D01*
X144414326Y-81556000D01*
X144401450Y-81559450D01*
X144398000Y-81572326D01*
X144398000Y-82664674D01*
X143898000Y-82664674D01*
X143898000Y-81572327D01*
X143894549Y-81559451D01*
X143881674Y-81556001D01*
X143726171Y-81556001D01*
X143719888Y-81556321D01*
X143627040Y-81565805D01*
X143613877Y-81568623D01*
X143460732Y-81619370D01*
X143447733Y-81625432D01*
X143310805Y-81709890D01*
X143299544Y-81718794D01*
X143185794Y-81832544D01*
X143176890Y-81843805D01*
X143092432Y-81980733D01*
X143086370Y-81993732D01*
X143035624Y-82146874D01*
X143032805Y-82160041D01*
X143023319Y-82252890D01*
X143023000Y-82259168D01*
X143023000Y-82664674D01*
X142473499Y-82664674D01*
X142473499Y-82255992D01*
X142462999Y-82153203D01*
X142407814Y-81986666D01*
X142325184Y-81852700D01*
X142319502Y-81843488D01*
X142319500Y-81843485D01*
X142315712Y-81837344D01*
X142191656Y-81713288D01*
X142185515Y-81709500D01*
X142185511Y-81709497D01*
X142086368Y-81648346D01*
X142042334Y-81621186D01*
X142042334Y-81621185D01*
X142042417Y-81621049D01*
X141992921Y-81577644D01*
X141973500Y-81511017D01*
X141973500Y-80803408D01*
X141974020Y-80792355D01*
X141975672Y-80784969D01*
X141973561Y-80717781D01*
X141973500Y-80713887D01*
X141973500Y-80690181D01*
X141973500Y-80686286D01*
X141972998Y-80682317D01*
X141972080Y-80670660D01*
X141971931Y-80665922D01*
X141970709Y-80627009D01*
X141965120Y-80607776D01*
X141961174Y-80588719D01*
X141960093Y-80580163D01*
X141958664Y-80568844D01*
X141942582Y-80528227D01*
X141938803Y-80517187D01*
X141928795Y-80482738D01*
X141928793Y-80482735D01*
X141926618Y-80475246D01*
X141916417Y-80457996D01*
X141907863Y-80440537D01*
X141900486Y-80421904D01*
X141874808Y-80386561D01*
X141868401Y-80376807D01*
X141850142Y-80345932D01*
X141850141Y-80345930D01*
X141846170Y-80339216D01*
X141832004Y-80325050D01*
X141819370Y-80310258D01*
X141807594Y-80294049D01*
X141801583Y-80289076D01*
X141801581Y-80289074D01*
X141773941Y-80266209D01*
X141765300Y-80258346D01*
X141306230Y-79799275D01*
X141278672Y-79757375D01*
X141269963Y-79707991D01*
X141274557Y-79550110D01*
X141239080Y-79378292D01*
X141196780Y-79284025D01*
X140521951Y-78115187D01*
X141159911Y-78115187D01*
X141162899Y-78126339D01*
X141671063Y-79006505D01*
X141674499Y-79011813D01*
X141729131Y-79087471D01*
X141738147Y-79097455D01*
X141858670Y-79204711D01*
X141870424Y-79212941D01*
X142012028Y-79289293D01*
X142025364Y-79294591D01*
X142045655Y-79300028D01*
X142056884Y-79300396D01*
X142059436Y-79289454D01*
X142059436Y-79281120D01*
X142559436Y-79281120D01*
X142562270Y-79292262D01*
X142573599Y-79290285D01*
X142626009Y-79266767D01*
X142631628Y-79263894D01*
X143362249Y-78842069D01*
X143367526Y-78838654D01*
X143443196Y-78784013D01*
X143453191Y-78774987D01*
X143560439Y-78654472D01*
X143568668Y-78642720D01*
X143645026Y-78501108D01*
X143650320Y-78487781D01*
X143691959Y-78332383D01*
X143694039Y-78318184D01*
X143698718Y-78157372D01*
X143697467Y-78143080D01*
X143693960Y-78126096D01*
X143688836Y-78114967D01*
X143676901Y-78112200D01*
X142575762Y-78112200D01*
X142562886Y-78115650D01*
X142559436Y-78128526D01*
X142559436Y-79281120D01*
X142059436Y-79281120D01*
X142059436Y-78128526D01*
X142055985Y-78115650D01*
X142043110Y-78112200D01*
X141171062Y-78112200D01*
X141159911Y-78115187D01*
X140521951Y-78115187D01*
X140521771Y-78114876D01*
X140461283Y-78031109D01*
X140330223Y-77914476D01*
X140323872Y-77911051D01*
X140323867Y-77911048D01*
X140182154Y-77834636D01*
X140182149Y-77834634D01*
X140175799Y-77831210D01*
X140168824Y-77829341D01*
X140013311Y-77787670D01*
X140013303Y-77787668D01*
X140006336Y-77785802D01*
X139999118Y-77785592D01*
X139838185Y-77780910D01*
X139838177Y-77780910D01*
X139830968Y-77780701D01*
X139823900Y-77782160D01*
X139823893Y-77782161D01*
X139665778Y-77814809D01*
X139665774Y-77814810D01*
X139659150Y-77816178D01*
X139652982Y-77818945D01*
X139652975Y-77818948D01*
X139567766Y-77857184D01*
X139567760Y-77857186D01*
X139564883Y-77858478D01*
X139562156Y-77860052D01*
X139562147Y-77860057D01*
X138831474Y-78281912D01*
X138831465Y-78281917D01*
X138828747Y-78283487D01*
X138826214Y-78285315D01*
X138826197Y-78285327D01*
X138750469Y-78340010D01*
X138750464Y-78340013D01*
X138744979Y-78343975D01*
X138740475Y-78349035D01*
X138740474Y-78349037D01*
X138633149Y-78469637D01*
X138633146Y-78469641D01*
X138628346Y-78475035D01*
X138624921Y-78481386D01*
X138624916Y-78481394D01*
X138553278Y-78614254D01*
X138545080Y-78629458D01*
X138543212Y-78636427D01*
X138543210Y-78636434D01*
X138501542Y-78791943D01*
X138501540Y-78791951D01*
X138499673Y-78798922D01*
X138499463Y-78806133D01*
X138499462Y-78806142D01*
X138494780Y-78967072D01*
X138494780Y-78967080D01*
X138494571Y-78974290D01*
X138496030Y-78981358D01*
X138496031Y-78981364D01*
X138528679Y-79139479D01*
X138530048Y-79146108D01*
X138532816Y-79152278D01*
X138532818Y-79152282D01*
X138548752Y-79187790D01*
X138572348Y-79240375D01*
X138573926Y-79243109D01*
X138573927Y-79243110D01*
X139235098Y-80388292D01*
X139247357Y-80409524D01*
X139249207Y-80412086D01*
X139249209Y-80412089D01*
X139257614Y-80423728D01*
X139307845Y-80493291D01*
X139438905Y-80609924D01*
X139445257Y-80613349D01*
X139445260Y-80613351D01*
X139580525Y-80686286D01*
X139593329Y-80693190D01*
X139716673Y-80726240D01*
X139755816Y-80736729D01*
X139755817Y-80736729D01*
X139762792Y-80738598D01*
X139938160Y-80743699D01*
X140109978Y-80708222D01*
X140204245Y-80665922D01*
X140248293Y-80640490D01*
X140299482Y-80624351D01*
X140352700Y-80631357D01*
X140397971Y-80660198D01*
X140686181Y-80948408D01*
X140713061Y-80988636D01*
X140722500Y-81036089D01*
X140722500Y-81511017D01*
X140703079Y-81577644D01*
X140653582Y-81621049D01*
X140653666Y-81621186D01*
X140652859Y-81621683D01*
X140652856Y-81621685D01*
X140647518Y-81624977D01*
X140647516Y-81624979D01*
X140510488Y-81709497D01*
X140510480Y-81709503D01*
X140504344Y-81713288D01*
X140499242Y-81718389D01*
X140499238Y-81718393D01*
X140385393Y-81832238D01*
X140385389Y-81832242D01*
X140380288Y-81837344D01*
X140376503Y-81843480D01*
X140376497Y-81843488D01*
X140291977Y-81980519D01*
X140288186Y-81986666D01*
X140285916Y-81993513D01*
X140285914Y-81993520D01*
X140269617Y-82042704D01*
X140243738Y-82087029D01*
X140202127Y-82117077D01*
X140151911Y-82127700D01*
X138701948Y-82127700D01*
X138651515Y-82116981D01*
X138613418Y-82089304D01*
X138613250Y-82089491D01*
X138611471Y-82087889D01*
X138609801Y-82086676D01*
X138604071Y-82080312D01*
X138598813Y-82076492D01*
X138598811Y-82076490D01*
X138456188Y-81972869D01*
X138456187Y-81972868D01*
X138450930Y-81969049D01*
X138444992Y-81966405D01*
X138283945Y-81894701D01*
X138283940Y-81894699D01*
X138278003Y-81892056D01*
X138271644Y-81890704D01*
X138271640Y-81890703D01*
X138099208Y-81854052D01*
X138099205Y-81854051D01*
X138092846Y-81852700D01*
X137903554Y-81852700D01*
X137897195Y-81854051D01*
X137897191Y-81854052D01*
X137724759Y-81890703D01*
X137724752Y-81890705D01*
X137718397Y-81892056D01*
X137712462Y-81894698D01*
X137712454Y-81894701D01*
X137551407Y-81966405D01*
X137551402Y-81966407D01*
X137545470Y-81969049D01*
X137540216Y-81972865D01*
X137540211Y-81972869D01*
X137397588Y-82076490D01*
X137397581Y-82076495D01*
X137392329Y-82080312D01*
X137387984Y-82085137D01*
X137387979Y-82085142D01*
X137270013Y-82216156D01*
X137270008Y-82216162D01*
X137265667Y-82220984D01*
X137262422Y-82226604D01*
X137262418Y-82226610D01*
X137174269Y-82379289D01*
X137174266Y-82379294D01*
X137171021Y-82384916D01*
X137169015Y-82391088D01*
X137169013Y-82391094D01*
X137114533Y-82558764D01*
X137114531Y-82558773D01*
X137112526Y-82564944D01*
X137111848Y-82571394D01*
X137111846Y-82571404D01*
X137099178Y-82691944D01*
X137092740Y-82753200D01*
X136782112Y-82753200D01*
X136775674Y-82691944D01*
X136717179Y-82511916D01*
X136622533Y-82347984D01*
X136542562Y-82259168D01*
X136500220Y-82212142D01*
X136500219Y-82212141D01*
X136495871Y-82207312D01*
X136490613Y-82203492D01*
X136490611Y-82203490D01*
X136347988Y-82099869D01*
X136347987Y-82099868D01*
X136342730Y-82096049D01*
X136324403Y-82087889D01*
X136175745Y-82021701D01*
X136175740Y-82021699D01*
X136169803Y-82019056D01*
X136163444Y-82017704D01*
X136163440Y-82017703D01*
X135991008Y-81981052D01*
X135991005Y-81981051D01*
X135984646Y-81979700D01*
X135795354Y-81979700D01*
X135788995Y-81981051D01*
X135788991Y-81981052D01*
X135616559Y-82017703D01*
X135616552Y-82017705D01*
X135610197Y-82019056D01*
X135604262Y-82021698D01*
X135604254Y-82021701D01*
X135443207Y-82093405D01*
X135443202Y-82093407D01*
X135437270Y-82096049D01*
X135432016Y-82099865D01*
X135432011Y-82099869D01*
X135289388Y-82203490D01*
X135289381Y-82203495D01*
X135284129Y-82207312D01*
X135279780Y-82212141D01*
X135279781Y-82212141D01*
X135278399Y-82213676D01*
X135276728Y-82214889D01*
X135274950Y-82216491D01*
X135274781Y-82216304D01*
X135236685Y-82243981D01*
X135186252Y-82254700D01*
X133731935Y-82254700D01*
X133673614Y-82240129D01*
X133629000Y-82199840D01*
X133608577Y-82143302D01*
X133606983Y-82127700D01*
X133604399Y-82102403D01*
X133549214Y-81935866D01*
X133485296Y-81832238D01*
X133460902Y-81792688D01*
X133460900Y-81792685D01*
X133457112Y-81786544D01*
X133333056Y-81662488D01*
X133326915Y-81658700D01*
X133326911Y-81658697D01*
X133195501Y-81577644D01*
X133183734Y-81570386D01*
X133183817Y-81570249D01*
X133134321Y-81526844D01*
X133114900Y-81460217D01*
X133114900Y-80880575D01*
X133131784Y-80818107D01*
X133177840Y-80772651D01*
X133240523Y-80756586D01*
X133302765Y-80774286D01*
X133314203Y-80781159D01*
X133314207Y-80781161D01*
X133316903Y-80782781D01*
X133410418Y-80826721D01*
X133581590Y-80865191D01*
X133757020Y-80863151D01*
X133927251Y-80820708D01*
X134083104Y-80740150D01*
X134216180Y-80625822D01*
X134278120Y-80543124D01*
X134973430Y-79385933D01*
X135017370Y-79292418D01*
X135055840Y-79121245D01*
X135053800Y-78945815D01*
X135011356Y-78775585D01*
X134930798Y-78619732D01*
X134816471Y-78486656D01*
X134733773Y-78424715D01*
X134496108Y-78281912D01*
X134007864Y-77988546D01*
X134007853Y-77988540D01*
X134005165Y-77986925D01*
X134002321Y-77985588D01*
X134002316Y-77985586D01*
X133917776Y-77945863D01*
X133917772Y-77945861D01*
X133911650Y-77942985D01*
X133881782Y-77936272D01*
X133747520Y-77906097D01*
X133747514Y-77906096D01*
X133740478Y-77904515D01*
X133733269Y-77904598D01*
X133733262Y-77904598D01*
X133572269Y-77906471D01*
X133572268Y-77906471D01*
X133565048Y-77906555D01*
X133558043Y-77908301D01*
X133558039Y-77908302D01*
X133401824Y-77947250D01*
X133401816Y-77947252D01*
X133394817Y-77948998D01*
X133388408Y-77952310D01*
X133388399Y-77952314D01*
X133245379Y-78026240D01*
X133238964Y-78029556D01*
X133233492Y-78034256D01*
X133233486Y-78034261D01*
X133111026Y-78139469D01*
X133111021Y-78139473D01*
X133105888Y-78143884D01*
X133101834Y-78149295D01*
X133101826Y-78149305D01*
X133045842Y-78224052D01*
X133045833Y-78224064D01*
X133043948Y-78226582D01*
X133042331Y-78229273D01*
X133042321Y-78229288D01*
X132350259Y-79381073D01*
X132350248Y-79381092D01*
X132348638Y-79383773D01*
X132347305Y-79386608D01*
X132347299Y-79386621D01*
X132307576Y-79471161D01*
X132307573Y-79471168D01*
X132304698Y-79477288D01*
X132303213Y-79483893D01*
X132303213Y-79483895D01*
X132267810Y-79641417D01*
X132267809Y-79641426D01*
X132266228Y-79648461D01*
X132266311Y-79655668D01*
X132266311Y-79655676D01*
X132267982Y-79799275D01*
X132268268Y-79823891D01*
X132268882Y-79826356D01*
X132263498Y-79879825D01*
X132233818Y-79927476D01*
X132102096Y-80059198D01*
X132093911Y-80066646D01*
X132087523Y-80070701D01*
X132082188Y-80076381D01*
X132082183Y-80076386D01*
X132041496Y-80119712D01*
X132038792Y-80122503D01*
X132022028Y-80139267D01*
X132022021Y-80139274D01*
X132019280Y-80142016D01*
X132016900Y-80145083D01*
X132016889Y-80145096D01*
X132016800Y-80145212D01*
X132009242Y-80154057D01*
X131984680Y-80180214D01*
X131984673Y-80180223D01*
X131979338Y-80185905D01*
X131975582Y-80192736D01*
X131975579Y-80192741D01*
X131969685Y-80203462D01*
X131959009Y-80219714D01*
X131951509Y-80229383D01*
X131951501Y-80229394D01*
X131946727Y-80235551D01*
X131943634Y-80242695D01*
X131943629Y-80242706D01*
X131929374Y-80275647D01*
X131924238Y-80286130D01*
X131906960Y-80317560D01*
X131903203Y-80324395D01*
X131901264Y-80331943D01*
X131901263Y-80331948D01*
X131898222Y-80343794D01*
X131891921Y-80362198D01*
X131887058Y-80373435D01*
X131887056Y-80373439D01*
X131883962Y-80380591D01*
X131882742Y-80388290D01*
X131882742Y-80388292D01*
X131877129Y-80423728D01*
X131874761Y-80435163D01*
X131865838Y-80469915D01*
X131865836Y-80469923D01*
X131863900Y-80477468D01*
X131863900Y-80485264D01*
X131863900Y-80497504D01*
X131862374Y-80516889D01*
X131859240Y-80536683D01*
X131859974Y-80544448D01*
X131859974Y-80544451D01*
X131863350Y-80580163D01*
X131863900Y-80591832D01*
X131863900Y-81460217D01*
X131844479Y-81526844D01*
X131794982Y-81570249D01*
X131795066Y-81570386D01*
X131794259Y-81570883D01*
X131794256Y-81570885D01*
X131788918Y-81574177D01*
X131788916Y-81574179D01*
X131651888Y-81658697D01*
X131651880Y-81658703D01*
X131645744Y-81662488D01*
X131640642Y-81667589D01*
X131640638Y-81667593D01*
X131526793Y-81781438D01*
X131526789Y-81781442D01*
X131521688Y-81786544D01*
X131517903Y-81792680D01*
X131517897Y-81792688D01*
X131433377Y-81929719D01*
X131429586Y-81935866D01*
X131427315Y-81942717D01*
X131427314Y-81942721D01*
X131376531Y-82095974D01*
X131374401Y-82102403D01*
X131373713Y-82109133D01*
X131373712Y-82109140D01*
X131364219Y-82202059D01*
X131364218Y-82202077D01*
X131363900Y-82205191D01*
X131363900Y-82208338D01*
X131363900Y-82208339D01*
X131363900Y-83552059D01*
X131363900Y-83552078D01*
X130814398Y-83552078D01*
X130814400Y-83552032D01*
X130814400Y-83146526D01*
X130810949Y-83133650D01*
X130798074Y-83130200D01*
X129955726Y-83130200D01*
X129942850Y-83133650D01*
X129939400Y-83146526D01*
X129939400Y-84238873D01*
X129439400Y-84238873D01*
X129439400Y-83146526D01*
X129435949Y-83133650D01*
X129423074Y-83130200D01*
X128580727Y-83130200D01*
X128567851Y-83133650D01*
X128564401Y-83146526D01*
X128564401Y-83552029D01*
X127500615Y-83552029D01*
X127511126Y-82613874D01*
X128564400Y-82613874D01*
X128567850Y-82626749D01*
X128580726Y-82630200D01*
X129423074Y-82630200D01*
X129435949Y-82626749D01*
X129439400Y-82613874D01*
X129939400Y-82613874D01*
X129942850Y-82626749D01*
X129955726Y-82630200D01*
X130798073Y-82630200D01*
X130810948Y-82626749D01*
X130814399Y-82613874D01*
X130814399Y-82208371D01*
X130814078Y-82202088D01*
X130804594Y-82109240D01*
X130801776Y-82096077D01*
X130751029Y-81942932D01*
X130744967Y-81929933D01*
X130660509Y-81793005D01*
X130651605Y-81781744D01*
X130537855Y-81667994D01*
X130526594Y-81659090D01*
X130389666Y-81574632D01*
X130376667Y-81568570D01*
X130223525Y-81517824D01*
X130210358Y-81515005D01*
X130117509Y-81505519D01*
X130111232Y-81505200D01*
X129955726Y-81505200D01*
X129942850Y-81508650D01*
X129939400Y-81521526D01*
X129939400Y-82613874D01*
X129439400Y-82613874D01*
X129439400Y-81521527D01*
X129435949Y-81508651D01*
X129423074Y-81505201D01*
X129267571Y-81505201D01*
X129261288Y-81505521D01*
X129168440Y-81515005D01*
X129155277Y-81517823D01*
X129002132Y-81568570D01*
X128989133Y-81574632D01*
X128852205Y-81659090D01*
X128840944Y-81667994D01*
X128727194Y-81781744D01*
X128718290Y-81793005D01*
X128633832Y-81929933D01*
X128627770Y-81942932D01*
X128577024Y-82096074D01*
X128574205Y-82109241D01*
X128564719Y-82202090D01*
X128564400Y-82208368D01*
X128564400Y-82613874D01*
X127511126Y-82613874D01*
X127557649Y-78461630D01*
X127567347Y-78414934D01*
X127593954Y-78375353D01*
X127755680Y-78213627D01*
X129866744Y-78213627D01*
X129868615Y-78374499D01*
X129870447Y-78388728D01*
X129909366Y-78544829D01*
X129914430Y-78558254D01*
X129988302Y-78701173D01*
X129996322Y-78713063D01*
X130101455Y-78835434D01*
X130111292Y-78844634D01*
X130185987Y-78900581D01*
X130191209Y-78904093D01*
X130914366Y-79338609D01*
X130919918Y-79341571D01*
X131004177Y-79381161D01*
X131008492Y-79381149D01*
X131010966Y-79370292D01*
X131010966Y-79368000D01*
X131510966Y-79368000D01*
X131513484Y-79378907D01*
X131523012Y-79378741D01*
X131533419Y-79374815D01*
X131676338Y-79300942D01*
X131688231Y-79292921D01*
X131810602Y-79187790D01*
X131819802Y-79177953D01*
X131875744Y-79103264D01*
X131879265Y-79098028D01*
X132414734Y-78206857D01*
X132417890Y-78195758D01*
X132406750Y-78192747D01*
X131527292Y-78192747D01*
X131514416Y-78196197D01*
X131510966Y-78209073D01*
X131510966Y-79368000D01*
X131010966Y-79368000D01*
X131010966Y-78209073D01*
X131007515Y-78196197D01*
X130994640Y-78192747D01*
X129883738Y-78192747D01*
X129871897Y-78195456D01*
X129867739Y-78204151D01*
X129866744Y-78213627D01*
X127755680Y-78213627D01*
X128279572Y-77689735D01*
X130104041Y-77689735D01*
X130115182Y-77692747D01*
X130994640Y-77692747D01*
X131007515Y-77689296D01*
X131010966Y-77676421D01*
X131510966Y-77676421D01*
X131514416Y-77689296D01*
X131527292Y-77692747D01*
X132638194Y-77692747D01*
X132650034Y-77690037D01*
X132654192Y-77681342D01*
X132655187Y-77671866D01*
X132653968Y-77567027D01*
X140920153Y-77567027D01*
X140921404Y-77581319D01*
X140924911Y-77598303D01*
X140930035Y-77609432D01*
X140941971Y-77612200D01*
X142043110Y-77612200D01*
X142055985Y-77608749D01*
X142059436Y-77595874D01*
X142559436Y-77595874D01*
X142562886Y-77608749D01*
X142575762Y-77612200D01*
X143447810Y-77612200D01*
X143458960Y-77609212D01*
X143455972Y-77598060D01*
X142947808Y-76717894D01*
X142944372Y-76712586D01*
X142889740Y-76636928D01*
X142880724Y-76626944D01*
X142760201Y-76519688D01*
X142748447Y-76511458D01*
X142606843Y-76435106D01*
X142593507Y-76429808D01*
X142573216Y-76424371D01*
X142561987Y-76424003D01*
X142559436Y-76434946D01*
X142559436Y-77595874D01*
X142059436Y-77595874D01*
X142059436Y-76443280D01*
X142056601Y-76432137D01*
X142045272Y-76434114D01*
X141992862Y-76457632D01*
X141987243Y-76460505D01*
X141256622Y-76882330D01*
X141251345Y-76885745D01*
X141175675Y-76940386D01*
X141165680Y-76949412D01*
X141058432Y-77069927D01*
X141050203Y-77081679D01*
X140973845Y-77223291D01*
X140968551Y-77236618D01*
X140926912Y-77392016D01*
X140924832Y-77406215D01*
X140920153Y-77567027D01*
X132653968Y-77567027D01*
X132653316Y-77510994D01*
X132651484Y-77496765D01*
X132612565Y-77340664D01*
X132607501Y-77327239D01*
X132533629Y-77184320D01*
X132525609Y-77172430D01*
X132420476Y-77050059D01*
X132410639Y-77040859D01*
X132335944Y-76984912D01*
X132330722Y-76981400D01*
X131607565Y-76546884D01*
X131602013Y-76543922D01*
X131517754Y-76504332D01*
X131513439Y-76504344D01*
X131510966Y-76515202D01*
X131510966Y-77676421D01*
X131010966Y-77676421D01*
X131010966Y-76517494D01*
X131008447Y-76506586D01*
X130998919Y-76506752D01*
X130988512Y-76510678D01*
X130845593Y-76584551D01*
X130833700Y-76592572D01*
X130711329Y-76697703D01*
X130702129Y-76707540D01*
X130646187Y-76782229D01*
X130642666Y-76787465D01*
X130107197Y-77678636D01*
X130104041Y-77689735D01*
X128279572Y-77689735D01*
X130524188Y-75445118D01*
X135630600Y-75445118D01*
X135630953Y-75451714D01*
X135636173Y-75500267D01*
X135639711Y-75515241D01*
X135684147Y-75634377D01*
X135692562Y-75649789D01*
X135768098Y-75750692D01*
X135780507Y-75763101D01*
X135881410Y-75838637D01*
X135896822Y-75847052D01*
X136015958Y-75891488D01*
X136030932Y-75895026D01*
X136079485Y-75900246D01*
X136086082Y-75900600D01*
X136614274Y-75900600D01*
X136627149Y-75897149D01*
X136630600Y-75884274D01*
X137130600Y-75884274D01*
X137134050Y-75897149D01*
X137146926Y-75900600D01*
X137675118Y-75900600D01*
X137681714Y-75900246D01*
X137730267Y-75895026D01*
X137745241Y-75891488D01*
X137864377Y-75847052D01*
X137879789Y-75838637D01*
X137980692Y-75763101D01*
X137993101Y-75750692D01*
X138068637Y-75649789D01*
X138077052Y-75634377D01*
X138121488Y-75515241D01*
X138125026Y-75500267D01*
X138130246Y-75451714D01*
X138130600Y-75445118D01*
X138130600Y-74916926D01*
X138127149Y-74904050D01*
X138114274Y-74900600D01*
X137146926Y-74900600D01*
X137134050Y-74904050D01*
X137130600Y-74916926D01*
X137130600Y-75884274D01*
X136630600Y-75884274D01*
X136630600Y-74916926D01*
X136627149Y-74904050D01*
X136614274Y-74900600D01*
X135646926Y-74900600D01*
X135634050Y-74904050D01*
X135630600Y-74916926D01*
X135630600Y-75445118D01*
X130524188Y-75445118D01*
X132501088Y-73468218D01*
X132541316Y-73441339D01*
X132588769Y-73431900D01*
X135609165Y-73431900D01*
X135674332Y-73450405D01*
G37*
%TD.AperFunction*%
%TD*%
M02*
