%TF.GenerationSoftware,KiCad,Pcbnew,(7.0.0)*%
%TF.CreationDate,2023-09-10T21:06:30+09:30*%
%TF.ProjectId,ring_mono,72696e67-5f6d-46f6-9e6f-2e6b69636164,rev?*%
%TF.SameCoordinates,Original*%
%TF.FileFunction,Soldermask,Top*%
%TF.FilePolarity,Negative*%
%FSLAX46Y46*%
G04 Gerber Fmt 4.6, Leading zero omitted, Abs format (unit mm)*
G04 Created by KiCad (PCBNEW (7.0.0)) date 2023-09-10 21:06:30*
%MOMM*%
%LPD*%
G01*
G04 APERTURE LIST*
G04 Aperture macros list*
%AMRoundRect*
0 Rectangle with rounded corners*
0 $1 Rounding radius*
0 $2 $3 $4 $5 $6 $7 $8 $9 X,Y pos of 4 corners*
0 Add a 4 corners polygon primitive as box body*
4,1,4,$2,$3,$4,$5,$6,$7,$8,$9,$2,$3,0*
0 Add four circle primitives for the rounded corners*
1,1,$1+$1,$2,$3*
1,1,$1+$1,$4,$5*
1,1,$1+$1,$6,$7*
1,1,$1+$1,$8,$9*
0 Add four rect primitives between the rounded corners*
20,1,$1+$1,$2,$3,$4,$5,0*
20,1,$1+$1,$4,$5,$6,$7,0*
20,1,$1+$1,$6,$7,$8,$9,0*
20,1,$1+$1,$8,$9,$2,$3,0*%
G04 Aperture macros list end*
%ADD10RoundRect,0.250000X0.637260X0.353766X-0.012260X0.728766X-0.637260X-0.353766X0.012260X-0.728766X0*%
%ADD11RoundRect,0.250000X0.375000X0.625000X-0.375000X0.625000X-0.375000X-0.625000X0.375000X-0.625000X0*%
%ADD12RoundRect,0.250000X0.012260X0.728766X-0.637260X0.353766X-0.012260X-0.728766X0.637260X-0.353766X0*%
%ADD13R,1.500000X1.500000*%
%ADD14RoundRect,0.250000X-0.012260X-0.728766X0.637260X-0.353766X0.012260X0.728766X-0.637260X0.353766X0*%
%ADD15RoundRect,0.250000X-0.643337X-0.342590X-0.000461X-0.728869X0.643337X0.342590X0.000461X0.728869X0*%
%ADD16RoundRect,0.250000X-0.375000X-0.625000X0.375000X-0.625000X0.375000X0.625000X-0.375000X0.625000X0*%
G04 APERTURE END LIST*
D10*
%TO.C,D5*%
X141928436Y-87568000D03*
X139503564Y-86168000D03*
%TD*%
D11*
%TO.C,D4*%
X143132000Y-82804000D03*
X140332000Y-82804000D03*
%TD*%
D12*
%TO.C,D1*%
X141928436Y-77862200D03*
X139503564Y-79262200D03*
%TD*%
D13*
%TO.C,TP1*%
X136880599Y-75691999D03*
%TD*%
%TO.C,TP2*%
X136880599Y-90423999D03*
%TD*%
D14*
%TO.C,D6*%
X131883564Y-87568000D03*
X134308436Y-86168000D03*
%TD*%
D15*
%TO.C,D2*%
X131895966Y-78018947D03*
X134296034Y-79461053D03*
%TD*%
D16*
%TO.C,D3*%
X130680000Y-82804000D03*
X133480000Y-82804000D03*
%TD*%
G36*
X141325181Y-89837616D02*
G01*
X141378335Y-89850431D01*
X141420809Y-89884861D01*
X141444347Y-89934211D01*
X141444371Y-89988888D01*
X141093800Y-91543082D01*
X141060520Y-91603478D01*
X140741893Y-91922106D01*
X140713470Y-91943349D01*
X140680194Y-91955672D01*
X137184354Y-92704781D01*
X137135520Y-92705410D01*
X133133703Y-91955069D01*
X133098704Y-91942871D01*
X133068874Y-91920874D01*
X132909873Y-91761873D01*
X132886701Y-91729759D01*
X132874836Y-91691977D01*
X132608847Y-89856648D01*
X132612684Y-89803604D01*
X132638388Y-89757045D01*
X132681233Y-89725537D01*
X132733336Y-89714876D01*
X141325181Y-89837616D01*
G37*
G36*
X140673782Y-74162722D02*
G01*
X140712882Y-74174373D01*
X140746083Y-74198083D01*
X140910496Y-74362496D01*
X140941619Y-74414658D01*
X141404619Y-75963314D01*
X141407894Y-76020576D01*
X141385050Y-76073187D01*
X141340975Y-76109889D01*
X141285098Y-76122831D01*
X132811489Y-76073851D01*
X132759243Y-76061973D01*
X132716886Y-76029163D01*
X132692324Y-75981545D01*
X132690145Y-75928011D01*
X132978425Y-74317033D01*
X132990570Y-74281478D01*
X133012806Y-74251193D01*
X133066774Y-74197226D01*
X133099000Y-74173999D01*
X133136918Y-74162154D01*
X136635564Y-73662348D01*
X136668480Y-73662060D01*
X140673782Y-74162722D01*
G37*
M02*
