%TF.GenerationSoftware,KiCad,Pcbnew,(7.0.0)*%
%TF.CreationDate,2023-09-10T21:06:30+09:30*%
%TF.ProjectId,ring_mono,72696e67-5f6d-46f6-9e6f-2e6b69636164,rev?*%
%TF.SameCoordinates,Original*%
%TF.FileFunction,Legend,Top*%
%TF.FilePolarity,Positive*%
%FSLAX46Y46*%
G04 Gerber Fmt 4.6, Leading zero omitted, Abs format (unit mm)*
G04 Created by KiCad (PCBNEW (7.0.0)) date 2023-09-10 21:06:30*
%MOMM*%
%LPD*%
G01*
G04 APERTURE LIST*
%ADD10C,0.200000*%
%ADD11C,0.120000*%
G04 APERTURE END LIST*
D10*
%TO.C,D5*%
X140845080Y-85049291D02*
X141245080Y-84356470D01*
X141245080Y-84356470D02*
X141410037Y-84451708D01*
X141410037Y-84451708D02*
X141489964Y-84541843D01*
X141489964Y-84541843D02*
X141517852Y-84645921D01*
X141517852Y-84645921D02*
X141512748Y-84730951D01*
X141512748Y-84730951D02*
X141469549Y-84881965D01*
X141469549Y-84881965D02*
X141412406Y-84980939D01*
X141412406Y-84980939D02*
X141303224Y-85093857D01*
X141303224Y-85093857D02*
X141232137Y-85140792D01*
X141232137Y-85140792D02*
X141128059Y-85168680D01*
X141128059Y-85168680D02*
X141010037Y-85144529D01*
X141010037Y-85144529D02*
X140845080Y-85049291D01*
X142267815Y-84946946D02*
X141937900Y-84756470D01*
X141937900Y-84756470D02*
X141714433Y-85067337D01*
X141714433Y-85067337D02*
X141766472Y-85053393D01*
X141766472Y-85053393D02*
X141851502Y-85058497D01*
X141851502Y-85058497D02*
X142016460Y-85153735D01*
X142016460Y-85153735D02*
X142063395Y-85224822D01*
X142063395Y-85224822D02*
X142077339Y-85276861D01*
X142077339Y-85276861D02*
X142072235Y-85361891D01*
X142072235Y-85361891D02*
X141976997Y-85526849D01*
X141976997Y-85526849D02*
X141905910Y-85573784D01*
X141905910Y-85573784D02*
X141853871Y-85587728D01*
X141853871Y-85587728D02*
X141768840Y-85582624D01*
X141768840Y-85582624D02*
X141603883Y-85487386D01*
X141603883Y-85487386D02*
X141556948Y-85416299D01*
X141556948Y-85416299D02*
X141543004Y-85364260D01*
%TO.C,D4*%
X141014524Y-81269104D02*
X141014524Y-80469104D01*
X141014524Y-80469104D02*
X141205000Y-80469104D01*
X141205000Y-80469104D02*
X141319286Y-80507200D01*
X141319286Y-80507200D02*
X141395476Y-80583390D01*
X141395476Y-80583390D02*
X141433571Y-80659580D01*
X141433571Y-80659580D02*
X141471667Y-80811961D01*
X141471667Y-80811961D02*
X141471667Y-80926247D01*
X141471667Y-80926247D02*
X141433571Y-81078628D01*
X141433571Y-81078628D02*
X141395476Y-81154819D01*
X141395476Y-81154819D02*
X141319286Y-81231009D01*
X141319286Y-81231009D02*
X141205000Y-81269104D01*
X141205000Y-81269104D02*
X141014524Y-81269104D01*
X142157381Y-80735771D02*
X142157381Y-81269104D01*
X141966905Y-80431009D02*
X141776428Y-81002438D01*
X141776428Y-81002438D02*
X142271667Y-81002438D01*
%TO.C,D1*%
X139386385Y-77537166D02*
X138986385Y-76844346D01*
X138986385Y-76844346D02*
X139151342Y-76749108D01*
X139151342Y-76749108D02*
X139269364Y-76724957D01*
X139269364Y-76724957D02*
X139373442Y-76752844D01*
X139373442Y-76752844D02*
X139444529Y-76799779D01*
X139444529Y-76799779D02*
X139553711Y-76912698D01*
X139553711Y-76912698D02*
X139610854Y-77011672D01*
X139610854Y-77011672D02*
X139654053Y-77162685D01*
X139654053Y-77162685D02*
X139659156Y-77247716D01*
X139659156Y-77247716D02*
X139631269Y-77351794D01*
X139631269Y-77351794D02*
X139551342Y-77441928D01*
X139551342Y-77441928D02*
X139386385Y-77537166D01*
X140442111Y-76927643D02*
X140046214Y-77156214D01*
X140244162Y-77041928D02*
X139844162Y-76349108D01*
X139844162Y-76349108D02*
X139835322Y-76486178D01*
X139835322Y-76486178D02*
X139807435Y-76590256D01*
X139807435Y-76590256D02*
X139760499Y-76661342D01*
%TO.C,TP1*%
X135921876Y-71883904D02*
X136379019Y-71883904D01*
X136150447Y-72683904D02*
X136150447Y-71883904D01*
X136645686Y-72683904D02*
X136645686Y-71883904D01*
X136645686Y-71883904D02*
X136950448Y-71883904D01*
X136950448Y-71883904D02*
X137026638Y-71922000D01*
X137026638Y-71922000D02*
X137064733Y-71960095D01*
X137064733Y-71960095D02*
X137102829Y-72036285D01*
X137102829Y-72036285D02*
X137102829Y-72150571D01*
X137102829Y-72150571D02*
X137064733Y-72226761D01*
X137064733Y-72226761D02*
X137026638Y-72264857D01*
X137026638Y-72264857D02*
X136950448Y-72302952D01*
X136950448Y-72302952D02*
X136645686Y-72302952D01*
X137864733Y-72683904D02*
X137407590Y-72683904D01*
X137636162Y-72683904D02*
X137636162Y-71883904D01*
X137636162Y-71883904D02*
X137559971Y-71998190D01*
X137559971Y-71998190D02*
X137483781Y-72074380D01*
X137483781Y-72074380D02*
X137407590Y-72112476D01*
%TO.C,TP2*%
X136150476Y-93473904D02*
X136607619Y-93473904D01*
X136379047Y-94273904D02*
X136379047Y-93473904D01*
X136874286Y-94273904D02*
X136874286Y-93473904D01*
X136874286Y-93473904D02*
X137179048Y-93473904D01*
X137179048Y-93473904D02*
X137255238Y-93512000D01*
X137255238Y-93512000D02*
X137293333Y-93550095D01*
X137293333Y-93550095D02*
X137331429Y-93626285D01*
X137331429Y-93626285D02*
X137331429Y-93740571D01*
X137331429Y-93740571D02*
X137293333Y-93816761D01*
X137293333Y-93816761D02*
X137255238Y-93854857D01*
X137255238Y-93854857D02*
X137179048Y-93892952D01*
X137179048Y-93892952D02*
X136874286Y-93892952D01*
X137636190Y-93550095D02*
X137674286Y-93512000D01*
X137674286Y-93512000D02*
X137750476Y-93473904D01*
X137750476Y-93473904D02*
X137940952Y-93473904D01*
X137940952Y-93473904D02*
X138017143Y-93512000D01*
X138017143Y-93512000D02*
X138055238Y-93550095D01*
X138055238Y-93550095D02*
X138093333Y-93626285D01*
X138093333Y-93626285D02*
X138093333Y-93702476D01*
X138093333Y-93702476D02*
X138055238Y-93816761D01*
X138055238Y-93816761D02*
X137598095Y-94273904D01*
X137598095Y-94273904D02*
X138093333Y-94273904D01*
%TO.C,D6*%
X131821585Y-85841600D02*
X131421585Y-85148780D01*
X131421585Y-85148780D02*
X131586542Y-85053542D01*
X131586542Y-85053542D02*
X131704564Y-85029391D01*
X131704564Y-85029391D02*
X131808642Y-85057278D01*
X131808642Y-85057278D02*
X131879729Y-85104213D01*
X131879729Y-85104213D02*
X131988911Y-85217132D01*
X131988911Y-85217132D02*
X132046054Y-85316106D01*
X132046054Y-85316106D02*
X132089253Y-85467119D01*
X132089253Y-85467119D02*
X132094356Y-85552150D01*
X132094356Y-85552150D02*
X132066469Y-85656228D01*
X132066469Y-85656228D02*
X131986542Y-85746362D01*
X131986542Y-85746362D02*
X131821585Y-85841600D01*
X132411328Y-84577352D02*
X132279362Y-84653542D01*
X132279362Y-84653542D02*
X132232427Y-84724629D01*
X132232427Y-84724629D02*
X132218483Y-84776668D01*
X132218483Y-84776668D02*
X132209643Y-84913737D01*
X132209643Y-84913737D02*
X132252842Y-85064751D01*
X132252842Y-85064751D02*
X132405223Y-85328682D01*
X132405223Y-85328682D02*
X132476310Y-85375618D01*
X132476310Y-85375618D02*
X132528349Y-85389561D01*
X132528349Y-85389561D02*
X132613379Y-85384458D01*
X132613379Y-85384458D02*
X132745345Y-85308267D01*
X132745345Y-85308267D02*
X132792281Y-85237180D01*
X132792281Y-85237180D02*
X132806224Y-85185141D01*
X132806224Y-85185141D02*
X132801121Y-85100111D01*
X132801121Y-85100111D02*
X132705882Y-84935154D01*
X132705882Y-84935154D02*
X132634796Y-84888218D01*
X132634796Y-84888218D02*
X132582757Y-84874274D01*
X132582757Y-84874274D02*
X132497726Y-84879378D01*
X132497726Y-84879378D02*
X132365760Y-84955569D01*
X132365760Y-84955569D02*
X132318825Y-85026655D01*
X132318825Y-85026655D02*
X132304881Y-85078695D01*
X132304881Y-85078695D02*
X132309985Y-85163725D01*
%TO.C,D2*%
X133375860Y-77127764D02*
X133787890Y-76442030D01*
X133787890Y-76442030D02*
X133951160Y-76540132D01*
X133951160Y-76540132D02*
X134029502Y-76631648D01*
X134029502Y-76631648D02*
X134055569Y-76736197D01*
X134055569Y-76736197D02*
X134048982Y-76821125D01*
X134048982Y-76821125D02*
X134003154Y-76971362D01*
X134003154Y-76971362D02*
X133944292Y-77069324D01*
X133944292Y-77069324D02*
X133833156Y-77180319D01*
X133833156Y-77180319D02*
X133761261Y-77226007D01*
X133761261Y-77226007D02*
X133656712Y-77252074D01*
X133656712Y-77252074D02*
X133539130Y-77225866D01*
X133539130Y-77225866D02*
X133375860Y-77127764D01*
X134401729Y-76899748D02*
X134454004Y-76886714D01*
X134454004Y-76886714D02*
X134538932Y-76893301D01*
X134538932Y-76893301D02*
X134702202Y-76991404D01*
X134702202Y-76991404D02*
X134747890Y-77063299D01*
X134747890Y-77063299D02*
X134760923Y-77115573D01*
X134760923Y-77115573D02*
X134754336Y-77200502D01*
X134754336Y-77200502D02*
X134715095Y-77265810D01*
X134715095Y-77265810D02*
X134623580Y-77344151D01*
X134623580Y-77344151D02*
X133996286Y-77500553D01*
X133996286Y-77500553D02*
X134420788Y-77755619D01*
%TO.C,D3*%
X131489524Y-81277904D02*
X131489524Y-80477904D01*
X131489524Y-80477904D02*
X131680000Y-80477904D01*
X131680000Y-80477904D02*
X131794286Y-80516000D01*
X131794286Y-80516000D02*
X131870476Y-80592190D01*
X131870476Y-80592190D02*
X131908571Y-80668380D01*
X131908571Y-80668380D02*
X131946667Y-80820761D01*
X131946667Y-80820761D02*
X131946667Y-80935047D01*
X131946667Y-80935047D02*
X131908571Y-81087428D01*
X131908571Y-81087428D02*
X131870476Y-81163619D01*
X131870476Y-81163619D02*
X131794286Y-81239809D01*
X131794286Y-81239809D02*
X131680000Y-81277904D01*
X131680000Y-81277904D02*
X131489524Y-81277904D01*
X132213333Y-80477904D02*
X132708571Y-80477904D01*
X132708571Y-80477904D02*
X132441905Y-80782666D01*
X132441905Y-80782666D02*
X132556190Y-80782666D01*
X132556190Y-80782666D02*
X132632381Y-80820761D01*
X132632381Y-80820761D02*
X132670476Y-80858857D01*
X132670476Y-80858857D02*
X132708571Y-80935047D01*
X132708571Y-80935047D02*
X132708571Y-81125523D01*
X132708571Y-81125523D02*
X132670476Y-81201714D01*
X132670476Y-81201714D02*
X132632381Y-81239809D01*
X132632381Y-81239809D02*
X132556190Y-81277904D01*
X132556190Y-81277904D02*
X132327619Y-81277904D01*
X132327619Y-81277904D02*
X132251428Y-81239809D01*
X132251428Y-81239809D02*
X132213333Y-81201714D01*
D11*
%TO.C,D5*%
X142127368Y-88993439D02*
X143262368Y-87027561D01*
X143262368Y-87027561D02*
X139897859Y-85085061D01*
X138762859Y-87050939D02*
X142127368Y-88993439D01*
%TO.C,D4*%
X144017000Y-83939000D02*
X144017000Y-81669000D01*
X144017000Y-81669000D02*
X140132000Y-81669000D01*
X140132000Y-83939000D02*
X144017000Y-83939000D01*
%TO.C,D1*%
X143262368Y-78402639D02*
X142127368Y-76436761D01*
X142127368Y-76436761D02*
X138762859Y-78379261D01*
X139897859Y-80345139D02*
X143262368Y-78402639D01*
%TO.C,TP1*%
X135930600Y-74742000D02*
X137830600Y-74742000D01*
X135930600Y-76642000D02*
X135930600Y-74742000D01*
X137830600Y-74742000D02*
X137830600Y-76642000D01*
X137830600Y-76642000D02*
X135930600Y-76642000D01*
%TO.C,TP2*%
X137830600Y-91374000D02*
X135930600Y-91374000D01*
X137830600Y-89474000D02*
X137830600Y-91374000D01*
X135930600Y-91374000D02*
X135930600Y-89474000D01*
X135930600Y-89474000D02*
X137830600Y-89474000D01*
%TO.C,D6*%
X130549632Y-87027561D02*
X131684632Y-88993439D01*
X131684632Y-88993439D02*
X135049141Y-87050939D01*
X133914141Y-85085061D02*
X130549632Y-87027561D01*
%TO.C,D2*%
X131721941Y-76590253D02*
X130552805Y-78536023D01*
X130552805Y-78536023D02*
X133882899Y-80536946D01*
X135052036Y-78591176D02*
X131721941Y-76590253D01*
%TO.C,D3*%
X129795000Y-81669000D02*
X129795000Y-83939000D01*
X129795000Y-83939000D02*
X133680000Y-83939000D01*
X133680000Y-81669000D02*
X129795000Y-81669000D01*
%TD*%
M02*
