%TF.GenerationSoftware,KiCad,Pcbnew,7.0.7*%
%TF.CreationDate,2023-11-25T18:05:25+10:30*%
%TF.ProjectId,ring_pcb_IR,72696e67-5f70-4636-925f-49522e6b6963,rev?*%
%TF.SameCoordinates,Original*%
%TF.FileFunction,Legend,Bot*%
%TF.FilePolarity,Positive*%
%FSLAX46Y46*%
G04 Gerber Fmt 4.6, Leading zero omitted, Abs format (unit mm)*
G04 Created by KiCad (PCBNEW 7.0.7) date 2023-11-25 18:05:25*
%MOMM*%
%LPD*%
G01*
G04 APERTURE LIST*
%ADD10C,0.200000*%
%ADD11C,0.120000*%
G04 APERTURE END LIST*
D10*
X134509923Y-113910295D02*
X134052780Y-113910295D01*
X134281352Y-114710295D02*
X134281352Y-113910295D01*
X133786113Y-114710295D02*
X133786113Y-113910295D01*
X133786113Y-113910295D02*
X133481351Y-113910295D01*
X133481351Y-113910295D02*
X133405161Y-113948390D01*
X133405161Y-113948390D02*
X133367066Y-113986485D01*
X133367066Y-113986485D02*
X133328970Y-114062676D01*
X133328970Y-114062676D02*
X133328970Y-114176961D01*
X133328970Y-114176961D02*
X133367066Y-114253152D01*
X133367066Y-114253152D02*
X133405161Y-114291247D01*
X133405161Y-114291247D02*
X133481351Y-114329342D01*
X133481351Y-114329342D02*
X133786113Y-114329342D01*
X132605161Y-113910295D02*
X132986113Y-113910295D01*
X132986113Y-113910295D02*
X133024209Y-114291247D01*
X133024209Y-114291247D02*
X132986113Y-114253152D01*
X132986113Y-114253152D02*
X132909923Y-114215057D01*
X132909923Y-114215057D02*
X132719447Y-114215057D01*
X132719447Y-114215057D02*
X132643256Y-114253152D01*
X132643256Y-114253152D02*
X132605161Y-114291247D01*
X132605161Y-114291247D02*
X132567066Y-114367438D01*
X132567066Y-114367438D02*
X132567066Y-114557914D01*
X132567066Y-114557914D02*
X132605161Y-114634104D01*
X132605161Y-114634104D02*
X132643256Y-114672200D01*
X132643256Y-114672200D02*
X132719447Y-114710295D01*
X132719447Y-114710295D02*
X132909923Y-114710295D01*
X132909923Y-114710295D02*
X132986113Y-114672200D01*
X132986113Y-114672200D02*
X133024209Y-114634104D01*
X140609923Y-116960295D02*
X140152780Y-116960295D01*
X140381352Y-117760295D02*
X140381352Y-116960295D01*
X139886113Y-117760295D02*
X139886113Y-116960295D01*
X139886113Y-116960295D02*
X139581351Y-116960295D01*
X139581351Y-116960295D02*
X139505161Y-116998390D01*
X139505161Y-116998390D02*
X139467066Y-117036485D01*
X139467066Y-117036485D02*
X139428970Y-117112676D01*
X139428970Y-117112676D02*
X139428970Y-117226961D01*
X139428970Y-117226961D02*
X139467066Y-117303152D01*
X139467066Y-117303152D02*
X139505161Y-117341247D01*
X139505161Y-117341247D02*
X139581351Y-117379342D01*
X139581351Y-117379342D02*
X139886113Y-117379342D01*
X139124209Y-117036485D02*
X139086113Y-116998390D01*
X139086113Y-116998390D02*
X139009923Y-116960295D01*
X139009923Y-116960295D02*
X138819447Y-116960295D01*
X138819447Y-116960295D02*
X138743256Y-116998390D01*
X138743256Y-116998390D02*
X138705161Y-117036485D01*
X138705161Y-117036485D02*
X138667066Y-117112676D01*
X138667066Y-117112676D02*
X138667066Y-117188866D01*
X138667066Y-117188866D02*
X138705161Y-117303152D01*
X138705161Y-117303152D02*
X139162304Y-117760295D01*
X139162304Y-117760295D02*
X138667066Y-117760295D01*
X137559923Y-116960295D02*
X137102780Y-116960295D01*
X137331352Y-117760295D02*
X137331352Y-116960295D01*
X136836113Y-117760295D02*
X136836113Y-116960295D01*
X136836113Y-116960295D02*
X136531351Y-116960295D01*
X136531351Y-116960295D02*
X136455161Y-116998390D01*
X136455161Y-116998390D02*
X136417066Y-117036485D01*
X136417066Y-117036485D02*
X136378970Y-117112676D01*
X136378970Y-117112676D02*
X136378970Y-117226961D01*
X136378970Y-117226961D02*
X136417066Y-117303152D01*
X136417066Y-117303152D02*
X136455161Y-117341247D01*
X136455161Y-117341247D02*
X136531351Y-117379342D01*
X136531351Y-117379342D02*
X136836113Y-117379342D01*
X135693256Y-117226961D02*
X135693256Y-117760295D01*
X135883732Y-116922200D02*
X136074209Y-117493628D01*
X136074209Y-117493628D02*
X135578970Y-117493628D01*
X133417695Y-109734476D02*
X133417695Y-110191619D01*
X134217695Y-109963047D02*
X133417695Y-109963047D01*
X134217695Y-110458286D02*
X133417695Y-110458286D01*
X133417695Y-110458286D02*
X133417695Y-110763048D01*
X133417695Y-110763048D02*
X133455790Y-110839238D01*
X133455790Y-110839238D02*
X133493885Y-110877333D01*
X133493885Y-110877333D02*
X133570076Y-110915429D01*
X133570076Y-110915429D02*
X133684361Y-110915429D01*
X133684361Y-110915429D02*
X133760552Y-110877333D01*
X133760552Y-110877333D02*
X133798647Y-110839238D01*
X133798647Y-110839238D02*
X133836742Y-110763048D01*
X133836742Y-110763048D02*
X133836742Y-110458286D01*
X134217695Y-111296381D02*
X134217695Y-111448762D01*
X134217695Y-111448762D02*
X134179600Y-111524952D01*
X134179600Y-111524952D02*
X134141504Y-111563048D01*
X134141504Y-111563048D02*
X134027219Y-111639238D01*
X134027219Y-111639238D02*
X133874838Y-111677333D01*
X133874838Y-111677333D02*
X133570076Y-111677333D01*
X133570076Y-111677333D02*
X133493885Y-111639238D01*
X133493885Y-111639238D02*
X133455790Y-111601143D01*
X133455790Y-111601143D02*
X133417695Y-111524952D01*
X133417695Y-111524952D02*
X133417695Y-111372571D01*
X133417695Y-111372571D02*
X133455790Y-111296381D01*
X133455790Y-111296381D02*
X133493885Y-111258286D01*
X133493885Y-111258286D02*
X133570076Y-111220190D01*
X133570076Y-111220190D02*
X133760552Y-111220190D01*
X133760552Y-111220190D02*
X133836742Y-111258286D01*
X133836742Y-111258286D02*
X133874838Y-111296381D01*
X133874838Y-111296381D02*
X133912933Y-111372571D01*
X133912933Y-111372571D02*
X133912933Y-111524952D01*
X133912933Y-111524952D02*
X133874838Y-111601143D01*
X133874838Y-111601143D02*
X133836742Y-111639238D01*
X133836742Y-111639238D02*
X133760552Y-111677333D01*
X140609923Y-113910295D02*
X140152780Y-113910295D01*
X140381352Y-114710295D02*
X140381352Y-113910295D01*
X139886113Y-114710295D02*
X139886113Y-113910295D01*
X139886113Y-113910295D02*
X139581351Y-113910295D01*
X139581351Y-113910295D02*
X139505161Y-113948390D01*
X139505161Y-113948390D02*
X139467066Y-113986485D01*
X139467066Y-113986485D02*
X139428970Y-114062676D01*
X139428970Y-114062676D02*
X139428970Y-114176961D01*
X139428970Y-114176961D02*
X139467066Y-114253152D01*
X139467066Y-114253152D02*
X139505161Y-114291247D01*
X139505161Y-114291247D02*
X139581351Y-114329342D01*
X139581351Y-114329342D02*
X139886113Y-114329342D01*
X138667066Y-114710295D02*
X139124209Y-114710295D01*
X138895637Y-114710295D02*
X138895637Y-113910295D01*
X138895637Y-113910295D02*
X138971828Y-114024580D01*
X138971828Y-114024580D02*
X139048018Y-114100771D01*
X139048018Y-114100771D02*
X139124209Y-114138866D01*
X137559923Y-113910295D02*
X137102780Y-113910295D01*
X137331352Y-114710295D02*
X137331352Y-113910295D01*
X136836113Y-114710295D02*
X136836113Y-113910295D01*
X136836113Y-113910295D02*
X136531351Y-113910295D01*
X136531351Y-113910295D02*
X136455161Y-113948390D01*
X136455161Y-113948390D02*
X136417066Y-113986485D01*
X136417066Y-113986485D02*
X136378970Y-114062676D01*
X136378970Y-114062676D02*
X136378970Y-114176961D01*
X136378970Y-114176961D02*
X136417066Y-114253152D01*
X136417066Y-114253152D02*
X136455161Y-114291247D01*
X136455161Y-114291247D02*
X136531351Y-114329342D01*
X136531351Y-114329342D02*
X136836113Y-114329342D01*
X136112304Y-113910295D02*
X135617066Y-113910295D01*
X135617066Y-113910295D02*
X135883732Y-114215057D01*
X135883732Y-114215057D02*
X135769447Y-114215057D01*
X135769447Y-114215057D02*
X135693256Y-114253152D01*
X135693256Y-114253152D02*
X135655161Y-114291247D01*
X135655161Y-114291247D02*
X135617066Y-114367438D01*
X135617066Y-114367438D02*
X135617066Y-114557914D01*
X135617066Y-114557914D02*
X135655161Y-114634104D01*
X135655161Y-114634104D02*
X135693256Y-114672200D01*
X135693256Y-114672200D02*
X135769447Y-114710295D01*
X135769447Y-114710295D02*
X135998018Y-114710295D01*
X135998018Y-114710295D02*
X136074209Y-114672200D01*
X136074209Y-114672200D02*
X136112304Y-114634104D01*
X134509923Y-116960295D02*
X134052780Y-116960295D01*
X134281352Y-117760295D02*
X134281352Y-116960295D01*
X133786113Y-117760295D02*
X133786113Y-116960295D01*
X133786113Y-116960295D02*
X133481351Y-116960295D01*
X133481351Y-116960295D02*
X133405161Y-116998390D01*
X133405161Y-116998390D02*
X133367066Y-117036485D01*
X133367066Y-117036485D02*
X133328970Y-117112676D01*
X133328970Y-117112676D02*
X133328970Y-117226961D01*
X133328970Y-117226961D02*
X133367066Y-117303152D01*
X133367066Y-117303152D02*
X133405161Y-117341247D01*
X133405161Y-117341247D02*
X133481351Y-117379342D01*
X133481351Y-117379342D02*
X133786113Y-117379342D01*
X132643256Y-116960295D02*
X132795637Y-116960295D01*
X132795637Y-116960295D02*
X132871828Y-116998390D01*
X132871828Y-116998390D02*
X132909923Y-117036485D01*
X132909923Y-117036485D02*
X132986113Y-117150771D01*
X132986113Y-117150771D02*
X133024209Y-117303152D01*
X133024209Y-117303152D02*
X133024209Y-117607914D01*
X133024209Y-117607914D02*
X132986113Y-117684104D01*
X132986113Y-117684104D02*
X132948018Y-117722200D01*
X132948018Y-117722200D02*
X132871828Y-117760295D01*
X132871828Y-117760295D02*
X132719447Y-117760295D01*
X132719447Y-117760295D02*
X132643256Y-117722200D01*
X132643256Y-117722200D02*
X132605161Y-117684104D01*
X132605161Y-117684104D02*
X132567066Y-117607914D01*
X132567066Y-117607914D02*
X132567066Y-117417438D01*
X132567066Y-117417438D02*
X132605161Y-117341247D01*
X132605161Y-117341247D02*
X132643256Y-117303152D01*
X132643256Y-117303152D02*
X132719447Y-117265057D01*
X132719447Y-117265057D02*
X132871828Y-117265057D01*
X132871828Y-117265057D02*
X132948018Y-117303152D01*
X132948018Y-117303152D02*
X132986113Y-117341247D01*
X132986113Y-117341247D02*
X133024209Y-117417438D01*
D11*
%TO.C,TP5*%
X134200400Y-116498600D02*
X134200400Y-115098600D01*
X134200400Y-115098600D02*
X132800400Y-115098600D01*
X132800400Y-116498600D02*
X134200400Y-116498600D01*
X132800400Y-115098600D02*
X132800400Y-116498600D01*
%TO.C,TP2*%
X140300400Y-119548600D02*
X140300400Y-118148600D01*
X140300400Y-118148600D02*
X138900400Y-118148600D01*
X138900400Y-119548600D02*
X140300400Y-119548600D01*
X138900400Y-118148600D02*
X138900400Y-119548600D01*
%TO.C,TP4*%
X137250400Y-119548600D02*
X137250400Y-118148600D01*
X137250400Y-118148600D02*
X135850400Y-118148600D01*
X135850400Y-119548600D02*
X137250400Y-119548600D01*
X135850400Y-118148600D02*
X135850400Y-119548600D01*
%TO.C,TP9*%
X137352000Y-111952000D02*
X137352000Y-110552000D01*
X137352000Y-110552000D02*
X135952000Y-110552000D01*
X135952000Y-111952000D02*
X137352000Y-111952000D01*
X135952000Y-110552000D02*
X135952000Y-111952000D01*
%TO.C,TP1*%
X140300400Y-116498600D02*
X140300400Y-115098600D01*
X140300400Y-115098600D02*
X138900400Y-115098600D01*
X138900400Y-116498600D02*
X140300400Y-116498600D01*
X138900400Y-115098600D02*
X138900400Y-116498600D01*
%TO.C,TP3*%
X137250400Y-116498600D02*
X137250400Y-115098600D01*
X137250400Y-115098600D02*
X135850400Y-115098600D01*
X135850400Y-116498600D02*
X137250400Y-116498600D01*
X135850400Y-115098600D02*
X135850400Y-116498600D01*
%TO.C,TP6*%
X134200400Y-119548600D02*
X134200400Y-118148600D01*
X134200400Y-118148600D02*
X132800400Y-118148600D01*
X132800400Y-119548600D02*
X134200400Y-119548600D01*
X132800400Y-118148600D02*
X132800400Y-119548600D01*
%TD*%
M02*
