%TF.GenerationSoftware,KiCad,Pcbnew,(7.0.0)*%
%TF.CreationDate,2023-12-02T15:30:32+10:30*%
%TF.ProjectId,ring_pcb_IR,72696e67-5f70-4636-925f-49522e6b6963,rev?*%
%TF.SameCoordinates,Original*%
%TF.FileFunction,Legend,Top*%
%TF.FilePolarity,Positive*%
%FSLAX46Y46*%
G04 Gerber Fmt 4.6, Leading zero omitted, Abs format (unit mm)*
G04 Created by KiCad (PCBNEW (7.0.0)) date 2023-12-02 15:30:32*
%MOMM*%
%LPD*%
G01*
G04 APERTURE LIST*
%ADD10C,0.200000*%
%ADD11C,0.120000*%
G04 APERTURE END LIST*
D10*
%TO.C,U2*%
X133732904Y-113385523D02*
X134380523Y-113385523D01*
X134380523Y-113385523D02*
X134456714Y-113347428D01*
X134456714Y-113347428D02*
X134494809Y-113309333D01*
X134494809Y-113309333D02*
X134532904Y-113233142D01*
X134532904Y-113233142D02*
X134532904Y-113080761D01*
X134532904Y-113080761D02*
X134494809Y-113004571D01*
X134494809Y-113004571D02*
X134456714Y-112966476D01*
X134456714Y-112966476D02*
X134380523Y-112928380D01*
X134380523Y-112928380D02*
X133732904Y-112928380D01*
X133809095Y-112585524D02*
X133771000Y-112547428D01*
X133771000Y-112547428D02*
X133732904Y-112471238D01*
X133732904Y-112471238D02*
X133732904Y-112280762D01*
X133732904Y-112280762D02*
X133771000Y-112204571D01*
X133771000Y-112204571D02*
X133809095Y-112166476D01*
X133809095Y-112166476D02*
X133885285Y-112128381D01*
X133885285Y-112128381D02*
X133961476Y-112128381D01*
X133961476Y-112128381D02*
X134075761Y-112166476D01*
X134075761Y-112166476D02*
X134532904Y-112623619D01*
X134532904Y-112623619D02*
X134532904Y-112128381D01*
%TO.C,R1*%
X133923304Y-115779532D02*
X133542352Y-116046199D01*
X133923304Y-116236675D02*
X133123304Y-116236675D01*
X133123304Y-116236675D02*
X133123304Y-115931913D01*
X133123304Y-115931913D02*
X133161400Y-115855723D01*
X133161400Y-115855723D02*
X133199495Y-115817628D01*
X133199495Y-115817628D02*
X133275685Y-115779532D01*
X133275685Y-115779532D02*
X133389971Y-115779532D01*
X133389971Y-115779532D02*
X133466161Y-115817628D01*
X133466161Y-115817628D02*
X133504257Y-115855723D01*
X133504257Y-115855723D02*
X133542352Y-115931913D01*
X133542352Y-115931913D02*
X133542352Y-116236675D01*
X133923304Y-115017628D02*
X133923304Y-115474771D01*
X133923304Y-115246199D02*
X133123304Y-115246199D01*
X133123304Y-115246199D02*
X133237590Y-115322390D01*
X133237590Y-115322390D02*
X133313780Y-115398580D01*
X133313780Y-115398580D02*
X133351876Y-115474771D01*
%TO.C,C1*%
X134994667Y-110961714D02*
X134956571Y-110999809D01*
X134956571Y-110999809D02*
X134842286Y-111037904D01*
X134842286Y-111037904D02*
X134766095Y-111037904D01*
X134766095Y-111037904D02*
X134651809Y-110999809D01*
X134651809Y-110999809D02*
X134575619Y-110923619D01*
X134575619Y-110923619D02*
X134537524Y-110847428D01*
X134537524Y-110847428D02*
X134499428Y-110695047D01*
X134499428Y-110695047D02*
X134499428Y-110580761D01*
X134499428Y-110580761D02*
X134537524Y-110428380D01*
X134537524Y-110428380D02*
X134575619Y-110352190D01*
X134575619Y-110352190D02*
X134651809Y-110276000D01*
X134651809Y-110276000D02*
X134766095Y-110237904D01*
X134766095Y-110237904D02*
X134842286Y-110237904D01*
X134842286Y-110237904D02*
X134956571Y-110276000D01*
X134956571Y-110276000D02*
X134994667Y-110314095D01*
X135756571Y-111037904D02*
X135299428Y-111037904D01*
X135528000Y-111037904D02*
X135528000Y-110237904D01*
X135528000Y-110237904D02*
X135451809Y-110352190D01*
X135451809Y-110352190D02*
X135375619Y-110428380D01*
X135375619Y-110428380D02*
X135299428Y-110466476D01*
%TO.C,Q1*%
X141086095Y-105994190D02*
X141048000Y-106070380D01*
X141048000Y-106070380D02*
X140971809Y-106146571D01*
X140971809Y-106146571D02*
X140857523Y-106260857D01*
X140857523Y-106260857D02*
X140819428Y-106337047D01*
X140819428Y-106337047D02*
X140819428Y-106413238D01*
X141009904Y-106375142D02*
X140971809Y-106451333D01*
X140971809Y-106451333D02*
X140895619Y-106527523D01*
X140895619Y-106527523D02*
X140743238Y-106565619D01*
X140743238Y-106565619D02*
X140476571Y-106565619D01*
X140476571Y-106565619D02*
X140324190Y-106527523D01*
X140324190Y-106527523D02*
X140248000Y-106451333D01*
X140248000Y-106451333D02*
X140209904Y-106375142D01*
X140209904Y-106375142D02*
X140209904Y-106222761D01*
X140209904Y-106222761D02*
X140248000Y-106146571D01*
X140248000Y-106146571D02*
X140324190Y-106070380D01*
X140324190Y-106070380D02*
X140476571Y-106032285D01*
X140476571Y-106032285D02*
X140743238Y-106032285D01*
X140743238Y-106032285D02*
X140895619Y-106070380D01*
X140895619Y-106070380D02*
X140971809Y-106146571D01*
X140971809Y-106146571D02*
X141009904Y-106222761D01*
X141009904Y-106222761D02*
X141009904Y-106375142D01*
X141009904Y-105270381D02*
X141009904Y-105727524D01*
X141009904Y-105498952D02*
X140209904Y-105498952D01*
X140209904Y-105498952D02*
X140324190Y-105575143D01*
X140324190Y-105575143D02*
X140400380Y-105651333D01*
X140400380Y-105651333D02*
X140438476Y-105727524D01*
%TO.C,D3*%
X129198904Y-107905475D02*
X128398904Y-107905475D01*
X128398904Y-107905475D02*
X128398904Y-107714999D01*
X128398904Y-107714999D02*
X128437000Y-107600713D01*
X128437000Y-107600713D02*
X128513190Y-107524523D01*
X128513190Y-107524523D02*
X128589380Y-107486428D01*
X128589380Y-107486428D02*
X128741761Y-107448332D01*
X128741761Y-107448332D02*
X128856047Y-107448332D01*
X128856047Y-107448332D02*
X129008428Y-107486428D01*
X129008428Y-107486428D02*
X129084619Y-107524523D01*
X129084619Y-107524523D02*
X129160809Y-107600713D01*
X129160809Y-107600713D02*
X129198904Y-107714999D01*
X129198904Y-107714999D02*
X129198904Y-107905475D01*
X128398904Y-107181666D02*
X128398904Y-106686428D01*
X128398904Y-106686428D02*
X128703666Y-106953094D01*
X128703666Y-106953094D02*
X128703666Y-106838809D01*
X128703666Y-106838809D02*
X128741761Y-106762618D01*
X128741761Y-106762618D02*
X128779857Y-106724523D01*
X128779857Y-106724523D02*
X128856047Y-106686428D01*
X128856047Y-106686428D02*
X129046523Y-106686428D01*
X129046523Y-106686428D02*
X129122714Y-106724523D01*
X129122714Y-106724523D02*
X129160809Y-106762618D01*
X129160809Y-106762618D02*
X129198904Y-106838809D01*
X129198904Y-106838809D02*
X129198904Y-107067380D01*
X129198904Y-107067380D02*
X129160809Y-107143571D01*
X129160809Y-107143571D02*
X129122714Y-107181666D01*
%TO.C,D1*%
X129325904Y-114890475D02*
X128525904Y-114890475D01*
X128525904Y-114890475D02*
X128525904Y-114699999D01*
X128525904Y-114699999D02*
X128564000Y-114585713D01*
X128564000Y-114585713D02*
X128640190Y-114509523D01*
X128640190Y-114509523D02*
X128716380Y-114471428D01*
X128716380Y-114471428D02*
X128868761Y-114433332D01*
X128868761Y-114433332D02*
X128983047Y-114433332D01*
X128983047Y-114433332D02*
X129135428Y-114471428D01*
X129135428Y-114471428D02*
X129211619Y-114509523D01*
X129211619Y-114509523D02*
X129287809Y-114585713D01*
X129287809Y-114585713D02*
X129325904Y-114699999D01*
X129325904Y-114699999D02*
X129325904Y-114890475D01*
X129325904Y-113671428D02*
X129325904Y-114128571D01*
X129325904Y-113899999D02*
X128525904Y-113899999D01*
X128525904Y-113899999D02*
X128640190Y-113976190D01*
X128640190Y-113976190D02*
X128716380Y-114052380D01*
X128716380Y-114052380D02*
X128754476Y-114128571D01*
%TO.C,D4*%
X144134104Y-116084375D02*
X143334104Y-116084375D01*
X143334104Y-116084375D02*
X143334104Y-115893899D01*
X143334104Y-115893899D02*
X143372200Y-115779613D01*
X143372200Y-115779613D02*
X143448390Y-115703423D01*
X143448390Y-115703423D02*
X143524580Y-115665328D01*
X143524580Y-115665328D02*
X143676961Y-115627232D01*
X143676961Y-115627232D02*
X143791247Y-115627232D01*
X143791247Y-115627232D02*
X143943628Y-115665328D01*
X143943628Y-115665328D02*
X144019819Y-115703423D01*
X144019819Y-115703423D02*
X144096009Y-115779613D01*
X144096009Y-115779613D02*
X144134104Y-115893899D01*
X144134104Y-115893899D02*
X144134104Y-116084375D01*
X143600771Y-114941518D02*
X144134104Y-114941518D01*
X143296009Y-115131994D02*
X143867438Y-115322471D01*
X143867438Y-115322471D02*
X143867438Y-114827232D01*
%TO.C,TP7*%
X130384676Y-104395904D02*
X130841819Y-104395904D01*
X130613247Y-105195904D02*
X130613247Y-104395904D01*
X131108486Y-105195904D02*
X131108486Y-104395904D01*
X131108486Y-104395904D02*
X131413248Y-104395904D01*
X131413248Y-104395904D02*
X131489438Y-104434000D01*
X131489438Y-104434000D02*
X131527533Y-104472095D01*
X131527533Y-104472095D02*
X131565629Y-104548285D01*
X131565629Y-104548285D02*
X131565629Y-104662571D01*
X131565629Y-104662571D02*
X131527533Y-104738761D01*
X131527533Y-104738761D02*
X131489438Y-104776857D01*
X131489438Y-104776857D02*
X131413248Y-104814952D01*
X131413248Y-104814952D02*
X131108486Y-104814952D01*
X131832295Y-104395904D02*
X132365629Y-104395904D01*
X132365629Y-104395904D02*
X132022771Y-105195904D01*
%TO.C,Q2*%
X143433809Y-109844095D02*
X143357619Y-109806000D01*
X143357619Y-109806000D02*
X143281428Y-109729809D01*
X143281428Y-109729809D02*
X143167142Y-109615523D01*
X143167142Y-109615523D02*
X143090952Y-109577428D01*
X143090952Y-109577428D02*
X143014761Y-109577428D01*
X143052857Y-109767904D02*
X142976666Y-109729809D01*
X142976666Y-109729809D02*
X142900476Y-109653619D01*
X142900476Y-109653619D02*
X142862380Y-109501238D01*
X142862380Y-109501238D02*
X142862380Y-109234571D01*
X142862380Y-109234571D02*
X142900476Y-109082190D01*
X142900476Y-109082190D02*
X142976666Y-109006000D01*
X142976666Y-109006000D02*
X143052857Y-108967904D01*
X143052857Y-108967904D02*
X143205238Y-108967904D01*
X143205238Y-108967904D02*
X143281428Y-109006000D01*
X143281428Y-109006000D02*
X143357619Y-109082190D01*
X143357619Y-109082190D02*
X143395714Y-109234571D01*
X143395714Y-109234571D02*
X143395714Y-109501238D01*
X143395714Y-109501238D02*
X143357619Y-109653619D01*
X143357619Y-109653619D02*
X143281428Y-109729809D01*
X143281428Y-109729809D02*
X143205238Y-109767904D01*
X143205238Y-109767904D02*
X143052857Y-109767904D01*
X143700475Y-109044095D02*
X143738571Y-109006000D01*
X143738571Y-109006000D02*
X143814761Y-108967904D01*
X143814761Y-108967904D02*
X144005237Y-108967904D01*
X144005237Y-108967904D02*
X144081428Y-109006000D01*
X144081428Y-109006000D02*
X144119523Y-109044095D01*
X144119523Y-109044095D02*
X144157618Y-109120285D01*
X144157618Y-109120285D02*
X144157618Y-109196476D01*
X144157618Y-109196476D02*
X144119523Y-109310761D01*
X144119523Y-109310761D02*
X143662380Y-109767904D01*
X143662380Y-109767904D02*
X144157618Y-109767904D01*
%TO.C,TP8*%
X130816476Y-117095904D02*
X131273619Y-117095904D01*
X131045047Y-117895904D02*
X131045047Y-117095904D01*
X131540286Y-117895904D02*
X131540286Y-117095904D01*
X131540286Y-117095904D02*
X131845048Y-117095904D01*
X131845048Y-117095904D02*
X131921238Y-117134000D01*
X131921238Y-117134000D02*
X131959333Y-117172095D01*
X131959333Y-117172095D02*
X131997429Y-117248285D01*
X131997429Y-117248285D02*
X131997429Y-117362571D01*
X131997429Y-117362571D02*
X131959333Y-117438761D01*
X131959333Y-117438761D02*
X131921238Y-117476857D01*
X131921238Y-117476857D02*
X131845048Y-117514952D01*
X131845048Y-117514952D02*
X131540286Y-117514952D01*
X132454571Y-117438761D02*
X132378381Y-117400666D01*
X132378381Y-117400666D02*
X132340286Y-117362571D01*
X132340286Y-117362571D02*
X132302190Y-117286380D01*
X132302190Y-117286380D02*
X132302190Y-117248285D01*
X132302190Y-117248285D02*
X132340286Y-117172095D01*
X132340286Y-117172095D02*
X132378381Y-117134000D01*
X132378381Y-117134000D02*
X132454571Y-117095904D01*
X132454571Y-117095904D02*
X132606952Y-117095904D01*
X132606952Y-117095904D02*
X132683143Y-117134000D01*
X132683143Y-117134000D02*
X132721238Y-117172095D01*
X132721238Y-117172095D02*
X132759333Y-117248285D01*
X132759333Y-117248285D02*
X132759333Y-117286380D01*
X132759333Y-117286380D02*
X132721238Y-117362571D01*
X132721238Y-117362571D02*
X132683143Y-117400666D01*
X132683143Y-117400666D02*
X132606952Y-117438761D01*
X132606952Y-117438761D02*
X132454571Y-117438761D01*
X132454571Y-117438761D02*
X132378381Y-117476857D01*
X132378381Y-117476857D02*
X132340286Y-117514952D01*
X132340286Y-117514952D02*
X132302190Y-117591142D01*
X132302190Y-117591142D02*
X132302190Y-117743523D01*
X132302190Y-117743523D02*
X132340286Y-117819714D01*
X132340286Y-117819714D02*
X132378381Y-117857809D01*
X132378381Y-117857809D02*
X132454571Y-117895904D01*
X132454571Y-117895904D02*
X132606952Y-117895904D01*
X132606952Y-117895904D02*
X132683143Y-117857809D01*
X132683143Y-117857809D02*
X132721238Y-117819714D01*
X132721238Y-117819714D02*
X132759333Y-117743523D01*
X132759333Y-117743523D02*
X132759333Y-117591142D01*
X132759333Y-117591142D02*
X132721238Y-117514952D01*
X132721238Y-117514952D02*
X132683143Y-117476857D01*
X132683143Y-117476857D02*
X132606952Y-117438761D01*
%TO.C,Q3*%
X131495809Y-109844095D02*
X131419619Y-109806000D01*
X131419619Y-109806000D02*
X131343428Y-109729809D01*
X131343428Y-109729809D02*
X131229142Y-109615523D01*
X131229142Y-109615523D02*
X131152952Y-109577428D01*
X131152952Y-109577428D02*
X131076761Y-109577428D01*
X131114857Y-109767904D02*
X131038666Y-109729809D01*
X131038666Y-109729809D02*
X130962476Y-109653619D01*
X130962476Y-109653619D02*
X130924380Y-109501238D01*
X130924380Y-109501238D02*
X130924380Y-109234571D01*
X130924380Y-109234571D02*
X130962476Y-109082190D01*
X130962476Y-109082190D02*
X131038666Y-109006000D01*
X131038666Y-109006000D02*
X131114857Y-108967904D01*
X131114857Y-108967904D02*
X131267238Y-108967904D01*
X131267238Y-108967904D02*
X131343428Y-109006000D01*
X131343428Y-109006000D02*
X131419619Y-109082190D01*
X131419619Y-109082190D02*
X131457714Y-109234571D01*
X131457714Y-109234571D02*
X131457714Y-109501238D01*
X131457714Y-109501238D02*
X131419619Y-109653619D01*
X131419619Y-109653619D02*
X131343428Y-109729809D01*
X131343428Y-109729809D02*
X131267238Y-109767904D01*
X131267238Y-109767904D02*
X131114857Y-109767904D01*
X131724380Y-108967904D02*
X132219618Y-108967904D01*
X132219618Y-108967904D02*
X131952952Y-109272666D01*
X131952952Y-109272666D02*
X132067237Y-109272666D01*
X132067237Y-109272666D02*
X132143428Y-109310761D01*
X132143428Y-109310761D02*
X132181523Y-109348857D01*
X132181523Y-109348857D02*
X132219618Y-109425047D01*
X132219618Y-109425047D02*
X132219618Y-109615523D01*
X132219618Y-109615523D02*
X132181523Y-109691714D01*
X132181523Y-109691714D02*
X132143428Y-109729809D01*
X132143428Y-109729809D02*
X132067237Y-109767904D01*
X132067237Y-109767904D02*
X131838666Y-109767904D01*
X131838666Y-109767904D02*
X131762475Y-109729809D01*
X131762475Y-109729809D02*
X131724380Y-109691714D01*
%TO.C,D2*%
X144565904Y-108032475D02*
X143765904Y-108032475D01*
X143765904Y-108032475D02*
X143765904Y-107841999D01*
X143765904Y-107841999D02*
X143804000Y-107727713D01*
X143804000Y-107727713D02*
X143880190Y-107651523D01*
X143880190Y-107651523D02*
X143956380Y-107613428D01*
X143956380Y-107613428D02*
X144108761Y-107575332D01*
X144108761Y-107575332D02*
X144223047Y-107575332D01*
X144223047Y-107575332D02*
X144375428Y-107613428D01*
X144375428Y-107613428D02*
X144451619Y-107651523D01*
X144451619Y-107651523D02*
X144527809Y-107727713D01*
X144527809Y-107727713D02*
X144565904Y-107841999D01*
X144565904Y-107841999D02*
X144565904Y-108032475D01*
X143842095Y-107270571D02*
X143804000Y-107232475D01*
X143804000Y-107232475D02*
X143765904Y-107156285D01*
X143765904Y-107156285D02*
X143765904Y-106965809D01*
X143765904Y-106965809D02*
X143804000Y-106889618D01*
X143804000Y-106889618D02*
X143842095Y-106851523D01*
X143842095Y-106851523D02*
X143918285Y-106813428D01*
X143918285Y-106813428D02*
X143994476Y-106813428D01*
X143994476Y-106813428D02*
X144108761Y-106851523D01*
X144108761Y-106851523D02*
X144565904Y-107308666D01*
X144565904Y-107308666D02*
X144565904Y-106813428D01*
%TO.C,C2*%
X140836667Y-108675714D02*
X140798571Y-108713809D01*
X140798571Y-108713809D02*
X140684286Y-108751904D01*
X140684286Y-108751904D02*
X140608095Y-108751904D01*
X140608095Y-108751904D02*
X140493809Y-108713809D01*
X140493809Y-108713809D02*
X140417619Y-108637619D01*
X140417619Y-108637619D02*
X140379524Y-108561428D01*
X140379524Y-108561428D02*
X140341428Y-108409047D01*
X140341428Y-108409047D02*
X140341428Y-108294761D01*
X140341428Y-108294761D02*
X140379524Y-108142380D01*
X140379524Y-108142380D02*
X140417619Y-108066190D01*
X140417619Y-108066190D02*
X140493809Y-107990000D01*
X140493809Y-107990000D02*
X140608095Y-107951904D01*
X140608095Y-107951904D02*
X140684286Y-107951904D01*
X140684286Y-107951904D02*
X140798571Y-107990000D01*
X140798571Y-107990000D02*
X140836667Y-108028095D01*
X141141428Y-108028095D02*
X141179524Y-107990000D01*
X141179524Y-107990000D02*
X141255714Y-107951904D01*
X141255714Y-107951904D02*
X141446190Y-107951904D01*
X141446190Y-107951904D02*
X141522381Y-107990000D01*
X141522381Y-107990000D02*
X141560476Y-108028095D01*
X141560476Y-108028095D02*
X141598571Y-108104285D01*
X141598571Y-108104285D02*
X141598571Y-108180476D01*
X141598571Y-108180476D02*
X141560476Y-108294761D01*
X141560476Y-108294761D02*
X141103333Y-108751904D01*
X141103333Y-108751904D02*
X141598571Y-108751904D01*
%TO.C,D5*%
X132759524Y-108497904D02*
X132759524Y-107697904D01*
X132759524Y-107697904D02*
X132950000Y-107697904D01*
X132950000Y-107697904D02*
X133064286Y-107736000D01*
X133064286Y-107736000D02*
X133140476Y-107812190D01*
X133140476Y-107812190D02*
X133178571Y-107888380D01*
X133178571Y-107888380D02*
X133216667Y-108040761D01*
X133216667Y-108040761D02*
X133216667Y-108155047D01*
X133216667Y-108155047D02*
X133178571Y-108307428D01*
X133178571Y-108307428D02*
X133140476Y-108383619D01*
X133140476Y-108383619D02*
X133064286Y-108459809D01*
X133064286Y-108459809D02*
X132950000Y-108497904D01*
X132950000Y-108497904D02*
X132759524Y-108497904D01*
X133940476Y-107697904D02*
X133559524Y-107697904D01*
X133559524Y-107697904D02*
X133521428Y-108078857D01*
X133521428Y-108078857D02*
X133559524Y-108040761D01*
X133559524Y-108040761D02*
X133635714Y-108002666D01*
X133635714Y-108002666D02*
X133826190Y-108002666D01*
X133826190Y-108002666D02*
X133902381Y-108040761D01*
X133902381Y-108040761D02*
X133940476Y-108078857D01*
X133940476Y-108078857D02*
X133978571Y-108155047D01*
X133978571Y-108155047D02*
X133978571Y-108345523D01*
X133978571Y-108345523D02*
X133940476Y-108421714D01*
X133940476Y-108421714D02*
X133902381Y-108459809D01*
X133902381Y-108459809D02*
X133826190Y-108497904D01*
X133826190Y-108497904D02*
X133635714Y-108497904D01*
X133635714Y-108497904D02*
X133559524Y-108459809D01*
X133559524Y-108459809D02*
X133521428Y-108421714D01*
%TO.C,R2*%
X135248667Y-108497904D02*
X134982000Y-108116952D01*
X134791524Y-108497904D02*
X134791524Y-107697904D01*
X134791524Y-107697904D02*
X135096286Y-107697904D01*
X135096286Y-107697904D02*
X135172476Y-107736000D01*
X135172476Y-107736000D02*
X135210571Y-107774095D01*
X135210571Y-107774095D02*
X135248667Y-107850285D01*
X135248667Y-107850285D02*
X135248667Y-107964571D01*
X135248667Y-107964571D02*
X135210571Y-108040761D01*
X135210571Y-108040761D02*
X135172476Y-108078857D01*
X135172476Y-108078857D02*
X135096286Y-108116952D01*
X135096286Y-108116952D02*
X134791524Y-108116952D01*
X135553428Y-107774095D02*
X135591524Y-107736000D01*
X135591524Y-107736000D02*
X135667714Y-107697904D01*
X135667714Y-107697904D02*
X135858190Y-107697904D01*
X135858190Y-107697904D02*
X135934381Y-107736000D01*
X135934381Y-107736000D02*
X135972476Y-107774095D01*
X135972476Y-107774095D02*
X136010571Y-107850285D01*
X136010571Y-107850285D02*
X136010571Y-107926476D01*
X136010571Y-107926476D02*
X135972476Y-108040761D01*
X135972476Y-108040761D02*
X135515333Y-108497904D01*
X135515333Y-108497904D02*
X136010571Y-108497904D01*
D11*
%TO.C,U2*%
X139524000Y-111682000D02*
X139524000Y-112407000D01*
X136029000Y-111682000D02*
X135304000Y-111682000D01*
X135304000Y-115902000D02*
X135304000Y-115177000D01*
X138799000Y-115902000D02*
X139524000Y-115902000D01*
X138799000Y-111682000D02*
X139524000Y-111682000D01*
X139524000Y-115902000D02*
X139524000Y-115177000D01*
X136029000Y-115902000D02*
X135304000Y-115902000D01*
%TO.C,R1*%
X131811500Y-115807258D02*
X131811500Y-115332742D01*
X132856500Y-115807258D02*
X132856500Y-115332742D01*
%TO.C,C1*%
X135241420Y-108964000D02*
X135522580Y-108964000D01*
X135241420Y-109984000D02*
X135522580Y-109984000D01*
%TO.C,Q1*%
X136870000Y-106172000D02*
X136870000Y-107847000D01*
X136870000Y-106172000D02*
X136870000Y-105522000D01*
X139990000Y-106172000D02*
X139990000Y-106822000D01*
X139990000Y-106172000D02*
X139990000Y-105522000D01*
%TO.C,D3*%
X129440000Y-108800000D02*
X130910000Y-108800000D01*
X130910000Y-108800000D02*
X130910000Y-106515000D01*
X129440000Y-106515000D02*
X129440000Y-108800000D01*
%TO.C,D1*%
X131164000Y-113831000D02*
X129694000Y-113831000D01*
X129694000Y-113831000D02*
X129694000Y-116116000D01*
X131164000Y-116116000D02*
X131164000Y-113831000D01*
%TO.C,D4*%
X143102000Y-114085000D02*
X141632000Y-114085000D01*
X141632000Y-114085000D02*
X141632000Y-116370000D01*
X143102000Y-116370000D02*
X143102000Y-114085000D01*
%TO.C,TP7*%
X135825000Y-102043000D02*
X137225000Y-102043000D01*
X135825000Y-103443000D02*
X135825000Y-102043000D01*
X137225000Y-102043000D02*
X137225000Y-103443000D01*
X137225000Y-103443000D02*
X135825000Y-103443000D01*
%TO.C,Q2*%
X142048000Y-112666000D02*
X143448000Y-112666000D01*
X143448000Y-110346000D02*
X141548000Y-110346000D01*
%TO.C,TP8*%
X135952000Y-118934000D02*
X137352000Y-118934000D01*
X135952000Y-120334000D02*
X135952000Y-118934000D01*
X137352000Y-118934000D02*
X137352000Y-120334000D01*
X137352000Y-120334000D02*
X135952000Y-120334000D01*
%TO.C,Q3*%
X131256000Y-110092000D02*
X129856000Y-110092000D01*
X129856000Y-112412000D02*
X131756000Y-112412000D01*
%TO.C,D2*%
X141886000Y-108673000D02*
X143356000Y-108673000D01*
X143356000Y-108673000D02*
X143356000Y-106388000D01*
X141886000Y-106388000D02*
X141886000Y-108673000D01*
%TO.C,C2*%
X138926180Y-109984000D02*
X138645020Y-109984000D01*
X138926180Y-108964000D02*
X138645020Y-108964000D01*
%TO.C,D5*%
X132615000Y-107403000D02*
X134085000Y-107403000D01*
X134085000Y-107403000D02*
X134085000Y-105118000D01*
X132615000Y-105118000D02*
X132615000Y-107403000D01*
%TO.C,R2*%
X134859500Y-106155258D02*
X134859500Y-105680742D01*
X135904500Y-106155258D02*
X135904500Y-105680742D01*
%TD*%
M02*
