%TF.GenerationSoftware,KiCad,Pcbnew,7.0.7*%
%TF.CreationDate,2023-11-23T23:21:53+10:30*%
%TF.ProjectId,ring_pcb_IR,72696e67-5f70-4636-925f-49522e6b6963,rev?*%
%TF.SameCoordinates,Original*%
%TF.FileFunction,Soldermask,Top*%
%TF.FilePolarity,Negative*%
%FSLAX46Y46*%
G04 Gerber Fmt 4.6, Leading zero omitted, Abs format (unit mm)*
G04 Created by KiCad (PCBNEW 7.0.7) date 2023-11-23 23:21:53*
%MOMM*%
%LPD*%
G01*
G04 APERTURE LIST*
G04 Aperture macros list*
%AMRoundRect*
0 Rectangle with rounded corners*
0 $1 Rounding radius*
0 $2 $3 $4 $5 $6 $7 $8 $9 X,Y pos of 4 corners*
0 Add a 4 corners polygon primitive as box body*
4,1,4,$2,$3,$4,$5,$6,$7,$8,$9,$2,$3,0*
0 Add four circle primitives for the rounded corners*
1,1,$1+$1,$2,$3*
1,1,$1+$1,$4,$5*
1,1,$1+$1,$6,$7*
1,1,$1+$1,$8,$9*
0 Add four rect primitives between the rounded corners*
20,1,$1+$1,$2,$3,$4,$5,0*
20,1,$1+$1,$4,$5,$6,$7,0*
20,1,$1+$1,$6,$7,$8,$9,0*
20,1,$1+$1,$8,$9,$2,$3,0*%
G04 Aperture macros list end*
%ADD10RoundRect,0.200000X0.275000X-0.200000X0.275000X0.200000X-0.275000X0.200000X-0.275000X-0.200000X0*%
%ADD11RoundRect,0.225000X-0.225000X-0.250000X0.225000X-0.250000X0.225000X0.250000X-0.225000X0.250000X0*%
%ADD12RoundRect,0.150000X0.150000X-0.587500X0.150000X0.587500X-0.150000X0.587500X-0.150000X-0.587500X0*%
%ADD13RoundRect,0.218750X0.256250X-0.218750X0.256250X0.218750X-0.256250X0.218750X-0.256250X-0.218750X0*%
%ADD14RoundRect,0.218750X-0.256250X0.218750X-0.256250X-0.218750X0.256250X-0.218750X0.256250X0.218750X0*%
%ADD15R,1.000000X1.000000*%
%ADD16RoundRect,0.150000X0.512500X0.150000X-0.512500X0.150000X-0.512500X-0.150000X0.512500X-0.150000X0*%
%ADD17RoundRect,0.062500X-0.362500X-0.062500X0.362500X-0.062500X0.362500X0.062500X-0.362500X0.062500X0*%
%ADD18RoundRect,0.062500X-0.062500X-0.362500X0.062500X-0.362500X0.062500X0.362500X-0.062500X0.362500X0*%
%ADD19R,2.600000X2.600000*%
%ADD20RoundRect,0.225000X0.225000X0.250000X-0.225000X0.250000X-0.225000X-0.250000X0.225000X-0.250000X0*%
%ADD21RoundRect,0.150000X-0.512500X-0.150000X0.512500X-0.150000X0.512500X0.150000X-0.512500X0.150000X0*%
G04 APERTURE END LIST*
D10*
%TO.C,R1*%
X132334000Y-116395000D03*
X132334000Y-114745000D03*
%TD*%
D11*
%TO.C,C1*%
X134607000Y-109474000D03*
X136157000Y-109474000D03*
%TD*%
D12*
%TO.C,Q1*%
X137480000Y-107109500D03*
X139380000Y-107109500D03*
X138430000Y-105234500D03*
%TD*%
D13*
%TO.C,D3*%
X130048000Y-107721500D03*
X130048000Y-106146500D03*
%TD*%
D14*
%TO.C,D1*%
X130302000Y-114808000D03*
X130302000Y-116383000D03*
%TD*%
%TO.C,D4*%
X143256000Y-114528500D03*
X143256000Y-116103500D03*
%TD*%
D15*
%TO.C,TP7*%
X136525000Y-102717600D03*
%TD*%
%TO.C,TP8*%
X136652000Y-119634000D03*
%TD*%
D16*
%TO.C,Q2*%
X144393500Y-112202000D03*
X144393500Y-111252000D03*
X144393500Y-110302000D03*
X142118500Y-110302000D03*
X142118500Y-111252000D03*
X142118500Y-112202000D03*
%TD*%
D13*
%TO.C,D2*%
X143256000Y-107721500D03*
X143256000Y-106146500D03*
%TD*%
D17*
%TO.C,U2*%
X135489000Y-112792000D03*
X135489000Y-113292000D03*
X135489000Y-113792000D03*
X135489000Y-114292000D03*
X135489000Y-114792000D03*
D18*
X136414000Y-115717000D03*
X136914000Y-115717000D03*
X137414000Y-115717000D03*
X137914000Y-115717000D03*
X138414000Y-115717000D03*
D17*
X139339000Y-114792000D03*
X139339000Y-114292000D03*
X139339000Y-113792000D03*
X139339000Y-113292000D03*
X139339000Y-112792000D03*
D18*
X138414000Y-111867000D03*
X137914000Y-111867000D03*
X137414000Y-111867000D03*
X136914000Y-111867000D03*
X136414000Y-111867000D03*
D19*
X137414000Y-113792000D03*
%TD*%
D20*
%TO.C,C2*%
X139560600Y-109474000D03*
X138010600Y-109474000D03*
%TD*%
D21*
%TO.C,Q3*%
X129672500Y-110302000D03*
X129672500Y-111252000D03*
X129672500Y-112202000D03*
X131947500Y-112202000D03*
X131947500Y-111252000D03*
X131947500Y-110302000D03*
%TD*%
D13*
%TO.C,D5*%
X133350000Y-106705500D03*
X133350000Y-105130500D03*
%TD*%
D10*
%TO.C,R2*%
X135382000Y-106743000D03*
X135382000Y-105093000D03*
%TD*%
G36*
X140963543Y-118256847D02*
G01*
X141009448Y-118309520D01*
X141020800Y-118361352D01*
X141020800Y-120526000D01*
X141001115Y-120593039D01*
X140948311Y-120638794D01*
X140896800Y-120650000D01*
X132204000Y-120650000D01*
X132136961Y-120630315D01*
X132091206Y-120577511D01*
X132080000Y-120526000D01*
X132080000Y-118386047D01*
X132099685Y-118319008D01*
X132152489Y-118273253D01*
X132203648Y-118262048D01*
X140896448Y-118237353D01*
X140963543Y-118256847D01*
G37*
G36*
X140938439Y-101619685D02*
G01*
X140984194Y-101672489D01*
X140995400Y-101724000D01*
X140995400Y-103888647D01*
X140975715Y-103955686D01*
X140922911Y-104001441D01*
X140871048Y-104012646D01*
X132178248Y-103987951D01*
X132111264Y-103968077D01*
X132065660Y-103915143D01*
X132054600Y-103863952D01*
X132054600Y-101724000D01*
X132074285Y-101656961D01*
X132127089Y-101611206D01*
X132178600Y-101600000D01*
X140871400Y-101600000D01*
X140938439Y-101619685D01*
G37*
M02*
