%TF.GenerationSoftware,KiCad,Pcbnew,(7.0.0)*%
%TF.CreationDate,2023-12-02T15:30:32+10:30*%
%TF.ProjectId,ring_pcb_IR,72696e67-5f70-4636-925f-49522e6b6963,rev?*%
%TF.SameCoordinates,Original*%
%TF.FileFunction,Copper,L1,Top*%
%TF.FilePolarity,Positive*%
%FSLAX46Y46*%
G04 Gerber Fmt 4.6, Leading zero omitted, Abs format (unit mm)*
G04 Created by KiCad (PCBNEW (7.0.0)) date 2023-12-02 15:30:32*
%MOMM*%
%LPD*%
G01*
G04 APERTURE LIST*
G04 Aperture macros list*
%AMRoundRect*
0 Rectangle with rounded corners*
0 $1 Rounding radius*
0 $2 $3 $4 $5 $6 $7 $8 $9 X,Y pos of 4 corners*
0 Add a 4 corners polygon primitive as box body*
4,1,4,$2,$3,$4,$5,$6,$7,$8,$9,$2,$3,0*
0 Add four circle primitives for the rounded corners*
1,1,$1+$1,$2,$3*
1,1,$1+$1,$4,$5*
1,1,$1+$1,$6,$7*
1,1,$1+$1,$8,$9*
0 Add four rect primitives between the rounded corners*
20,1,$1+$1,$2,$3,$4,$5,0*
20,1,$1+$1,$4,$5,$6,$7,0*
20,1,$1+$1,$6,$7,$8,$9,0*
20,1,$1+$1,$8,$9,$2,$3,0*%
G04 Aperture macros list end*
%TA.AperFunction,SMDPad,CuDef*%
%ADD10RoundRect,0.062500X-0.362500X-0.062500X0.362500X-0.062500X0.362500X0.062500X-0.362500X0.062500X0*%
%TD*%
%TA.AperFunction,SMDPad,CuDef*%
%ADD11RoundRect,0.062500X-0.062500X-0.362500X0.062500X-0.362500X0.062500X0.362500X-0.062500X0.362500X0*%
%TD*%
%TA.AperFunction,SMDPad,CuDef*%
%ADD12R,2.600000X2.600000*%
%TD*%
%TA.AperFunction,SMDPad,CuDef*%
%ADD13RoundRect,0.200000X0.275000X-0.200000X0.275000X0.200000X-0.275000X0.200000X-0.275000X-0.200000X0*%
%TD*%
%TA.AperFunction,SMDPad,CuDef*%
%ADD14RoundRect,0.225000X-0.225000X-0.250000X0.225000X-0.250000X0.225000X0.250000X-0.225000X0.250000X0*%
%TD*%
%TA.AperFunction,SMDPad,CuDef*%
%ADD15RoundRect,0.150000X0.150000X-0.587500X0.150000X0.587500X-0.150000X0.587500X-0.150000X-0.587500X0*%
%TD*%
%TA.AperFunction,SMDPad,CuDef*%
%ADD16RoundRect,0.218750X0.256250X-0.218750X0.256250X0.218750X-0.256250X0.218750X-0.256250X-0.218750X0*%
%TD*%
%TA.AperFunction,SMDPad,CuDef*%
%ADD17RoundRect,0.218750X-0.256250X0.218750X-0.256250X-0.218750X0.256250X-0.218750X0.256250X0.218750X0*%
%TD*%
%TA.AperFunction,SMDPad,CuDef*%
%ADD18R,1.000000X1.000000*%
%TD*%
%TA.AperFunction,SMDPad,CuDef*%
%ADD19R,0.650000X0.400000*%
%TD*%
%TA.AperFunction,SMDPad,CuDef*%
%ADD20RoundRect,0.225000X0.225000X0.250000X-0.225000X0.250000X-0.225000X-0.250000X0.225000X-0.250000X0*%
%TD*%
%TA.AperFunction,ViaPad*%
%ADD21C,0.800000*%
%TD*%
%TA.AperFunction,Conductor*%
%ADD22C,0.250000*%
%TD*%
G04 APERTURE END LIST*
D10*
%TO.P,U2,1,~{RESET}/PB5*%
%TO.N,PB5*%
X135489000Y-112792000D03*
%TO.P,U2,2,XTAL1/PB3*%
%TO.N,PB3*%
X135489000Y-113292000D03*
%TO.P,U2,3,NC*%
%TO.N,unconnected-(U2-NC-Pad3)*%
X135489000Y-113792000D03*
%TO.P,U2,4,NC*%
%TO.N,unconnected-(U2-NC-Pad4)*%
X135489000Y-114292000D03*
%TO.P,U2,5,XTAL2/PB4*%
%TO.N,PB4*%
X135489000Y-114792000D03*
D11*
%TO.P,U2,6,NC*%
%TO.N,unconnected-(U2-NC-Pad6)*%
X136414000Y-115717000D03*
%TO.P,U2,7,NC*%
%TO.N,unconnected-(U2-NC-Pad7)*%
X136914000Y-115717000D03*
%TO.P,U2,8,GND*%
%TO.N,GND*%
X137414000Y-115717000D03*
%TO.P,U2,9,NC*%
%TO.N,unconnected-(U2-NC-Pad9)*%
X137914000Y-115717000D03*
%TO.P,U2,10,NC*%
%TO.N,unconnected-(U2-NC-Pad10)*%
X138414000Y-115717000D03*
D10*
%TO.P,U2,11,AREF/PB0*%
%TO.N,PB0*%
X139339000Y-114792000D03*
%TO.P,U2,12,PB1*%
%TO.N,PB1*%
X139339000Y-114292000D03*
%TO.P,U2,13,NC*%
%TO.N,unconnected-(U2-NC-Pad13)*%
X139339000Y-113792000D03*
%TO.P,U2,14,PB2*%
%TO.N,PB2*%
X139339000Y-113292000D03*
%TO.P,U2,15,VCC*%
%TO.N,VCC*%
X139339000Y-112792000D03*
D11*
%TO.P,U2,16,NC*%
%TO.N,unconnected-(U2-NC-Pad16)*%
X138414000Y-111867000D03*
%TO.P,U2,17,NC*%
%TO.N,unconnected-(U2-NC-Pad17)*%
X137914000Y-111867000D03*
%TO.P,U2,18,NC*%
%TO.N,unconnected-(U2-NC-Pad18)*%
X137414000Y-111867000D03*
%TO.P,U2,19,NC*%
%TO.N,unconnected-(U2-NC-Pad19)*%
X136914000Y-111867000D03*
%TO.P,U2,20,NC*%
%TO.N,unconnected-(U2-NC-Pad20)*%
X136414000Y-111867000D03*
D12*
%TO.P,U2,21,GND*%
%TO.N,GND*%
X137413999Y-113791999D03*
%TD*%
D13*
%TO.P,R1,1*%
%TO.N,PB0*%
X132334000Y-116395000D03*
%TO.P,R1,2*%
%TO.N,Net-(Q1-B)*%
X132334000Y-114745000D03*
%TD*%
D14*
%TO.P,C1,1*%
%TO.N,VCC*%
X134607000Y-109474000D03*
%TO.P,C1,2*%
%TO.N,GND*%
X136157000Y-109474000D03*
%TD*%
D15*
%TO.P,Q1,1,B*%
%TO.N,Net-(Q1-B)*%
X137480000Y-107109500D03*
%TO.P,Q1,2,E*%
%TO.N,VCC*%
X139380000Y-107109500D03*
%TO.P,Q1,3,C*%
%TO.N,Net-(Q1-C)*%
X138430000Y-105234500D03*
%TD*%
D16*
%TO.P,D3,1,K*%
%TO.N,Net-(D3-K)*%
X130175000Y-108102500D03*
%TO.P,D3,2,A*%
%TO.N,VCC*%
X130175000Y-106527500D03*
%TD*%
D17*
%TO.P,D1,1,K*%
%TO.N,Net-(D1-K)*%
X130429000Y-114528500D03*
%TO.P,D1,2,A*%
%TO.N,VCC*%
X130429000Y-116103500D03*
%TD*%
%TO.P,D4,1,K*%
%TO.N,Net-(D4-K)*%
X142367000Y-114782500D03*
%TO.P,D4,2,A*%
%TO.N,VCC*%
X142367000Y-116357500D03*
%TD*%
D18*
%TO.P,TP7,1,1*%
%TO.N,GND*%
X136524999Y-102742999D03*
%TD*%
D19*
%TO.P,Q2,1,E1*%
%TO.N,GND*%
X141797999Y-110855999D03*
%TO.P,Q2,2,B1*%
%TO.N,Net-(Q1-C)*%
X141797999Y-111505999D03*
%TO.P,Q2,3,C2*%
%TO.N,Net-(D4-K)*%
X141797999Y-112155999D03*
%TO.P,Q2,4,E2*%
%TO.N,GND*%
X143697999Y-112155999D03*
%TO.P,Q2,5,B2*%
%TO.N,Net-(Q1-C)*%
X143697999Y-111505999D03*
%TO.P,Q2,6,C1*%
%TO.N,Net-(D2-K)*%
X143697999Y-110855999D03*
%TD*%
D18*
%TO.P,TP8,1,1*%
%TO.N,GND*%
X136651999Y-119633999D03*
%TD*%
D19*
%TO.P,Q3,1,E1*%
%TO.N,GND*%
X131505999Y-111901999D03*
%TO.P,Q3,2,B1*%
%TO.N,Net-(Q1-C)*%
X131505999Y-111251999D03*
%TO.P,Q3,3,C2*%
%TO.N,Net-(D3-K)*%
X131505999Y-110601999D03*
%TO.P,Q3,4,E2*%
%TO.N,GND*%
X129605999Y-110601999D03*
%TO.P,Q3,5,B2*%
%TO.N,Net-(Q1-C)*%
X129605999Y-111251999D03*
%TO.P,Q3,6,C1*%
%TO.N,Net-(D1-K)*%
X129605999Y-111901999D03*
%TD*%
D16*
%TO.P,D2,1,K*%
%TO.N,Net-(D2-K)*%
X142621000Y-107975500D03*
%TO.P,D2,2,A*%
%TO.N,VCC*%
X142621000Y-106400500D03*
%TD*%
D20*
%TO.P,C2,1*%
%TO.N,VCC*%
X139560600Y-109474000D03*
%TO.P,C2,2*%
%TO.N,GND*%
X138010600Y-109474000D03*
%TD*%
D16*
%TO.P,D5,1,K*%
%TO.N,Net-(D5-K)*%
X133350000Y-106705500D03*
%TO.P,D5,2,A*%
%TO.N,VCC*%
X133350000Y-105130500D03*
%TD*%
D13*
%TO.P,R2,1*%
%TO.N,Net-(D5-K)*%
X135382000Y-106743000D03*
%TO.P,R2,2*%
%TO.N,PB2*%
X135382000Y-105093000D03*
%TD*%
D21*
%TO.N,VCC*%
X132040700Y-106090200D03*
X128911300Y-115636100D03*
X139781100Y-111220900D03*
X141243500Y-116265700D03*
X133204100Y-110547700D03*
X141521300Y-105860900D03*
%TO.N,GND*%
X136652000Y-105410000D03*
X136429499Y-107981499D03*
X143669400Y-113538000D03*
X142240000Y-109474000D03*
X138430000Y-107188000D03*
%TO.N,PB0*%
X139458600Y-117156500D03*
%TO.N,PB1*%
X140464200Y-117185100D03*
%TO.N,PB2*%
X141224000Y-113284000D03*
%TO.N,PB3*%
X134448300Y-113668500D03*
%TO.N,PB4*%
X134486620Y-114838176D03*
%TO.N,PB5*%
X133517000Y-114595600D03*
%TD*%
D22*
%TO.N,Net-(D1-K)*%
X129606000Y-111902000D02*
X130256100Y-111902000D01*
X130256100Y-114355600D02*
X130256100Y-111902000D01*
X130429000Y-114528500D02*
X130256100Y-114355600D01*
%TO.N,Net-(D2-K)*%
X143698000Y-110856000D02*
X143047900Y-110856000D01*
X143047900Y-108402400D02*
X143047900Y-110856000D01*
X142621000Y-107975500D02*
X143047900Y-108402400D01*
%TO.N,Net-(D3-K)*%
X131506000Y-110602000D02*
X130855900Y-110602000D01*
X130855900Y-108783400D02*
X130855900Y-110602000D01*
X130175000Y-108102500D02*
X130855900Y-108783400D01*
%TO.N,Net-(D4-K)*%
X142448100Y-114701400D02*
X142448100Y-112156000D01*
X141798000Y-112156000D02*
X142448100Y-112156000D01*
X142367000Y-114782500D02*
X142448100Y-114701400D01*
%TO.N,VCC*%
X139339000Y-112792000D02*
X140208000Y-112792000D01*
X132040700Y-106090200D02*
X130612300Y-106090200D01*
X133533300Y-110547700D02*
X134607000Y-109474000D01*
X139560600Y-107290100D02*
X139380000Y-107109500D01*
X139560600Y-109474000D02*
X139560600Y-107290100D01*
X142081400Y-105860900D02*
X142621000Y-106400500D01*
X129961600Y-115636100D02*
X130429000Y-116103500D01*
X133000400Y-105130500D02*
X132040700Y-106090200D01*
X142275200Y-116265700D02*
X142367000Y-116357500D01*
X130612300Y-106090200D02*
X130175000Y-106527500D01*
X139560600Y-111220900D02*
X139781100Y-111220900D01*
X133350000Y-105130500D02*
X133000400Y-105130500D01*
X139560600Y-111220900D02*
X139560600Y-109474000D01*
X140208000Y-111868300D02*
X139560600Y-111220900D01*
X141521300Y-105860900D02*
X142081400Y-105860900D01*
X141243500Y-116265700D02*
X142275200Y-116265700D01*
X128911300Y-115636100D02*
X129961600Y-115636100D01*
X133204100Y-110547700D02*
X133533300Y-110547700D01*
X140208000Y-112792000D02*
X140208000Y-111868300D01*
%TO.N,Net-(D5-K)*%
X135344500Y-106705500D02*
X135382000Y-106743000D01*
X133350000Y-106705500D02*
X135344500Y-106705500D01*
%TO.N,GND*%
X143698000Y-113509400D02*
X143669400Y-113538000D01*
X136429499Y-109201501D02*
X136157000Y-109474000D01*
X143698000Y-112156000D02*
X143698000Y-113509400D01*
X138430000Y-109054600D02*
X138430000Y-107188000D01*
X138010600Y-109474000D02*
X138430000Y-109054600D01*
X136429499Y-107981499D02*
X136429499Y-109201501D01*
%TO.N,Net-(Q1-B)*%
X132334000Y-114046400D02*
X132334000Y-114745000D01*
X134795500Y-112152200D02*
X134228200Y-112152200D01*
X137234500Y-109713200D02*
X134795500Y-112152200D01*
X134228200Y-112152200D02*
X132334000Y-114046400D01*
X137480000Y-107109500D02*
X137234500Y-107355000D01*
X137234500Y-107355000D02*
X137234500Y-109713200D01*
%TO.N,Net-(Q1-C)*%
X136322000Y-107064400D02*
X135259700Y-108126700D01*
X137909000Y-105234500D02*
X136322000Y-106821500D01*
X134599700Y-108126700D02*
X132156100Y-110570300D01*
X141798000Y-111506000D02*
X143698000Y-111506000D01*
X141147900Y-107438200D02*
X138944200Y-105234500D01*
X131506000Y-111252000D02*
X132156100Y-111252000D01*
X138944200Y-105234500D02*
X138430000Y-105234500D01*
X141147900Y-111506000D02*
X141147900Y-107438200D01*
X138430000Y-105234500D02*
X137909000Y-105234500D01*
X136322000Y-106821500D02*
X136322000Y-107064400D01*
X131506000Y-111252000D02*
X129606000Y-111252000D01*
X141473000Y-111506000D02*
X141798000Y-111506000D01*
X141473000Y-111506000D02*
X141147900Y-111506000D01*
X132156100Y-110570300D02*
X132156100Y-111252000D01*
X135259700Y-108126700D02*
X134599700Y-108126700D01*
%TO.N,PB0*%
X139101800Y-117274100D02*
X139339000Y-117036900D01*
X140014200Y-114808000D02*
X139998200Y-114792000D01*
X133689800Y-116395000D02*
X134568900Y-117274100D01*
X139339000Y-117036900D02*
X140014200Y-116361700D01*
X132334000Y-116395000D02*
X133689800Y-116395000D01*
X139458600Y-117156500D02*
X139339000Y-117036900D01*
X140014200Y-116361700D02*
X140014200Y-114808000D01*
X134568900Y-117274100D02*
X139101800Y-117274100D01*
X139998200Y-114792000D02*
X139339000Y-114792000D01*
%TO.N,PB1*%
X140464200Y-114297800D02*
X140470000Y-114292000D01*
X140470000Y-114292000D02*
X139339000Y-114292000D01*
X140464200Y-117185100D02*
X140464200Y-114297800D01*
%TO.N,PB2*%
X141224000Y-113284000D02*
X141224000Y-114907900D01*
X143108300Y-107188000D02*
X141823000Y-107188000D01*
X141823000Y-107188000D02*
X138804600Y-104169600D01*
X141224000Y-113284000D02*
X141216000Y-113292000D01*
X138804600Y-104169600D02*
X136305400Y-104169600D01*
X141224000Y-114907900D02*
X141910100Y-115594000D01*
X142846800Y-115594000D02*
X144393900Y-114046900D01*
X141216000Y-113292000D02*
X139339000Y-113292000D01*
X136305400Y-104169600D02*
X135382000Y-105093000D01*
X144393900Y-108473600D02*
X143108300Y-107188000D01*
X144393900Y-114046900D02*
X144393900Y-108473600D01*
X141910100Y-115594000D02*
X142846800Y-115594000D01*
%TO.N,PB3*%
X134824800Y-113292000D02*
X135489000Y-113292000D01*
X134448300Y-113668500D02*
X134824800Y-113292000D01*
%TO.N,PB4*%
X134486620Y-114838176D02*
X134516796Y-114808000D01*
X135473000Y-114808000D02*
X135489000Y-114792000D01*
X134516796Y-114808000D02*
X135473000Y-114808000D01*
%TO.N,PB5*%
X134235000Y-112792000D02*
X135489000Y-112792000D01*
X133517000Y-113510000D02*
X134235000Y-112792000D01*
X133517000Y-114595600D02*
X133517000Y-113510000D01*
%TD*%
%TA.AperFunction,Conductor*%
%TO.N,GND*%
G36*
X140930904Y-102355804D02*
G01*
X140966946Y-102367896D01*
X140997632Y-102390340D01*
X145251181Y-106643888D01*
X145278061Y-106684116D01*
X145287500Y-106731569D01*
X145287500Y-115518431D01*
X145278061Y-115565884D01*
X145251181Y-115606112D01*
X140997396Y-119859894D01*
X140966979Y-119882198D01*
X140931264Y-119894326D01*
X137766151Y-120452875D01*
X137701972Y-120447204D01*
X137649302Y-120410096D01*
X137622360Y-120351570D01*
X137628421Y-120287426D01*
X137642888Y-120248639D01*
X137646426Y-120233667D01*
X137651646Y-120185114D01*
X137652000Y-120178518D01*
X137652000Y-119900326D01*
X137648549Y-119887450D01*
X137635674Y-119884000D01*
X135668326Y-119884000D01*
X135655450Y-119887450D01*
X135652000Y-119900326D01*
X135652000Y-120178518D01*
X135652353Y-120185114D01*
X135657573Y-120233667D01*
X135661111Y-120248641D01*
X135679921Y-120299071D01*
X135686030Y-120362923D01*
X135659415Y-120421284D01*
X135607199Y-120458539D01*
X135543354Y-120464717D01*
X132119436Y-119894065D01*
X132083081Y-119882009D01*
X132052140Y-119859433D01*
X131560381Y-119367674D01*
X135652000Y-119367674D01*
X135655450Y-119380549D01*
X135668326Y-119384000D01*
X136385674Y-119384000D01*
X136398549Y-119380549D01*
X136402000Y-119367674D01*
X136902000Y-119367674D01*
X136905450Y-119380549D01*
X136918326Y-119384000D01*
X137635674Y-119384000D01*
X137648549Y-119380549D01*
X137652000Y-119367674D01*
X137652000Y-119089482D01*
X137651646Y-119082885D01*
X137646426Y-119034332D01*
X137642888Y-119019358D01*
X137598452Y-118900222D01*
X137590037Y-118884810D01*
X137514501Y-118783907D01*
X137502092Y-118771498D01*
X137401189Y-118695962D01*
X137385777Y-118687547D01*
X137266641Y-118643111D01*
X137251667Y-118639573D01*
X137203114Y-118634353D01*
X137196518Y-118634000D01*
X136918326Y-118634000D01*
X136905450Y-118637450D01*
X136902000Y-118650326D01*
X136902000Y-119367674D01*
X136402000Y-119367674D01*
X136402000Y-118650326D01*
X136398549Y-118637450D01*
X136385674Y-118634000D01*
X136107482Y-118634000D01*
X136100885Y-118634353D01*
X136052332Y-118639573D01*
X136037358Y-118643111D01*
X135918222Y-118687547D01*
X135902810Y-118695962D01*
X135801907Y-118771498D01*
X135789498Y-118783907D01*
X135713962Y-118884810D01*
X135705547Y-118900222D01*
X135661111Y-119019358D01*
X135657573Y-119034332D01*
X135652353Y-119082885D01*
X135652000Y-119089482D01*
X135652000Y-119367674D01*
X131560381Y-119367674D01*
X128613753Y-116421045D01*
X128580860Y-116362310D01*
X128583504Y-116295044D01*
X128620905Y-116239072D01*
X128682040Y-116210890D01*
X128738730Y-116217601D01*
X128739178Y-116215930D01*
X128747028Y-116218033D01*
X128754538Y-116221144D01*
X128911300Y-116241782D01*
X129068062Y-116221144D01*
X129214141Y-116160636D01*
X129339582Y-116064382D01*
X129381223Y-116010113D01*
X129424755Y-115974388D01*
X129479599Y-115961600D01*
X129629500Y-115961600D01*
X129691500Y-115978213D01*
X129736887Y-116023600D01*
X129753500Y-116085600D01*
X129753500Y-116355246D01*
X129754262Y-116360060D01*
X129754263Y-116360066D01*
X129767521Y-116443778D01*
X129767522Y-116443783D01*
X129769049Y-116453420D01*
X129829342Y-116571751D01*
X129923249Y-116665658D01*
X130041580Y-116725951D01*
X130139754Y-116741500D01*
X130713368Y-116741500D01*
X130718246Y-116741500D01*
X130816420Y-116725951D01*
X130934751Y-116665658D01*
X131028658Y-116571751D01*
X131088951Y-116453420D01*
X131104500Y-116355246D01*
X131104500Y-115851754D01*
X131088951Y-115753580D01*
X131028658Y-115635249D01*
X130934751Y-115541342D01*
X130816420Y-115481049D01*
X130806783Y-115479522D01*
X130806778Y-115479521D01*
X130723066Y-115466263D01*
X130723060Y-115466262D01*
X130718246Y-115465500D01*
X130713368Y-115465500D01*
X130302688Y-115465500D01*
X130255235Y-115456061D01*
X130215007Y-115429181D01*
X130205643Y-115419817D01*
X130198334Y-115411841D01*
X130181027Y-115391215D01*
X130174055Y-115382906D01*
X130171076Y-115381186D01*
X130138938Y-115336950D01*
X130130588Y-115277537D01*
X130151109Y-115221159D01*
X130195695Y-115181014D01*
X130253909Y-115166500D01*
X130713368Y-115166500D01*
X130718246Y-115166500D01*
X130816420Y-115150951D01*
X130934751Y-115090658D01*
X131028658Y-114996751D01*
X131088951Y-114878420D01*
X131104500Y-114780246D01*
X131104500Y-114276754D01*
X131088951Y-114178580D01*
X131028658Y-114060249D01*
X130934751Y-113966342D01*
X130902456Y-113949887D01*
X130844817Y-113920518D01*
X130816420Y-113906049D01*
X130806783Y-113904522D01*
X130806778Y-113904521D01*
X130723066Y-113891263D01*
X130723060Y-113891262D01*
X130718246Y-113890500D01*
X130713368Y-113890500D01*
X130705600Y-113890500D01*
X130643600Y-113873887D01*
X130598213Y-113828500D01*
X130581600Y-113766500D01*
X130581600Y-112508194D01*
X130596768Y-112448767D01*
X130638560Y-112403879D01*
X130696754Y-112384510D01*
X130757111Y-112395399D01*
X130804867Y-112433883D01*
X130818498Y-112452092D01*
X130830907Y-112464501D01*
X130931810Y-112540037D01*
X130947222Y-112548452D01*
X131066358Y-112592888D01*
X131081332Y-112596426D01*
X131129885Y-112601646D01*
X131136482Y-112602000D01*
X131289674Y-112602000D01*
X131302549Y-112598549D01*
X131306000Y-112585674D01*
X131706000Y-112585674D01*
X131709450Y-112598549D01*
X131722326Y-112602000D01*
X131875518Y-112602000D01*
X131882114Y-112601646D01*
X131930667Y-112596426D01*
X131945641Y-112592888D01*
X132064777Y-112548452D01*
X132080189Y-112540037D01*
X132181092Y-112464501D01*
X132193501Y-112452092D01*
X132269037Y-112351189D01*
X132277452Y-112335777D01*
X132321888Y-112216641D01*
X132325426Y-112201667D01*
X132330646Y-112153114D01*
X132331000Y-112146518D01*
X132331000Y-112118326D01*
X132327549Y-112105450D01*
X132314674Y-112102000D01*
X131722326Y-112102000D01*
X131709450Y-112105450D01*
X131706000Y-112118326D01*
X131706000Y-112585674D01*
X131306000Y-112585674D01*
X131306000Y-111826000D01*
X131322613Y-111764000D01*
X131368000Y-111718613D01*
X131430000Y-111702000D01*
X132314674Y-111702000D01*
X132327549Y-111698549D01*
X132331000Y-111685674D01*
X132331000Y-111657482D01*
X132330645Y-111650871D01*
X132326242Y-111609914D01*
X132334506Y-111550341D01*
X132366339Y-111506473D01*
X132368555Y-111505194D01*
X132380177Y-111491342D01*
X132395450Y-111476070D01*
X132409294Y-111464455D01*
X132418326Y-111448809D01*
X132430722Y-111431105D01*
X132442340Y-111417261D01*
X132448522Y-111400274D01*
X132457654Y-111380690D01*
X132466688Y-111365045D01*
X132469824Y-111347255D01*
X132475419Y-111326373D01*
X132481600Y-111309394D01*
X132481600Y-111194606D01*
X132481600Y-110957841D01*
X132496627Y-110898673D01*
X132538065Y-110853846D01*
X132595871Y-110834223D01*
X132656036Y-110844562D01*
X132703975Y-110882354D01*
X132775818Y-110975982D01*
X132901259Y-111072236D01*
X133047338Y-111132744D01*
X133204100Y-111153382D01*
X133360862Y-111132744D01*
X133506941Y-111072236D01*
X133632382Y-110975982D01*
X133728636Y-110850541D01*
X133739210Y-110825012D01*
X133745256Y-110810416D01*
X133764822Y-110778169D01*
X133770050Y-110771939D01*
X133777332Y-110763992D01*
X134355506Y-110185819D01*
X134395735Y-110158939D01*
X134443188Y-110149500D01*
X134860610Y-110149500D01*
X134865488Y-110149500D01*
X134965126Y-110133719D01*
X135085220Y-110072528D01*
X135104175Y-110053572D01*
X135151140Y-110024129D01*
X135206248Y-110018093D01*
X135258478Y-110036674D01*
X135297392Y-110076158D01*
X135355632Y-110170580D01*
X135364537Y-110181842D01*
X135474157Y-110291462D01*
X135485419Y-110300367D01*
X135617366Y-110381753D01*
X135630374Y-110387819D01*
X135777961Y-110436724D01*
X135779627Y-110437081D01*
X135780666Y-110437620D01*
X135784394Y-110438856D01*
X135784195Y-110439453D01*
X135837942Y-110467368D01*
X135872593Y-110523201D01*
X135873849Y-110588900D01*
X135841356Y-110646016D01*
X134696993Y-111790381D01*
X134656765Y-111817261D01*
X134609312Y-111826700D01*
X134247816Y-111826700D01*
X134237008Y-111826228D01*
X134210199Y-111823882D01*
X134210196Y-111823882D01*
X134199393Y-111822937D01*
X134188917Y-111825743D01*
X134188915Y-111825744D01*
X134162910Y-111832712D01*
X134152355Y-111835052D01*
X134125836Y-111839728D01*
X134125833Y-111839729D01*
X134115155Y-111841612D01*
X134105766Y-111847031D01*
X134102318Y-111848287D01*
X134098989Y-111849839D01*
X134088516Y-111852646D01*
X134079630Y-111858867D01*
X134079625Y-111858870D01*
X134057576Y-111874308D01*
X134048463Y-111880114D01*
X134025140Y-111893580D01*
X134025133Y-111893585D01*
X134015745Y-111899006D01*
X134008774Y-111907313D01*
X134008772Y-111907315D01*
X133991462Y-111927943D01*
X133984156Y-111935915D01*
X132117714Y-113802358D01*
X132109742Y-113809664D01*
X132089114Y-113826973D01*
X132089112Y-113826974D01*
X132080806Y-113833945D01*
X132075384Y-113843334D01*
X132075380Y-113843340D01*
X132061914Y-113866664D01*
X132056112Y-113875771D01*
X132034446Y-113906716D01*
X132031639Y-113917188D01*
X132030087Y-113920518D01*
X132028831Y-113923966D01*
X132023412Y-113933355D01*
X132021529Y-113944031D01*
X132021528Y-113944035D01*
X132016853Y-113970549D01*
X132014514Y-113981097D01*
X132004736Y-114017593D01*
X132005681Y-114028396D01*
X132005681Y-114028399D01*
X132006372Y-114036292D01*
X131998866Y-114090860D01*
X131968466Y-114136793D01*
X131932991Y-114157971D01*
X131933696Y-114159354D01*
X131829353Y-114212519D01*
X131829349Y-114212521D01*
X131820658Y-114216950D01*
X131813759Y-114223848D01*
X131813756Y-114223851D01*
X131737851Y-114299756D01*
X131737848Y-114299759D01*
X131730950Y-114306658D01*
X131726521Y-114315349D01*
X131726519Y-114315353D01*
X131687758Y-114391426D01*
X131673354Y-114419696D01*
X131671827Y-114429330D01*
X131671826Y-114429337D01*
X131659263Y-114508660D01*
X131659262Y-114508667D01*
X131658500Y-114513481D01*
X131658500Y-114518358D01*
X131658500Y-114518359D01*
X131658500Y-114971647D01*
X131658500Y-114971659D01*
X131658501Y-114976518D01*
X131673354Y-115070304D01*
X131677780Y-115078991D01*
X131677782Y-115078996D01*
X131722972Y-115167684D01*
X131730950Y-115183342D01*
X131820658Y-115273050D01*
X131933696Y-115330646D01*
X132027481Y-115345500D01*
X132640518Y-115345499D01*
X132734304Y-115330646D01*
X132847342Y-115273050D01*
X132937050Y-115183342D01*
X132970405Y-115117878D01*
X133004761Y-115076294D01*
X133053523Y-115053231D01*
X133107465Y-115053054D01*
X133156375Y-115075797D01*
X133176840Y-115091500D01*
X133207710Y-115115188D01*
X133207712Y-115115189D01*
X133214159Y-115120136D01*
X133360238Y-115180644D01*
X133517000Y-115201282D01*
X133673762Y-115180644D01*
X133819841Y-115120136D01*
X133820166Y-115120921D01*
X133869062Y-115106664D01*
X133926882Y-115118160D01*
X133972858Y-115155058D01*
X134058338Y-115266458D01*
X134183779Y-115362712D01*
X134329858Y-115423220D01*
X134337916Y-115424280D01*
X134337917Y-115424281D01*
X134408239Y-115433539D01*
X134486620Y-115443858D01*
X134643382Y-115423220D01*
X134789461Y-115362712D01*
X134914902Y-115266458D01*
X134979697Y-115182014D01*
X135023230Y-115146288D01*
X135078074Y-115133500D01*
X135453373Y-115133500D01*
X135464180Y-115133971D01*
X135501807Y-115137264D01*
X135505308Y-115136325D01*
X135552433Y-115142466D01*
X135597548Y-115170955D01*
X135626515Y-115215766D01*
X135667548Y-115325779D01*
X135675962Y-115341189D01*
X135751498Y-115442092D01*
X135763907Y-115454501D01*
X135864810Y-115530037D01*
X135880222Y-115538452D01*
X136006624Y-115585598D01*
X136005848Y-115587678D01*
X136042271Y-115605485D01*
X136076347Y-115648528D01*
X136088500Y-115702065D01*
X136088500Y-116099310D01*
X136088500Y-116099320D01*
X136088501Y-116105400D01*
X136089687Y-116111365D01*
X136089688Y-116111370D01*
X136101377Y-116170139D01*
X136101378Y-116170141D01*
X136103760Y-116182117D01*
X136110544Y-116192270D01*
X136110545Y-116192272D01*
X136141816Y-116239072D01*
X136161888Y-116269112D01*
X136248883Y-116327240D01*
X136325599Y-116342500D01*
X136502400Y-116342499D01*
X136579117Y-116327240D01*
X136595110Y-116316553D01*
X136639808Y-116298039D01*
X136688192Y-116298039D01*
X136732889Y-116316553D01*
X136748883Y-116327240D01*
X136801888Y-116337783D01*
X136843172Y-116354098D01*
X136876068Y-116383913D01*
X136945373Y-116474233D01*
X136956766Y-116485626D01*
X137061375Y-116565895D01*
X137075330Y-116573952D01*
X137197148Y-116624411D01*
X137212717Y-116628583D01*
X137271447Y-116636315D01*
X137285126Y-116634209D01*
X137289000Y-116620922D01*
X137289000Y-115648326D01*
X137285211Y-115634186D01*
X137275818Y-115624793D01*
X137248938Y-115584565D01*
X137239499Y-115537112D01*
X137239499Y-115334689D01*
X137239499Y-115328600D01*
X137224240Y-115251883D01*
X137184896Y-115193001D01*
X137169339Y-115160107D01*
X137164000Y-115124112D01*
X137164000Y-113666000D01*
X137180613Y-113604000D01*
X137226000Y-113558613D01*
X137288000Y-113542000D01*
X137540000Y-113542000D01*
X137602000Y-113558613D01*
X137647387Y-113604000D01*
X137664000Y-113666000D01*
X137664000Y-115124112D01*
X137658661Y-115160107D01*
X137643103Y-115193001D01*
X137638844Y-115199376D01*
X137610698Y-115241500D01*
X137603760Y-115251883D01*
X137601377Y-115263859D01*
X137601377Y-115263861D01*
X137589689Y-115322619D01*
X137589688Y-115322624D01*
X137588500Y-115328599D01*
X137588500Y-115334689D01*
X137588500Y-115334694D01*
X137588500Y-115537113D01*
X137579061Y-115584566D01*
X137552181Y-115624794D01*
X137542788Y-115634186D01*
X137539000Y-115648326D01*
X137539000Y-116620922D01*
X137542873Y-116634209D01*
X137556552Y-116636315D01*
X137615282Y-116628583D01*
X137630851Y-116624411D01*
X137752669Y-116573952D01*
X137766624Y-116565895D01*
X137871233Y-116485626D01*
X137882626Y-116474233D01*
X137951931Y-116383913D01*
X137984828Y-116354097D01*
X138026117Y-116337781D01*
X138079117Y-116327240D01*
X138095110Y-116316553D01*
X138139808Y-116298039D01*
X138188192Y-116298039D01*
X138232889Y-116316553D01*
X138248883Y-116327240D01*
X138325599Y-116342500D01*
X138502400Y-116342499D01*
X138579117Y-116327240D01*
X138666112Y-116269112D01*
X138724240Y-116182117D01*
X138739500Y-116105401D01*
X138739499Y-115702062D01*
X138751655Y-115648522D01*
X138785740Y-115605476D01*
X138822152Y-115587680D01*
X138821376Y-115585598D01*
X138947777Y-115538452D01*
X138963189Y-115530037D01*
X139064092Y-115454501D01*
X139076501Y-115442092D01*
X139152037Y-115341189D01*
X139160452Y-115325777D01*
X139207598Y-115199376D01*
X139209667Y-115200147D01*
X139227527Y-115163678D01*
X139270558Y-115129639D01*
X139324066Y-115117500D01*
X139564700Y-115117500D01*
X139626700Y-115134113D01*
X139672087Y-115179500D01*
X139688700Y-115241500D01*
X139688700Y-116175512D01*
X139679261Y-116222965D01*
X139652383Y-116263190D01*
X139441340Y-116474233D01*
X139380291Y-116535282D01*
X139347460Y-116558809D01*
X139317630Y-116567860D01*
X139317746Y-116568292D01*
X139309897Y-116570394D01*
X139301838Y-116571456D01*
X139294331Y-116574565D01*
X139294325Y-116574567D01*
X139163266Y-116628854D01*
X139163262Y-116628855D01*
X139155759Y-116631964D01*
X139149314Y-116636908D01*
X139149311Y-116636911D01*
X139036764Y-116723271D01*
X139036760Y-116723274D01*
X139030318Y-116728218D01*
X139025374Y-116734660D01*
X139025371Y-116734664D01*
X138939011Y-116847211D01*
X138939008Y-116847214D01*
X138934064Y-116853659D01*
X138930955Y-116861163D01*
X138930954Y-116861166D01*
X138926445Y-116872053D01*
X138899565Y-116912281D01*
X138859337Y-116939161D01*
X138811884Y-116948600D01*
X134755088Y-116948600D01*
X134707635Y-116939161D01*
X134667407Y-116912281D01*
X133933843Y-116178717D01*
X133926534Y-116170741D01*
X133909226Y-116150114D01*
X133902255Y-116141806D01*
X133892862Y-116136383D01*
X133892860Y-116136381D01*
X133869535Y-116122914D01*
X133860427Y-116117112D01*
X133829484Y-116095446D01*
X133819006Y-116092638D01*
X133815673Y-116091084D01*
X133812232Y-116089831D01*
X133802845Y-116084412D01*
X133792166Y-116082528D01*
X133792161Y-116082527D01*
X133765652Y-116077852D01*
X133755097Y-116075513D01*
X133729083Y-116068543D01*
X133718607Y-116065736D01*
X133707803Y-116066681D01*
X133707800Y-116066681D01*
X133680981Y-116069028D01*
X133670173Y-116069500D01*
X133070534Y-116069500D01*
X133005745Y-116051228D01*
X132960050Y-116001796D01*
X132941482Y-115965355D01*
X132941479Y-115965352D01*
X132937050Y-115956658D01*
X132847342Y-115866950D01*
X132734304Y-115809354D01*
X132724667Y-115807827D01*
X132724662Y-115807826D01*
X132645339Y-115795263D01*
X132645333Y-115795262D01*
X132640519Y-115794500D01*
X132635640Y-115794500D01*
X132032352Y-115794500D01*
X132032339Y-115794500D01*
X132027482Y-115794501D01*
X132022680Y-115795261D01*
X132022673Y-115795262D01*
X131943331Y-115807828D01*
X131943330Y-115807828D01*
X131933696Y-115809354D01*
X131925010Y-115813779D01*
X131925003Y-115813782D01*
X131829353Y-115862519D01*
X131829349Y-115862521D01*
X131820658Y-115866950D01*
X131813759Y-115873848D01*
X131813756Y-115873851D01*
X131737851Y-115949756D01*
X131737848Y-115949759D01*
X131730950Y-115956658D01*
X131726521Y-115965349D01*
X131726519Y-115965353D01*
X131677785Y-116060999D01*
X131673354Y-116069696D01*
X131671827Y-116079330D01*
X131671826Y-116079337D01*
X131659263Y-116158660D01*
X131659262Y-116158667D01*
X131658500Y-116163481D01*
X131658500Y-116168358D01*
X131658500Y-116168359D01*
X131658500Y-116621647D01*
X131658500Y-116621659D01*
X131658501Y-116626518D01*
X131659261Y-116631320D01*
X131659262Y-116631326D01*
X131669185Y-116693982D01*
X131673354Y-116720304D01*
X131677780Y-116728991D01*
X131677782Y-116728996D01*
X131706466Y-116785290D01*
X131730950Y-116833342D01*
X131820658Y-116923050D01*
X131933696Y-116980646D01*
X132027481Y-116995500D01*
X132640518Y-116995499D01*
X132734304Y-116980646D01*
X132847342Y-116923050D01*
X132937050Y-116833342D01*
X132945351Y-116817051D01*
X132960050Y-116788204D01*
X133005745Y-116738772D01*
X133070534Y-116720500D01*
X133503612Y-116720500D01*
X133551065Y-116729939D01*
X133591293Y-116756819D01*
X134324850Y-117490376D01*
X134332159Y-117498351D01*
X134356445Y-117527294D01*
X134389163Y-117546183D01*
X134398279Y-117551992D01*
X134429216Y-117573654D01*
X134439700Y-117576462D01*
X134443023Y-117578012D01*
X134446457Y-117579262D01*
X134455855Y-117584688D01*
X134493063Y-117591248D01*
X134503604Y-117593586D01*
X134529613Y-117600555D01*
X134529614Y-117600555D01*
X134540093Y-117603363D01*
X134577710Y-117600072D01*
X134588518Y-117599600D01*
X139007537Y-117599600D01*
X139047395Y-117606181D01*
X139083023Y-117625224D01*
X139155759Y-117681036D01*
X139301838Y-117741544D01*
X139458600Y-117762182D01*
X139615362Y-117741544D01*
X139761441Y-117681036D01*
X139869606Y-117598038D01*
X139923556Y-117574299D01*
X139982376Y-117578154D01*
X140031986Y-117608258D01*
X140035918Y-117613382D01*
X140161359Y-117709636D01*
X140307438Y-117770144D01*
X140464200Y-117790782D01*
X140620962Y-117770144D01*
X140767041Y-117709636D01*
X140892482Y-117613382D01*
X140988736Y-117487941D01*
X141049244Y-117341862D01*
X141069882Y-117185100D01*
X141049244Y-117028338D01*
X141046131Y-117020824D01*
X141045439Y-117018239D01*
X141044453Y-116957988D01*
X141071986Y-116904386D01*
X141121535Y-116870093D01*
X141181398Y-116863206D01*
X141243500Y-116871382D01*
X141400262Y-116850744D01*
X141546341Y-116790236D01*
X141573930Y-116769065D01*
X141622837Y-116746324D01*
X141676777Y-116746499D01*
X141725540Y-116769559D01*
X141759897Y-116811142D01*
X141762908Y-116817051D01*
X141762911Y-116817055D01*
X141767342Y-116825751D01*
X141861249Y-116919658D01*
X141979580Y-116979951D01*
X142077754Y-116995500D01*
X142651368Y-116995500D01*
X142656246Y-116995500D01*
X142754420Y-116979951D01*
X142872751Y-116919658D01*
X142966658Y-116825751D01*
X143026951Y-116707420D01*
X143042500Y-116609246D01*
X143042500Y-116105754D01*
X143026951Y-116007580D01*
X143022520Y-115998883D01*
X143019504Y-115989601D01*
X143020480Y-115989283D01*
X143009800Y-115946965D01*
X143020783Y-115892986D01*
X143052577Y-115851049D01*
X143059255Y-115847194D01*
X143083548Y-115818241D01*
X143090836Y-115810288D01*
X144610190Y-114290934D01*
X144618142Y-114283647D01*
X144647094Y-114259355D01*
X144665985Y-114226633D01*
X144671780Y-114217535D01*
X144693454Y-114186584D01*
X144696262Y-114176099D01*
X144697801Y-114172800D01*
X144699056Y-114169351D01*
X144704488Y-114159945D01*
X144711049Y-114122730D01*
X144713378Y-114112224D01*
X144723164Y-114075707D01*
X144719872Y-114038077D01*
X144719400Y-114027270D01*
X144719400Y-108493227D01*
X144719872Y-108482419D01*
X144721736Y-108461116D01*
X144723164Y-108444793D01*
X144713381Y-108408285D01*
X144711045Y-108397743D01*
X144704488Y-108360555D01*
X144699060Y-108351155D01*
X144697810Y-108347719D01*
X144696263Y-108344401D01*
X144693454Y-108333916D01*
X144671792Y-108302979D01*
X144665980Y-108293857D01*
X144663381Y-108289355D01*
X144647094Y-108261145D01*
X144638781Y-108254170D01*
X144638780Y-108254168D01*
X144618155Y-108236862D01*
X144610180Y-108229554D01*
X143352343Y-106971717D01*
X143345034Y-106963741D01*
X143327726Y-106943114D01*
X143320755Y-106934806D01*
X143311362Y-106929383D01*
X143303049Y-106922407D01*
X143305080Y-106919985D01*
X143275028Y-106890459D01*
X143257387Y-106830916D01*
X143270828Y-106770287D01*
X143280951Y-106750420D01*
X143296500Y-106652246D01*
X143296500Y-106148754D01*
X143280951Y-106050580D01*
X143220658Y-105932249D01*
X143126751Y-105838342D01*
X143100595Y-105825015D01*
X143033143Y-105790646D01*
X143008420Y-105778049D01*
X142998783Y-105776522D01*
X142998778Y-105776521D01*
X142915066Y-105763263D01*
X142915060Y-105763262D01*
X142910246Y-105762500D01*
X142905368Y-105762500D01*
X142494688Y-105762500D01*
X142447235Y-105753061D01*
X142407007Y-105726181D01*
X142325443Y-105644617D01*
X142318134Y-105636641D01*
X142300826Y-105616014D01*
X142293855Y-105607706D01*
X142284462Y-105602283D01*
X142284460Y-105602281D01*
X142261135Y-105588814D01*
X142252027Y-105583012D01*
X142221084Y-105561346D01*
X142210606Y-105558538D01*
X142207273Y-105556984D01*
X142203832Y-105555731D01*
X142194445Y-105550312D01*
X142183766Y-105548428D01*
X142183761Y-105548427D01*
X142157252Y-105543752D01*
X142146697Y-105541413D01*
X142120683Y-105534443D01*
X142110207Y-105531636D01*
X142099402Y-105532581D01*
X142099399Y-105532581D01*
X142098649Y-105532647D01*
X142096958Y-105532367D01*
X142088593Y-105531636D01*
X142088649Y-105530995D01*
X142037904Y-105522615D01*
X141989472Y-105484604D01*
X141954528Y-105439064D01*
X141949582Y-105432618D01*
X141942260Y-105427000D01*
X141830588Y-105341311D01*
X141824141Y-105336364D01*
X141795545Y-105324519D01*
X141685571Y-105278966D01*
X141685568Y-105278965D01*
X141678062Y-105275856D01*
X141670008Y-105274795D01*
X141670002Y-105274794D01*
X141529359Y-105256279D01*
X141521300Y-105255218D01*
X141513241Y-105256279D01*
X141372597Y-105274794D01*
X141372589Y-105274796D01*
X141364538Y-105275856D01*
X141357033Y-105278964D01*
X141357028Y-105278966D01*
X141225966Y-105333254D01*
X141225962Y-105333255D01*
X141218459Y-105336364D01*
X141212014Y-105341308D01*
X141212011Y-105341311D01*
X141099464Y-105427671D01*
X141099460Y-105427674D01*
X141093018Y-105432618D01*
X141088074Y-105439060D01*
X141088071Y-105439064D01*
X141001711Y-105551611D01*
X141001708Y-105551614D01*
X140996764Y-105558059D01*
X140993657Y-105565558D01*
X140993651Y-105565570D01*
X140967207Y-105629412D01*
X140931311Y-105677812D01*
X140876837Y-105703576D01*
X140816651Y-105700618D01*
X140764966Y-105669639D01*
X139048643Y-103953317D01*
X139041334Y-103945341D01*
X139024026Y-103924714D01*
X139017055Y-103916406D01*
X139007662Y-103910983D01*
X139007660Y-103910981D01*
X138984335Y-103897514D01*
X138975227Y-103891712D01*
X138944284Y-103870046D01*
X138933806Y-103867238D01*
X138930473Y-103865684D01*
X138927032Y-103864431D01*
X138917645Y-103859012D01*
X138906966Y-103857128D01*
X138906961Y-103857127D01*
X138880452Y-103852452D01*
X138869897Y-103850113D01*
X138843883Y-103843143D01*
X138833407Y-103840336D01*
X138822603Y-103841281D01*
X138822600Y-103841281D01*
X138795781Y-103843628D01*
X138784973Y-103844100D01*
X137428923Y-103844100D01*
X137369496Y-103828932D01*
X137324608Y-103787140D01*
X137305239Y-103728946D01*
X137316129Y-103668589D01*
X137354612Y-103620833D01*
X137375092Y-103605501D01*
X137387501Y-103593092D01*
X137463037Y-103492189D01*
X137471452Y-103476777D01*
X137515888Y-103357641D01*
X137519426Y-103342667D01*
X137524646Y-103294114D01*
X137525000Y-103287518D01*
X137525000Y-103009326D01*
X137521549Y-102996450D01*
X137508674Y-102993000D01*
X135541326Y-102993000D01*
X135528450Y-102996450D01*
X135525000Y-103009326D01*
X135525000Y-103287518D01*
X135525353Y-103294114D01*
X135530573Y-103342667D01*
X135534111Y-103357641D01*
X135578547Y-103476777D01*
X135586962Y-103492189D01*
X135662498Y-103593092D01*
X135674907Y-103605501D01*
X135775810Y-103681037D01*
X135791222Y-103689452D01*
X135910358Y-103733888D01*
X135925332Y-103737426D01*
X135973873Y-103742645D01*
X135979178Y-103742929D01*
X136033521Y-103758773D01*
X136075160Y-103797119D01*
X136095418Y-103849975D01*
X136090073Y-103906328D01*
X136060239Y-103954433D01*
X135558491Y-104456181D01*
X135518263Y-104483061D01*
X135470810Y-104492500D01*
X135080352Y-104492500D01*
X135080339Y-104492500D01*
X135075482Y-104492501D01*
X135070680Y-104493261D01*
X135070673Y-104493262D01*
X134991331Y-104505828D01*
X134991330Y-104505828D01*
X134981696Y-104507354D01*
X134973010Y-104511779D01*
X134973003Y-104511782D01*
X134877353Y-104560519D01*
X134877349Y-104560521D01*
X134868658Y-104564950D01*
X134861759Y-104571848D01*
X134861756Y-104571851D01*
X134785851Y-104647756D01*
X134785848Y-104647759D01*
X134778950Y-104654658D01*
X134774521Y-104663349D01*
X134774519Y-104663353D01*
X134727402Y-104755826D01*
X134721354Y-104767696D01*
X134719827Y-104777330D01*
X134719826Y-104777337D01*
X134707263Y-104856660D01*
X134707262Y-104856667D01*
X134706500Y-104861481D01*
X134706500Y-104866358D01*
X134706500Y-104866359D01*
X134706500Y-105319647D01*
X134706500Y-105319659D01*
X134706501Y-105324518D01*
X134707261Y-105329320D01*
X134707262Y-105329326D01*
X134714871Y-105377368D01*
X134721354Y-105418304D01*
X134725780Y-105426991D01*
X134725782Y-105426996D01*
X134767192Y-105508266D01*
X134778950Y-105531342D01*
X134868658Y-105621050D01*
X134981696Y-105678646D01*
X135075481Y-105693500D01*
X135688518Y-105693499D01*
X135782304Y-105678646D01*
X135895342Y-105621050D01*
X135985050Y-105531342D01*
X136042646Y-105418304D01*
X136057500Y-105324519D01*
X136057499Y-104929186D01*
X136066938Y-104881734D01*
X136093813Y-104841511D01*
X136403909Y-104531416D01*
X136444135Y-104504539D01*
X136491588Y-104495100D01*
X137805500Y-104495100D01*
X137867500Y-104511713D01*
X137912887Y-104557100D01*
X137929500Y-104619100D01*
X137929500Y-104796315D01*
X137916311Y-104851965D01*
X137879550Y-104895777D01*
X137827036Y-104918431D01*
X137806635Y-104922028D01*
X137806631Y-104922029D01*
X137795955Y-104923912D01*
X137786566Y-104929331D01*
X137783118Y-104930587D01*
X137779788Y-104932139D01*
X137769316Y-104934946D01*
X137738371Y-104956612D01*
X137729264Y-104962414D01*
X137705940Y-104975880D01*
X137705934Y-104975884D01*
X137696545Y-104981306D01*
X137689574Y-104989612D01*
X137689573Y-104989614D01*
X137672262Y-105010244D01*
X137664956Y-105018216D01*
X136238543Y-106444629D01*
X136189180Y-106474879D01*
X136131464Y-106479421D01*
X136077977Y-106457266D01*
X136040377Y-106413243D01*
X136039720Y-106411954D01*
X135985050Y-106304658D01*
X135895342Y-106214950D01*
X135782304Y-106157354D01*
X135772667Y-106155827D01*
X135772662Y-106155826D01*
X135693339Y-106143263D01*
X135693333Y-106143262D01*
X135688519Y-106142500D01*
X135683640Y-106142500D01*
X135080352Y-106142500D01*
X135080339Y-106142500D01*
X135075482Y-106142501D01*
X135070680Y-106143261D01*
X135070673Y-106143262D01*
X134991331Y-106155828D01*
X134991330Y-106155828D01*
X134981696Y-106157354D01*
X134973010Y-106161779D01*
X134973003Y-106161782D01*
X134877353Y-106210519D01*
X134877349Y-106210521D01*
X134868658Y-106214950D01*
X134861759Y-106221848D01*
X134861756Y-106221851D01*
X134785851Y-106297756D01*
X134785848Y-106297759D01*
X134778950Y-106304658D01*
X134774520Y-106313351D01*
X134768782Y-106321250D01*
X134767584Y-106320379D01*
X134729365Y-106361727D01*
X134664574Y-106380000D01*
X134098381Y-106380000D01*
X134033591Y-106361727D01*
X133987896Y-106312295D01*
X133949658Y-106237249D01*
X133855751Y-106143342D01*
X133737420Y-106083049D01*
X133727783Y-106081522D01*
X133727778Y-106081521D01*
X133644066Y-106068263D01*
X133644060Y-106068262D01*
X133639246Y-106067500D01*
X133060754Y-106067500D01*
X133055940Y-106068262D01*
X133055933Y-106068263D01*
X132972221Y-106081521D01*
X132972214Y-106081523D01*
X132962580Y-106083049D01*
X132953884Y-106087479D01*
X132953883Y-106087480D01*
X132882902Y-106123647D01*
X132844249Y-106143342D01*
X132838201Y-106149389D01*
X132779770Y-106172039D01*
X132717054Y-106162736D01*
X132667134Y-106123647D01*
X132643063Y-106064991D01*
X132637453Y-106022379D01*
X132642973Y-105966336D01*
X132672709Y-105918515D01*
X132816530Y-105774694D01*
X132859782Y-105746609D01*
X132910722Y-105738548D01*
X132943965Y-105747463D01*
X132944602Y-105745504D01*
X132953882Y-105748519D01*
X132962580Y-105752951D01*
X133060754Y-105768500D01*
X133634368Y-105768500D01*
X133639246Y-105768500D01*
X133737420Y-105752951D01*
X133855751Y-105692658D01*
X133949658Y-105598751D01*
X134009951Y-105480420D01*
X134025500Y-105382246D01*
X134025500Y-104878754D01*
X134009951Y-104780580D01*
X133949658Y-104662249D01*
X133855751Y-104568342D01*
X133833687Y-104557100D01*
X133746116Y-104512480D01*
X133737420Y-104508049D01*
X133727783Y-104506522D01*
X133727778Y-104506521D01*
X133644066Y-104493263D01*
X133644060Y-104493262D01*
X133639246Y-104492500D01*
X133060754Y-104492500D01*
X133055940Y-104493262D01*
X133055933Y-104493263D01*
X132972221Y-104506521D01*
X132972214Y-104506523D01*
X132962580Y-104508049D01*
X132953884Y-104512479D01*
X132953883Y-104512480D01*
X132852944Y-104563911D01*
X132852941Y-104563913D01*
X132844249Y-104568342D01*
X132837350Y-104575240D01*
X132837347Y-104575243D01*
X132757243Y-104655347D01*
X132757240Y-104655350D01*
X132750342Y-104662249D01*
X132745913Y-104670941D01*
X132745911Y-104670944D01*
X132694480Y-104771883D01*
X132690049Y-104780580D01*
X132688523Y-104790214D01*
X132688521Y-104790221D01*
X132675263Y-104873933D01*
X132675262Y-104873940D01*
X132674500Y-104878754D01*
X132674500Y-104883632D01*
X132674500Y-104944712D01*
X132665061Y-104992165D01*
X132638181Y-105032393D01*
X132212384Y-105458188D01*
X132164562Y-105487926D01*
X132108518Y-105493446D01*
X132048759Y-105485579D01*
X132040700Y-105484518D01*
X132032641Y-105485579D01*
X131891997Y-105504094D01*
X131891989Y-105504096D01*
X131883938Y-105505156D01*
X131876433Y-105508264D01*
X131876428Y-105508266D01*
X131745366Y-105562554D01*
X131745362Y-105562555D01*
X131737859Y-105565664D01*
X131731414Y-105570608D01*
X131731411Y-105570611D01*
X131618864Y-105656971D01*
X131618860Y-105656974D01*
X131612418Y-105661918D01*
X131607474Y-105668360D01*
X131607471Y-105668364D01*
X131570777Y-105716186D01*
X131527245Y-105751912D01*
X131472401Y-105764700D01*
X130631927Y-105764700D01*
X130621119Y-105764228D01*
X130594299Y-105761881D01*
X130594296Y-105761881D01*
X130583493Y-105760936D01*
X130546997Y-105770714D01*
X130536449Y-105773053D01*
X130509935Y-105777728D01*
X130509931Y-105777729D01*
X130499255Y-105779612D01*
X130489866Y-105785031D01*
X130486418Y-105786287D01*
X130483088Y-105787839D01*
X130472616Y-105790646D01*
X130441671Y-105812312D01*
X130432564Y-105818114D01*
X130409240Y-105831580D01*
X130409234Y-105831584D01*
X130399845Y-105837006D01*
X130392873Y-105845314D01*
X130384563Y-105852288D01*
X130384238Y-105851901D01*
X130350377Y-105877883D01*
X130297975Y-105889500D01*
X129885754Y-105889500D01*
X129880940Y-105890262D01*
X129880933Y-105890263D01*
X129797221Y-105903521D01*
X129797214Y-105903523D01*
X129787580Y-105905049D01*
X129778884Y-105909479D01*
X129778883Y-105909480D01*
X129677944Y-105960911D01*
X129677941Y-105960913D01*
X129669249Y-105965342D01*
X129662350Y-105972240D01*
X129662347Y-105972243D01*
X129582243Y-106052347D01*
X129582240Y-106052350D01*
X129575342Y-106059249D01*
X129570913Y-106067941D01*
X129570911Y-106067944D01*
X129523097Y-106161785D01*
X129515049Y-106177580D01*
X129513523Y-106187214D01*
X129513521Y-106187221D01*
X129500263Y-106270933D01*
X129500262Y-106270940D01*
X129499500Y-106275754D01*
X129499500Y-106779246D01*
X129500262Y-106784060D01*
X129500263Y-106784066D01*
X129513521Y-106867778D01*
X129513522Y-106867783D01*
X129515049Y-106877420D01*
X129519480Y-106886116D01*
X129561144Y-106967887D01*
X129575342Y-106995751D01*
X129669249Y-107089658D01*
X129787580Y-107149951D01*
X129885754Y-107165500D01*
X130459368Y-107165500D01*
X130464246Y-107165500D01*
X130562420Y-107149951D01*
X130680751Y-107089658D01*
X130774658Y-106995751D01*
X130834951Y-106877420D01*
X130850500Y-106779246D01*
X130850500Y-106539700D01*
X130867113Y-106477700D01*
X130912500Y-106432313D01*
X130974500Y-106415700D01*
X131472401Y-106415700D01*
X131527245Y-106428488D01*
X131570777Y-106464214D01*
X131592784Y-106492895D01*
X131612418Y-106518482D01*
X131737859Y-106614736D01*
X131883938Y-106675244D01*
X131891996Y-106676304D01*
X131891997Y-106676305D01*
X131951328Y-106684116D01*
X132040700Y-106695882D01*
X132197462Y-106675244D01*
X132343541Y-106614736D01*
X132468982Y-106518482D01*
X132469444Y-106519084D01*
X132512182Y-106492895D01*
X132569898Y-106488353D01*
X132623385Y-106510508D01*
X132660985Y-106554531D01*
X132674500Y-106610826D01*
X132674500Y-106957246D01*
X132675262Y-106962060D01*
X132675263Y-106962066D01*
X132688521Y-107045778D01*
X132688522Y-107045783D01*
X132690049Y-107055420D01*
X132707494Y-107089658D01*
X132745748Y-107164736D01*
X132750342Y-107173751D01*
X132844249Y-107267658D01*
X132962580Y-107327951D01*
X133060754Y-107343500D01*
X133634368Y-107343500D01*
X133639246Y-107343500D01*
X133737420Y-107327951D01*
X133855751Y-107267658D01*
X133949658Y-107173751D01*
X133987896Y-107098704D01*
X134033591Y-107049273D01*
X134098381Y-107031000D01*
X134626359Y-107031000D01*
X134691149Y-107049273D01*
X134736844Y-107098705D01*
X134760697Y-107145519D01*
X134778950Y-107181342D01*
X134868658Y-107271050D01*
X134981696Y-107328646D01*
X135075481Y-107343500D01*
X135283212Y-107343499D01*
X135339505Y-107357014D01*
X135383529Y-107394613D01*
X135405684Y-107448101D01*
X135401142Y-107505817D01*
X135370893Y-107555180D01*
X135307992Y-107618081D01*
X135161190Y-107764883D01*
X135120965Y-107791761D01*
X135073512Y-107801200D01*
X134619319Y-107801200D01*
X134608512Y-107800728D01*
X134581700Y-107798382D01*
X134581697Y-107798382D01*
X134570893Y-107797437D01*
X134560417Y-107800243D01*
X134560415Y-107800244D01*
X134534410Y-107807212D01*
X134523855Y-107809552D01*
X134497336Y-107814228D01*
X134497333Y-107814229D01*
X134486655Y-107816112D01*
X134477266Y-107821531D01*
X134473818Y-107822787D01*
X134470489Y-107824339D01*
X134460016Y-107827146D01*
X134451130Y-107833367D01*
X134451125Y-107833370D01*
X134429076Y-107848808D01*
X134419963Y-107854614D01*
X134396640Y-107868080D01*
X134396633Y-107868085D01*
X134387245Y-107873506D01*
X134380274Y-107881813D01*
X134380272Y-107881815D01*
X134362962Y-107902443D01*
X134355656Y-107910415D01*
X132067336Y-110198736D01*
X132019519Y-110228472D01*
X131963482Y-110233996D01*
X131931724Y-110222047D01*
X131930670Y-110224592D01*
X131919384Y-110219917D01*
X131909231Y-110213133D01*
X131897253Y-110210750D01*
X131897252Y-110210750D01*
X131856728Y-110202689D01*
X131856723Y-110202688D01*
X131850748Y-110201500D01*
X131844652Y-110201500D01*
X131305400Y-110201500D01*
X131243400Y-110184887D01*
X131198013Y-110139500D01*
X131181400Y-110077500D01*
X131181400Y-108803027D01*
X131181872Y-108792219D01*
X131184218Y-108765401D01*
X131185164Y-108754593D01*
X131175381Y-108718085D01*
X131173045Y-108707543D01*
X131168372Y-108681041D01*
X131166488Y-108670355D01*
X131161060Y-108660955D01*
X131159810Y-108657519D01*
X131158263Y-108654201D01*
X131155454Y-108643716D01*
X131133792Y-108612779D01*
X131127980Y-108603657D01*
X131109094Y-108570945D01*
X131100781Y-108563970D01*
X131100780Y-108563968D01*
X131080155Y-108546662D01*
X131072180Y-108539354D01*
X130886819Y-108353993D01*
X130859939Y-108313765D01*
X130850500Y-108266312D01*
X130850500Y-107855632D01*
X130850500Y-107850754D01*
X130834951Y-107752580D01*
X130774658Y-107634249D01*
X130680751Y-107540342D01*
X130562420Y-107480049D01*
X130552783Y-107478522D01*
X130552778Y-107478521D01*
X130469066Y-107465263D01*
X130469060Y-107465262D01*
X130464246Y-107464500D01*
X129885754Y-107464500D01*
X129880940Y-107465262D01*
X129880933Y-107465263D01*
X129797221Y-107478521D01*
X129797214Y-107478523D01*
X129787580Y-107480049D01*
X129778884Y-107484479D01*
X129778883Y-107484480D01*
X129677944Y-107535911D01*
X129677941Y-107535913D01*
X129669249Y-107540342D01*
X129662350Y-107547240D01*
X129662347Y-107547243D01*
X129582243Y-107627347D01*
X129582240Y-107627350D01*
X129575342Y-107634249D01*
X129570913Y-107642941D01*
X129570911Y-107642944D01*
X129524161Y-107734697D01*
X129515049Y-107752580D01*
X129513523Y-107762214D01*
X129513521Y-107762221D01*
X129500263Y-107845933D01*
X129500262Y-107845940D01*
X129499500Y-107850754D01*
X129499500Y-108354246D01*
X129500262Y-108359060D01*
X129500263Y-108359066D01*
X129513521Y-108442778D01*
X129513522Y-108442783D01*
X129515049Y-108452420D01*
X129535841Y-108493227D01*
X129570317Y-108560890D01*
X129575342Y-108570751D01*
X129669249Y-108664658D01*
X129787580Y-108724951D01*
X129885754Y-108740500D01*
X130301312Y-108740500D01*
X130348765Y-108749939D01*
X130388993Y-108776819D01*
X130494081Y-108881907D01*
X130520961Y-108922135D01*
X130530400Y-108969588D01*
X130530400Y-109995806D01*
X130515232Y-110055233D01*
X130473440Y-110100121D01*
X130415246Y-110119490D01*
X130354889Y-110108601D01*
X130307133Y-110070117D01*
X130293501Y-110051907D01*
X130281092Y-110039498D01*
X130180189Y-109963962D01*
X130164777Y-109955547D01*
X130045641Y-109911111D01*
X130030667Y-109907573D01*
X129982114Y-109902353D01*
X129975518Y-109902000D01*
X129822326Y-109902000D01*
X129809450Y-109905450D01*
X129806000Y-109918326D01*
X129806000Y-110678000D01*
X129789387Y-110740000D01*
X129744000Y-110785387D01*
X129682000Y-110802000D01*
X128797326Y-110802000D01*
X128784450Y-110805450D01*
X128781000Y-110818326D01*
X128781000Y-110846518D01*
X128781353Y-110853114D01*
X128786573Y-110901667D01*
X128790111Y-110916641D01*
X128834547Y-111035777D01*
X128842962Y-111051189D01*
X128918498Y-111152092D01*
X128930907Y-111164501D01*
X129030811Y-111239289D01*
X129067384Y-111283052D01*
X129080500Y-111338556D01*
X129080500Y-111471748D01*
X129081688Y-111477723D01*
X129081689Y-111477728D01*
X129089750Y-111518253D01*
X129092133Y-111530231D01*
X129095595Y-111535412D01*
X129103867Y-111576997D01*
X129095596Y-111618585D01*
X129092133Y-111623769D01*
X129089751Y-111635743D01*
X129089750Y-111635746D01*
X129081689Y-111676271D01*
X129081688Y-111676277D01*
X129080500Y-111682252D01*
X129080500Y-112121748D01*
X129081688Y-112127723D01*
X129081689Y-112127728D01*
X129085427Y-112146518D01*
X129092133Y-112180231D01*
X129136448Y-112246552D01*
X129202769Y-112290867D01*
X129261252Y-112302500D01*
X129806600Y-112302500D01*
X129868600Y-112319113D01*
X129913987Y-112364500D01*
X129930600Y-112426500D01*
X129930600Y-113907629D01*
X129921161Y-113955082D01*
X129894281Y-113995310D01*
X129836243Y-114053347D01*
X129836240Y-114053350D01*
X129829342Y-114060249D01*
X129807854Y-114102421D01*
X129773640Y-114169570D01*
X129769049Y-114178580D01*
X129767523Y-114188214D01*
X129767521Y-114188221D01*
X129754263Y-114271933D01*
X129754262Y-114271940D01*
X129753500Y-114276754D01*
X129753500Y-114780246D01*
X129754262Y-114785060D01*
X129754263Y-114785066D01*
X129767521Y-114868778D01*
X129767522Y-114868783D01*
X129769049Y-114878420D01*
X129787725Y-114915074D01*
X129821482Y-114981326D01*
X129829342Y-114996751D01*
X129923249Y-115090658D01*
X129923586Y-115090829D01*
X129959137Y-115133804D01*
X129970693Y-115194387D01*
X129951634Y-115253043D01*
X129906675Y-115295262D01*
X129846938Y-115310600D01*
X129479599Y-115310600D01*
X129424755Y-115297812D01*
X129381223Y-115262086D01*
X129344528Y-115214264D01*
X129339582Y-115207818D01*
X129305953Y-115182014D01*
X129245429Y-115135572D01*
X129214141Y-115111564D01*
X129202543Y-115106760D01*
X129075571Y-115054166D01*
X129075568Y-115054165D01*
X129068062Y-115051056D01*
X129060008Y-115049995D01*
X129060002Y-115049994D01*
X128919359Y-115031479D01*
X128911300Y-115030418D01*
X128903241Y-115031479D01*
X128762597Y-115049994D01*
X128762589Y-115049996D01*
X128754538Y-115051056D01*
X128747033Y-115054164D01*
X128747028Y-115054166D01*
X128615966Y-115108454D01*
X128615962Y-115108455D01*
X128608459Y-115111564D01*
X128602014Y-115116508D01*
X128602011Y-115116511D01*
X128489464Y-115202871D01*
X128489460Y-115202874D01*
X128483018Y-115207818D01*
X128478074Y-115214260D01*
X128478071Y-115214264D01*
X128391711Y-115326811D01*
X128391708Y-115326814D01*
X128386764Y-115333259D01*
X128383655Y-115340762D01*
X128383654Y-115340766D01*
X128329366Y-115471828D01*
X128329364Y-115471833D01*
X128326256Y-115479338D01*
X128325196Y-115487389D01*
X128325194Y-115487397D01*
X128309566Y-115606112D01*
X128305618Y-115636100D01*
X128306679Y-115644159D01*
X128325194Y-115784802D01*
X128325195Y-115784808D01*
X128326256Y-115792862D01*
X128329365Y-115800369D01*
X128331470Y-115808222D01*
X128329799Y-115808669D01*
X128336508Y-115865367D01*
X128308323Y-115926499D01*
X128252351Y-115963897D01*
X128185087Y-115966539D01*
X128126354Y-115933646D01*
X127916978Y-115724270D01*
X127910644Y-115717442D01*
X127792485Y-115580047D01*
X127770238Y-115542311D01*
X127762500Y-115499194D01*
X127762500Y-110385674D01*
X128781000Y-110385674D01*
X128784450Y-110398549D01*
X128797326Y-110402000D01*
X129389674Y-110402000D01*
X129402549Y-110398549D01*
X129406000Y-110385674D01*
X129406000Y-109918326D01*
X129402549Y-109905450D01*
X129389674Y-109902000D01*
X129236482Y-109902000D01*
X129229885Y-109902353D01*
X129181332Y-109907573D01*
X129166358Y-109911111D01*
X129047222Y-109955547D01*
X129031810Y-109963962D01*
X128930907Y-110039498D01*
X128918498Y-110051907D01*
X128842962Y-110152810D01*
X128834547Y-110168222D01*
X128790111Y-110287358D01*
X128786573Y-110302332D01*
X128781353Y-110350885D01*
X128781000Y-110357482D01*
X128781000Y-110385674D01*
X127762500Y-110385674D01*
X127762500Y-106731570D01*
X127771939Y-106684117D01*
X127798819Y-106643889D01*
X128501764Y-105940944D01*
X132052367Y-102390338D01*
X132083050Y-102367897D01*
X132119090Y-102355805D01*
X135479939Y-101779660D01*
X135538343Y-101783669D01*
X135588400Y-101814028D01*
X135618951Y-101863970D01*
X135623183Y-101922361D01*
X135600155Y-101976186D01*
X135586964Y-101993807D01*
X135578547Y-102009222D01*
X135534111Y-102128358D01*
X135530573Y-102143332D01*
X135525353Y-102191885D01*
X135525000Y-102198482D01*
X135525000Y-102476674D01*
X135528450Y-102489549D01*
X135541326Y-102493000D01*
X137508674Y-102493000D01*
X137521549Y-102489549D01*
X137525000Y-102476674D01*
X137525000Y-102198482D01*
X137524646Y-102191885D01*
X137519426Y-102143332D01*
X137515888Y-102128358D01*
X137471452Y-102009222D01*
X137463037Y-101993809D01*
X137449846Y-101976189D01*
X137426816Y-101922364D01*
X137431048Y-101863972D01*
X137461598Y-101814029D01*
X137511656Y-101783669D01*
X137570060Y-101779660D01*
X140930904Y-102355804D01*
G37*
%TD.AperFunction*%
%TA.AperFunction,Conductor*%
G36*
X143836000Y-111972613D02*
G01*
X143881387Y-112018000D01*
X143898000Y-112080000D01*
X143898000Y-112839674D01*
X143901450Y-112852549D01*
X143914326Y-112856000D01*
X143944400Y-112856000D01*
X144006400Y-112872613D01*
X144051787Y-112918000D01*
X144068400Y-112980000D01*
X144068400Y-113860712D01*
X144058961Y-113908165D01*
X144032081Y-113948393D01*
X143254181Y-114726293D01*
X143204818Y-114756543D01*
X143147102Y-114761085D01*
X143093615Y-114738930D01*
X143056015Y-114694907D01*
X143042500Y-114638612D01*
X143042500Y-114535632D01*
X143042500Y-114530754D01*
X143026951Y-114432580D01*
X142966658Y-114314249D01*
X142872751Y-114220342D01*
X142864058Y-114215912D01*
X142864053Y-114215909D01*
X142841304Y-114204318D01*
X142791872Y-114158623D01*
X142773600Y-114093834D01*
X142773600Y-112762194D01*
X142788768Y-112702767D01*
X142830560Y-112657879D01*
X142888754Y-112638510D01*
X142949111Y-112649399D01*
X142996867Y-112687883D01*
X143010498Y-112706092D01*
X143022907Y-112718501D01*
X143123810Y-112794037D01*
X143139222Y-112802452D01*
X143258358Y-112846888D01*
X143273332Y-112850426D01*
X143321885Y-112855646D01*
X143328482Y-112856000D01*
X143481674Y-112856000D01*
X143494549Y-112852549D01*
X143498000Y-112839674D01*
X143498000Y-112080000D01*
X143514613Y-112018000D01*
X143560000Y-111972613D01*
X143622000Y-111956000D01*
X143774000Y-111956000D01*
X143836000Y-111972613D01*
G37*
%TD.AperFunction*%
%TA.AperFunction,Conductor*%
G36*
X137906879Y-105867324D02*
G01*
X137938708Y-105918459D01*
X137939427Y-105923393D01*
X137948007Y-105940944D01*
X137986289Y-106019253D01*
X137986291Y-106019256D01*
X137990802Y-106028483D01*
X138073517Y-106111198D01*
X138082744Y-106115709D01*
X138082746Y-106115710D01*
X138167931Y-106157354D01*
X138178607Y-106162573D01*
X138246740Y-106172500D01*
X138608778Y-106172500D01*
X138613260Y-106172500D01*
X138681393Y-106162573D01*
X138786483Y-106111198D01*
X138869198Y-106028483D01*
X138920573Y-105923393D01*
X138920793Y-105921877D01*
X138951512Y-105872522D01*
X139006848Y-105842296D01*
X139069895Y-105843191D01*
X139124350Y-105874976D01*
X139217617Y-105968243D01*
X139250599Y-106027350D01*
X139247628Y-106094971D01*
X139209589Y-106150957D01*
X139147817Y-106178628D01*
X139138138Y-106180038D01*
X139138135Y-106180038D01*
X139128607Y-106181427D01*
X139119960Y-106185654D01*
X139119954Y-106185656D01*
X139032746Y-106228289D01*
X139032740Y-106228292D01*
X139023517Y-106232802D01*
X139016254Y-106240064D01*
X139016251Y-106240067D01*
X138948067Y-106308251D01*
X138948064Y-106308254D01*
X138940802Y-106315517D01*
X138936292Y-106324740D01*
X138936289Y-106324746D01*
X138893656Y-106411954D01*
X138893654Y-106411960D01*
X138889427Y-106420607D01*
X138888038Y-106430139D01*
X138888038Y-106430140D01*
X138880146Y-106484302D01*
X138880145Y-106484310D01*
X138879500Y-106488740D01*
X138879500Y-107730260D01*
X138889427Y-107798393D01*
X138893654Y-107807041D01*
X138893656Y-107807045D01*
X138936289Y-107894253D01*
X138936291Y-107894256D01*
X138940802Y-107903483D01*
X139023517Y-107986198D01*
X139032744Y-107990709D01*
X139032746Y-107990710D01*
X139119954Y-108033343D01*
X139128607Y-108037573D01*
X139138139Y-108038961D01*
X139147335Y-108041803D01*
X139146453Y-108044656D01*
X139183144Y-108059407D01*
X139221348Y-108103575D01*
X139235100Y-108160331D01*
X139235100Y-108721670D01*
X139216827Y-108786460D01*
X139167395Y-108832154D01*
X139150270Y-108840880D01*
X139091074Y-108871041D01*
X139091068Y-108871044D01*
X139082380Y-108875472D01*
X139075480Y-108882371D01*
X139075480Y-108882372D01*
X139063424Y-108894428D01*
X139016454Y-108923871D01*
X138961348Y-108929905D01*
X138909119Y-108911324D01*
X138870206Y-108871841D01*
X138811962Y-108777413D01*
X138803062Y-108766157D01*
X138693442Y-108656537D01*
X138682180Y-108647632D01*
X138550233Y-108566246D01*
X138537225Y-108560180D01*
X138389630Y-108511272D01*
X138376474Y-108508456D01*
X138287044Y-108499319D01*
X138280768Y-108499000D01*
X138276926Y-108499000D01*
X138264050Y-108502450D01*
X138260600Y-108515326D01*
X138260600Y-110432673D01*
X138264050Y-110445548D01*
X138276926Y-110448999D01*
X138280765Y-110448999D01*
X138287047Y-110448678D01*
X138376467Y-110439544D01*
X138389636Y-110436725D01*
X138537225Y-110387819D01*
X138550233Y-110381753D01*
X138682180Y-110300367D01*
X138693442Y-110291462D01*
X138803062Y-110181842D01*
X138811965Y-110170582D01*
X138870206Y-110076159D01*
X138909119Y-110036675D01*
X138961349Y-110018093D01*
X139016456Y-110024129D01*
X139063426Y-110053574D01*
X139082380Y-110072528D01*
X139167395Y-110115845D01*
X139216827Y-110161540D01*
X139235100Y-110226330D01*
X139235100Y-110945213D01*
X139225661Y-110992666D01*
X139199166Y-111056628D01*
X139199164Y-111056633D01*
X139196056Y-111064138D01*
X139194996Y-111072189D01*
X139194994Y-111072197D01*
X139183245Y-111161448D01*
X139175418Y-111220900D01*
X139176479Y-111228959D01*
X139194994Y-111369602D01*
X139194995Y-111369608D01*
X139196056Y-111377662D01*
X139199165Y-111385168D01*
X139199166Y-111385171D01*
X139251253Y-111510920D01*
X139256564Y-111523741D01*
X139261511Y-111530188D01*
X139341435Y-111634348D01*
X139352818Y-111649182D01*
X139478259Y-111745436D01*
X139624338Y-111805944D01*
X139652831Y-111809695D01*
X139691489Y-111821422D01*
X139724327Y-111844953D01*
X139846181Y-111966807D01*
X139873061Y-112007035D01*
X139882500Y-112054488D01*
X139882500Y-112342500D01*
X139865887Y-112404500D01*
X139820500Y-112449887D01*
X139758500Y-112466500D01*
X139324066Y-112466500D01*
X139270558Y-112454361D01*
X139227527Y-112420322D01*
X139209667Y-112383852D01*
X139207598Y-112384624D01*
X139160452Y-112258222D01*
X139152037Y-112242810D01*
X139076501Y-112141907D01*
X139064092Y-112129498D01*
X138963189Y-112053962D01*
X138947777Y-112045547D01*
X138821376Y-111998402D01*
X138822148Y-111996330D01*
X138785689Y-111978483D01*
X138751641Y-111935448D01*
X138739499Y-111881936D01*
X138739499Y-111478600D01*
X138724240Y-111401883D01*
X138666112Y-111314888D01*
X138655959Y-111308104D01*
X138589272Y-111263545D01*
X138589270Y-111263544D01*
X138579117Y-111256760D01*
X138567138Y-111254377D01*
X138508379Y-111242689D01*
X138508377Y-111242688D01*
X138502401Y-111241500D01*
X138496306Y-111241500D01*
X138331688Y-111241500D01*
X138331678Y-111241500D01*
X138325600Y-111241501D01*
X138319635Y-111242687D01*
X138319629Y-111242688D01*
X138260860Y-111254377D01*
X138260856Y-111254378D01*
X138248883Y-111256760D01*
X138238730Y-111263543D01*
X138238727Y-111263545D01*
X138232883Y-111267450D01*
X138188186Y-111285961D01*
X138139807Y-111285960D01*
X138095111Y-111267447D01*
X138089273Y-111263546D01*
X138079117Y-111256760D01*
X138067137Y-111254377D01*
X138067135Y-111254376D01*
X138008379Y-111242689D01*
X138008377Y-111242688D01*
X138002401Y-111241500D01*
X137996306Y-111241500D01*
X137831688Y-111241500D01*
X137831678Y-111241500D01*
X137825600Y-111241501D01*
X137819635Y-111242687D01*
X137819629Y-111242688D01*
X137760860Y-111254377D01*
X137760856Y-111254378D01*
X137748883Y-111256760D01*
X137738730Y-111263543D01*
X137738727Y-111263545D01*
X137732883Y-111267450D01*
X137688186Y-111285961D01*
X137639807Y-111285960D01*
X137595111Y-111267447D01*
X137589273Y-111263546D01*
X137579117Y-111256760D01*
X137567137Y-111254377D01*
X137567135Y-111254376D01*
X137508379Y-111242689D01*
X137508377Y-111242688D01*
X137502401Y-111241500D01*
X137496306Y-111241500D01*
X137331688Y-111241500D01*
X137331678Y-111241500D01*
X137325600Y-111241501D01*
X137319635Y-111242687D01*
X137319629Y-111242688D01*
X137260860Y-111254377D01*
X137260856Y-111254378D01*
X137248883Y-111256760D01*
X137238730Y-111263543D01*
X137238727Y-111263545D01*
X137232883Y-111267450D01*
X137188186Y-111285961D01*
X137139807Y-111285960D01*
X137095111Y-111267447D01*
X137089273Y-111263546D01*
X137079117Y-111256760D01*
X137067137Y-111254377D01*
X137067135Y-111254376D01*
X137008379Y-111242689D01*
X137008377Y-111242688D01*
X137002401Y-111241500D01*
X136996306Y-111241500D01*
X136831688Y-111241500D01*
X136831678Y-111241500D01*
X136825600Y-111241501D01*
X136819635Y-111242687D01*
X136819629Y-111242688D01*
X136760860Y-111254377D01*
X136760856Y-111254378D01*
X136748883Y-111256760D01*
X136738730Y-111263543D01*
X136738727Y-111263545D01*
X136732883Y-111267450D01*
X136688186Y-111285961D01*
X136639807Y-111285960D01*
X136595111Y-111267447D01*
X136589273Y-111263546D01*
X136579117Y-111256760D01*
X136567137Y-111254377D01*
X136567135Y-111254376D01*
X136508379Y-111242689D01*
X136508377Y-111242688D01*
X136502401Y-111241500D01*
X136496306Y-111241500D01*
X136465886Y-111241500D01*
X136409591Y-111227985D01*
X136365568Y-111190385D01*
X136343413Y-111136898D01*
X136347955Y-111079182D01*
X136378203Y-111029821D01*
X137134479Y-110273545D01*
X137190066Y-110241452D01*
X137254254Y-110241452D01*
X137309841Y-110273546D01*
X137327757Y-110291462D01*
X137339019Y-110300367D01*
X137470966Y-110381753D01*
X137483974Y-110387819D01*
X137631569Y-110436727D01*
X137644725Y-110439543D01*
X137734155Y-110448680D01*
X137740432Y-110449000D01*
X137744274Y-110449000D01*
X137757149Y-110445549D01*
X137760600Y-110432674D01*
X137760600Y-109740326D01*
X137757149Y-109727450D01*
X137744274Y-109724000D01*
X137684000Y-109724000D01*
X137622000Y-109707387D01*
X137576613Y-109662000D01*
X137560000Y-109600000D01*
X137560000Y-109348000D01*
X137576613Y-109286000D01*
X137622000Y-109240613D01*
X137684000Y-109224000D01*
X137744274Y-109224000D01*
X137757149Y-109220549D01*
X137760600Y-109207674D01*
X137760600Y-108515327D01*
X137757149Y-108502451D01*
X137744274Y-108499001D01*
X137740435Y-108499001D01*
X137734152Y-108499321D01*
X137696601Y-108503157D01*
X137629425Y-108491143D01*
X137578778Y-108445407D01*
X137560000Y-108379799D01*
X137560000Y-108169787D01*
X137573749Y-108113036D01*
X137611946Y-108068870D01*
X137666122Y-108047083D01*
X137731393Y-108037573D01*
X137836483Y-107986198D01*
X137919198Y-107903483D01*
X137970573Y-107798393D01*
X137980500Y-107730260D01*
X137980500Y-106488740D01*
X137970573Y-106420607D01*
X137941789Y-106361727D01*
X137923710Y-106324746D01*
X137923709Y-106324744D01*
X137919198Y-106315517D01*
X137836483Y-106232802D01*
X137827256Y-106228291D01*
X137827253Y-106228289D01*
X137740045Y-106185656D01*
X137740041Y-106185654D01*
X137731393Y-106181427D01*
X137721862Y-106180038D01*
X137721861Y-106180038D01*
X137706247Y-106177763D01*
X137644475Y-106150093D01*
X137606436Y-106094106D01*
X137603465Y-106026485D01*
X137636445Y-105967380D01*
X137734046Y-105869779D01*
X137788498Y-105837997D01*
X137851543Y-105837101D01*
X137906879Y-105867324D01*
G37*
%TD.AperFunction*%
%TA.AperFunction,Conductor*%
G36*
X141668523Y-107477196D02*
G01*
X141683316Y-107487554D01*
X141693800Y-107490362D01*
X141697123Y-107491912D01*
X141700557Y-107493162D01*
X141709955Y-107498588D01*
X141747163Y-107505148D01*
X141757704Y-107507486D01*
X141783713Y-107514455D01*
X141783714Y-107514455D01*
X141794193Y-107517263D01*
X141822682Y-107514770D01*
X141877925Y-107522533D01*
X141924176Y-107553729D01*
X141952070Y-107602043D01*
X141955962Y-107657693D01*
X141945500Y-107723754D01*
X141945500Y-108227246D01*
X141946262Y-108232060D01*
X141946263Y-108232066D01*
X141959521Y-108315778D01*
X141959522Y-108315783D01*
X141961049Y-108325420D01*
X142021342Y-108443751D01*
X142115249Y-108537658D01*
X142233580Y-108597951D01*
X142331754Y-108613500D01*
X142598400Y-108613500D01*
X142660400Y-108630113D01*
X142705787Y-108675500D01*
X142722400Y-108737500D01*
X142722400Y-110249806D01*
X142707232Y-110309233D01*
X142665440Y-110354121D01*
X142607246Y-110373490D01*
X142546889Y-110362601D01*
X142499133Y-110324117D01*
X142485501Y-110305907D01*
X142473092Y-110293498D01*
X142372189Y-110217962D01*
X142356777Y-110209547D01*
X142237641Y-110165111D01*
X142222667Y-110161573D01*
X142174114Y-110156353D01*
X142167518Y-110156000D01*
X142014326Y-110156000D01*
X142001450Y-110159450D01*
X141998000Y-110172326D01*
X141998000Y-110932000D01*
X141981387Y-110994000D01*
X141936000Y-111039387D01*
X141874000Y-111056000D01*
X141722000Y-111056000D01*
X141660000Y-111039387D01*
X141614613Y-110994000D01*
X141598000Y-110932000D01*
X141598000Y-110172326D01*
X141594549Y-110159450D01*
X141565906Y-110151775D01*
X141566959Y-110147843D01*
X141535400Y-110139387D01*
X141490013Y-110094000D01*
X141473400Y-110032000D01*
X141473400Y-107578771D01*
X141491391Y-107514443D01*
X141540143Y-107468782D01*
X141605509Y-107455036D01*
X141668523Y-107477196D01*
G37*
%TD.AperFunction*%
%TA.AperFunction,Conductor*%
G36*
X136928385Y-106823370D02*
G01*
X136965985Y-106867393D01*
X136979500Y-106923688D01*
X136979500Y-107112446D01*
X136962861Y-107174491D01*
X136962390Y-107175306D01*
X136956612Y-107184371D01*
X136934946Y-107215316D01*
X136932139Y-107225788D01*
X136930587Y-107229118D01*
X136929331Y-107232566D01*
X136923912Y-107241955D01*
X136922029Y-107252631D01*
X136922028Y-107252635D01*
X136917353Y-107279149D01*
X136915014Y-107289697D01*
X136905236Y-107326193D01*
X136906181Y-107336996D01*
X136906181Y-107336999D01*
X136908528Y-107363819D01*
X136909000Y-107374627D01*
X136909000Y-108475061D01*
X136891933Y-108537840D01*
X136845431Y-108583339D01*
X136782295Y-108599031D01*
X136719903Y-108580599D01*
X136696633Y-108566246D01*
X136683625Y-108560180D01*
X136536030Y-108511272D01*
X136522874Y-108508456D01*
X136433444Y-108499319D01*
X136427168Y-108499000D01*
X136423326Y-108499000D01*
X136410450Y-108502450D01*
X136407000Y-108515326D01*
X136407000Y-109207674D01*
X136410450Y-109220549D01*
X136423326Y-109224000D01*
X136785000Y-109224000D01*
X136847000Y-109240613D01*
X136892387Y-109286000D01*
X136909000Y-109348000D01*
X136909000Y-109527012D01*
X136899561Y-109574465D01*
X136872681Y-109614693D01*
X136799693Y-109687681D01*
X136759465Y-109714561D01*
X136712012Y-109724000D01*
X136031000Y-109724000D01*
X135969000Y-109707387D01*
X135923613Y-109662000D01*
X135907000Y-109600000D01*
X135907000Y-108515327D01*
X135903549Y-108502451D01*
X135890674Y-108499001D01*
X135886835Y-108499001D01*
X135880552Y-108499321D01*
X135791132Y-108508455D01*
X135777963Y-108511274D01*
X135630376Y-108560179D01*
X135628853Y-108560890D01*
X135627600Y-108561099D01*
X135623516Y-108562453D01*
X135623305Y-108561818D01*
X135563487Y-108571825D01*
X135518925Y-108554270D01*
X135516480Y-108598556D01*
X135478978Y-108651137D01*
X135479268Y-108651427D01*
X135477540Y-108653154D01*
X135476384Y-108654776D01*
X135474161Y-108656533D01*
X135364537Y-108766157D01*
X135355635Y-108777416D01*
X135297392Y-108871842D01*
X135258479Y-108911325D01*
X135206249Y-108929906D01*
X135151143Y-108923870D01*
X135104173Y-108894425D01*
X135092121Y-108882373D01*
X135092121Y-108882372D01*
X135085220Y-108875472D01*
X134965126Y-108814281D01*
X134955489Y-108812754D01*
X134955484Y-108812753D01*
X134870308Y-108799263D01*
X134870302Y-108799262D01*
X134865488Y-108798500D01*
X134860610Y-108798500D01*
X134687589Y-108798500D01*
X134631294Y-108784985D01*
X134587271Y-108747385D01*
X134565116Y-108693898D01*
X134569658Y-108636182D01*
X134599908Y-108586819D01*
X134698208Y-108488519D01*
X134738436Y-108461639D01*
X134785889Y-108452200D01*
X135240073Y-108452200D01*
X135250880Y-108452671D01*
X135288507Y-108455964D01*
X135325024Y-108446178D01*
X135335530Y-108443849D01*
X135372745Y-108437288D01*
X135372747Y-108437287D01*
X135373209Y-108439912D01*
X135425939Y-108436371D01*
X135456710Y-108453073D01*
X135453980Y-108429107D01*
X135481460Y-108368803D01*
X135496447Y-108350942D01*
X135503736Y-108342988D01*
X136538290Y-107308434D01*
X136546242Y-107301147D01*
X136575194Y-107276855D01*
X136594085Y-107244133D01*
X136599880Y-107235035D01*
X136621554Y-107204084D01*
X136624362Y-107193599D01*
X136625901Y-107190300D01*
X136627156Y-107186851D01*
X136632588Y-107177445D01*
X136639149Y-107140230D01*
X136641478Y-107129724D01*
X136651264Y-107093207D01*
X136647971Y-107055580D01*
X136647500Y-107044773D01*
X136647500Y-107007688D01*
X136656939Y-106960235D01*
X136683819Y-106920007D01*
X136767819Y-106836007D01*
X136817182Y-106805757D01*
X136874898Y-106801215D01*
X136928385Y-106823370D01*
G37*
%TD.AperFunction*%
%TD*%
M02*
