%TF.GenerationSoftware,KiCad,Pcbnew,(7.0.0)*%
%TF.CreationDate,2023-12-02T15:30:32+10:30*%
%TF.ProjectId,ring_pcb_IR,72696e67-5f70-4636-925f-49522e6b6963,rev?*%
%TF.SameCoordinates,Original*%
%TF.FileFunction,Copper,L2,Bot*%
%TF.FilePolarity,Positive*%
%FSLAX46Y46*%
G04 Gerber Fmt 4.6, Leading zero omitted, Abs format (unit mm)*
G04 Created by KiCad (PCBNEW (7.0.0)) date 2023-12-02 15:30:32*
%MOMM*%
%LPD*%
G01*
G04 APERTURE LIST*
%TA.AperFunction,SMDPad,CuDef*%
%ADD10R,1.000000X1.000000*%
%TD*%
%TA.AperFunction,ViaPad*%
%ADD11C,0.800000*%
%TD*%
%TA.AperFunction,Conductor*%
%ADD12C,0.250000*%
%TD*%
G04 APERTURE END LIST*
D10*
%TO.P,TP5,1,1*%
%TO.N,PB4*%
X133500399Y-115798599D03*
%TD*%
%TO.P,TP2,1,1*%
%TO.N,PB1*%
X139600399Y-118848599D03*
%TD*%
%TO.P,TP4,1,1*%
%TO.N,PB3*%
X136550399Y-118848599D03*
%TD*%
%TO.P,TP9,1,1*%
%TO.N,VCC*%
X136651999Y-111251999D03*
%TD*%
%TO.P,TP1,1,1*%
%TO.N,PB0*%
X139600399Y-115798599D03*
%TD*%
%TO.P,TP3,1,1*%
%TO.N,PB2*%
X136550399Y-115798599D03*
%TD*%
%TO.P,TP6,1,1*%
%TO.N,PB5*%
X133500399Y-118848599D03*
%TD*%
D11*
%TO.N,VCC*%
X132040700Y-106090200D03*
X128911300Y-115636100D03*
X139781100Y-111220900D03*
X141243500Y-116265700D03*
X133204100Y-110547700D03*
X141521300Y-105860900D03*
%TO.N,GND*%
X136652000Y-105410000D03*
X136429499Y-107981499D03*
X143669400Y-113538000D03*
X142240000Y-109474000D03*
X138430000Y-107188000D03*
%TO.N,PB0*%
X139458600Y-117156500D03*
%TO.N,PB1*%
X140464200Y-117185100D03*
%TO.N,PB2*%
X141224000Y-113284000D03*
%TO.N,PB3*%
X134448300Y-113668500D03*
%TO.N,PB4*%
X134486620Y-114838176D03*
%TO.N,PB5*%
X133517000Y-114595600D03*
%TD*%
D12*
%TO.N,GND*%
X142240000Y-109474000D02*
X140716000Y-109474000D01*
X143669400Y-110903400D02*
X142240000Y-109474000D01*
X138430000Y-107188000D02*
X137222998Y-107188000D01*
X143669400Y-113538000D02*
X143669400Y-110903400D01*
X140716000Y-109474000D02*
X138430000Y-107188000D01*
X137222998Y-107188000D02*
X136429499Y-107981499D01*
X138430000Y-107188000D02*
X136652000Y-105410000D01*
%TO.N,PB0*%
X139458600Y-116765500D02*
X139458600Y-117156500D01*
X139600400Y-116623700D02*
X139458600Y-116765500D01*
X139600400Y-115798600D02*
X139600400Y-116623700D01*
%TO.N,PB1*%
X139600400Y-118848600D02*
X139600400Y-118023500D01*
X139600400Y-118023500D02*
X139625800Y-118023500D01*
X139625800Y-118023500D02*
X140464200Y-117185100D01*
%TO.N,PB2*%
X139890100Y-113284000D02*
X137375500Y-115798600D01*
X141224000Y-113284000D02*
X139890100Y-113284000D01*
X137375500Y-115798600D02*
X136550400Y-115798600D01*
%TO.N,PB3*%
X136550400Y-118023500D02*
X135725300Y-117198400D01*
X136550400Y-118848600D02*
X136550400Y-118023500D01*
X135725300Y-117198400D02*
X135725300Y-114945500D01*
X135725300Y-114945500D02*
X134448300Y-113668500D01*
%TO.N,PB4*%
X134486620Y-114838176D02*
X133526196Y-115798600D01*
X133526196Y-115798600D02*
X133500400Y-115798600D01*
%TO.N,PB5*%
X133500400Y-118848600D02*
X133500400Y-118023500D01*
X132675200Y-115164100D02*
X133243700Y-114595600D01*
X133243700Y-114595600D02*
X133517000Y-114595600D01*
X133500400Y-118023500D02*
X132675200Y-117198300D01*
X132675200Y-117198300D02*
X132675200Y-115164100D01*
%TD*%
%TA.AperFunction,Conductor*%
%TO.N,VCC*%
G36*
X136549255Y-101604665D02*
G01*
X140930904Y-102355804D01*
X140966946Y-102367896D01*
X140997632Y-102390340D01*
X145251181Y-106643888D01*
X145278061Y-106684116D01*
X145287500Y-106731569D01*
X145287500Y-115518431D01*
X145278061Y-115565884D01*
X145251181Y-115606112D01*
X140997396Y-119859894D01*
X140966979Y-119882198D01*
X140931264Y-119894326D01*
X136729221Y-120635863D01*
X136707315Y-120637749D01*
X136589428Y-120637410D01*
X136569400Y-120635724D01*
X132119436Y-119894065D01*
X132083081Y-119882009D01*
X132052140Y-119859433D01*
X129419815Y-117227107D01*
X132345936Y-117227107D01*
X132348743Y-117237583D01*
X132355713Y-117263597D01*
X132358052Y-117274152D01*
X132362727Y-117300661D01*
X132362728Y-117300666D01*
X132364612Y-117311345D01*
X132370031Y-117320732D01*
X132371284Y-117324173D01*
X132372838Y-117327506D01*
X132375646Y-117337984D01*
X132397312Y-117368927D01*
X132403114Y-117378035D01*
X132416581Y-117401360D01*
X132416583Y-117401362D01*
X132422006Y-117410755D01*
X132450957Y-117435047D01*
X132458918Y-117442344D01*
X132972471Y-117955897D01*
X133003451Y-118007582D01*
X133006407Y-118067769D01*
X132980644Y-118122242D01*
X132932999Y-118157578D01*
X132922169Y-118159733D01*
X132912015Y-118166517D01*
X132912012Y-118166519D01*
X132866001Y-118197263D01*
X132865998Y-118197265D01*
X132855848Y-118204048D01*
X132849065Y-118214198D01*
X132849063Y-118214201D01*
X132818317Y-118260215D01*
X132818315Y-118260218D01*
X132811533Y-118270369D01*
X132809150Y-118282345D01*
X132809150Y-118282347D01*
X132801089Y-118322871D01*
X132801088Y-118322877D01*
X132799900Y-118328852D01*
X132799900Y-119368348D01*
X132811533Y-119426831D01*
X132855848Y-119493152D01*
X132922169Y-119537467D01*
X132980652Y-119549100D01*
X134014052Y-119549100D01*
X134020148Y-119549100D01*
X134078631Y-119537467D01*
X134144952Y-119493152D01*
X134189267Y-119426831D01*
X134200900Y-119368348D01*
X134200900Y-118328852D01*
X134189267Y-118270369D01*
X134144952Y-118204048D01*
X134078631Y-118159733D01*
X134066653Y-118157350D01*
X134066652Y-118157350D01*
X134026128Y-118149289D01*
X134026123Y-118149288D01*
X134020148Y-118148100D01*
X134014052Y-118148100D01*
X133951565Y-118148100D01*
X133886468Y-118129639D01*
X133840755Y-118079752D01*
X133828037Y-118013294D01*
X133828718Y-118005503D01*
X133829664Y-117994693D01*
X133819881Y-117958185D01*
X133817545Y-117947643D01*
X133812872Y-117921141D01*
X133810988Y-117910455D01*
X133805560Y-117901055D01*
X133804310Y-117897619D01*
X133802763Y-117894301D01*
X133799954Y-117883816D01*
X133778292Y-117852879D01*
X133772480Y-117843757D01*
X133768051Y-117836086D01*
X133753594Y-117811045D01*
X133745281Y-117804070D01*
X133745280Y-117804068D01*
X133724655Y-117786762D01*
X133716680Y-117779454D01*
X133037019Y-117099793D01*
X133010139Y-117059565D01*
X133000700Y-117012112D01*
X133000700Y-116623100D01*
X133017313Y-116561100D01*
X133062700Y-116515713D01*
X133124700Y-116499100D01*
X134014052Y-116499100D01*
X134020148Y-116499100D01*
X134078631Y-116487467D01*
X134144952Y-116443152D01*
X134189267Y-116376831D01*
X134200900Y-116318348D01*
X134200900Y-115635585D01*
X134210339Y-115588133D01*
X134237218Y-115547904D01*
X134314934Y-115470187D01*
X134362758Y-115440449D01*
X134418801Y-115434929D01*
X134486620Y-115443858D01*
X134643382Y-115423220D01*
X134789461Y-115362712D01*
X134914902Y-115266458D01*
X135011156Y-115141017D01*
X135071664Y-114994938D01*
X135074623Y-114996164D01*
X135098337Y-114954755D01*
X135153948Y-114922461D01*
X135218256Y-114922364D01*
X135273964Y-114954490D01*
X135363481Y-115044007D01*
X135390361Y-115084235D01*
X135399800Y-115131688D01*
X135399800Y-117178773D01*
X135399328Y-117189581D01*
X135396981Y-117216400D01*
X135396981Y-117216403D01*
X135396036Y-117227207D01*
X135398843Y-117237683D01*
X135405813Y-117263697D01*
X135408152Y-117274252D01*
X135412827Y-117300761D01*
X135412828Y-117300766D01*
X135414712Y-117311445D01*
X135420131Y-117320832D01*
X135421384Y-117324273D01*
X135422938Y-117327606D01*
X135425746Y-117338084D01*
X135447412Y-117369027D01*
X135453214Y-117378135D01*
X135466681Y-117401460D01*
X135466683Y-117401462D01*
X135472106Y-117410855D01*
X135501057Y-117435147D01*
X135509018Y-117442444D01*
X136022471Y-117955897D01*
X136053451Y-118007582D01*
X136056407Y-118067769D01*
X136030644Y-118122242D01*
X135982999Y-118157578D01*
X135972169Y-118159733D01*
X135962015Y-118166517D01*
X135962012Y-118166519D01*
X135916001Y-118197263D01*
X135915998Y-118197265D01*
X135905848Y-118204048D01*
X135899065Y-118214198D01*
X135899063Y-118214201D01*
X135868317Y-118260215D01*
X135868315Y-118260218D01*
X135861533Y-118270369D01*
X135859150Y-118282345D01*
X135859150Y-118282347D01*
X135851089Y-118322871D01*
X135851088Y-118322877D01*
X135849900Y-118328852D01*
X135849900Y-119368348D01*
X135861533Y-119426831D01*
X135905848Y-119493152D01*
X135972169Y-119537467D01*
X136030652Y-119549100D01*
X137064052Y-119549100D01*
X137070148Y-119549100D01*
X137128631Y-119537467D01*
X137194952Y-119493152D01*
X137239267Y-119426831D01*
X137250900Y-119368348D01*
X137250900Y-118328852D01*
X137239267Y-118270369D01*
X137194952Y-118204048D01*
X137128631Y-118159733D01*
X137116653Y-118157350D01*
X137116652Y-118157350D01*
X137076128Y-118149289D01*
X137076123Y-118149288D01*
X137070148Y-118148100D01*
X137064052Y-118148100D01*
X137001565Y-118148100D01*
X136936468Y-118129639D01*
X136890755Y-118079752D01*
X136878037Y-118013294D01*
X136878718Y-118005503D01*
X136879664Y-117994693D01*
X136869881Y-117958185D01*
X136867545Y-117947643D01*
X136862872Y-117921141D01*
X136860988Y-117910455D01*
X136855560Y-117901055D01*
X136854310Y-117897619D01*
X136852763Y-117894301D01*
X136849954Y-117883816D01*
X136828292Y-117852879D01*
X136822480Y-117843757D01*
X136818051Y-117836086D01*
X136803594Y-117811045D01*
X136795281Y-117804070D01*
X136795280Y-117804068D01*
X136774655Y-117786762D01*
X136766680Y-117779454D01*
X136143726Y-117156500D01*
X138852918Y-117156500D01*
X138853979Y-117164559D01*
X138872494Y-117305202D01*
X138872495Y-117305208D01*
X138873556Y-117313262D01*
X138876665Y-117320768D01*
X138876666Y-117320771D01*
X138925479Y-117438615D01*
X138934064Y-117459341D01*
X139030318Y-117584782D01*
X139155759Y-117681036D01*
X139239786Y-117715841D01*
X139289603Y-117753496D01*
X139314751Y-117810657D01*
X139308850Y-117872825D01*
X139307974Y-117875231D01*
X139298849Y-117894799D01*
X139295236Y-117901056D01*
X139295232Y-117901065D01*
X139289812Y-117910455D01*
X139287928Y-117921137D01*
X139287927Y-117921141D01*
X139286673Y-117928252D01*
X139281082Y-117949119D01*
X139278610Y-117955910D01*
X139278609Y-117955915D01*
X139274900Y-117966106D01*
X139274900Y-117976953D01*
X139274900Y-118024100D01*
X139258287Y-118086100D01*
X139212900Y-118131487D01*
X139150900Y-118148100D01*
X139080652Y-118148100D01*
X139074677Y-118149288D01*
X139074671Y-118149289D01*
X139034147Y-118157350D01*
X139034145Y-118157350D01*
X139022169Y-118159733D01*
X139012018Y-118166515D01*
X139012015Y-118166517D01*
X138966001Y-118197263D01*
X138965998Y-118197265D01*
X138955848Y-118204048D01*
X138949065Y-118214198D01*
X138949063Y-118214201D01*
X138918317Y-118260215D01*
X138918315Y-118260218D01*
X138911533Y-118270369D01*
X138909150Y-118282345D01*
X138909150Y-118282347D01*
X138901089Y-118322871D01*
X138901088Y-118322877D01*
X138899900Y-118328852D01*
X138899900Y-119368348D01*
X138911533Y-119426831D01*
X138955848Y-119493152D01*
X139022169Y-119537467D01*
X139080652Y-119549100D01*
X140114052Y-119549100D01*
X140120148Y-119549100D01*
X140178631Y-119537467D01*
X140244952Y-119493152D01*
X140289267Y-119426831D01*
X140300900Y-119368348D01*
X140300900Y-118328852D01*
X140289267Y-118270369D01*
X140244952Y-118204048D01*
X140178668Y-118159757D01*
X140178663Y-118159754D01*
X140178631Y-118159733D01*
X140178632Y-118159731D01*
X140138115Y-118129681D01*
X140112351Y-118075207D01*
X140115309Y-118015021D01*
X140146284Y-117963341D01*
X140292516Y-117817108D01*
X140340337Y-117787372D01*
X140396381Y-117781853D01*
X140464200Y-117790782D01*
X140620962Y-117770144D01*
X140767041Y-117709636D01*
X140892482Y-117613382D01*
X140988736Y-117487941D01*
X141049244Y-117341862D01*
X141069882Y-117185100D01*
X141049244Y-117028338D01*
X140988736Y-116882259D01*
X140892482Y-116756818D01*
X140882736Y-116749340D01*
X140773488Y-116665511D01*
X140767041Y-116660564D01*
X140697995Y-116631964D01*
X140628471Y-116603166D01*
X140628468Y-116603165D01*
X140620962Y-116600056D01*
X140612908Y-116598995D01*
X140612902Y-116598994D01*
X140472259Y-116580479D01*
X140464200Y-116579418D01*
X140456141Y-116580479D01*
X140395305Y-116588488D01*
X140339260Y-116582968D01*
X140291437Y-116553229D01*
X140261700Y-116505405D01*
X140256181Y-116449360D01*
X140276018Y-116396657D01*
X140289267Y-116376831D01*
X140300900Y-116318348D01*
X140300900Y-115278852D01*
X140289267Y-115220369D01*
X140244952Y-115154048D01*
X140211488Y-115131688D01*
X140188784Y-115116517D01*
X140188783Y-115116516D01*
X140178631Y-115109733D01*
X140166653Y-115107350D01*
X140166652Y-115107350D01*
X140126128Y-115099289D01*
X140126123Y-115099288D01*
X140120148Y-115098100D01*
X139080652Y-115098100D01*
X139074677Y-115099288D01*
X139074671Y-115099289D01*
X139034147Y-115107350D01*
X139034145Y-115107350D01*
X139022169Y-115109733D01*
X139012018Y-115116515D01*
X139012015Y-115116517D01*
X138966001Y-115147263D01*
X138965998Y-115147265D01*
X138955848Y-115154048D01*
X138949065Y-115164198D01*
X138949063Y-115164201D01*
X138918317Y-115210215D01*
X138918315Y-115210218D01*
X138911533Y-115220369D01*
X138909150Y-115232345D01*
X138909150Y-115232347D01*
X138901089Y-115272871D01*
X138901088Y-115272877D01*
X138899900Y-115278852D01*
X138899900Y-116318348D01*
X138911533Y-116376831D01*
X138955848Y-116443152D01*
X139022169Y-116487467D01*
X139034151Y-116489850D01*
X139034976Y-116490192D01*
X139085900Y-116529265D01*
X139110465Y-116588566D01*
X139102088Y-116652204D01*
X139063014Y-116703128D01*
X139036767Y-116723268D01*
X139036760Y-116723274D01*
X139030318Y-116728218D01*
X139025374Y-116734660D01*
X139025371Y-116734664D01*
X138939011Y-116847211D01*
X138939008Y-116847214D01*
X138934064Y-116853659D01*
X138930955Y-116861162D01*
X138930954Y-116861166D01*
X138876666Y-116992228D01*
X138876664Y-116992233D01*
X138873556Y-116999738D01*
X138872496Y-117007789D01*
X138872494Y-117007797D01*
X138860370Y-117099893D01*
X138852918Y-117156500D01*
X136143726Y-117156500D01*
X136087119Y-117099893D01*
X136060239Y-117059665D01*
X136050800Y-117012212D01*
X136050800Y-116623100D01*
X136067413Y-116561100D01*
X136112800Y-116515713D01*
X136174800Y-116499100D01*
X137064052Y-116499100D01*
X137070148Y-116499100D01*
X137128631Y-116487467D01*
X137194952Y-116443152D01*
X137239267Y-116376831D01*
X137250900Y-116318348D01*
X137250900Y-116249765D01*
X137269361Y-116184668D01*
X137319248Y-116138955D01*
X137385706Y-116126237D01*
X137391806Y-116126770D01*
X137404307Y-116127864D01*
X137440824Y-116118078D01*
X137451330Y-116115749D01*
X137488545Y-116109188D01*
X137497951Y-116103756D01*
X137501400Y-116102501D01*
X137504699Y-116100962D01*
X137515184Y-116098154D01*
X137546135Y-116076480D01*
X137555233Y-116070685D01*
X137587955Y-116051794D01*
X137612248Y-116022841D01*
X137619536Y-116014888D01*
X139988607Y-113645819D01*
X140028836Y-113618939D01*
X140076289Y-113609500D01*
X140655701Y-113609500D01*
X140710545Y-113622288D01*
X140754076Y-113658013D01*
X140795718Y-113712282D01*
X140921159Y-113808536D01*
X141067238Y-113869044D01*
X141224000Y-113889682D01*
X141380762Y-113869044D01*
X141526841Y-113808536D01*
X141652282Y-113712282D01*
X141748536Y-113586841D01*
X141809044Y-113440762D01*
X141829682Y-113284000D01*
X141809044Y-113127238D01*
X141748536Y-112981159D01*
X141652282Y-112855718D01*
X141526841Y-112759464D01*
X141519333Y-112756354D01*
X141388271Y-112702066D01*
X141388268Y-112702065D01*
X141380762Y-112698956D01*
X141372708Y-112697895D01*
X141372702Y-112697894D01*
X141232059Y-112679379D01*
X141224000Y-112678318D01*
X141215941Y-112679379D01*
X141075297Y-112697894D01*
X141075289Y-112697896D01*
X141067238Y-112698956D01*
X141059733Y-112702064D01*
X141059728Y-112702066D01*
X140928666Y-112756354D01*
X140928662Y-112756355D01*
X140921159Y-112759464D01*
X140914714Y-112764408D01*
X140914711Y-112764411D01*
X140802164Y-112850771D01*
X140802160Y-112850774D01*
X140795718Y-112855718D01*
X140790774Y-112862160D01*
X140790771Y-112862164D01*
X140754077Y-112909986D01*
X140710545Y-112945712D01*
X140655701Y-112958500D01*
X139909715Y-112958500D01*
X139898907Y-112958028D01*
X139872099Y-112955682D01*
X139872096Y-112955682D01*
X139861293Y-112954737D01*
X139850818Y-112957543D01*
X139850813Y-112957544D01*
X139824815Y-112964510D01*
X139814263Y-112966849D01*
X139787738Y-112971527D01*
X139787732Y-112971529D01*
X139777055Y-112973412D01*
X139767669Y-112978829D01*
X139764228Y-112980082D01*
X139760885Y-112981640D01*
X139750416Y-112984447D01*
X139741534Y-112990665D01*
X139741525Y-112990670D01*
X139719476Y-113006108D01*
X139710362Y-113011915D01*
X139687039Y-113025381D01*
X139687034Y-113025384D01*
X139677645Y-113030806D01*
X139670677Y-113039109D01*
X139670672Y-113039114D01*
X139653362Y-113059743D01*
X139646056Y-113067715D01*
X137443102Y-115270671D01*
X137391416Y-115301651D01*
X137331229Y-115304607D01*
X137276755Y-115278842D01*
X137241421Y-115231199D01*
X137239267Y-115220369D01*
X137194952Y-115154048D01*
X137161488Y-115131688D01*
X137138784Y-115116517D01*
X137138783Y-115116516D01*
X137128631Y-115109733D01*
X137116653Y-115107350D01*
X137116652Y-115107350D01*
X137076128Y-115099289D01*
X137076123Y-115099288D01*
X137070148Y-115098100D01*
X137064052Y-115098100D01*
X136174800Y-115098100D01*
X136112800Y-115081487D01*
X136067413Y-115036100D01*
X136050800Y-114974100D01*
X136050800Y-114965127D01*
X136051272Y-114954319D01*
X136053618Y-114927501D01*
X136054564Y-114916693D01*
X136044781Y-114880185D01*
X136042445Y-114869643D01*
X136037772Y-114843141D01*
X136035888Y-114832455D01*
X136030460Y-114823055D01*
X136029210Y-114819619D01*
X136027663Y-114816301D01*
X136024854Y-114805816D01*
X136003192Y-114774879D01*
X135997380Y-114765757D01*
X135995742Y-114762920D01*
X135978494Y-114733045D01*
X135970181Y-114726070D01*
X135970180Y-114726068D01*
X135949555Y-114708762D01*
X135941580Y-114701454D01*
X135080311Y-113840185D01*
X135050572Y-113792362D01*
X135045053Y-113736318D01*
X135052921Y-113676559D01*
X135053982Y-113668500D01*
X135033344Y-113511738D01*
X134972836Y-113365659D01*
X134876582Y-113240218D01*
X134751141Y-113143964D01*
X134710761Y-113127238D01*
X134612571Y-113086566D01*
X134612568Y-113086565D01*
X134605062Y-113083456D01*
X134597008Y-113082395D01*
X134597002Y-113082394D01*
X134459175Y-113064249D01*
X134448300Y-113062818D01*
X134437782Y-113064202D01*
X134299597Y-113082394D01*
X134299589Y-113082396D01*
X134291538Y-113083456D01*
X134284033Y-113086564D01*
X134284028Y-113086566D01*
X134152966Y-113140854D01*
X134152962Y-113140855D01*
X134145459Y-113143964D01*
X134139014Y-113148908D01*
X134139011Y-113148911D01*
X134026464Y-113235271D01*
X134026460Y-113235274D01*
X134020018Y-113240218D01*
X134015074Y-113246660D01*
X134015071Y-113246664D01*
X133928711Y-113359211D01*
X133928708Y-113359214D01*
X133923764Y-113365659D01*
X133920655Y-113373162D01*
X133920654Y-113373166D01*
X133866366Y-113504228D01*
X133866364Y-113504233D01*
X133863256Y-113511738D01*
X133862196Y-113519789D01*
X133862194Y-113519797D01*
X133850385Y-113609500D01*
X133842618Y-113668500D01*
X133843679Y-113676559D01*
X133862194Y-113817202D01*
X133862195Y-113817208D01*
X133863256Y-113825262D01*
X133866365Y-113832770D01*
X133866367Y-113832774D01*
X133880587Y-113867104D01*
X133889644Y-113924285D01*
X133871753Y-113979346D01*
X133830816Y-114020283D01*
X133775755Y-114038174D01*
X133718574Y-114029117D01*
X133681274Y-114013667D01*
X133681270Y-114013665D01*
X133673762Y-114010556D01*
X133665708Y-114009495D01*
X133665702Y-114009494D01*
X133525059Y-113990979D01*
X133517000Y-113989918D01*
X133508941Y-113990979D01*
X133368297Y-114009494D01*
X133368289Y-114009496D01*
X133360238Y-114010556D01*
X133352733Y-114013664D01*
X133352728Y-114013666D01*
X133221666Y-114067954D01*
X133221662Y-114067955D01*
X133214159Y-114071064D01*
X133207714Y-114076008D01*
X133207711Y-114076011D01*
X133095164Y-114162371D01*
X133095160Y-114162374D01*
X133088718Y-114167318D01*
X133083774Y-114173760D01*
X133083771Y-114173764D01*
X132997411Y-114286311D01*
X132997408Y-114286314D01*
X132992464Y-114292759D01*
X132989355Y-114300262D01*
X132989354Y-114300266D01*
X132935611Y-114430012D01*
X132908731Y-114470240D01*
X132458914Y-114920058D01*
X132450942Y-114927364D01*
X132430314Y-114944673D01*
X132430312Y-114944674D01*
X132422006Y-114951645D01*
X132416584Y-114961034D01*
X132416580Y-114961040D01*
X132403114Y-114984364D01*
X132397312Y-114993471D01*
X132375646Y-115024416D01*
X132372839Y-115034888D01*
X132371287Y-115038218D01*
X132370031Y-115041666D01*
X132364612Y-115051055D01*
X132362729Y-115061731D01*
X132362728Y-115061735D01*
X132358053Y-115088249D01*
X132355714Y-115098797D01*
X132345936Y-115135293D01*
X132346881Y-115146096D01*
X132346881Y-115146099D01*
X132349228Y-115172919D01*
X132349700Y-115183727D01*
X132349700Y-117178673D01*
X132349228Y-117189481D01*
X132346881Y-117216300D01*
X132346881Y-117216303D01*
X132345936Y-117227107D01*
X129419815Y-117227107D01*
X127798819Y-115606111D01*
X127771939Y-115565883D01*
X127762500Y-115518430D01*
X127762500Y-111796518D01*
X135652000Y-111796518D01*
X135652353Y-111803114D01*
X135657573Y-111851667D01*
X135661111Y-111866641D01*
X135705547Y-111985777D01*
X135713962Y-112001189D01*
X135789498Y-112102092D01*
X135801907Y-112114501D01*
X135902810Y-112190037D01*
X135918222Y-112198452D01*
X136037358Y-112242888D01*
X136052332Y-112246426D01*
X136100885Y-112251646D01*
X136107482Y-112252000D01*
X136385674Y-112252000D01*
X136398549Y-112248549D01*
X136402000Y-112235674D01*
X136902000Y-112235674D01*
X136905450Y-112248549D01*
X136918326Y-112252000D01*
X137196518Y-112252000D01*
X137203114Y-112251646D01*
X137251667Y-112246426D01*
X137266641Y-112242888D01*
X137385777Y-112198452D01*
X137401189Y-112190037D01*
X137502092Y-112114501D01*
X137514501Y-112102092D01*
X137590037Y-112001189D01*
X137598452Y-111985777D01*
X137642888Y-111866641D01*
X137646426Y-111851667D01*
X137651646Y-111803114D01*
X137652000Y-111796518D01*
X137652000Y-111518326D01*
X137648549Y-111505450D01*
X137635674Y-111502000D01*
X136918326Y-111502000D01*
X136905450Y-111505450D01*
X136902000Y-111518326D01*
X136902000Y-112235674D01*
X136402000Y-112235674D01*
X136402000Y-111518326D01*
X136398549Y-111505450D01*
X136385674Y-111502000D01*
X135668326Y-111502000D01*
X135655450Y-111505450D01*
X135652000Y-111518326D01*
X135652000Y-111796518D01*
X127762500Y-111796518D01*
X127762500Y-110985674D01*
X135652000Y-110985674D01*
X135655450Y-110998549D01*
X135668326Y-111002000D01*
X136385674Y-111002000D01*
X136398549Y-110998549D01*
X136402000Y-110985674D01*
X136902000Y-110985674D01*
X136905450Y-110998549D01*
X136918326Y-111002000D01*
X137635674Y-111002000D01*
X137648549Y-110998549D01*
X137652000Y-110985674D01*
X137652000Y-110707482D01*
X137651646Y-110700885D01*
X137646426Y-110652332D01*
X137642888Y-110637358D01*
X137598452Y-110518222D01*
X137590037Y-110502810D01*
X137514501Y-110401907D01*
X137502092Y-110389498D01*
X137401189Y-110313962D01*
X137385777Y-110305547D01*
X137266641Y-110261111D01*
X137251667Y-110257573D01*
X137203114Y-110252353D01*
X137196518Y-110252000D01*
X136918326Y-110252000D01*
X136905450Y-110255450D01*
X136902000Y-110268326D01*
X136902000Y-110985674D01*
X136402000Y-110985674D01*
X136402000Y-110268326D01*
X136398549Y-110255450D01*
X136385674Y-110252000D01*
X136107482Y-110252000D01*
X136100885Y-110252353D01*
X136052332Y-110257573D01*
X136037358Y-110261111D01*
X135918222Y-110305547D01*
X135902810Y-110313962D01*
X135801907Y-110389498D01*
X135789498Y-110401907D01*
X135713962Y-110502810D01*
X135705547Y-110518222D01*
X135661111Y-110637358D01*
X135657573Y-110652332D01*
X135652353Y-110700885D01*
X135652000Y-110707482D01*
X135652000Y-110985674D01*
X127762500Y-110985674D01*
X127762500Y-107981499D01*
X135823817Y-107981499D01*
X135824878Y-107989558D01*
X135843393Y-108130201D01*
X135843394Y-108130207D01*
X135844455Y-108138261D01*
X135904963Y-108284340D01*
X136001217Y-108409781D01*
X136126658Y-108506035D01*
X136272737Y-108566543D01*
X136429499Y-108587181D01*
X136586261Y-108566543D01*
X136732340Y-108506035D01*
X136857781Y-108409781D01*
X136954035Y-108284340D01*
X137014543Y-108138261D01*
X137035181Y-107981499D01*
X137026252Y-107913679D01*
X137031772Y-107857636D01*
X137061510Y-107809813D01*
X137321505Y-107549819D01*
X137361733Y-107522939D01*
X137409186Y-107513500D01*
X137861701Y-107513500D01*
X137916545Y-107526288D01*
X137960076Y-107562013D01*
X138001718Y-107616282D01*
X138127159Y-107712536D01*
X138273238Y-107773044D01*
X138281296Y-107774104D01*
X138281297Y-107774105D01*
X138351619Y-107783363D01*
X138430000Y-107793682D01*
X138497818Y-107784753D01*
X138553862Y-107790272D01*
X138601685Y-107820011D01*
X140471955Y-109690282D01*
X140479264Y-109698257D01*
X140503545Y-109727194D01*
X140536266Y-109746085D01*
X140545376Y-109751889D01*
X140576316Y-109773554D01*
X140586800Y-109776362D01*
X140590123Y-109777912D01*
X140593557Y-109779162D01*
X140602955Y-109784588D01*
X140640163Y-109791148D01*
X140650704Y-109793486D01*
X140676713Y-109800455D01*
X140676714Y-109800455D01*
X140687193Y-109803263D01*
X140724810Y-109799972D01*
X140735618Y-109799500D01*
X141671701Y-109799500D01*
X141726545Y-109812288D01*
X141770076Y-109848013D01*
X141811718Y-109902282D01*
X141937159Y-109998536D01*
X142083238Y-110059044D01*
X142091296Y-110060104D01*
X142091297Y-110060105D01*
X142161618Y-110069362D01*
X142240000Y-110079682D01*
X142307818Y-110070753D01*
X142363862Y-110076272D01*
X142411685Y-110106011D01*
X143307581Y-111001907D01*
X143334461Y-111042135D01*
X143343900Y-111089588D01*
X143343900Y-112969701D01*
X143331112Y-113024545D01*
X143295386Y-113068077D01*
X143247564Y-113104771D01*
X143247560Y-113104774D01*
X143241118Y-113109718D01*
X143236174Y-113116160D01*
X143236171Y-113116164D01*
X143149811Y-113228711D01*
X143149808Y-113228714D01*
X143144864Y-113235159D01*
X143141755Y-113242662D01*
X143141754Y-113242666D01*
X143087466Y-113373728D01*
X143087464Y-113373733D01*
X143084356Y-113381238D01*
X143083296Y-113389289D01*
X143083294Y-113389297D01*
X143068164Y-113504228D01*
X143063718Y-113538000D01*
X143064779Y-113546059D01*
X143083294Y-113686702D01*
X143083295Y-113686708D01*
X143084356Y-113694762D01*
X143087465Y-113702268D01*
X143087466Y-113702271D01*
X143141754Y-113833333D01*
X143144864Y-113840841D01*
X143241118Y-113966282D01*
X143366559Y-114062536D01*
X143512638Y-114123044D01*
X143669400Y-114143682D01*
X143826162Y-114123044D01*
X143972241Y-114062536D01*
X144097682Y-113966282D01*
X144193936Y-113840841D01*
X144254444Y-113694762D01*
X144275082Y-113538000D01*
X144254444Y-113381238D01*
X144193936Y-113235159D01*
X144097682Y-113109718D01*
X144043413Y-113068076D01*
X144007688Y-113024545D01*
X143994900Y-112969701D01*
X143994900Y-110923027D01*
X143995372Y-110912219D01*
X143997718Y-110885401D01*
X143998664Y-110874593D01*
X143988881Y-110838085D01*
X143986545Y-110827543D01*
X143981872Y-110801041D01*
X143979988Y-110790355D01*
X143974560Y-110780955D01*
X143973310Y-110777519D01*
X143971763Y-110774201D01*
X143968954Y-110763716D01*
X143947292Y-110732779D01*
X143941480Y-110723657D01*
X143922594Y-110690945D01*
X143914281Y-110683970D01*
X143914280Y-110683968D01*
X143893655Y-110666662D01*
X143885680Y-110659354D01*
X142872011Y-109645685D01*
X142842272Y-109597862D01*
X142836753Y-109541818D01*
X142844621Y-109482059D01*
X142845682Y-109474000D01*
X142825044Y-109317238D01*
X142764536Y-109171159D01*
X142668282Y-109045718D01*
X142542841Y-108949464D01*
X142535333Y-108946354D01*
X142404271Y-108892066D01*
X142404268Y-108892065D01*
X142396762Y-108888956D01*
X142388708Y-108887895D01*
X142388702Y-108887894D01*
X142248059Y-108869379D01*
X142240000Y-108868318D01*
X142231941Y-108869379D01*
X142091297Y-108887894D01*
X142091289Y-108887896D01*
X142083238Y-108888956D01*
X142075733Y-108892064D01*
X142075728Y-108892066D01*
X141944666Y-108946354D01*
X141944662Y-108946355D01*
X141937159Y-108949464D01*
X141930714Y-108954408D01*
X141930711Y-108954411D01*
X141818164Y-109040771D01*
X141818160Y-109040774D01*
X141811718Y-109045718D01*
X141806774Y-109052160D01*
X141806771Y-109052164D01*
X141770077Y-109099986D01*
X141726545Y-109135712D01*
X141671701Y-109148500D01*
X140902189Y-109148500D01*
X140854736Y-109139061D01*
X140814508Y-109112181D01*
X139062011Y-107359685D01*
X139032272Y-107311862D01*
X139026753Y-107255818D01*
X139034621Y-107196059D01*
X139035682Y-107188000D01*
X139015044Y-107031238D01*
X138954536Y-106885159D01*
X138858282Y-106759718D01*
X138732841Y-106663464D01*
X138725333Y-106660354D01*
X138594271Y-106606066D01*
X138594268Y-106606065D01*
X138586762Y-106602956D01*
X138578708Y-106601895D01*
X138578702Y-106601894D01*
X138438059Y-106583379D01*
X138430000Y-106582318D01*
X138421941Y-106583379D01*
X138421939Y-106583379D01*
X138362179Y-106591246D01*
X138306136Y-106585726D01*
X138258314Y-106555988D01*
X137284011Y-105581685D01*
X137254272Y-105533862D01*
X137248753Y-105477818D01*
X137256621Y-105418059D01*
X137257682Y-105410000D01*
X137237044Y-105253238D01*
X137176536Y-105107159D01*
X137080282Y-104981718D01*
X136954841Y-104885464D01*
X136947333Y-104882354D01*
X136816271Y-104828066D01*
X136816268Y-104828065D01*
X136808762Y-104824956D01*
X136800708Y-104823895D01*
X136800702Y-104823894D01*
X136660059Y-104805379D01*
X136652000Y-104804318D01*
X136643941Y-104805379D01*
X136503297Y-104823894D01*
X136503289Y-104823896D01*
X136495238Y-104824956D01*
X136487733Y-104828064D01*
X136487728Y-104828066D01*
X136356666Y-104882354D01*
X136356662Y-104882355D01*
X136349159Y-104885464D01*
X136342714Y-104890408D01*
X136342711Y-104890411D01*
X136230164Y-104976771D01*
X136230160Y-104976774D01*
X136223718Y-104981718D01*
X136218774Y-104988160D01*
X136218771Y-104988164D01*
X136132411Y-105100711D01*
X136132408Y-105100714D01*
X136127464Y-105107159D01*
X136124355Y-105114662D01*
X136124354Y-105114666D01*
X136070066Y-105245728D01*
X136070064Y-105245733D01*
X136066956Y-105253238D01*
X136065896Y-105261289D01*
X136065894Y-105261297D01*
X136047702Y-105399482D01*
X136046318Y-105410000D01*
X136047379Y-105418059D01*
X136065894Y-105558702D01*
X136065895Y-105558708D01*
X136066956Y-105566762D01*
X136127464Y-105712841D01*
X136223718Y-105838282D01*
X136349159Y-105934536D01*
X136495238Y-105995044D01*
X136503296Y-105996104D01*
X136503297Y-105996105D01*
X136573618Y-106005362D01*
X136652000Y-106015682D01*
X136719818Y-106006753D01*
X136775862Y-106012272D01*
X136823685Y-106042011D01*
X137432493Y-106650819D01*
X137462743Y-106700182D01*
X137467285Y-106757898D01*
X137445130Y-106811385D01*
X137401107Y-106848985D01*
X137344812Y-106862500D01*
X137242625Y-106862500D01*
X137231817Y-106862028D01*
X137204997Y-106859681D01*
X137204994Y-106859681D01*
X137194191Y-106858736D01*
X137157695Y-106868514D01*
X137147147Y-106870853D01*
X137120633Y-106875528D01*
X137120629Y-106875529D01*
X137109953Y-106877412D01*
X137100564Y-106882831D01*
X137097116Y-106884087D01*
X137093786Y-106885639D01*
X137083314Y-106888446D01*
X137052369Y-106910112D01*
X137043262Y-106915914D01*
X137019938Y-106929380D01*
X137019932Y-106929384D01*
X137010543Y-106934806D01*
X137003572Y-106943112D01*
X137003571Y-106943114D01*
X136986260Y-106963744D01*
X136978954Y-106971716D01*
X136601183Y-107349487D01*
X136553361Y-107379225D01*
X136497317Y-107384745D01*
X136437558Y-107376878D01*
X136429499Y-107375817D01*
X136421440Y-107376878D01*
X136280796Y-107395393D01*
X136280788Y-107395395D01*
X136272737Y-107396455D01*
X136265232Y-107399563D01*
X136265227Y-107399565D01*
X136134165Y-107453853D01*
X136134161Y-107453854D01*
X136126658Y-107456963D01*
X136120213Y-107461907D01*
X136120210Y-107461910D01*
X136007663Y-107548270D01*
X136007659Y-107548273D01*
X136001217Y-107553217D01*
X135996273Y-107559659D01*
X135996270Y-107559663D01*
X135909910Y-107672210D01*
X135909907Y-107672213D01*
X135904963Y-107678658D01*
X135901854Y-107686161D01*
X135901853Y-107686165D01*
X135847565Y-107817227D01*
X135847563Y-107817232D01*
X135844455Y-107824737D01*
X135843395Y-107832788D01*
X135843393Y-107832796D01*
X135832745Y-107913680D01*
X135823817Y-107981499D01*
X127762500Y-107981499D01*
X127762500Y-106731570D01*
X127771939Y-106684117D01*
X127798819Y-106643889D01*
X128505063Y-105937645D01*
X132052367Y-102390338D01*
X132083050Y-102367897D01*
X132119090Y-102355805D01*
X136500510Y-101604705D01*
X136520720Y-101602925D01*
X136527606Y-101602886D01*
X136549255Y-101604665D01*
G37*
%TD.AperFunction*%
%TD*%
M02*
