%TF.GenerationSoftware,KiCad,Pcbnew,7.0.7*%
%TF.CreationDate,2023-11-25T18:05:25+10:30*%
%TF.ProjectId,ring_pcb_IR,72696e67-5f70-4636-925f-49522e6b6963,rev?*%
%TF.SameCoordinates,Original*%
%TF.FileFunction,Legend,Top*%
%TF.FilePolarity,Positive*%
%FSLAX46Y46*%
G04 Gerber Fmt 4.6, Leading zero omitted, Abs format (unit mm)*
G04 Created by KiCad (PCBNEW 7.0.7) date 2023-11-25 18:05:25*
%MOMM*%
%LPD*%
G01*
G04 APERTURE LIST*
%ADD10C,0.200000*%
%ADD11C,0.120000*%
G04 APERTURE END LIST*
D10*
X133989095Y-115779532D02*
X133608142Y-116046199D01*
X133989095Y-116236675D02*
X133189095Y-116236675D01*
X133189095Y-116236675D02*
X133189095Y-115931913D01*
X133189095Y-115931913D02*
X133227190Y-115855723D01*
X133227190Y-115855723D02*
X133265285Y-115817628D01*
X133265285Y-115817628D02*
X133341476Y-115779532D01*
X133341476Y-115779532D02*
X133455761Y-115779532D01*
X133455761Y-115779532D02*
X133531952Y-115817628D01*
X133531952Y-115817628D02*
X133570047Y-115855723D01*
X133570047Y-115855723D02*
X133608142Y-115931913D01*
X133608142Y-115931913D02*
X133608142Y-116236675D01*
X133989095Y-115017628D02*
X133989095Y-115474771D01*
X133989095Y-115246199D02*
X133189095Y-115246199D01*
X133189095Y-115246199D02*
X133303380Y-115322390D01*
X133303380Y-115322390D02*
X133379571Y-115398580D01*
X133379571Y-115398580D02*
X133417666Y-115474771D01*
X133658904Y-109505732D02*
X133697000Y-109543828D01*
X133697000Y-109543828D02*
X133735095Y-109658113D01*
X133735095Y-109658113D02*
X133735095Y-109734304D01*
X133735095Y-109734304D02*
X133697000Y-109848590D01*
X133697000Y-109848590D02*
X133620809Y-109924780D01*
X133620809Y-109924780D02*
X133544619Y-109962875D01*
X133544619Y-109962875D02*
X133392238Y-110000971D01*
X133392238Y-110000971D02*
X133277952Y-110000971D01*
X133277952Y-110000971D02*
X133125571Y-109962875D01*
X133125571Y-109962875D02*
X133049380Y-109924780D01*
X133049380Y-109924780D02*
X132973190Y-109848590D01*
X132973190Y-109848590D02*
X132935095Y-109734304D01*
X132935095Y-109734304D02*
X132935095Y-109658113D01*
X132935095Y-109658113D02*
X132973190Y-109543828D01*
X132973190Y-109543828D02*
X133011285Y-109505732D01*
X133735095Y-108743828D02*
X133735095Y-109200971D01*
X133735095Y-108972399D02*
X132935095Y-108972399D01*
X132935095Y-108972399D02*
X133049380Y-109048590D01*
X133049380Y-109048590D02*
X133125571Y-109124780D01*
X133125571Y-109124780D02*
X133163666Y-109200971D01*
X141151885Y-105994190D02*
X141113790Y-106070380D01*
X141113790Y-106070380D02*
X141037600Y-106146571D01*
X141037600Y-106146571D02*
X140923314Y-106260857D01*
X140923314Y-106260857D02*
X140885219Y-106337047D01*
X140885219Y-106337047D02*
X140885219Y-106413238D01*
X141075695Y-106375142D02*
X141037600Y-106451333D01*
X141037600Y-106451333D02*
X140961409Y-106527523D01*
X140961409Y-106527523D02*
X140809028Y-106565619D01*
X140809028Y-106565619D02*
X140542361Y-106565619D01*
X140542361Y-106565619D02*
X140389980Y-106527523D01*
X140389980Y-106527523D02*
X140313790Y-106451333D01*
X140313790Y-106451333D02*
X140275695Y-106375142D01*
X140275695Y-106375142D02*
X140275695Y-106222761D01*
X140275695Y-106222761D02*
X140313790Y-106146571D01*
X140313790Y-106146571D02*
X140389980Y-106070380D01*
X140389980Y-106070380D02*
X140542361Y-106032285D01*
X140542361Y-106032285D02*
X140809028Y-106032285D01*
X140809028Y-106032285D02*
X140961409Y-106070380D01*
X140961409Y-106070380D02*
X141037600Y-106146571D01*
X141037600Y-106146571D02*
X141075695Y-106222761D01*
X141075695Y-106222761D02*
X141075695Y-106375142D01*
X141075695Y-105270381D02*
X141075695Y-105727524D01*
X141075695Y-105498952D02*
X140275695Y-105498952D01*
X140275695Y-105498952D02*
X140389980Y-105575143D01*
X140389980Y-105575143D02*
X140466171Y-105651333D01*
X140466171Y-105651333D02*
X140504266Y-105727524D01*
X129264695Y-107905475D02*
X128464695Y-107905475D01*
X128464695Y-107905475D02*
X128464695Y-107714999D01*
X128464695Y-107714999D02*
X128502790Y-107600713D01*
X128502790Y-107600713D02*
X128578980Y-107524523D01*
X128578980Y-107524523D02*
X128655171Y-107486428D01*
X128655171Y-107486428D02*
X128807552Y-107448332D01*
X128807552Y-107448332D02*
X128921838Y-107448332D01*
X128921838Y-107448332D02*
X129074219Y-107486428D01*
X129074219Y-107486428D02*
X129150409Y-107524523D01*
X129150409Y-107524523D02*
X129226600Y-107600713D01*
X129226600Y-107600713D02*
X129264695Y-107714999D01*
X129264695Y-107714999D02*
X129264695Y-107905475D01*
X128464695Y-107181666D02*
X128464695Y-106686428D01*
X128464695Y-106686428D02*
X128769457Y-106953094D01*
X128769457Y-106953094D02*
X128769457Y-106838809D01*
X128769457Y-106838809D02*
X128807552Y-106762618D01*
X128807552Y-106762618D02*
X128845647Y-106724523D01*
X128845647Y-106724523D02*
X128921838Y-106686428D01*
X128921838Y-106686428D02*
X129112314Y-106686428D01*
X129112314Y-106686428D02*
X129188504Y-106724523D01*
X129188504Y-106724523D02*
X129226600Y-106762618D01*
X129226600Y-106762618D02*
X129264695Y-106838809D01*
X129264695Y-106838809D02*
X129264695Y-107067380D01*
X129264695Y-107067380D02*
X129226600Y-107143571D01*
X129226600Y-107143571D02*
X129188504Y-107181666D01*
X129518695Y-115880975D02*
X128718695Y-115880975D01*
X128718695Y-115880975D02*
X128718695Y-115690499D01*
X128718695Y-115690499D02*
X128756790Y-115576213D01*
X128756790Y-115576213D02*
X128832980Y-115500023D01*
X128832980Y-115500023D02*
X128909171Y-115461928D01*
X128909171Y-115461928D02*
X129061552Y-115423832D01*
X129061552Y-115423832D02*
X129175838Y-115423832D01*
X129175838Y-115423832D02*
X129328219Y-115461928D01*
X129328219Y-115461928D02*
X129404409Y-115500023D01*
X129404409Y-115500023D02*
X129480600Y-115576213D01*
X129480600Y-115576213D02*
X129518695Y-115690499D01*
X129518695Y-115690499D02*
X129518695Y-115880975D01*
X129518695Y-114661928D02*
X129518695Y-115119071D01*
X129518695Y-114890499D02*
X128718695Y-114890499D01*
X128718695Y-114890499D02*
X128832980Y-114966690D01*
X128832980Y-114966690D02*
X128909171Y-115042880D01*
X128909171Y-115042880D02*
X128947266Y-115119071D01*
X144199895Y-116084375D02*
X143399895Y-116084375D01*
X143399895Y-116084375D02*
X143399895Y-115893899D01*
X143399895Y-115893899D02*
X143437990Y-115779613D01*
X143437990Y-115779613D02*
X143514180Y-115703423D01*
X143514180Y-115703423D02*
X143590371Y-115665328D01*
X143590371Y-115665328D02*
X143742752Y-115627232D01*
X143742752Y-115627232D02*
X143857038Y-115627232D01*
X143857038Y-115627232D02*
X144009419Y-115665328D01*
X144009419Y-115665328D02*
X144085609Y-115703423D01*
X144085609Y-115703423D02*
X144161800Y-115779613D01*
X144161800Y-115779613D02*
X144199895Y-115893899D01*
X144199895Y-115893899D02*
X144199895Y-116084375D01*
X143666561Y-114941518D02*
X144199895Y-114941518D01*
X143361800Y-115131994D02*
X143933228Y-115322471D01*
X143933228Y-115322471D02*
X143933228Y-114827232D01*
X130384676Y-104461695D02*
X130841819Y-104461695D01*
X130613247Y-105261695D02*
X130613247Y-104461695D01*
X131108486Y-105261695D02*
X131108486Y-104461695D01*
X131108486Y-104461695D02*
X131413248Y-104461695D01*
X131413248Y-104461695D02*
X131489438Y-104499790D01*
X131489438Y-104499790D02*
X131527533Y-104537885D01*
X131527533Y-104537885D02*
X131565629Y-104614076D01*
X131565629Y-104614076D02*
X131565629Y-104728361D01*
X131565629Y-104728361D02*
X131527533Y-104804552D01*
X131527533Y-104804552D02*
X131489438Y-104842647D01*
X131489438Y-104842647D02*
X131413248Y-104880742D01*
X131413248Y-104880742D02*
X131108486Y-104880742D01*
X131832295Y-104461695D02*
X132365629Y-104461695D01*
X132365629Y-104461695D02*
X132022771Y-105261695D01*
X139325476Y-116907695D02*
X139782619Y-116907695D01*
X139554047Y-117707695D02*
X139554047Y-116907695D01*
X140049286Y-117707695D02*
X140049286Y-116907695D01*
X140049286Y-116907695D02*
X140354048Y-116907695D01*
X140354048Y-116907695D02*
X140430238Y-116945790D01*
X140430238Y-116945790D02*
X140468333Y-116983885D01*
X140468333Y-116983885D02*
X140506429Y-117060076D01*
X140506429Y-117060076D02*
X140506429Y-117174361D01*
X140506429Y-117174361D02*
X140468333Y-117250552D01*
X140468333Y-117250552D02*
X140430238Y-117288647D01*
X140430238Y-117288647D02*
X140354048Y-117326742D01*
X140354048Y-117326742D02*
X140049286Y-117326742D01*
X140963571Y-117250552D02*
X140887381Y-117212457D01*
X140887381Y-117212457D02*
X140849286Y-117174361D01*
X140849286Y-117174361D02*
X140811190Y-117098171D01*
X140811190Y-117098171D02*
X140811190Y-117060076D01*
X140811190Y-117060076D02*
X140849286Y-116983885D01*
X140849286Y-116983885D02*
X140887381Y-116945790D01*
X140887381Y-116945790D02*
X140963571Y-116907695D01*
X140963571Y-116907695D02*
X141115952Y-116907695D01*
X141115952Y-116907695D02*
X141192143Y-116945790D01*
X141192143Y-116945790D02*
X141230238Y-116983885D01*
X141230238Y-116983885D02*
X141268333Y-117060076D01*
X141268333Y-117060076D02*
X141268333Y-117098171D01*
X141268333Y-117098171D02*
X141230238Y-117174361D01*
X141230238Y-117174361D02*
X141192143Y-117212457D01*
X141192143Y-117212457D02*
X141115952Y-117250552D01*
X141115952Y-117250552D02*
X140963571Y-117250552D01*
X140963571Y-117250552D02*
X140887381Y-117288647D01*
X140887381Y-117288647D02*
X140849286Y-117326742D01*
X140849286Y-117326742D02*
X140811190Y-117402933D01*
X140811190Y-117402933D02*
X140811190Y-117555314D01*
X140811190Y-117555314D02*
X140849286Y-117631504D01*
X140849286Y-117631504D02*
X140887381Y-117669600D01*
X140887381Y-117669600D02*
X140963571Y-117707695D01*
X140963571Y-117707695D02*
X141115952Y-117707695D01*
X141115952Y-117707695D02*
X141192143Y-117669600D01*
X141192143Y-117669600D02*
X141230238Y-117631504D01*
X141230238Y-117631504D02*
X141268333Y-117555314D01*
X141268333Y-117555314D02*
X141268333Y-117402933D01*
X141268333Y-117402933D02*
X141230238Y-117326742D01*
X141230238Y-117326742D02*
X141192143Y-117288647D01*
X141192143Y-117288647D02*
X141115952Y-117250552D01*
X144195809Y-109909885D02*
X144119619Y-109871790D01*
X144119619Y-109871790D02*
X144043428Y-109795600D01*
X144043428Y-109795600D02*
X143929142Y-109681314D01*
X143929142Y-109681314D02*
X143852952Y-109643219D01*
X143852952Y-109643219D02*
X143776761Y-109643219D01*
X143814857Y-109833695D02*
X143738666Y-109795600D01*
X143738666Y-109795600D02*
X143662476Y-109719409D01*
X143662476Y-109719409D02*
X143624380Y-109567028D01*
X143624380Y-109567028D02*
X143624380Y-109300361D01*
X143624380Y-109300361D02*
X143662476Y-109147980D01*
X143662476Y-109147980D02*
X143738666Y-109071790D01*
X143738666Y-109071790D02*
X143814857Y-109033695D01*
X143814857Y-109033695D02*
X143967238Y-109033695D01*
X143967238Y-109033695D02*
X144043428Y-109071790D01*
X144043428Y-109071790D02*
X144119619Y-109147980D01*
X144119619Y-109147980D02*
X144157714Y-109300361D01*
X144157714Y-109300361D02*
X144157714Y-109567028D01*
X144157714Y-109567028D02*
X144119619Y-109719409D01*
X144119619Y-109719409D02*
X144043428Y-109795600D01*
X144043428Y-109795600D02*
X143967238Y-109833695D01*
X143967238Y-109833695D02*
X143814857Y-109833695D01*
X144462475Y-109109885D02*
X144500571Y-109071790D01*
X144500571Y-109071790D02*
X144576761Y-109033695D01*
X144576761Y-109033695D02*
X144767237Y-109033695D01*
X144767237Y-109033695D02*
X144843428Y-109071790D01*
X144843428Y-109071790D02*
X144881523Y-109109885D01*
X144881523Y-109109885D02*
X144919618Y-109186076D01*
X144919618Y-109186076D02*
X144919618Y-109262266D01*
X144919618Y-109262266D02*
X144881523Y-109376552D01*
X144881523Y-109376552D02*
X144424380Y-109833695D01*
X144424380Y-109833695D02*
X144919618Y-109833695D01*
X144631695Y-108032475D02*
X143831695Y-108032475D01*
X143831695Y-108032475D02*
X143831695Y-107841999D01*
X143831695Y-107841999D02*
X143869790Y-107727713D01*
X143869790Y-107727713D02*
X143945980Y-107651523D01*
X143945980Y-107651523D02*
X144022171Y-107613428D01*
X144022171Y-107613428D02*
X144174552Y-107575332D01*
X144174552Y-107575332D02*
X144288838Y-107575332D01*
X144288838Y-107575332D02*
X144441219Y-107613428D01*
X144441219Y-107613428D02*
X144517409Y-107651523D01*
X144517409Y-107651523D02*
X144593600Y-107727713D01*
X144593600Y-107727713D02*
X144631695Y-107841999D01*
X144631695Y-107841999D02*
X144631695Y-108032475D01*
X143907885Y-107270571D02*
X143869790Y-107232475D01*
X143869790Y-107232475D02*
X143831695Y-107156285D01*
X143831695Y-107156285D02*
X143831695Y-106965809D01*
X143831695Y-106965809D02*
X143869790Y-106889618D01*
X143869790Y-106889618D02*
X143907885Y-106851523D01*
X143907885Y-106851523D02*
X143984076Y-106813428D01*
X143984076Y-106813428D02*
X144060266Y-106813428D01*
X144060266Y-106813428D02*
X144174552Y-106851523D01*
X144174552Y-106851523D02*
X144631695Y-107308666D01*
X144631695Y-107308666D02*
X144631695Y-106813428D01*
X133798695Y-113385523D02*
X134446314Y-113385523D01*
X134446314Y-113385523D02*
X134522504Y-113347428D01*
X134522504Y-113347428D02*
X134560600Y-113309333D01*
X134560600Y-113309333D02*
X134598695Y-113233142D01*
X134598695Y-113233142D02*
X134598695Y-113080761D01*
X134598695Y-113080761D02*
X134560600Y-113004571D01*
X134560600Y-113004571D02*
X134522504Y-112966476D01*
X134522504Y-112966476D02*
X134446314Y-112928380D01*
X134446314Y-112928380D02*
X133798695Y-112928380D01*
X133874885Y-112585524D02*
X133836790Y-112547428D01*
X133836790Y-112547428D02*
X133798695Y-112471238D01*
X133798695Y-112471238D02*
X133798695Y-112280762D01*
X133798695Y-112280762D02*
X133836790Y-112204571D01*
X133836790Y-112204571D02*
X133874885Y-112166476D01*
X133874885Y-112166476D02*
X133951076Y-112128381D01*
X133951076Y-112128381D02*
X134027266Y-112128381D01*
X134027266Y-112128381D02*
X134141552Y-112166476D01*
X134141552Y-112166476D02*
X134598695Y-112623619D01*
X134598695Y-112623619D02*
X134598695Y-112128381D01*
X140836667Y-108741504D02*
X140798571Y-108779600D01*
X140798571Y-108779600D02*
X140684286Y-108817695D01*
X140684286Y-108817695D02*
X140608095Y-108817695D01*
X140608095Y-108817695D02*
X140493809Y-108779600D01*
X140493809Y-108779600D02*
X140417619Y-108703409D01*
X140417619Y-108703409D02*
X140379524Y-108627219D01*
X140379524Y-108627219D02*
X140341428Y-108474838D01*
X140341428Y-108474838D02*
X140341428Y-108360552D01*
X140341428Y-108360552D02*
X140379524Y-108208171D01*
X140379524Y-108208171D02*
X140417619Y-108131980D01*
X140417619Y-108131980D02*
X140493809Y-108055790D01*
X140493809Y-108055790D02*
X140608095Y-108017695D01*
X140608095Y-108017695D02*
X140684286Y-108017695D01*
X140684286Y-108017695D02*
X140798571Y-108055790D01*
X140798571Y-108055790D02*
X140836667Y-108093885D01*
X141141428Y-108093885D02*
X141179524Y-108055790D01*
X141179524Y-108055790D02*
X141255714Y-108017695D01*
X141255714Y-108017695D02*
X141446190Y-108017695D01*
X141446190Y-108017695D02*
X141522381Y-108055790D01*
X141522381Y-108055790D02*
X141560476Y-108093885D01*
X141560476Y-108093885D02*
X141598571Y-108170076D01*
X141598571Y-108170076D02*
X141598571Y-108246266D01*
X141598571Y-108246266D02*
X141560476Y-108360552D01*
X141560476Y-108360552D02*
X141103333Y-108817695D01*
X141103333Y-108817695D02*
X141598571Y-108817695D01*
X129213885Y-113868190D02*
X129175790Y-113944380D01*
X129175790Y-113944380D02*
X129099600Y-114020571D01*
X129099600Y-114020571D02*
X128985314Y-114134857D01*
X128985314Y-114134857D02*
X128947219Y-114211047D01*
X128947219Y-114211047D02*
X128947219Y-114287238D01*
X129137695Y-114249142D02*
X129099600Y-114325333D01*
X129099600Y-114325333D02*
X129023409Y-114401523D01*
X129023409Y-114401523D02*
X128871028Y-114439619D01*
X128871028Y-114439619D02*
X128604361Y-114439619D01*
X128604361Y-114439619D02*
X128451980Y-114401523D01*
X128451980Y-114401523D02*
X128375790Y-114325333D01*
X128375790Y-114325333D02*
X128337695Y-114249142D01*
X128337695Y-114249142D02*
X128337695Y-114096761D01*
X128337695Y-114096761D02*
X128375790Y-114020571D01*
X128375790Y-114020571D02*
X128451980Y-113944380D01*
X128451980Y-113944380D02*
X128604361Y-113906285D01*
X128604361Y-113906285D02*
X128871028Y-113906285D01*
X128871028Y-113906285D02*
X129023409Y-113944380D01*
X129023409Y-113944380D02*
X129099600Y-114020571D01*
X129099600Y-114020571D02*
X129137695Y-114096761D01*
X129137695Y-114096761D02*
X129137695Y-114249142D01*
X128337695Y-113639619D02*
X128337695Y-113144381D01*
X128337695Y-113144381D02*
X128642457Y-113411047D01*
X128642457Y-113411047D02*
X128642457Y-113296762D01*
X128642457Y-113296762D02*
X128680552Y-113220571D01*
X128680552Y-113220571D02*
X128718647Y-113182476D01*
X128718647Y-113182476D02*
X128794838Y-113144381D01*
X128794838Y-113144381D02*
X128985314Y-113144381D01*
X128985314Y-113144381D02*
X129061504Y-113182476D01*
X129061504Y-113182476D02*
X129099600Y-113220571D01*
X129099600Y-113220571D02*
X129137695Y-113296762D01*
X129137695Y-113296762D02*
X129137695Y-113525333D01*
X129137695Y-113525333D02*
X129099600Y-113601524D01*
X129099600Y-113601524D02*
X129061504Y-113639619D01*
X132759524Y-108563695D02*
X132759524Y-107763695D01*
X132759524Y-107763695D02*
X132950000Y-107763695D01*
X132950000Y-107763695D02*
X133064286Y-107801790D01*
X133064286Y-107801790D02*
X133140476Y-107877980D01*
X133140476Y-107877980D02*
X133178571Y-107954171D01*
X133178571Y-107954171D02*
X133216667Y-108106552D01*
X133216667Y-108106552D02*
X133216667Y-108220838D01*
X133216667Y-108220838D02*
X133178571Y-108373219D01*
X133178571Y-108373219D02*
X133140476Y-108449409D01*
X133140476Y-108449409D02*
X133064286Y-108525600D01*
X133064286Y-108525600D02*
X132950000Y-108563695D01*
X132950000Y-108563695D02*
X132759524Y-108563695D01*
X133940476Y-107763695D02*
X133559524Y-107763695D01*
X133559524Y-107763695D02*
X133521428Y-108144647D01*
X133521428Y-108144647D02*
X133559524Y-108106552D01*
X133559524Y-108106552D02*
X133635714Y-108068457D01*
X133635714Y-108068457D02*
X133826190Y-108068457D01*
X133826190Y-108068457D02*
X133902381Y-108106552D01*
X133902381Y-108106552D02*
X133940476Y-108144647D01*
X133940476Y-108144647D02*
X133978571Y-108220838D01*
X133978571Y-108220838D02*
X133978571Y-108411314D01*
X133978571Y-108411314D02*
X133940476Y-108487504D01*
X133940476Y-108487504D02*
X133902381Y-108525600D01*
X133902381Y-108525600D02*
X133826190Y-108563695D01*
X133826190Y-108563695D02*
X133635714Y-108563695D01*
X133635714Y-108563695D02*
X133559524Y-108525600D01*
X133559524Y-108525600D02*
X133521428Y-108487504D01*
X135248667Y-108563695D02*
X134982000Y-108182742D01*
X134791524Y-108563695D02*
X134791524Y-107763695D01*
X134791524Y-107763695D02*
X135096286Y-107763695D01*
X135096286Y-107763695D02*
X135172476Y-107801790D01*
X135172476Y-107801790D02*
X135210571Y-107839885D01*
X135210571Y-107839885D02*
X135248667Y-107916076D01*
X135248667Y-107916076D02*
X135248667Y-108030361D01*
X135248667Y-108030361D02*
X135210571Y-108106552D01*
X135210571Y-108106552D02*
X135172476Y-108144647D01*
X135172476Y-108144647D02*
X135096286Y-108182742D01*
X135096286Y-108182742D02*
X134791524Y-108182742D01*
X135553428Y-107839885D02*
X135591524Y-107801790D01*
X135591524Y-107801790D02*
X135667714Y-107763695D01*
X135667714Y-107763695D02*
X135858190Y-107763695D01*
X135858190Y-107763695D02*
X135934381Y-107801790D01*
X135934381Y-107801790D02*
X135972476Y-107839885D01*
X135972476Y-107839885D02*
X136010571Y-107916076D01*
X136010571Y-107916076D02*
X136010571Y-107992266D01*
X136010571Y-107992266D02*
X135972476Y-108106552D01*
X135972476Y-108106552D02*
X135515333Y-108563695D01*
X135515333Y-108563695D02*
X136010571Y-108563695D01*
D11*
%TO.C,R1*%
X131811500Y-115807258D02*
X131811500Y-115332742D01*
X132856500Y-115807258D02*
X132856500Y-115332742D01*
%TO.C,C1*%
X135241420Y-108964000D02*
X135522580Y-108964000D01*
X135241420Y-109984000D02*
X135522580Y-109984000D01*
%TO.C,Q1*%
X136870000Y-106172000D02*
X136870000Y-107847000D01*
X136870000Y-106172000D02*
X136870000Y-105522000D01*
X139990000Y-106172000D02*
X139990000Y-106822000D01*
X139990000Y-106172000D02*
X139990000Y-105522000D01*
%TO.C,D3*%
X129440000Y-108800000D02*
X130910000Y-108800000D01*
X130910000Y-108800000D02*
X130910000Y-106515000D01*
X129440000Y-106515000D02*
X129440000Y-108800000D01*
%TO.C,D1*%
X131164000Y-113831000D02*
X129694000Y-113831000D01*
X129694000Y-113831000D02*
X129694000Y-116116000D01*
X131164000Y-116116000D02*
X131164000Y-113831000D01*
%TO.C,D4*%
X143102000Y-114085000D02*
X141632000Y-114085000D01*
X141632000Y-114085000D02*
X141632000Y-116370000D01*
X143102000Y-116370000D02*
X143102000Y-114085000D01*
%TO.C,TP7*%
X135825000Y-102043000D02*
X137225000Y-102043000D01*
X135825000Y-103443000D02*
X135825000Y-102043000D01*
X137225000Y-102043000D02*
X137225000Y-103443000D01*
X137225000Y-103443000D02*
X135825000Y-103443000D01*
%TO.C,TP8*%
X135952000Y-118934000D02*
X137352000Y-118934000D01*
X135952000Y-120334000D02*
X135952000Y-118934000D01*
X137352000Y-118934000D02*
X137352000Y-120334000D01*
X137352000Y-120334000D02*
X135952000Y-120334000D01*
%TO.C,Q2*%
X142748000Y-113320000D02*
X144548000Y-113320000D01*
X142748000Y-113320000D02*
X141948000Y-113320000D01*
X142748000Y-110200000D02*
X143548000Y-110200000D01*
X142748000Y-110200000D02*
X141948000Y-110200000D01*
%TO.C,D2*%
X141886000Y-108673000D02*
X143356000Y-108673000D01*
X143356000Y-108673000D02*
X143356000Y-106388000D01*
X141886000Y-106388000D02*
X141886000Y-108673000D01*
%TO.C,U2*%
X135304000Y-115902000D02*
X135304000Y-115177000D01*
X136029000Y-111682000D02*
X135304000Y-111682000D01*
X136029000Y-115902000D02*
X135304000Y-115902000D01*
X138799000Y-111682000D02*
X139524000Y-111682000D01*
X138799000Y-115902000D02*
X139524000Y-115902000D01*
X139524000Y-111682000D02*
X139524000Y-112407000D01*
X139524000Y-115902000D02*
X139524000Y-115177000D01*
%TO.C,C2*%
X138926180Y-109984000D02*
X138645020Y-109984000D01*
X138926180Y-108964000D02*
X138645020Y-108964000D01*
%TO.C,Q3*%
X130810000Y-109692000D02*
X129010000Y-109692000D01*
X130810000Y-109692000D02*
X131610000Y-109692000D01*
X130810000Y-112812000D02*
X130010000Y-112812000D01*
X130810000Y-112812000D02*
X131610000Y-112812000D01*
%TO.C,D5*%
X132615000Y-107403000D02*
X134085000Y-107403000D01*
X134085000Y-107403000D02*
X134085000Y-105118000D01*
X132615000Y-105118000D02*
X132615000Y-107403000D01*
%TO.C,R2*%
X134859500Y-106155258D02*
X134859500Y-105680742D01*
X135904500Y-106155258D02*
X135904500Y-105680742D01*
%TD*%
M02*
