%TF.GenerationSoftware,KiCad,Pcbnew,7.0.7*%
%TF.CreationDate,2023-11-23T23:21:53+10:30*%
%TF.ProjectId,ring_pcb_IR,72696e67-5f70-4636-925f-49522e6b6963,rev?*%
%TF.SameCoordinates,Original*%
%TF.FileFunction,Legend,Bot*%
%TF.FilePolarity,Positive*%
%FSLAX46Y46*%
G04 Gerber Fmt 4.6, Leading zero omitted, Abs format (unit mm)*
G04 Created by KiCad (PCBNEW 7.0.7) date 2023-11-23 23:21:53*
%MOMM*%
%LPD*%
G01*
G04 APERTURE LIST*
%ADD10C,0.200000*%
%ADD11C,0.120000*%
G04 APERTURE END LIST*
D10*
X134509923Y-113910295D02*
X134052780Y-113910295D01*
X134281352Y-114710295D02*
X134281352Y-113910295D01*
X133786113Y-114710295D02*
X133786113Y-113910295D01*
X133786113Y-113910295D02*
X133481351Y-113910295D01*
X133481351Y-113910295D02*
X133405161Y-113948390D01*
X133405161Y-113948390D02*
X133367066Y-113986485D01*
X133367066Y-113986485D02*
X133328970Y-114062676D01*
X133328970Y-114062676D02*
X133328970Y-114176961D01*
X133328970Y-114176961D02*
X133367066Y-114253152D01*
X133367066Y-114253152D02*
X133405161Y-114291247D01*
X133405161Y-114291247D02*
X133481351Y-114329342D01*
X133481351Y-114329342D02*
X133786113Y-114329342D01*
X132605161Y-113910295D02*
X132986113Y-113910295D01*
X132986113Y-113910295D02*
X133024209Y-114291247D01*
X133024209Y-114291247D02*
X132986113Y-114253152D01*
X132986113Y-114253152D02*
X132909923Y-114215057D01*
X132909923Y-114215057D02*
X132719447Y-114215057D01*
X132719447Y-114215057D02*
X132643256Y-114253152D01*
X132643256Y-114253152D02*
X132605161Y-114291247D01*
X132605161Y-114291247D02*
X132567066Y-114367438D01*
X132567066Y-114367438D02*
X132567066Y-114557914D01*
X132567066Y-114557914D02*
X132605161Y-114634104D01*
X132605161Y-114634104D02*
X132643256Y-114672200D01*
X132643256Y-114672200D02*
X132719447Y-114710295D01*
X132719447Y-114710295D02*
X132909923Y-114710295D01*
X132909923Y-114710295D02*
X132986113Y-114672200D01*
X132986113Y-114672200D02*
X133024209Y-114634104D01*
X140609923Y-116960295D02*
X140152780Y-116960295D01*
X140381352Y-117760295D02*
X140381352Y-116960295D01*
X139886113Y-117760295D02*
X139886113Y-116960295D01*
X139886113Y-116960295D02*
X139581351Y-116960295D01*
X139581351Y-116960295D02*
X139505161Y-116998390D01*
X139505161Y-116998390D02*
X139467066Y-117036485D01*
X139467066Y-117036485D02*
X139428970Y-117112676D01*
X139428970Y-117112676D02*
X139428970Y-117226961D01*
X139428970Y-117226961D02*
X139467066Y-117303152D01*
X139467066Y-117303152D02*
X139505161Y-117341247D01*
X139505161Y-117341247D02*
X139581351Y-117379342D01*
X139581351Y-117379342D02*
X139886113Y-117379342D01*
X139124209Y-117036485D02*
X139086113Y-116998390D01*
X139086113Y-116998390D02*
X139009923Y-116960295D01*
X139009923Y-116960295D02*
X138819447Y-116960295D01*
X138819447Y-116960295D02*
X138743256Y-116998390D01*
X138743256Y-116998390D02*
X138705161Y-117036485D01*
X138705161Y-117036485D02*
X138667066Y-117112676D01*
X138667066Y-117112676D02*
X138667066Y-117188866D01*
X138667066Y-117188866D02*
X138705161Y-117303152D01*
X138705161Y-117303152D02*
X139162304Y-117760295D01*
X139162304Y-117760295D02*
X138667066Y-117760295D01*
X137559923Y-116960295D02*
X137102780Y-116960295D01*
X137331352Y-117760295D02*
X137331352Y-116960295D01*
X136836113Y-117760295D02*
X136836113Y-116960295D01*
X136836113Y-116960295D02*
X136531351Y-116960295D01*
X136531351Y-116960295D02*
X136455161Y-116998390D01*
X136455161Y-116998390D02*
X136417066Y-117036485D01*
X136417066Y-117036485D02*
X136378970Y-117112676D01*
X136378970Y-117112676D02*
X136378970Y-117226961D01*
X136378970Y-117226961D02*
X136417066Y-117303152D01*
X136417066Y-117303152D02*
X136455161Y-117341247D01*
X136455161Y-117341247D02*
X136531351Y-117379342D01*
X136531351Y-117379342D02*
X136836113Y-117379342D01*
X135693256Y-117226961D02*
X135693256Y-117760295D01*
X135883732Y-116922200D02*
X136074209Y-117493628D01*
X136074209Y-117493628D02*
X135578970Y-117493628D01*
X138169523Y-107763695D02*
X137712380Y-107763695D01*
X137940952Y-108563695D02*
X137940952Y-107763695D01*
X137445713Y-108563695D02*
X137445713Y-107763695D01*
X137445713Y-107763695D02*
X137140951Y-107763695D01*
X137140951Y-107763695D02*
X137064761Y-107801790D01*
X137064761Y-107801790D02*
X137026666Y-107839885D01*
X137026666Y-107839885D02*
X136988570Y-107916076D01*
X136988570Y-107916076D02*
X136988570Y-108030361D01*
X136988570Y-108030361D02*
X137026666Y-108106552D01*
X137026666Y-108106552D02*
X137064761Y-108144647D01*
X137064761Y-108144647D02*
X137140951Y-108182742D01*
X137140951Y-108182742D02*
X137445713Y-108182742D01*
X136607618Y-108563695D02*
X136455237Y-108563695D01*
X136455237Y-108563695D02*
X136379047Y-108525600D01*
X136379047Y-108525600D02*
X136340951Y-108487504D01*
X136340951Y-108487504D02*
X136264761Y-108373219D01*
X136264761Y-108373219D02*
X136226666Y-108220838D01*
X136226666Y-108220838D02*
X136226666Y-107916076D01*
X136226666Y-107916076D02*
X136264761Y-107839885D01*
X136264761Y-107839885D02*
X136302856Y-107801790D01*
X136302856Y-107801790D02*
X136379047Y-107763695D01*
X136379047Y-107763695D02*
X136531428Y-107763695D01*
X136531428Y-107763695D02*
X136607618Y-107801790D01*
X136607618Y-107801790D02*
X136645713Y-107839885D01*
X136645713Y-107839885D02*
X136683809Y-107916076D01*
X136683809Y-107916076D02*
X136683809Y-108106552D01*
X136683809Y-108106552D02*
X136645713Y-108182742D01*
X136645713Y-108182742D02*
X136607618Y-108220838D01*
X136607618Y-108220838D02*
X136531428Y-108258933D01*
X136531428Y-108258933D02*
X136379047Y-108258933D01*
X136379047Y-108258933D02*
X136302856Y-108220838D01*
X136302856Y-108220838D02*
X136264761Y-108182742D01*
X136264761Y-108182742D02*
X136226666Y-108106552D01*
X140609923Y-113910295D02*
X140152780Y-113910295D01*
X140381352Y-114710295D02*
X140381352Y-113910295D01*
X139886113Y-114710295D02*
X139886113Y-113910295D01*
X139886113Y-113910295D02*
X139581351Y-113910295D01*
X139581351Y-113910295D02*
X139505161Y-113948390D01*
X139505161Y-113948390D02*
X139467066Y-113986485D01*
X139467066Y-113986485D02*
X139428970Y-114062676D01*
X139428970Y-114062676D02*
X139428970Y-114176961D01*
X139428970Y-114176961D02*
X139467066Y-114253152D01*
X139467066Y-114253152D02*
X139505161Y-114291247D01*
X139505161Y-114291247D02*
X139581351Y-114329342D01*
X139581351Y-114329342D02*
X139886113Y-114329342D01*
X138667066Y-114710295D02*
X139124209Y-114710295D01*
X138895637Y-114710295D02*
X138895637Y-113910295D01*
X138895637Y-113910295D02*
X138971828Y-114024580D01*
X138971828Y-114024580D02*
X139048018Y-114100771D01*
X139048018Y-114100771D02*
X139124209Y-114138866D01*
X137559923Y-113910295D02*
X137102780Y-113910295D01*
X137331352Y-114710295D02*
X137331352Y-113910295D01*
X136836113Y-114710295D02*
X136836113Y-113910295D01*
X136836113Y-113910295D02*
X136531351Y-113910295D01*
X136531351Y-113910295D02*
X136455161Y-113948390D01*
X136455161Y-113948390D02*
X136417066Y-113986485D01*
X136417066Y-113986485D02*
X136378970Y-114062676D01*
X136378970Y-114062676D02*
X136378970Y-114176961D01*
X136378970Y-114176961D02*
X136417066Y-114253152D01*
X136417066Y-114253152D02*
X136455161Y-114291247D01*
X136455161Y-114291247D02*
X136531351Y-114329342D01*
X136531351Y-114329342D02*
X136836113Y-114329342D01*
X136112304Y-113910295D02*
X135617066Y-113910295D01*
X135617066Y-113910295D02*
X135883732Y-114215057D01*
X135883732Y-114215057D02*
X135769447Y-114215057D01*
X135769447Y-114215057D02*
X135693256Y-114253152D01*
X135693256Y-114253152D02*
X135655161Y-114291247D01*
X135655161Y-114291247D02*
X135617066Y-114367438D01*
X135617066Y-114367438D02*
X135617066Y-114557914D01*
X135617066Y-114557914D02*
X135655161Y-114634104D01*
X135655161Y-114634104D02*
X135693256Y-114672200D01*
X135693256Y-114672200D02*
X135769447Y-114710295D01*
X135769447Y-114710295D02*
X135998018Y-114710295D01*
X135998018Y-114710295D02*
X136074209Y-114672200D01*
X136074209Y-114672200D02*
X136112304Y-114634104D01*
X134509923Y-116960295D02*
X134052780Y-116960295D01*
X134281352Y-117760295D02*
X134281352Y-116960295D01*
X133786113Y-117760295D02*
X133786113Y-116960295D01*
X133786113Y-116960295D02*
X133481351Y-116960295D01*
X133481351Y-116960295D02*
X133405161Y-116998390D01*
X133405161Y-116998390D02*
X133367066Y-117036485D01*
X133367066Y-117036485D02*
X133328970Y-117112676D01*
X133328970Y-117112676D02*
X133328970Y-117226961D01*
X133328970Y-117226961D02*
X133367066Y-117303152D01*
X133367066Y-117303152D02*
X133405161Y-117341247D01*
X133405161Y-117341247D02*
X133481351Y-117379342D01*
X133481351Y-117379342D02*
X133786113Y-117379342D01*
X132643256Y-116960295D02*
X132795637Y-116960295D01*
X132795637Y-116960295D02*
X132871828Y-116998390D01*
X132871828Y-116998390D02*
X132909923Y-117036485D01*
X132909923Y-117036485D02*
X132986113Y-117150771D01*
X132986113Y-117150771D02*
X133024209Y-117303152D01*
X133024209Y-117303152D02*
X133024209Y-117607914D01*
X133024209Y-117607914D02*
X132986113Y-117684104D01*
X132986113Y-117684104D02*
X132948018Y-117722200D01*
X132948018Y-117722200D02*
X132871828Y-117760295D01*
X132871828Y-117760295D02*
X132719447Y-117760295D01*
X132719447Y-117760295D02*
X132643256Y-117722200D01*
X132643256Y-117722200D02*
X132605161Y-117684104D01*
X132605161Y-117684104D02*
X132567066Y-117607914D01*
X132567066Y-117607914D02*
X132567066Y-117417438D01*
X132567066Y-117417438D02*
X132605161Y-117341247D01*
X132605161Y-117341247D02*
X132643256Y-117303152D01*
X132643256Y-117303152D02*
X132719447Y-117265057D01*
X132719447Y-117265057D02*
X132871828Y-117265057D01*
X132871828Y-117265057D02*
X132948018Y-117303152D01*
X132948018Y-117303152D02*
X132986113Y-117341247D01*
X132986113Y-117341247D02*
X133024209Y-117417438D01*
D11*
%TO.C,TP5*%
X134200400Y-116498600D02*
X134200400Y-115098600D01*
X134200400Y-115098600D02*
X132800400Y-115098600D01*
X132800400Y-116498600D02*
X134200400Y-116498600D01*
X132800400Y-115098600D02*
X132800400Y-116498600D01*
%TO.C,TP2*%
X140300400Y-119548600D02*
X140300400Y-118148600D01*
X140300400Y-118148600D02*
X138900400Y-118148600D01*
X138900400Y-119548600D02*
X140300400Y-119548600D01*
X138900400Y-118148600D02*
X138900400Y-119548600D01*
%TO.C,TP4*%
X137250400Y-119548600D02*
X137250400Y-118148600D01*
X137250400Y-118148600D02*
X135850400Y-118148600D01*
X135850400Y-119548600D02*
X137250400Y-119548600D01*
X135850400Y-118148600D02*
X135850400Y-119548600D01*
%TO.C,TP9*%
X137352000Y-111952000D02*
X137352000Y-110552000D01*
X137352000Y-110552000D02*
X135952000Y-110552000D01*
X135952000Y-111952000D02*
X137352000Y-111952000D01*
X135952000Y-110552000D02*
X135952000Y-111952000D01*
%TO.C,TP1*%
X140300400Y-116498600D02*
X140300400Y-115098600D01*
X140300400Y-115098600D02*
X138900400Y-115098600D01*
X138900400Y-116498600D02*
X140300400Y-116498600D01*
X138900400Y-115098600D02*
X138900400Y-116498600D01*
%TO.C,TP3*%
X137250400Y-116498600D02*
X137250400Y-115098600D01*
X137250400Y-115098600D02*
X135850400Y-115098600D01*
X135850400Y-116498600D02*
X137250400Y-116498600D01*
X135850400Y-115098600D02*
X135850400Y-116498600D01*
%TO.C,TP6*%
X134200400Y-119548600D02*
X134200400Y-118148600D01*
X134200400Y-118148600D02*
X132800400Y-118148600D01*
X132800400Y-119548600D02*
X134200400Y-119548600D01*
X132800400Y-118148600D02*
X132800400Y-119548600D01*
%TD*%
M02*
