<?xml version="1.0" encoding="UTF-8" standalone="no"?>
<svg
   width="20.330323657336066mm"
   height="20.398633797202663mm"
   viewBox="0 0 20.330323657336066 20.398633797202663"
   version="1.1"
   id="svg415"
   sodipodi:docname="Lantern_Ring_Assembly-feng_shui_compass.svg"
   inkscape:version="1.1 (c68e22c387, 2021-05-23)"
   xmlns:inkscape="http://www.inkscape.org/namespaces/inkscape"
   xmlns:sodipodi="http://sodipodi.sourceforge.net/DTD/sodipodi-0.dtd"
   xmlns="http://www.w3.org/2000/svg"
   xmlns:svg="http://www.w3.org/2000/svg">
  <defs
     id="defs419" />
  <sodipodi:namedview
     id="namedview417"
     pagecolor="#505050"
     bordercolor="#ffffff"
     borderopacity="1"
     inkscape:pageshadow="0"
     inkscape:pageopacity="0"
     inkscape:pagecheckerboard="1"
     inkscape:document-units="mm"
     showgrid="false"
     inkscape:zoom="9.84224"
     inkscape:cx="38.405891"
     inkscape:cy="38.558296"
     inkscape:window-width="1920"
     inkscape:window-height="974"
     inkscape:window-x="-11"
     inkscape:window-y="-11"
     inkscape:window-maximized="1"
     inkscape:current-layer="svg415" />
  <circle
     cx="10.165162"
     cy="-10.199316"
     r="10"
     stroke="#191919"
     stroke-width="0.35 px"
     style="fill:#cccccc;stroke-width:0.35;stroke-miterlimit:4;stroke-dasharray:none"
     id="circle215"
     transform="scale(1,-1)" />
  <circle
     cx="10.165162"
     cy="-10.199316"
     r="10"
     stroke="#191919"
     stroke-width="0.35 px"
     style="fill:#cccccc;stroke-width:0.35;stroke-miterlimit:4;stroke-dasharray:none"
     id="circle217"
     transform="scale(1,-1)" />
  <circle
     cx="10.165162"
     cy="-10.199316"
     r="10"
     stroke="#191919"
     stroke-width="0.35 px"
     style="fill:#cccccc;stroke-width:0.35;stroke-miterlimit:4;stroke-dasharray:none"
     id="circle219"
     transform="scale(1,-1)" />
  <circle
     cx="10.165162"
     cy="-10.199316"
     r="9"
     stroke="#191919"
     stroke-width="0.35 px"
     style="fill:#cccccc;stroke-width:0.35;stroke-miterlimit:4;stroke-dasharray:none"
     id="circle221"
     transform="scale(1,-1)" />
  <path
     id="Extrude013_f0000"
     d="m 6.5934005,2.496013 v 0 l 0.4801868,0.497732 v 0 z"
     stroke="#000000"
     stroke-width="0.35 px"
     style="fill:#cccccc;fill-opacity:1;fill-rule:evenodd;stroke-width:0.35;stroke-miterlimit:4;stroke-dasharray:none" />
  <path
     id="Extrude013_f0001"
     d="m 6.5953203,2.775556 -0.00192,-0.279543 v 0 l 0.00192,0.279543 z"
     stroke="#000000"
     stroke-width="0.35 px"
     style="fill:#cccccc;fill-opacity:1;fill-rule:evenodd;stroke-width:0.35;stroke-miterlimit:4;stroke-dasharray:none" />
  <path
     id="Extrude013_f0002"
     d="m 3.427154,4.889507 v 0 L 6.5953203,2.775556 v 0 z"
     stroke="#000000"
     stroke-width="0.35 px"
     style="fill:#cccccc;fill-opacity:1;fill-rule:evenodd;stroke-width:0.35;stroke-miterlimit:4;stroke-dasharray:none" />
  <path
     id="Extrude013_f0003"
     d="M 6.7661587,3.419531 3.427154,4.889507 v 0 L 6.7661587,3.419531 Z"
     stroke="#000000"
     stroke-width="0.35 px"
     style="fill:#cccccc;fill-opacity:1;fill-rule:evenodd;stroke-width:0.35;stroke-miterlimit:4;stroke-dasharray:none" />
  <path
     id="Extrude013_f0004"
     d="M 7.9315349,5.983822 6.7661587,3.419531 v 0 l 1.1653762,2.564291 z"
     stroke="#000000"
     stroke-width="0.35 px"
     style="fill:#cccccc;fill-opacity:1;fill-rule:evenodd;stroke-width:0.35;stroke-miterlimit:4;stroke-dasharray:none" />
  <path
     id="Extrude013_f0005"
     d="M 9.3365505,6.386704 7.9315349,5.983822 v 0 l 1.4050156,0.402882 z"
     stroke="#000000"
     stroke-width="0.35 px"
     style="fill:#cccccc;fill-opacity:1;fill-rule:evenodd;stroke-width:0.35;stroke-miterlimit:4;stroke-dasharray:none" />
  <path
     id="Extrude013_f0006"
     d="m 6.8766967,3.299174 v 0 l 2.4598538,3.08753 v 0 z"
     stroke="#000000"
     stroke-width="0.35 px"
     style="fill:#cccccc;fill-opacity:1;fill-rule:evenodd;stroke-width:0.35;stroke-miterlimit:4;stroke-dasharray:none" />
  <path
     id="Extrude013_f0007"
     d="m 7.0735873,2.993745 v 0 L 6.8766967,3.299174 v 0 z"
     stroke="#000000"
     stroke-width="0.35 px"
     style="fill:#cccccc;fill-opacity:1;fill-rule:evenodd;stroke-width:0.35;stroke-miterlimit:4;stroke-dasharray:none" />
  <path
     id="Extrude013_f0008"
     d="M 7.0735873,2.993745 6.8766967,3.299174 9.3365505,6.386704 7.9315349,5.983822 6.7661587,3.419531 3.427154,4.889507 6.5953203,2.775556 6.5934003,2.496013 Z"
     stroke="#000000"
     stroke-width="0.35 px"
     style="fill:#cccccc;fill-opacity:1;fill-rule:evenodd;stroke-width:0.35;stroke-miterlimit:4;stroke-dasharray:none" />
  <path
     id="Extrude013_f0009"
     d="M 6.8766967,3.299174 9.3365505,6.386704 7.9315349,5.983822 6.7661587,3.419531 3.427154,4.889507 6.5953203,2.775556 6.5934003,2.496013 7.0735871,2.993745 Z"
     stroke="#000000"
     stroke-width="0.35 px"
     style="fill:#cccccc;fill-opacity:1;fill-rule:evenodd;stroke-width:0.35;stroke-miterlimit:4;stroke-dasharray:none" />
  <path
     id="Extrude013_f0010"
     d="m 5.1785577,4.634969 v 0 l 1.6001737,-0.06805 v 0 z"
     stroke="#000000"
     stroke-width="0.35 px"
     style="fill:#cccccc;fill-opacity:1;fill-rule:evenodd;stroke-width:0.35;stroke-miterlimit:4;stroke-dasharray:none" />
  <path
     id="Extrude013_f0011"
     d="m 6.7787314,4.56692 v 0 l 0.4883687,0.472813 v 0 z"
     stroke="#000000"
     stroke-width="0.35 px"
     style="fill:#cccccc;fill-opacity:1;fill-rule:evenodd;stroke-width:0.35;stroke-miterlimit:4;stroke-dasharray:none" />
  <path
     id="Extrude013_f0012"
     d="m 7.2671001,5.039733 v 0 L 6.1631996,4.972773 v 0 z"
     stroke="#000000"
     stroke-width="0.35 px"
     style="fill:#cccccc;fill-opacity:1;fill-rule:evenodd;stroke-width:0.35;stroke-miterlimit:4;stroke-dasharray:none" />
  <path
     id="Extrude013_f0013"
     d="m 6.1631996,4.972773 v 0 L 6.0512952,5.647414 v 0 z"
     stroke="#000000"
     stroke-width="0.35 px"
     style="fill:#cccccc;fill-opacity:1;fill-rule:evenodd;stroke-width:0.35;stroke-miterlimit:4;stroke-dasharray:none" />
  <path
     id="Extrude013_f0014"
     d="m 6.0512952,5.647414 v 0 l 1.1777314,0.134967 v 0 z"
     stroke="#000000"
     stroke-width="0.35 px"
     style="fill:#cccccc;fill-opacity:1;fill-rule:evenodd;stroke-width:0.35;stroke-miterlimit:4;stroke-dasharray:none" />
  <path
     id="Extrude013_f0015"
     d="m 7.2290266,5.782381 0.4612848,0.512407 v 0 L 7.2290266,5.782381 Z"
     stroke="#000000"
     stroke-width="0.35 px"
     style="fill:#cccccc;fill-opacity:1;fill-rule:evenodd;stroke-width:0.35;stroke-miterlimit:4;stroke-dasharray:none" />
  <path
     id="Extrude013_f0016"
     d="M 7.6903114,6.294788 5.9577847,5.861384 v 0 z"
     stroke="#000000"
     stroke-width="0.35 px"
     style="fill:#cccccc;fill-opacity:1;fill-rule:evenodd;stroke-width:0.35;stroke-miterlimit:4;stroke-dasharray:none" />
  <path
     id="Extrude013_f0017"
     d="M 5.9577847,5.861384 5.4944709,7.477151 v 0 L 5.9577847,5.861384 Z"
     stroke="#000000"
     stroke-width="0.35 px"
     style="fill:#cccccc;fill-opacity:1;fill-rule:evenodd;stroke-width:0.35;stroke-miterlimit:4;stroke-dasharray:none" />
  <path
     id="Extrude013_f0018"
     d="m 5.4944709,7.477151 v 0 l 1.6557308,0.259332 v 0 z"
     stroke="#000000"
     stroke-width="0.35 px"
     style="fill:#cccccc;fill-opacity:1;fill-rule:evenodd;stroke-width:0.35;stroke-miterlimit:4;stroke-dasharray:none" />
  <path
     id="Extrude013_f0019"
     d="m 7.1502017,7.736483 0.447687,0.736589 v 0 L 7.1502017,7.736483 Z"
     stroke="#000000"
     stroke-width="0.35 px"
     style="fill:#cccccc;fill-opacity:1;fill-rule:evenodd;stroke-width:0.35;stroke-miterlimit:4;stroke-dasharray:none" />
  <path
     id="Extrude013_f0020"
     d="M 7.5978887,8.473072 3.432611,7.709516 v 0 l 4.1652777,0.763556 z"
     stroke="#000000"
     stroke-width="0.35 px"
     style="fill:#cccccc;fill-opacity:1;fill-rule:evenodd;stroke-width:0.35;stroke-miterlimit:4;stroke-dasharray:none" />
  <path
     id="Extrude013_f0021"
     d="M 3.432611,7.709516 3.17209,7.203995 v 0 l 0.260521,0.505521 z"
     stroke="#000000"
     stroke-width="0.35 px"
     style="fill:#cccccc;fill-opacity:1;fill-rule:evenodd;stroke-width:0.35;stroke-miterlimit:4;stroke-dasharray:none" />
  <path
     id="Extrude013_f0022"
     d="m 3.17209,7.203995 1.8820155,0.234368 v 0 L 3.17209,7.203995 Z"
     stroke="#000000"
     stroke-width="0.35 px"
     style="fill:#cccccc;fill-opacity:1;fill-rule:evenodd;stroke-width:0.35;stroke-miterlimit:4;stroke-dasharray:none" />
  <path
     id="Extrude013_f0023"
     d="m 5.0541055,7.438363 0.4620126,-1.61123 v 0 z"
     stroke="#000000"
     stroke-width="0.35 px"
     style="fill:#cccccc;fill-opacity:1;fill-rule:evenodd;stroke-width:0.35;stroke-miterlimit:4;stroke-dasharray:none" />
  <path
     id="Extrude013_f0024"
     d="M 5.5161181,5.827133 4.2126892,5.730693 v 0 l 1.3034289,0.09644 z"
     stroke="#000000"
     stroke-width="0.35 px"
     style="fill:#cccccc;fill-opacity:1;fill-rule:evenodd;stroke-width:0.35;stroke-miterlimit:4;stroke-dasharray:none" />
  <path
     id="Extrude013_f0025"
     d="M 4.2126892,5.730689 3.9548428,5.421042 v 0 l 0.2578464,0.309647 z"
     stroke="#000000"
     stroke-width="0.35 px"
     style="fill:#cccccc;fill-opacity:1;fill-rule:evenodd;stroke-width:0.35;stroke-miterlimit:4;stroke-dasharray:none" />
  <path
     id="Extrude013_f0026"
     d="m 3.9548428,5.421042 1.6530268,0.182822 v 0 z"
     stroke="#000000"
     stroke-width="0.35 px"
     style="fill:#cccccc;fill-opacity:1;fill-rule:evenodd;stroke-width:0.35;stroke-miterlimit:4;stroke-dasharray:none" />
  <path
     id="Extrude013_f0027"
     d="M 5.6078696,5.603864 5.8062541,4.912016 v 0 L 5.6078696,5.603864 Z"
     stroke="#000000"
     stroke-width="0.35 px"
     style="fill:#cccccc;fill-opacity:1;fill-rule:evenodd;stroke-width:0.35;stroke-miterlimit:4;stroke-dasharray:none" />
  <path
     id="Extrude013_f0028"
     d="M 5.8062541,4.912016 5.1418204,4.763087 v 0 l 0.6644337,0.148929 z"
     stroke="#000000"
     stroke-width="0.35 px"
     style="fill:#cccccc;fill-opacity:1;fill-rule:evenodd;stroke-width:0.35;stroke-miterlimit:4;stroke-dasharray:none" />
  <path
     id="Extrude013_f0029"
     d="m 5.1418204,4.763087 0.036737,-0.128118 v 0 l -0.036737,0.128118 z"
     stroke="#000000"
     stroke-width="0.35 px"
     style="fill:#cccccc;fill-opacity:1;fill-rule:evenodd;stroke-width:0.35;stroke-miterlimit:4;stroke-dasharray:none" />
  <path
     id="Extrude013_f0030"
     d="M 5.1785577,4.634969 6.7787314,4.566919 7.2671001,5.039732 6.1631996,4.972772 6.0512952,5.647413 7.2290266,5.78238 7.6903114,6.294787 5.9577847,5.861383 5.4944709,7.47715 7.1502017,7.736482 7.5978887,8.473071 3.432611,7.709515 3.17209,7.203994 5.0541055,7.438362 5.5161181,5.827132 4.2126892,5.730692 3.9548428,5.421045 5.6078696,5.603867 5.8062541,4.912019 5.1418204,4.76309 5.1785574,4.634972 Z"
     stroke="#000000"
     stroke-width="0.35 px"
     style="fill:#cccccc;fill-opacity:1;fill-rule:evenodd;stroke-width:0.35;stroke-miterlimit:4;stroke-dasharray:none" />
  <path
     id="Extrude013_f0031"
     d="M 5.1785577,4.634969 5.1418207,4.763087 5.8062544,4.912016 5.6078699,5.603864 3.9548431,5.421042 4.2126895,5.730689 5.5161184,5.827129 5.0541058,7.438359 3.1720903,7.203991 3.4326113,7.709512 7.597889,8.473068 7.150202,7.736479 5.4944712,7.477147 5.957785,5.86138 7.6903117,6.294784 7.2290269,5.782377 6.0512955,5.64741 6.1631999,4.972769 7.2671004,5.039729 6.7787317,4.566916 5.178558,4.634966 Z"
     stroke="#000000"
     stroke-width="0.35 px"
     style="fill:#cccccc;fill-opacity:1;fill-rule:evenodd;stroke-width:0.35;stroke-miterlimit:4;stroke-dasharray:none" />
  <path
     id="Extrude013_f0032"
     d="m 6.7765433,6.56496 v 0 L 6.9139421,6.350935 v 0 z"
     stroke="#000000"
     stroke-width="0.35 px"
     style="fill:#cccccc;fill-opacity:1;fill-rule:evenodd;stroke-width:0.35;stroke-miterlimit:4;stroke-dasharray:none" />
  <path
     id="Extrude013_f0033"
     d="m 6.9139421,6.350935 v 0 l 0.2672367,0.482106 v 0 z"
     stroke="#000000"
     stroke-width="0.35 px"
     style="fill:#cccccc;fill-opacity:1;fill-rule:evenodd;stroke-width:0.35;stroke-miterlimit:4;stroke-dasharray:none" />
  <path
     id="Extrude013_f0034"
     d="M 7.1811788,6.833041 5.8384953,7.14928 v 0 L 7.1811788,6.833041 Z"
     stroke="#000000"
     stroke-width="0.35 px"
     style="fill:#cccccc;fill-opacity:1;fill-rule:evenodd;stroke-width:0.35;stroke-miterlimit:4;stroke-dasharray:none" />
  <path
     id="Extrude013_f0035"
     d="m 5.8384953,7.14928 0.938048,-0.58432 v 0 l -0.938048,0.58432 z"
     stroke="#000000"
     stroke-width="0.35 px"
     style="fill:#cccccc;fill-opacity:1;fill-rule:evenodd;stroke-width:0.35;stroke-miterlimit:4;stroke-dasharray:none" />
  <path
     id="Extrude013_f0036"
     d="M 6.7765433,6.56496 6.9139421,6.350935 7.1811788,6.833041 5.8384953,7.14928 Z"
     stroke="#000000"
     stroke-width="0.35 px"
     style="fill:#cccccc;fill-opacity:1;fill-rule:evenodd;stroke-width:0.35;stroke-miterlimit:4;stroke-dasharray:none" />
  <path
     id="Extrude013_f0037"
     d="M 6.7765433,6.56496 5.8384953,7.14928 7.1811788,6.833041 6.9139421,6.350935 Z"
     stroke="#000000"
     stroke-width="0.35 px"
     style="fill:#cccccc;fill-opacity:1;fill-rule:evenodd;stroke-width:0.35;stroke-miterlimit:4;stroke-dasharray:none" />
  <path
     id="Extrude013_f0038"
     d="m 4.1769286,6.174323 v 0 L 4.879266,6.553114 v 0 z"
     stroke="#000000"
     stroke-width="0.35 px"
     style="fill:#cccccc;fill-opacity:1;fill-rule:evenodd;stroke-width:0.35;stroke-miterlimit:4;stroke-dasharray:none" />
  <path
     id="Extrude013_f0039"
     d="m 4.879266,6.553114 v 0 L 4.6142891,7.21206 v 0 z"
     stroke="#000000"
     stroke-width="0.35 px"
     style="fill:#cccccc;fill-opacity:1;fill-rule:evenodd;stroke-width:0.35;stroke-miterlimit:4;stroke-dasharray:none" />
  <path
     id="Extrude013_f0040"
     d="M 4.6142891,7.21206 4.1769286,6.174323 v 0 L 4.6142891,7.21206 Z"
     stroke="#000000"
     stroke-width="0.35 px"
     style="fill:#cccccc;fill-opacity:1;fill-rule:evenodd;stroke-width:0.35;stroke-miterlimit:4;stroke-dasharray:none" />
  <path
     id="Extrude013_f0041"
     d="M 4.1769286,6.174323 4.879266,6.553114 4.6142891,7.21206 Z"
     stroke="#000000"
     stroke-width="0.35 px"
     style="fill:#cccccc;fill-opacity:1;fill-rule:evenodd;stroke-width:0.35;stroke-miterlimit:4;stroke-dasharray:none" />
  <path
     id="Extrude013_f0042"
     d="M 4.1769286,6.174323 4.6142891,7.21206 4.879266,6.553114 Z"
     stroke="#000000"
     stroke-width="0.35 px"
     style="fill:#cccccc;fill-opacity:1;fill-rule:evenodd;stroke-width:0.35;stroke-miterlimit:4;stroke-dasharray:none" />
  <path
     id="Extrude014_f0000"
     d="M 6.0385754,16.767897 5.0886823,15.906755 v 0 l 0.9498931,0.861142 z"
     stroke="#000000"
     stroke-width="0.35 px"
     style="fill:#cccccc;fill-opacity:1;fill-rule:evenodd;stroke-width:0.35;stroke-miterlimit:4;stroke-dasharray:none" />
  <path
     id="Extrude014_f0001"
     d="m 6.5631691,15.782415 -0.5245937,0.985482 v 0 l 0.5245937,-0.985482 z"
     stroke="#000000"
     stroke-width="0.35 px"
     style="fill:#cccccc;fill-opacity:1;fill-rule:evenodd;stroke-width:0.35;stroke-miterlimit:4;stroke-dasharray:none" />
  <path
     id="Extrude014_f0002"
     d="m 5.6191246,11.190543 0.9440445,4.591872 v 0 L 5.6191246,11.190543 Z"
     stroke="#000000"
     stroke-width="0.35 px"
     style="fill:#cccccc;fill-opacity:1;fill-rule:evenodd;stroke-width:0.35;stroke-miterlimit:4;stroke-dasharray:none" />
  <path
     id="Extrude014_f0003"
     d="m 5.2160942,10.915639 0.4030304,0.274904 v 0 L 5.2160942,10.915639 Z"
     stroke="#000000"
     stroke-width="0.35 px"
     style="fill:#cccccc;fill-opacity:1;fill-rule:evenodd;stroke-width:0.35;stroke-miterlimit:4;stroke-dasharray:none" />
  <path
     id="Extrude014_f0004"
     d="m 4.8211117,11.054038 0.3949825,-0.138399 v 0 l -0.3949825,0.138399 z"
     stroke="#000000"
     stroke-width="0.35 px"
     style="fill:#cccccc;fill-opacity:1;fill-rule:evenodd;stroke-width:0.35;stroke-miterlimit:4;stroke-dasharray:none" />
  <path
     id="Extrude014_f0005"
     d="m 5.2689641,11.488418 -0.4478524,-0.43438 v 0 l 0.4478524,0.43438 z"
     stroke="#000000"
     stroke-width="0.35 px"
     style="fill:#cccccc;fill-opacity:1;fill-rule:evenodd;stroke-width:0.35;stroke-miterlimit:4;stroke-dasharray:none" />
  <path
     id="Extrude014_f0006"
     d="M 5.8820168,15.850515 5.2689641,11.488418 v 0 l 0.6130527,4.362097 z"
     stroke="#000000"
     stroke-width="0.35 px"
     style="fill:#cccccc;fill-opacity:1;fill-rule:evenodd;stroke-width:0.35;stroke-miterlimit:4;stroke-dasharray:none" />
  <path
     id="Extrude014_f0007"
     d="m 5.0886823,15.906755 0.7933345,-0.05624 v 0 z"
     stroke="#000000"
     stroke-width="0.35 px"
     style="fill:#cccccc;fill-opacity:1;fill-rule:evenodd;stroke-width:0.35;stroke-miterlimit:4;stroke-dasharray:none" />
  <path
     id="Extrude014_f0008"
     d="m 6.0385754,16.767897 0.5245937,-0.985482 -0.9440445,-4.591872 -0.4030304,-0.274904 -0.3949825,0.138399 0.4478524,0.43438 0.6130527,4.362097 -0.7933345,0.05624 z"
     stroke="#000000"
     stroke-width="0.35 px"
     style="fill:#cccccc;fill-opacity:1;fill-rule:evenodd;stroke-width:0.35;stroke-miterlimit:4;stroke-dasharray:none" />
  <path
     id="Extrude014_f0009"
     d="m 5.0886823,15.906755 0.9498931,0.861142 0.5245937,-0.985482 -0.9440445,-4.591872 -0.4030304,-0.274904 -0.3949825,0.138399 0.4478524,0.43438 0.6130527,4.362097 z"
     stroke="#000000"
     stroke-width="0.35 px"
     style="fill:#cccccc;fill-opacity:1;fill-rule:evenodd;stroke-width:0.35;stroke-miterlimit:4;stroke-dasharray:none" />
  <path
     id="Extrude014_f0010"
     d="m 9.5363126,15.115907 -1.7069113,0.239891 v 0 l 1.7069113,-0.239891 z"
     stroke="#000000"
     stroke-width="0.35 px"
     style="fill:#cccccc;fill-opacity:1;fill-rule:evenodd;stroke-width:0.35;stroke-miterlimit:4;stroke-dasharray:none" />
  <path
     id="Extrude014_f0011"
     d="m 6.5100066,13.634829 3.026306,1.481078 v 0 l -3.026306,-1.481078 z"
     stroke="#000000"
     stroke-width="0.35 px"
     style="fill:#cccccc;fill-opacity:1;fill-rule:evenodd;stroke-width:0.35;stroke-miterlimit:4;stroke-dasharray:none" />
  <path
     id="Extrude014_f0012"
     d="m 7.6539803,12.123543 -1.1439737,1.511286 v 0 z"
     stroke="#000000"
     stroke-width="0.35 px"
     style="fill:#cccccc;fill-opacity:1;fill-rule:evenodd;stroke-width:0.35;stroke-miterlimit:4;stroke-dasharray:none" />
  <path
     id="Extrude014_f0013"
     d="m 6.6615521,11.696629 v 0 l 0.9924282,0.426914 v 0 z"
     stroke="#000000"
     stroke-width="0.35 px"
     style="fill:#cccccc;fill-opacity:1;fill-rule:evenodd;stroke-width:0.35;stroke-miterlimit:4;stroke-dasharray:none" />
  <path
     id="Extrude014_f0014"
     d="m 6.9721673,12.117726 v 0 L 6.6615521,11.696629 v 0 z"
     stroke="#000000"
     stroke-width="0.35 px"
     style="fill:#cccccc;fill-opacity:1;fill-rule:evenodd;stroke-width:0.35;stroke-miterlimit:4;stroke-dasharray:none" />
  <path
     id="Extrude014_f0015"
     d="m 6.249892,13.632047 v 0 l 0.7222753,-1.514321 v 0 z"
     stroke="#000000"
     stroke-width="0.35 px"
     style="fill:#cccccc;fill-opacity:1;fill-rule:evenodd;stroke-width:0.35;stroke-miterlimit:4;stroke-dasharray:none" />
  <path
     id="Extrude014_f0016"
     d="m 6.4591868,13.863004 v 0 L 6.249892,13.632047 v 0 z"
     stroke="#000000"
     stroke-width="0.35 px"
     style="fill:#cccccc;fill-opacity:1;fill-rule:evenodd;stroke-width:0.35;stroke-miterlimit:4;stroke-dasharray:none" />
  <path
     id="Extrude014_f0017"
     d="m 7.8294013,15.355798 v 0 L 6.4591868,13.863004 v 0 z"
     stroke="#000000"
     stroke-width="0.35 px"
     style="fill:#cccccc;fill-opacity:1;fill-rule:evenodd;stroke-width:0.35;stroke-miterlimit:4;stroke-dasharray:none" />
  <path
     id="Extrude014_f0018"
     d="M 7.8294013,15.355798 6.4591868,13.863004 6.249892,13.632047 6.9721673,12.117726 6.6615521,11.696629 l 0.9924282,0.426914 -1.1439737,1.511286 3.026306,1.481078 z"
     stroke="#000000"
     stroke-width="0.35 px"
     style="fill:#cccccc;fill-opacity:1;fill-rule:evenodd;stroke-width:0.35;stroke-miterlimit:4;stroke-dasharray:none" />
  <path
     id="Extrude014_f0019"
     d="M 7.8294013,15.355798 9.5363126,15.115907 6.5100066,13.634829 7.6539803,12.123543 6.6615521,11.696629 6.9721673,12.117726 6.249892,13.632047 6.4591868,13.863004 Z"
     stroke="#000000"
     stroke-width="0.35 px"
     style="fill:#cccccc;fill-opacity:1;fill-rule:evenodd;stroke-width:0.35;stroke-miterlimit:4;stroke-dasharray:none" />
  <path
     id="Extrude014_f0020"
     d="M 5.1687579,13.365483 3.303509,15.867077 v 0 z"
     stroke="#000000"
     stroke-width="0.35 px"
     style="fill:#cccccc;fill-opacity:1;fill-rule:evenodd;stroke-width:0.35;stroke-miterlimit:4;stroke-dasharray:none" />
  <path
     id="Extrude014_f0021"
     d="m 4.5546861,13.083218 0.6140718,0.282265 v 0 z"
     stroke="#000000"
     stroke-width="0.35 px"
     style="fill:#cccccc;fill-opacity:1;fill-rule:evenodd;stroke-width:0.35;stroke-miterlimit:4;stroke-dasharray:none" />
  <path
     id="Extrude014_f0022"
     d="m 3.109324,13.801802 1.4453621,-0.718584 v 0 z"
     stroke="#000000"
     stroke-width="0.35 px"
     style="fill:#cccccc;fill-opacity:1;fill-rule:evenodd;stroke-width:0.35;stroke-miterlimit:4;stroke-dasharray:none" />
  <path
     id="Extrude014_f0023"
     d="M 3.528509,14.082001 3.109324,13.801802 v 0 l 0.419185,0.280199 z"
     stroke="#000000"
     stroke-width="0.35 px"
     style="fill:#cccccc;fill-opacity:1;fill-rule:evenodd;stroke-width:0.35;stroke-miterlimit:4;stroke-dasharray:none" />
  <path
     id="Extrude014_f0024"
     d="m 4.350343,13.559564 -0.821834,0.522437 v 0 l 0.821834,-0.522437 z"
     stroke="#000000"
     stroke-width="0.35 px"
     style="fill:#cccccc;fill-opacity:1;fill-rule:evenodd;stroke-width:0.35;stroke-miterlimit:4;stroke-dasharray:none" />
  <path
     id="Extrude014_f0025"
     d="m 3.303509,15.867077 1.046834,-2.307513 v 0 l -1.046834,2.307513 z"
     stroke="#000000"
     stroke-width="0.35 px"
     style="fill:#cccccc;fill-opacity:1;fill-rule:evenodd;stroke-width:0.35;stroke-miterlimit:4;stroke-dasharray:none" />
  <path
     id="Extrude014_f0026"
     d="M 5.1687579,13.365483 4.5546861,13.083218 3.109324,13.801802 3.528509,14.082001 4.350343,13.559564 3.303509,15.867077 Z"
     stroke="#000000"
     stroke-width="0.35 px"
     style="fill:#cccccc;fill-opacity:1;fill-rule:evenodd;stroke-width:0.35;stroke-miterlimit:4;stroke-dasharray:none" />
  <path
     id="Extrude014_f0027"
     d="M 3.303509,15.867077 5.1687579,13.365483 4.5546861,13.083218 3.109324,13.801802 3.528509,14.082001 4.350343,13.559564 Z"
     stroke="#000000"
     stroke-width="0.35 px"
     style="fill:#cccccc;fill-opacity:1;fill-rule:evenodd;stroke-width:0.35;stroke-miterlimit:4;stroke-dasharray:none" />
  <path
     id="Extrude015_f0000"
     d="m 13.598603,3.364204 a 3.43956,-3.43956 0 0 1 -1.124281,5.143113 l -4e-6,4.4e-5 a 3.43956,-3.43956 0 0 0 1.124285,-5.143144 z"
     stroke="#000000"
     stroke-width="0.35 px"
     style="fill:#cccccc;fill-opacity:1;fill-rule:evenodd;stroke-width:0.35;stroke-miterlimit:4;stroke-dasharray:none" />
  <path
     id="Extrude015_f0001"
     d="m 13.882182,2.915432 -0.283579,0.448772 v 0 l 0.283579,-0.448772 z"
     stroke="#000000"
     stroke-width="0.35 px"
     style="fill:#cccccc;fill-opacity:1;fill-rule:evenodd;stroke-width:0.35;stroke-miterlimit:4;stroke-dasharray:none" />
  <path
     id="Extrude015_f0002"
     d="m 13.565305,2.658758 0.316877,0.256674 v 0 L 13.565305,2.658758 Z"
     stroke="#000000"
     stroke-width="0.35 px"
     style="fill:#cccccc;fill-opacity:1;fill-rule:evenodd;stroke-width:0.35;stroke-miterlimit:4;stroke-dasharray:none" />
  <path
     id="Extrude015_f0003"
     d="m 12.825201,2.905731 v 0 l 0.740104,-0.246973 v 0 z"
     stroke="#000000"
     stroke-width="0.35 px"
     style="fill:#cccccc;fill-opacity:1;fill-rule:evenodd;stroke-width:0.35;stroke-miterlimit:4;stroke-dasharray:none" />
  <path
     id="Extrude015_f0004"
     d="m 13.179711,3.318939 v 0 l -0.35451,-0.413208 v 0 z"
     stroke="#000000"
     stroke-width="0.35 px"
     style="fill:#cccccc;fill-opacity:1;fill-rule:evenodd;stroke-width:0.35;stroke-miterlimit:4;stroke-dasharray:none" />
  <path
     id="Extrude015_f0005"
     d="m 12.474318,8.507361 v 0 a 4.60763,-4.60763 0 0 0 0.705393,-5.188444 l 0,2.2e-5 a 4.60763,-4.60763 0 0 1 -0.705389,5.188378 z"
     stroke="#000000"
     stroke-width="0.35 px"
     style="fill:#cccccc;fill-opacity:1;fill-rule:evenodd;stroke-width:0.35;stroke-miterlimit:4;stroke-dasharray:none" />
  <path
     id="Extrude015_f0006"
     d="m 12.474318,8.507361 a 4.60763,-4.60763 0 0 0 0.705393,-5.188444 l -0.35451,-0.413186 0.740104,-0.246973 0.316877,0.256674 -0.283579,0.448772 a 3.43956,-3.43956 0 0 1 -1.124281,5.143113 z"
     stroke="#000000"
     stroke-width="0.35 px"
     style="fill:#cccccc;fill-opacity:1;fill-rule:evenodd;stroke-width:0.35;stroke-miterlimit:4;stroke-dasharray:none" />
  <path
     id="Extrude015_f0007"
     d="m 12.474318,8.507361 a 3.43956,-3.43956 0 0 0 1.124285,-5.143144 l 0.283579,-0.448785 -0.316877,-0.256674 -0.740104,0.246973 0.35451,0.413208 a 4.60763,-4.60763 0 0 1 -0.705389,5.188378 z"
     stroke="#000000"
     stroke-width="0.35 px"
     style="fill:#cccccc;fill-opacity:1;fill-rule:evenodd;stroke-width:0.35;stroke-miterlimit:4;stroke-dasharray:none" />
  <path
     id="Extrude015_f0008"
     d="m 18.27019,6.551522 -1.562891,0.642271 v 0 L 18.27019,6.551522 Z"
     stroke="#000000"
     stroke-width="0.35 px"
     style="fill:#cccccc;fill-opacity:1;fill-rule:evenodd;stroke-width:0.35;stroke-miterlimit:4;stroke-dasharray:none" />
  <path
     id="Extrude015_f0009"
     d="m 17.011528,6.432551 1.258662,0.118971 v 0 L 17.011528,6.432551 Z"
     stroke="#000000"
     stroke-width="0.35 px"
     style="fill:#cccccc;fill-opacity:1;fill-rule:evenodd;stroke-width:0.35;stroke-miterlimit:4;stroke-dasharray:none" />
  <path
     id="Extrude015_f0010"
     d="m 14.346819,5.544185 2.664709,0.888366 v 0 L 14.346819,5.544185 Z"
     stroke="#000000"
     stroke-width="0.35 px"
     style="fill:#cccccc;fill-opacity:1;fill-rule:evenodd;stroke-width:0.35;stroke-miterlimit:4;stroke-dasharray:none" />
  <path
     id="Extrude015_f0011"
     d="m 14.3312,5.721382 0.01562,-0.177197 v 0 L 14.3312,5.721382 Z"
     stroke="#000000"
     stroke-width="0.35 px"
     style="fill:#cccccc;fill-opacity:1;fill-rule:evenodd;stroke-width:0.35;stroke-miterlimit:4;stroke-dasharray:none" />
  <path
     id="Extrude015_f0012"
     d="m 16.707299,7.193793 v 0 L 14.3312,5.721382 v 0 z"
     stroke="#000000"
     stroke-width="0.35 px"
     style="fill:#cccccc;fill-opacity:1;fill-rule:evenodd;stroke-width:0.35;stroke-miterlimit:4;stroke-dasharray:none" />
  <path
     id="Extrude015_f0013"
     d="M 16.707299,7.193793 14.3312,5.721382 l 0.01562,-0.177197 2.664709,0.888366 1.258662,0.118971 z"
     stroke="#000000"
     stroke-width="0.35 px"
     style="fill:#cccccc;fill-opacity:1;fill-rule:evenodd;stroke-width:0.35;stroke-miterlimit:4;stroke-dasharray:none" />
  <path
     id="Extrude015_f0014"
     d="M 16.707299,7.193793 18.27019,6.551522 17.011528,6.432551 14.346819,5.544185 14.3312,5.721382 Z"
     stroke="#000000"
     stroke-width="0.35 px"
     style="fill:#cccccc;fill-opacity:1;fill-rule:evenodd;stroke-width:0.35;stroke-miterlimit:4;stroke-dasharray:none" />
  <path
     id="Extrude015_f0015"
     d="m 15.5503,3.602931 -1.259103,1.253046 v 0 L 15.5503,3.602931 Z"
     stroke="#000000"
     stroke-width="0.35 px"
     style="fill:#cccccc;fill-opacity:1;fill-rule:evenodd;stroke-width:0.35;stroke-miterlimit:4;stroke-dasharray:none" />
  <path
     id="Extrude015_f0016"
     d="m 15.827288,3.509036 -0.276988,0.0939 v 0 l 0.276988,-0.0939 z"
     stroke="#000000"
     stroke-width="0.35 px"
     style="fill:#cccccc;fill-opacity:1;fill-rule:evenodd;stroke-width:0.35;stroke-miterlimit:4;stroke-dasharray:none" />
  <path
     id="Extrude015_f0017"
     d="m 15.660631,3.079247 0.166657,0.429789 v 0 L 15.660631,3.079247 Z"
     stroke="#000000"
     stroke-width="0.35 px"
     style="fill:#cccccc;fill-opacity:1;fill-rule:evenodd;stroke-width:0.35;stroke-miterlimit:4;stroke-dasharray:none" />
  <path
     id="Extrude015_f0018"
     d="m 15.010794,2.93273 0.649837,0.146517 v 0 L 15.010794,2.93273 Z"
     stroke="#000000"
     stroke-width="0.35 px"
     style="fill:#cccccc;fill-opacity:1;fill-rule:evenodd;stroke-width:0.35;stroke-miterlimit:4;stroke-dasharray:none" />
  <path
     id="Extrude015_f0019"
     d="m 15.076077,3.261336 v 0 L 15.010794,2.93273 v 0 z"
     stroke="#000000"
     stroke-width="0.35 px"
     style="fill:#cccccc;fill-opacity:1;fill-rule:evenodd;stroke-width:0.35;stroke-miterlimit:4;stroke-dasharray:none" />
  <path
     id="Extrude015_f0020"
     d="m 14.244201,4.630306 0.831876,-1.36897 v 0 l -0.831876,1.36897 z"
     stroke="#000000"
     stroke-width="0.35 px"
     style="fill:#cccccc;fill-opacity:1;fill-rule:evenodd;stroke-width:0.35;stroke-miterlimit:4;stroke-dasharray:none" />
  <path
     id="Extrude015_f0021"
     d="m 14.291197,4.855977 v 0 l -0.047,-0.225671 v 0 z"
     stroke="#000000"
     stroke-width="0.35 px"
     style="fill:#cccccc;fill-opacity:1;fill-rule:evenodd;stroke-width:0.35;stroke-miterlimit:4;stroke-dasharray:none" />
  <path
     id="Extrude015_f0022"
     d="m 14.291197,4.855977 -0.047,-0.225671 0.831876,-1.36897 -0.06528,-0.328606 0.649837,0.146517 0.166657,0.429789 -0.276988,0.0939 -1.259103,1.253046 z"
     stroke="#000000"
     stroke-width="0.35 px"
     style="fill:#cccccc;fill-opacity:1;fill-rule:evenodd;stroke-width:0.35;stroke-miterlimit:4;stroke-dasharray:none" />
  <path
     id="Extrude015_f0023"
     d="m 14.291197,4.855977 1.259103,-1.253046 0.276988,-0.0939 -0.166657,-0.429789 -0.649837,-0.146517 0.06528,0.328606 -0.831876,1.36897 0.047,0.225671 z"
     stroke="#000000"
     stroke-width="0.35 px"
     style="fill:#cccccc;fill-opacity:1;fill-rule:evenodd;stroke-width:0.35;stroke-miterlimit:4;stroke-dasharray:none" />
  <path
     id="Extrude015_f0024"
     d="m 13.091209,5.040603 a 0.272732,-0.272732 0 1 1 -0.264955,0.471314 l 0,3e-6 a 0.272732,-0.272732 0 1 0 0.264955,-0.471303 z"
     stroke="#000000"
     stroke-width="0.35 px"
     style="fill:#cccccc;fill-opacity:1;fill-rule:evenodd;stroke-width:0.35;stroke-miterlimit:4;stroke-dasharray:none" />
  <path
     id="Extrude015_f0025"
     d="m 12.308004,4.740813 0.783205,0.29979 v 0 l -0.783205,-0.29979 z"
     stroke="#000000"
     stroke-width="0.35 px"
     style="fill:#cccccc;fill-opacity:1;fill-rule:evenodd;stroke-width:0.35;stroke-miterlimit:4;stroke-dasharray:none" />
  <path
     id="Extrude015_f0026"
     d="m 12.826254,5.51192 v 0 l -0.51825,-0.771107 v 0 z"
     stroke="#000000"
     stroke-width="0.35 px"
     style="fill:#cccccc;fill-opacity:1;fill-rule:evenodd;stroke-width:0.35;stroke-miterlimit:4;stroke-dasharray:none" />
  <path
     id="Extrude015_f0027"
     d="m 12.826254,5.51192 -0.51825,-0.771107 0.783205,0.29979 a 0.272732,-0.272732 0 1 1 -0.264955,0.471314 z"
     stroke="#000000"
     stroke-width="0.35 px"
     style="fill:#cccccc;fill-opacity:1;fill-rule:evenodd;stroke-width:0.35;stroke-miterlimit:4;stroke-dasharray:none" />
  <path
     id="Extrude015_f0028"
     d="M 12.826254,5.51192 A 0.272732,-0.272732 0 1 0 13.091209,5.040617 L 12.308004,4.740813 Z"
     stroke="#000000"
     stroke-width="0.35 px"
     style="fill:#cccccc;fill-opacity:1;fill-rule:evenodd;stroke-width:0.35;stroke-miterlimit:4;stroke-dasharray:none" />
  <path
     id="Extrude016_f0000"
     d="m 11.099646,15.132826 -0.315704,-0.43919 v 0 l 0.315704,0.43919 z"
     stroke="#000000"
     stroke-width="0.35 px"
     style="fill:#cccccc;fill-opacity:1;fill-rule:evenodd;stroke-width:0.35;stroke-miterlimit:4;stroke-dasharray:none" />
  <path
     id="Extrude016_f0001"
     d="m 13.695966,15.319451 -2.59632,-0.186625 v 0 l 2.59632,0.186625 z"
     stroke="#000000"
     stroke-width="0.35 px"
     style="fill:#cccccc;fill-opacity:1;fill-rule:evenodd;stroke-width:0.35;stroke-miterlimit:4;stroke-dasharray:none" />
  <path
     id="Extrude016_f0002"
     d="m 16.724389,16.187837 -3.028423,-0.868386 v 0 l 3.028423,0.868386 z"
     stroke="#000000"
     stroke-width="0.35 px"
     style="fill:#cccccc;fill-opacity:1;fill-rule:evenodd;stroke-width:0.35;stroke-miterlimit:4;stroke-dasharray:none" />
  <path
     id="Extrude016_f0003"
     d="m 16.82293,15.844186 -0.09854,0.343651 v 0 l 0.09854,-0.343651 z"
     stroke="#000000"
     stroke-width="0.35 px"
     style="fill:#cccccc;fill-opacity:1;fill-rule:evenodd;stroke-width:0.35;stroke-miterlimit:4;stroke-dasharray:none" />
  <path
     id="Extrude016_f0004"
     d="m 16.077661,15.281817 0.745269,0.562369 v 0 l -0.745269,-0.562369 z"
     stroke="#000000"
     stroke-width="0.35 px"
     style="fill:#cccccc;fill-opacity:1;fill-rule:evenodd;stroke-width:0.35;stroke-miterlimit:4;stroke-dasharray:none" />
  <path
     id="Extrude016_f0005"
     d="m 15.736857,15.416539 0.340804,-0.134722 v 0 l -0.340804,0.134722 z"
     stroke="#000000"
     stroke-width="0.35 px"
     style="fill:#cccccc;fill-opacity:1;fill-rule:evenodd;stroke-width:0.35;stroke-miterlimit:4;stroke-dasharray:none" />
  <path
     id="Extrude016_f0006"
     d="m 14.076725,15.126456 1.660132,0.290083 v 0 l -1.660132,-0.290083 z"
     stroke="#000000"
     stroke-width="0.35 px"
     style="fill:#cccccc;fill-opacity:1;fill-rule:evenodd;stroke-width:0.35;stroke-miterlimit:4;stroke-dasharray:none" />
  <path
     id="Extrude016_f0007"
     d="m 14.612537,13.257856 -0.535812,1.8686 v 0 l 0.535812,-1.8686 z"
     stroke="#000000"
     stroke-width="0.35 px"
     style="fill:#cccccc;fill-opacity:1;fill-rule:evenodd;stroke-width:0.35;stroke-miterlimit:4;stroke-dasharray:none" />
  <path
     id="Extrude016_f0008"
     d="m 16.131483,13.553943 -1.518946,-0.296087 v 0 l 1.518946,0.296087 z"
     stroke="#000000"
     stroke-width="0.35 px"
     style="fill:#cccccc;fill-opacity:1;fill-rule:evenodd;stroke-width:0.35;stroke-miterlimit:4;stroke-dasharray:none" />
  <path
     id="Extrude016_f0009"
     d="m 15.680906,12.936614 0.450577,0.617329 v 0 l -0.450577,-0.617329 z"
     stroke="#000000"
     stroke-width="0.35 px"
     style="fill:#cccccc;fill-opacity:1;fill-rule:evenodd;stroke-width:0.35;stroke-miterlimit:4;stroke-dasharray:none" />
  <path
     id="Extrude016_f0010"
     d="m 14.769354,12.954156 0.911552,-0.01754 v 0 l -0.911552,0.01754 z"
     stroke="#000000"
     stroke-width="0.35 px"
     style="fill:#cccccc;fill-opacity:1;fill-rule:evenodd;stroke-width:0.35;stroke-miterlimit:4;stroke-dasharray:none" />
  <path
     id="Extrude016_f0011"
     d="m 15.13272,11.686949 -0.363366,1.267207 v 0 l 0.363366,-1.267207 z"
     stroke="#000000"
     stroke-width="0.35 px"
     style="fill:#cccccc;fill-opacity:1;fill-rule:evenodd;stroke-width:0.35;stroke-miterlimit:4;stroke-dasharray:none" />
  <path
     id="Extrude016_f0012"
     d="m 15.421407,11.490797 -0.288687,0.196152 v 0 l 0.288687,-0.196152 z"
     stroke="#000000"
     stroke-width="0.35 px"
     style="fill:#cccccc;fill-opacity:1;fill-rule:evenodd;stroke-width:0.35;stroke-miterlimit:4;stroke-dasharray:none" />
  <path
     id="Extrude016_f0013"
     d="m 14.875603,10.962382 0.545804,0.528415 v 0 l -0.545804,-0.528415 z"
     stroke="#000000"
     stroke-width="0.35 px"
     style="fill:#cccccc;fill-opacity:1;fill-rule:evenodd;stroke-width:0.35;stroke-miterlimit:4;stroke-dasharray:none" />
  <path
     id="Extrude016_f0014"
     d="m 14.565748,10.827044 0.309855,0.135338 v 0 l -0.309855,-0.135338 z"
     stroke="#000000"
     stroke-width="0.35 px"
     style="fill:#cccccc;fill-opacity:1;fill-rule:evenodd;stroke-width:0.35;stroke-miterlimit:4;stroke-dasharray:none" />
  <path
     id="Extrude016_f0015"
     d="m 14.74011,11.434901 -0.174362,-0.607857 v 0 l 0.174362,0.607857 z"
     stroke="#000000"
     stroke-width="0.35 px"
     style="fill:#cccccc;fill-opacity:1;fill-rule:evenodd;stroke-width:0.35;stroke-miterlimit:4;stroke-dasharray:none" />
  <path
     id="Extrude016_f0016"
     d="m 14.25072,12.898421 0.48939,-1.46352 v 0 l -0.48939,1.46352 z"
     stroke="#000000"
     stroke-width="0.35 px"
     style="fill:#cccccc;fill-opacity:1;fill-rule:evenodd;stroke-width:0.35;stroke-miterlimit:4;stroke-dasharray:none" />
  <path
     id="Extrude016_f0017"
     d="m 12.722304,12.87855 1.528416,0.01987 v 0 l -1.528416,-0.01987 z"
     stroke="#000000"
     stroke-width="0.35 px"
     style="fill:#cccccc;fill-opacity:1;fill-rule:evenodd;stroke-width:0.35;stroke-miterlimit:4;stroke-dasharray:none" />
  <path
     id="Extrude016_f0018"
     d="m 12.949093,13.22251 -0.226789,-0.34396 v 0 l 0.226789,0.34396 z"
     stroke="#000000"
     stroke-width="0.35 px"
     style="fill:#cccccc;fill-opacity:1;fill-rule:evenodd;stroke-width:0.35;stroke-miterlimit:4;stroke-dasharray:none" />
  <path
     id="Extrude016_f0019"
     d="m 14.14302,13.192956 -1.193927,0.02955 v 0 l 1.193927,-0.02955 z"
     stroke="#000000"
     stroke-width="0.35 px"
     style="fill:#cccccc;fill-opacity:1;fill-rule:evenodd;stroke-width:0.35;stroke-miterlimit:4;stroke-dasharray:none" />
  <path
     id="Extrude016_f0020"
     d="m 13.619524,15.0186 0.523496,-1.825644 v 0 L 13.619524,15.0186 Z"
     stroke="#000000"
     stroke-width="0.35 px"
     style="fill:#cccccc;fill-opacity:1;fill-rule:evenodd;stroke-width:0.35;stroke-miterlimit:4;stroke-dasharray:none" />
  <path
     id="Extrude016_f0021"
     d="m 10.783942,14.693636 2.835582,0.324964 v 0 l -2.835582,-0.324964 z"
     stroke="#000000"
     stroke-width="0.35 px"
     style="fill:#cccccc;fill-opacity:1;fill-rule:evenodd;stroke-width:0.35;stroke-miterlimit:4;stroke-dasharray:none" />
  <path
     id="Extrude016_f0022"
     d="m 11.099646,15.132826 2.59632,0.186625 3.028423,0.868386 0.09854,-0.343651 -0.745268,-0.562369 -0.340805,0.134722 -1.660132,-0.290083 0.535813,-1.8686 1.518946,0.296087 -0.450577,-0.617329 -0.911552,0.01754 0.363365,-1.267207 0.288687,-0.196152 -0.545803,-0.528415 -0.309855,-0.135338 0.174362,0.607857 -0.48939,1.46352 -1.528417,-0.01987 0.226789,0.34396 1.193927,-0.02955 -0.523495,1.825644 -2.835582,-0.324964 z"
     stroke="#000000"
     stroke-width="0.35 px"
     style="fill:#cccccc;fill-opacity:1;fill-rule:evenodd;stroke-width:0.35;stroke-miterlimit:4;stroke-dasharray:none" />
  <path
     id="Extrude016_f0023"
     d="m 10.783942,14.693636 0.315704,0.43919 2.59632,0.186625 3.028423,0.868386 0.09854,-0.343651 -0.745268,-0.562369 -0.340805,0.134722 -1.660132,-0.290083 0.535813,-1.8686 1.518946,0.296087 -0.450577,-0.617329 -0.911552,0.01754 0.363365,-1.267207 0.288687,-0.196152 -0.545803,-0.528415 -0.309855,-0.135338 0.174362,0.607857 -0.48939,1.46352 -1.528417,-0.01987 0.226789,0.34396 1.193927,-0.02955 -0.523495,1.825644 z"
     stroke="#000000"
     stroke-width="0.35 px"
     style="fill:#cccccc;fill-opacity:1;fill-rule:evenodd;stroke-width:0.35;stroke-miterlimit:4;stroke-dasharray:none" />
  <g
     id="Sketch020"
     transform="matrix(1,0,0,-1,14.139092,-13.198953)">
    <path
       id="Sketch020_w0000"
       d="M -6.485112,-25.322496 A 4.47029,4.47029 0 0 1 -4.31175,-23.385 l 0.1157943,-2.991321 a 0.259124,0.259124 0 0 1 0.5045157,0.06772 l -4.6e-6,3.293025 A 6.83014,6.83014 0 0 1 -1.80498,-25.0981 l 1.411976,0.09589 0.017431,0.261479 A 4.45483,4.45483 0 0 0 -3.7103,-22.6913 l -0.019805,0.328656 2.327712,0.13578 -0.717711,0.504337 -0.271567,-0.174575 -1.338434,-0.232771 0.096989,1.590603 -0.698314,0.271562 -0.213375,-0.174578 0.349157,-0.329755 v -1.357834 l -1.920361,-0.446146 0.581928,-0.290964 1.280242,0.329759 -2.231273,-2.78527"
       stroke="#000000"
       stroke-width="0.35 px"
       style="fill:none;fill-opacity:1;fill-rule:evenodd;stroke-width:0.35;stroke-miterlimit:4;stroke-dasharray:none" />
    <title
       id="title5468">b'mu_sketch'</title>
  </g>
</svg>
