<?xml version="1.0"?>
<!DOCTYPE svg PUBLIC "-//W3C//DTD SVG 1.1//EN" "http://www.w3.org/Graphics/SVG/1.1/DTD/svg11.dtd">
<svg width="6.231729780000002mm" height="6.406649054111767mm" viewBox="0 0 6.231729780000002 6.406649054111767" xmlns="http://www.w3.org/2000/svg" version="1.1">
<g id="Sketch020" transform="translate(6.546207,-20.206613) scale(1,-1)">
<path id="Sketch020_w0000"  d="M -6.485112000000002 -25.322495576846222 A 4.47029 4.47029 0 0 1 -4.31175 -23.385L -4.195955748697751 -26.376321189851144 A 0.259124 0.259124 0 0 1 -3.69144 -26.3086L -3.6914446460814054 -23.01557456278706 A 6.83014 6.83014 0 0 1 -1.80498 -25.0981L -0.3930040000000008 -25.002205 L -0.3755729999999997 -24.740726000000002 A 4.45483 4.45483 0 0 0 -3.7103 -22.6913L -3.730105 -22.362644 L -1.4023930000000002 -22.226864000000003 L -2.120104 -21.722527 L -2.391671 -21.897102 L -3.730105 -22.129873 L -3.633116 -20.539270000000002 L -4.331429999999999 -20.267708 L -4.544805 -20.442286 L -4.195648 -20.772041 L -4.195648 -22.129875000000002 L -6.116009 -22.576021 L -5.5340810000000005 -22.866985 L -4.253839 -22.537226 L -6.485112000000003 -25.322495576846222 " stroke="#000000" stroke-width="0.35 px" style="stroke-width:0.35;stroke-miterlimit:4;stroke-dasharray:none;fill:none;fill-opacity:1;fill-rule: evenodd"/>
<title>b'mu_sketch'</title>
</g>
</svg>