ISO-10303-21;
HEADER;
FILE_DESCRIPTION(('KiCad electronic assembly'),'2;1');
FILE_NAME('ring_ir_prog_fence.step','2026-10-08T01:53:07',('Pcbnew'),(
    'Kicad'),'Open CASCADE STEP processor 7.9','KiCad to STEP converter'
  ,'Unknown');
FILE_SCHEMA(('AUTOMOTIVE_DESIGN { 1 0 10303 214 1 1 1 1 }'));
ENDSEC;
DATA;
#1 = APPLICATION_PROTOCOL_DEFINITION('international standard',
  'automotive_design',2000,#2);
#2 = APPLICATION_CONTEXT(
  'core data for automotive mechanical design processes');
#3 = SHAPE_DEFINITION_REPRESENTATION(#4,#10);
#4 = PRODUCT_DEFINITION_SHAPE('','',#5);
#5 = PRODUCT_DEFINITION('design','',#6,#9);
#6 = PRODUCT_DEFINITION_FORMATION('','',#7);
#7 = PRODUCT('ring_ir_prog_fence 1','ring_ir_prog_fence 1','',(#8));
#8 = PRODUCT_CONTEXT('',#2,'mechanical');
#9 = PRODUCT_DEFINITION_CONTEXT('part definition',#2,'design');
#10 = SHAPE_REPRESENTATION('',(#11,#15),#19);
#11 = AXIS2_PLACEMENT_3D('',#12,#13,#14);
#12 = CARTESIAN_POINT('',(0.,0.,0.));
#13 = DIRECTION('',(0.,0.,1.));
#14 = DIRECTION('',(1.,0.,-0.));
#15 = AXIS2_PLACEMENT_3D('',#16,#17,#18);
#16 = CARTESIAN_POINT('',(0.,0.,0.));
#17 = DIRECTION('',(0.,0.,1.));
#18 = DIRECTION('',(1.,0.,-0.));
#19 = ( GEOMETRIC_REPRESENTATION_CONTEXT(3) 
GLOBAL_UNCERTAINTY_ASSIGNED_CONTEXT((#23)) GLOBAL_UNIT_ASSIGNED_CONTEXT(
(#20,#21,#22)) REPRESENTATION_CONTEXT('Context #1',
  '3D Context with UNIT and UNCERTAINTY') );
#20 = ( LENGTH_UNIT() NAMED_UNIT(*) SI_UNIT(.MILLI.,.METRE.) );
#21 = ( NAMED_UNIT(*) PLANE_ANGLE_UNIT() SI_UNIT($,.RADIAN.) );
#22 = ( NAMED_UNIT(*) SI_UNIT($,.STERADIAN.) SOLID_ANGLE_UNIT() );
#23 = UNCERTAINTY_MEASURE_WITH_UNIT(LENGTH_MEASURE(1.E-07),#20,
  'distance_accuracy_value','confusion accuracy');
#24 = PRODUCT_RELATED_PRODUCT_CATEGORY('part',$,(#7));
#25 = SHAPE_DEFINITION_REPRESENTATION(#26,#32);
#26 = PRODUCT_DEFINITION_SHAPE('','',#27);
#27 = PRODUCT_DEFINITION('design','',#28,#31);
#28 = PRODUCT_DEFINITION_FORMATION('','',#29);
#29 = PRODUCT('ring_ir_prog_fence_PCB','ring_ir_prog_fence_PCB','',(#30)
  );
#30 = PRODUCT_CONTEXT('',#2,'mechanical');
#31 = PRODUCT_DEFINITION_CONTEXT('part definition',#2,'design');
#32 = ADVANCED_BREP_SHAPE_REPRESENTATION('',(#11,#33),#657);
#33 = MANIFOLD_SOLID_BREP('',#34);
#34 = CLOSED_SHELL('',(#35,#77,#108,#141,#172,#205,#236,#269,#291,#331,
    #362,#393,#424,#455,#486,#517,#548,#579,#601,#629));
#35 = ADVANCED_FACE('',(#36),#72,.T.);
#36 = FACE_BOUND('',#37,.T.);
#37 = EDGE_LOOP('',(#38,#48,#57,#65));
#38 = ORIENTED_EDGE('',*,*,#39,.T.);
#39 = EDGE_CURVE('',#40,#42,#44,.T.);
#40 = VERTEX_POINT('',#41);
#41 = CARTESIAN_POINT('',(160.2884,-83.3014,0.));
#42 = VERTEX_POINT('',#43);
#43 = CARTESIAN_POINT('',(160.2884,-83.3014,1.51));
#44 = LINE('',#45,#46);
#45 = CARTESIAN_POINT('',(160.2884,-83.3014,0.));
#46 = VECTOR('',#47,1.);
#47 = DIRECTION('',(0.,0.,1.));
#48 = ORIENTED_EDGE('',*,*,#49,.T.);
#49 = EDGE_CURVE('',#42,#50,#52,.T.);
#50 = VERTEX_POINT('',#51);
#51 = CARTESIAN_POINT('',(161.2884,-84.3014,1.51));
#52 = CIRCLE('',#53,1.000000960032);
#53 = AXIS2_PLACEMENT_3D('',#54,#55,#56);
#54 = CARTESIAN_POINT('',(160.28839903996,-84.30140096003,1.51));
#55 = DIRECTION('',(0.,0.,-1.));
#56 = DIRECTION('',(9.600304784947E-07,1.,0.));
#57 = ORIENTED_EDGE('',*,*,#58,.F.);
#58 = EDGE_CURVE('',#59,#50,#61,.T.);
#59 = VERTEX_POINT('',#60);
#60 = CARTESIAN_POINT('',(161.2884,-84.3014,0.));
#61 = LINE('',#62,#63);
#62 = CARTESIAN_POINT('',(161.2884,-84.3014,0.));
#63 = VECTOR('',#64,1.);
#64 = DIRECTION('',(0.,0.,1.));
#65 = ORIENTED_EDGE('',*,*,#66,.F.);
#66 = EDGE_CURVE('',#40,#59,#67,.T.);
#67 = CIRCLE('',#68,1.000000960032);
#68 = AXIS2_PLACEMENT_3D('',#69,#70,#71);
#69 = CARTESIAN_POINT('',(160.28839903996,-84.30140096003,0.));
#70 = DIRECTION('',(0.,0.,-1.));
#71 = DIRECTION('',(9.600304784947E-07,1.,0.));
#72 = CYLINDRICAL_SURFACE('',#73,1.000000960032);
#73 = AXIS2_PLACEMENT_3D('',#74,#75,#76);
#74 = CARTESIAN_POINT('',(160.28839903996,-84.30140096003,0.));
#75 = DIRECTION('',(0.,0.,-1.));
#76 = DIRECTION('',(9.600304784947E-07,1.,0.));
#77 = ADVANCED_FACE('',(#78),#103,.T.);
#78 = FACE_BOUND('',#79,.T.);
#79 = EDGE_LOOP('',(#80,#81,#89,#97));
#80 = ORIENTED_EDGE('',*,*,#58,.T.);
#81 = ORIENTED_EDGE('',*,*,#82,.T.);
#82 = EDGE_CURVE('',#50,#83,#85,.T.);
#83 = VERTEX_POINT('',#84);
#84 = CARTESIAN_POINT('',(161.2884,-106.3514,1.51));
#85 = LINE('',#86,#87);
#86 = CARTESIAN_POINT('',(161.2884,-84.3014,1.51));
#87 = VECTOR('',#88,1.);
#88 = DIRECTION('',(0.,-1.,0.));
#89 = ORIENTED_EDGE('',*,*,#90,.F.);
#90 = EDGE_CURVE('',#91,#83,#93,.T.);
#91 = VERTEX_POINT('',#92);
#92 = CARTESIAN_POINT('',(161.2884,-106.3514,0.));
#93 = LINE('',#94,#95);
#94 = CARTESIAN_POINT('',(161.2884,-106.3514,0.));
#95 = VECTOR('',#96,1.);
#96 = DIRECTION('',(0.,0.,1.));
#97 = ORIENTED_EDGE('',*,*,#98,.F.);
#98 = EDGE_CURVE('',#59,#91,#99,.T.);
#99 = LINE('',#100,#101);
#100 = CARTESIAN_POINT('',(161.2884,-84.3014,0.));
#101 = VECTOR('',#102,1.);
#102 = DIRECTION('',(0.,-1.,0.));
#103 = PLANE('',#104);
#104 = AXIS2_PLACEMENT_3D('',#105,#106,#107);
#105 = CARTESIAN_POINT('',(161.2884,-84.3014,0.));
#106 = DIRECTION('',(1.,0.,-0.));
#107 = DIRECTION('',(0.,-1.,0.));
#108 = ADVANCED_FACE('',(#109),#136,.T.);
#109 = FACE_BOUND('',#110,.T.);
#110 = EDGE_LOOP('',(#111,#112,#121,#129));
#111 = ORIENTED_EDGE('',*,*,#90,.T.);
#112 = ORIENTED_EDGE('',*,*,#113,.T.);
#113 = EDGE_CURVE('',#83,#114,#116,.T.);
#114 = VERTEX_POINT('',#115);
#115 = CARTESIAN_POINT('',(160.2884,-107.3514,1.51));
#116 = CIRCLE('',#117,1.00000266715);
#117 = AXIS2_PLACEMENT_3D('',#118,#119,#120);
#118 = CARTESIAN_POINT('',(160.28839733285,-106.3513973328,1.51));
#119 = DIRECTION('',(0.,0.,-1.));
#120 = DIRECTION('',(0.999999999996,-2.667139176832E-06,0.));
#121 = ORIENTED_EDGE('',*,*,#122,.F.);
#122 = EDGE_CURVE('',#123,#114,#125,.T.);
#123 = VERTEX_POINT('',#124);
#124 = CARTESIAN_POINT('',(160.2884,-107.3514,0.));
#125 = LINE('',#126,#127);
#126 = CARTESIAN_POINT('',(160.2884,-107.3514,0.));
#127 = VECTOR('',#128,1.);
#128 = DIRECTION('',(0.,0.,1.));
#129 = ORIENTED_EDGE('',*,*,#130,.F.);
#130 = EDGE_CURVE('',#91,#123,#131,.T.);
#131 = CIRCLE('',#132,1.00000266715);
#132 = AXIS2_PLACEMENT_3D('',#133,#134,#135);
#133 = CARTESIAN_POINT('',(160.28839733285,-106.3513973328,0.));
#134 = DIRECTION('',(0.,0.,-1.));
#135 = DIRECTION('',(0.999999999996,-2.667139176832E-06,0.));
#136 = CYLINDRICAL_SURFACE('',#137,1.00000266715);
#137 = AXIS2_PLACEMENT_3D('',#138,#139,#140);
#138 = CARTESIAN_POINT('',(160.28839733285,-106.3513973328,0.));
#139 = DIRECTION('',(0.,0.,-1.));
#140 = DIRECTION('',(0.999999999996,-2.667139176832E-06,0.));
#141 = ADVANCED_FACE('',(#142),#167,.T.);
#142 = FACE_BOUND('',#143,.T.);
#143 = EDGE_LOOP('',(#144,#145,#153,#161));
#144 = ORIENTED_EDGE('',*,*,#122,.T.);
#145 = ORIENTED_EDGE('',*,*,#146,.T.);
#146 = EDGE_CURVE('',#114,#147,#149,.T.);
#147 = VERTEX_POINT('',#148);
#148 = CARTESIAN_POINT('',(139.7624,-107.3514,1.51));
#149 = LINE('',#150,#151);
#150 = CARTESIAN_POINT('',(160.2884,-107.3514,1.51));
#151 = VECTOR('',#152,1.);
#152 = DIRECTION('',(-1.,0.,0.));
#153 = ORIENTED_EDGE('',*,*,#154,.F.);
#154 = EDGE_CURVE('',#155,#147,#157,.T.);
#155 = VERTEX_POINT('',#156);
#156 = CARTESIAN_POINT('',(139.7624,-107.3514,0.));
#157 = LINE('',#158,#159);
#158 = CARTESIAN_POINT('',(139.7624,-107.3514,0.));
#159 = VECTOR('',#160,1.);
#160 = DIRECTION('',(0.,0.,1.));
#161 = ORIENTED_EDGE('',*,*,#162,.F.);
#162 = EDGE_CURVE('',#123,#155,#163,.T.);
#163 = LINE('',#164,#165);
#164 = CARTESIAN_POINT('',(160.2884,-107.3514,0.));
#165 = VECTOR('',#166,1.);
#166 = DIRECTION('',(-1.,0.,0.));
#167 = PLANE('',#168);
#168 = AXIS2_PLACEMENT_3D('',#169,#170,#171);
#169 = CARTESIAN_POINT('',(160.2884,-107.3514,0.));
#170 = DIRECTION('',(0.,-1.,0.));
#171 = DIRECTION('',(-1.,0.,0.));
#172 = ADVANCED_FACE('',(#173),#200,.T.);
#173 = FACE_BOUND('',#174,.T.);
#174 = EDGE_LOOP('',(#175,#176,#185,#193));
#175 = ORIENTED_EDGE('',*,*,#154,.T.);
#176 = ORIENTED_EDGE('',*,*,#177,.T.);
#177 = EDGE_CURVE('',#147,#178,#180,.T.);
#178 = VERTEX_POINT('',#179);
#179 = CARTESIAN_POINT('',(138.7624,-106.3514,1.51));
#180 = CIRCLE('',#181,1.000000960032);
#181 = AXIS2_PLACEMENT_3D('',#182,#183,#184);
#182 = CARTESIAN_POINT('',(139.76240096003,-106.3513990399,1.51));
#183 = DIRECTION('',(0.,0.,-1.));
#184 = DIRECTION('',(-9.600305069164E-07,-1.,-0.));
#185 = ORIENTED_EDGE('',*,*,#186,.F.);
#186 = EDGE_CURVE('',#187,#178,#189,.T.);
#187 = VERTEX_POINT('',#188);
#188 = CARTESIAN_POINT('',(138.7624,-106.3514,0.));
#189 = LINE('',#190,#191);
#190 = CARTESIAN_POINT('',(138.7624,-106.3514,0.));
#191 = VECTOR('',#192,1.);
#192 = DIRECTION('',(0.,0.,1.));
#193 = ORIENTED_EDGE('',*,*,#194,.F.);
#194 = EDGE_CURVE('',#155,#187,#195,.T.);
#195 = CIRCLE('',#196,1.000000960032);
#196 = AXIS2_PLACEMENT_3D('',#197,#198,#199);
#197 = CARTESIAN_POINT('',(139.76240096003,-106.3513990399,0.));
#198 = DIRECTION('',(0.,0.,-1.));
#199 = DIRECTION('',(-9.600305069164E-07,-1.,-0.));
#200 = CYLINDRICAL_SURFACE('',#201,1.000000960032);
#201 = AXIS2_PLACEMENT_3D('',#202,#203,#204);
#202 = CARTESIAN_POINT('',(139.76240096003,-106.3513990399,0.));
#203 = DIRECTION('',(0.,0.,-1.));
#204 = DIRECTION('',(-9.600305069164E-07,-1.,-0.));
#205 = ADVANCED_FACE('',(#206),#231,.T.);
#206 = FACE_BOUND('',#207,.T.);
#207 = EDGE_LOOP('',(#208,#209,#217,#225));
#208 = ORIENTED_EDGE('',*,*,#186,.T.);
#209 = ORIENTED_EDGE('',*,*,#210,.T.);
#210 = EDGE_CURVE('',#178,#211,#213,.T.);
#211 = VERTEX_POINT('',#212);
#212 = CARTESIAN_POINT('',(138.7624,-84.3014,1.51));
#213 = LINE('',#214,#215);
#214 = CARTESIAN_POINT('',(138.7624,-106.3514,1.51));
#215 = VECTOR('',#216,1.);
#216 = DIRECTION('',(0.,1.,0.));
#217 = ORIENTED_EDGE('',*,*,#218,.F.);
#218 = EDGE_CURVE('',#219,#211,#221,.T.);
#219 = VERTEX_POINT('',#220);
#220 = CARTESIAN_POINT('',(138.7624,-84.3014,0.));
#221 = LINE('',#222,#223);
#222 = CARTESIAN_POINT('',(138.7624,-84.3014,0.));
#223 = VECTOR('',#224,1.);
#224 = DIRECTION('',(0.,0.,1.));
#225 = ORIENTED_EDGE('',*,*,#226,.F.);
#226 = EDGE_CURVE('',#187,#219,#227,.T.);
#227 = LINE('',#228,#229);
#228 = CARTESIAN_POINT('',(138.7624,-106.3514,0.));
#229 = VECTOR('',#230,1.);
#230 = DIRECTION('',(0.,1.,0.));
#231 = PLANE('',#232);
#232 = AXIS2_PLACEMENT_3D('',#233,#234,#235);
#233 = CARTESIAN_POINT('',(138.7624,-106.3514,0.));
#234 = DIRECTION('',(-1.,0.,0.));
#235 = DIRECTION('',(0.,1.,0.));
#236 = ADVANCED_FACE('',(#237),#264,.T.);
#237 = FACE_BOUND('',#238,.T.);
#238 = EDGE_LOOP('',(#239,#240,#249,#257));
#239 = ORIENTED_EDGE('',*,*,#218,.T.);
#240 = ORIENTED_EDGE('',*,*,#241,.T.);
#241 = EDGE_CURVE('',#211,#242,#244,.T.);
#242 = VERTEX_POINT('',#243);
#243 = CARTESIAN_POINT('',(139.7624,-83.3014,1.51));
#244 = CIRCLE('',#245,0.999999252925);
#245 = AXIS2_PLACEMENT_3D('',#246,#247,#248);
#246 = CARTESIAN_POINT('',(139.76239925292,-84.30139925292,1.51));
#247 = DIRECTION('',(0.,0.,-1.));
#248 = DIRECTION('',(-1.,-7.470757633756E-07,-0.));
#249 = ORIENTED_EDGE('',*,*,#250,.F.);
#250 = EDGE_CURVE('',#251,#242,#253,.T.);
#251 = VERTEX_POINT('',#252);
#252 = CARTESIAN_POINT('',(139.7624,-83.3014,0.));
#253 = LINE('',#254,#255);
#254 = CARTESIAN_POINT('',(139.7624,-83.3014,0.));
#255 = VECTOR('',#256,1.);
#256 = DIRECTION('',(0.,0.,1.));
#257 = ORIENTED_EDGE('',*,*,#258,.F.);
#258 = EDGE_CURVE('',#219,#251,#259,.T.);
#259 = CIRCLE('',#260,0.999999252925);
#260 = AXIS2_PLACEMENT_3D('',#261,#262,#263);
#261 = CARTESIAN_POINT('',(139.76239925292,-84.30139925292,0.));
#262 = DIRECTION('',(0.,0.,-1.));
#263 = DIRECTION('',(-1.,-7.470757633756E-07,-0.));
#264 = CYLINDRICAL_SURFACE('',#265,0.999999252925);
#265 = AXIS2_PLACEMENT_3D('',#266,#267,#268);
#266 = CARTESIAN_POINT('',(139.76239925292,-84.30139925292,0.));
#267 = DIRECTION('',(0.,0.,-1.));
#268 = DIRECTION('',(-1.,-7.470757633756E-07,-0.));
#269 = ADVANCED_FACE('',(#270),#286,.T.);
#270 = FACE_BOUND('',#271,.T.);
#271 = EDGE_LOOP('',(#272,#273,#279,#280));
#272 = ORIENTED_EDGE('',*,*,#250,.T.);
#273 = ORIENTED_EDGE('',*,*,#274,.T.);
#274 = EDGE_CURVE('',#242,#42,#275,.T.);
#275 = LINE('',#276,#277);
#276 = CARTESIAN_POINT('',(139.7624,-83.3014,1.51));
#277 = VECTOR('',#278,1.);
#278 = DIRECTION('',(1.,0.,0.));
#279 = ORIENTED_EDGE('',*,*,#39,.F.);
#280 = ORIENTED_EDGE('',*,*,#281,.F.);
#281 = EDGE_CURVE('',#251,#40,#282,.T.);
#282 = LINE('',#283,#284);
#283 = CARTESIAN_POINT('',(139.7624,-83.3014,0.));
#284 = VECTOR('',#285,1.);
#285 = DIRECTION('',(1.,0.,0.));
#286 = PLANE('',#287);
#287 = AXIS2_PLACEMENT_3D('',#288,#289,#290);
#288 = CARTESIAN_POINT('',(139.7624,-83.3014,0.));
#289 = DIRECTION('',(0.,1.,0.));
#290 = DIRECTION('',(1.,0.,0.));
#291 = ADVANCED_FACE('',(#292),#326,.T.);
#292 = FACE_BOUND('',#293,.T.);
#293 = EDGE_LOOP('',(#294,#304,#312,#320));
#294 = ORIENTED_EDGE('',*,*,#295,.T.);
#295 = EDGE_CURVE('',#296,#298,#300,.T.);
#296 = VERTEX_POINT('',#297);
#297 = CARTESIAN_POINT('',(145.508053,-86.423614,0.));
#298 = VERTEX_POINT('',#299);
#299 = CARTESIAN_POINT('',(145.508053,-86.423614,1.51));
#300 = LINE('',#301,#302);
#301 = CARTESIAN_POINT('',(145.508053,-86.423614,0.));
#302 = VECTOR('',#303,1.);
#303 = DIRECTION('',(0.,0.,1.));
#304 = ORIENTED_EDGE('',*,*,#305,.T.);
#305 = EDGE_CURVE('',#298,#306,#308,.T.);
#306 = VERTEX_POINT('',#307);
#307 = CARTESIAN_POINT('',(141.112399,-90.819267,1.51));
#308 = LINE('',#309,#310);
#309 = CARTESIAN_POINT('',(145.508053,-86.423614,1.51));
#310 = VECTOR('',#311,1.);
#311 = DIRECTION('',(-0.707106861619,-0.707106700754,0.));
#312 = ORIENTED_EDGE('',*,*,#313,.F.);
#313 = EDGE_CURVE('',#314,#306,#316,.T.);
#314 = VERTEX_POINT('',#315);
#315 = CARTESIAN_POINT('',(141.112399,-90.819267,0.));
#316 = LINE('',#317,#318);
#317 = CARTESIAN_POINT('',(141.112399,-90.819267,0.));
#318 = VECTOR('',#319,1.);
#319 = DIRECTION('',(0.,0.,1.));
#320 = ORIENTED_EDGE('',*,*,#321,.F.);
#321 = EDGE_CURVE('',#296,#314,#322,.T.);
#322 = LINE('',#323,#324);
#323 = CARTESIAN_POINT('',(145.508053,-86.423614,0.));
#324 = VECTOR('',#325,1.);
#325 = DIRECTION('',(-0.707106861619,-0.707106700754,0.));
#326 = PLANE('',#327);
#327 = AXIS2_PLACEMENT_3D('',#328,#329,#330);
#328 = CARTESIAN_POINT('',(145.508053,-86.423614,0.));
#329 = DIRECTION('',(0.707106700754,-0.707106861619,0.));
#330 = DIRECTION('',(-0.707106861619,-0.707106700754,0.));
#331 = ADVANCED_FACE('',(#332),#357,.T.);
#332 = FACE_BOUND('',#333,.T.);
#333 = EDGE_LOOP('',(#334,#335,#343,#351));
#334 = ORIENTED_EDGE('',*,*,#313,.T.);
#335 = ORIENTED_EDGE('',*,*,#336,.T.);
#336 = EDGE_CURVE('',#306,#337,#339,.T.);
#337 = VERTEX_POINT('',#338);
#338 = CARTESIAN_POINT('',(141.112399,-99.833532,1.51));
#339 = LINE('',#340,#341);
#340 = CARTESIAN_POINT('',(141.112399,-90.819267,1.51));
#341 = VECTOR('',#342,1.);
#342 = DIRECTION('',(0.,-1.,0.));
#343 = ORIENTED_EDGE('',*,*,#344,.F.);
#344 = EDGE_CURVE('',#345,#337,#347,.T.);
#345 = VERTEX_POINT('',#346);
#346 = CARTESIAN_POINT('',(141.112399,-99.833532,0.));
#347 = LINE('',#348,#349);
#348 = CARTESIAN_POINT('',(141.112399,-99.833532,0.));
#349 = VECTOR('',#350,1.);
#350 = DIRECTION('',(0.,0.,1.));
#351 = ORIENTED_EDGE('',*,*,#352,.F.);
#352 = EDGE_CURVE('',#314,#345,#353,.T.);
#353 = LINE('',#354,#355);
#354 = CARTESIAN_POINT('',(141.112399,-90.819267,0.));
#355 = VECTOR('',#356,1.);
#356 = DIRECTION('',(0.,-1.,0.));
#357 = PLANE('',#358);
#358 = AXIS2_PLACEMENT_3D('',#359,#360,#361);
#359 = CARTESIAN_POINT('',(141.112399,-90.819267,0.));
#360 = DIRECTION('',(1.,0.,-0.));
#361 = DIRECTION('',(0.,-1.,0.));
#362 = ADVANCED_FACE('',(#363),#388,.T.);
#363 = FACE_BOUND('',#364,.T.);
#364 = EDGE_LOOP('',(#365,#366,#374,#382));
#365 = ORIENTED_EDGE('',*,*,#344,.T.);
#366 = ORIENTED_EDGE('',*,*,#367,.T.);
#367 = EDGE_CURVE('',#337,#368,#370,.T.);
#368 = VERTEX_POINT('',#369);
#369 = CARTESIAN_POINT('',(145.507768,-104.2289,1.51));
#370 = LINE('',#371,#372);
#371 = CARTESIAN_POINT('',(141.112399,-99.833532,1.51));
#372 = VECTOR('',#373,1.);
#373 = DIRECTION('',(0.707106861624,-0.707106700749,0.));
#374 = ORIENTED_EDGE('',*,*,#375,.F.);
#375 = EDGE_CURVE('',#376,#368,#378,.T.);
#376 = VERTEX_POINT('',#377);
#377 = CARTESIAN_POINT('',(145.507768,-104.2289,0.));
#378 = LINE('',#379,#380);
#379 = CARTESIAN_POINT('',(145.507768,-104.2289,0.));
#380 = VECTOR('',#381,1.);
#381 = DIRECTION('',(0.,0.,1.));
#382 = ORIENTED_EDGE('',*,*,#383,.F.);
#383 = EDGE_CURVE('',#345,#376,#384,.T.);
#384 = LINE('',#385,#386);
#385 = CARTESIAN_POINT('',(141.112399,-99.833532,0.));
#386 = VECTOR('',#387,1.);
#387 = DIRECTION('',(0.707106861624,-0.707106700749,0.));
#388 = PLANE('',#389);
#389 = AXIS2_PLACEMENT_3D('',#390,#391,#392);
#390 = CARTESIAN_POINT('',(141.112399,-99.833532,0.));
#391 = DIRECTION('',(0.707106700749,0.707106861624,-0.));
#392 = DIRECTION('',(0.707106861624,-0.707106700749,0.));
#393 = ADVANCED_FACE('',(#394),#419,.T.);
#394 = FACE_BOUND('',#395,.T.);
#395 = EDGE_LOOP('',(#396,#397,#405,#413));
#396 = ORIENTED_EDGE('',*,*,#375,.T.);
#397 = ORIENTED_EDGE('',*,*,#398,.T.);
#398 = EDGE_CURVE('',#368,#399,#401,.T.);
#399 = VERTEX_POINT('',#400);
#400 = CARTESIAN_POINT('',(149.897675,-105.003589,1.51));
#401 = LINE('',#402,#403);
#402 = CARTESIAN_POINT('',(145.507768,-104.2289,1.51));
#403 = VECTOR('',#404,1.);
#404 = DIRECTION('',(0.984783576885,-0.173785231531,0.));
#405 = ORIENTED_EDGE('',*,*,#406,.F.);
#406 = EDGE_CURVE('',#407,#399,#409,.T.);
#407 = VERTEX_POINT('',#408);
#408 = CARTESIAN_POINT('',(149.897675,-105.003589,0.));
#409 = LINE('',#410,#411);
#410 = CARTESIAN_POINT('',(149.897675,-105.003589,0.));
#411 = VECTOR('',#412,1.);
#412 = DIRECTION('',(0.,0.,1.));
#413 = ORIENTED_EDGE('',*,*,#414,.F.);
#414 = EDGE_CURVE('',#376,#407,#415,.T.);
#415 = LINE('',#416,#417);
#416 = CARTESIAN_POINT('',(145.507768,-104.2289,0.));
#417 = VECTOR('',#418,1.);
#418 = DIRECTION('',(0.984783576885,-0.173785231531,0.));
#419 = PLANE('',#420);
#420 = AXIS2_PLACEMENT_3D('',#421,#422,#423);
#421 = CARTESIAN_POINT('',(145.507768,-104.2289,0.));
#422 = DIRECTION('',(0.173785231531,0.984783576885,-0.));
#423 = DIRECTION('',(0.984783576885,-0.173785231531,0.));
#424 = ADVANCED_FACE('',(#425),#450,.T.);
#425 = FACE_BOUND('',#426,.T.);
#426 = EDGE_LOOP('',(#427,#428,#436,#444));
#427 = ORIENTED_EDGE('',*,*,#406,.T.);
#428 = ORIENTED_EDGE('',*,*,#429,.T.);
#429 = EDGE_CURVE('',#399,#430,#432,.T.);
#430 = VERTEX_POINT('',#431);
#431 = CARTESIAN_POINT('',(154.542475,-104.229456,1.51));
#432 = LINE('',#433,#434);
#433 = CARTESIAN_POINT('',(149.897675,-105.003589,1.51));
#434 = VECTOR('',#435,1.);
#435 = DIRECTION('',(0.986393935311,0.16439891843,0.));
#436 = ORIENTED_EDGE('',*,*,#437,.F.);
#437 = EDGE_CURVE('',#438,#430,#440,.T.);
#438 = VERTEX_POINT('',#439);
#439 = CARTESIAN_POINT('',(154.542475,-104.229456,0.));
#440 = LINE('',#441,#442);
#441 = CARTESIAN_POINT('',(154.542475,-104.229456,0.));
#442 = VECTOR('',#443,1.);
#443 = DIRECTION('',(0.,0.,1.));
#444 = ORIENTED_EDGE('',*,*,#445,.F.);
#445 = EDGE_CURVE('',#407,#438,#446,.T.);
#446 = LINE('',#447,#448);
#447 = CARTESIAN_POINT('',(149.897675,-105.003589,0.));
#448 = VECTOR('',#449,1.);
#449 = DIRECTION('',(0.986393935311,0.16439891843,0.));
#450 = PLANE('',#451);
#451 = AXIS2_PLACEMENT_3D('',#452,#453,#454);
#452 = CARTESIAN_POINT('',(149.897675,-105.003589,0.));
#453 = DIRECTION('',(-0.16439891843,0.986393935311,0.));
#454 = DIRECTION('',(0.986393935311,0.16439891843,0.));
#455 = ADVANCED_FACE('',(#456),#481,.T.);
#456 = FACE_BOUND('',#457,.T.);
#457 = EDGE_LOOP('',(#458,#459,#467,#475));
#458 = ORIENTED_EDGE('',*,*,#437,.T.);
#459 = ORIENTED_EDGE('',*,*,#460,.T.);
#460 = EDGE_CURVE('',#430,#461,#463,.T.);
#461 = VERTEX_POINT('',#462);
#462 = CARTESIAN_POINT('',(158.9384,-99.833532,1.51));
#463 = LINE('',#464,#465);
#464 = CARTESIAN_POINT('',(154.542475,-104.229456,1.51));
#465 = VECTOR('',#466,1.);
#466 = DIRECTION('',(0.707106861614,0.707106700759,0.));
#467 = ORIENTED_EDGE('',*,*,#468,.F.);
#468 = EDGE_CURVE('',#469,#461,#471,.T.);
#469 = VERTEX_POINT('',#470);
#470 = CARTESIAN_POINT('',(158.9384,-99.833532,0.));
#471 = LINE('',#472,#473);
#472 = CARTESIAN_POINT('',(158.9384,-99.833532,0.));
#473 = VECTOR('',#474,1.);
#474 = DIRECTION('',(0.,0.,1.));
#475 = ORIENTED_EDGE('',*,*,#476,.F.);
#476 = EDGE_CURVE('',#438,#469,#477,.T.);
#477 = LINE('',#478,#479);
#478 = CARTESIAN_POINT('',(154.542475,-104.229456,0.));
#479 = VECTOR('',#480,1.);
#480 = DIRECTION('',(0.707106861614,0.707106700759,0.));
#481 = PLANE('',#482);
#482 = AXIS2_PLACEMENT_3D('',#483,#484,#485);
#483 = CARTESIAN_POINT('',(154.542475,-104.229456,0.));
#484 = DIRECTION('',(-0.707106700759,0.707106861614,0.));
#485 = DIRECTION('',(0.707106861614,0.707106700759,0.));
#486 = ADVANCED_FACE('',(#487),#512,.T.);
#487 = FACE_BOUND('',#488,.T.);
#488 = EDGE_LOOP('',(#489,#490,#498,#506));
#489 = ORIENTED_EDGE('',*,*,#468,.T.);
#490 = ORIENTED_EDGE('',*,*,#491,.T.);
#491 = EDGE_CURVE('',#461,#492,#494,.T.);
#492 = VERTEX_POINT('',#493);
#493 = CARTESIAN_POINT('',(158.9384,-90.819267,1.51));
#494 = LINE('',#495,#496);
#495 = CARTESIAN_POINT('',(158.9384,-99.833532,1.51));
#496 = VECTOR('',#497,1.);
#497 = DIRECTION('',(0.,1.,0.));
#498 = ORIENTED_EDGE('',*,*,#499,.F.);
#499 = EDGE_CURVE('',#500,#492,#502,.T.);
#500 = VERTEX_POINT('',#501);
#501 = CARTESIAN_POINT('',(158.9384,-90.819267,0.));
#502 = LINE('',#503,#504);
#503 = CARTESIAN_POINT('',(158.9384,-90.819267,0.));
#504 = VECTOR('',#505,1.);
#505 = DIRECTION('',(0.,0.,1.));
#506 = ORIENTED_EDGE('',*,*,#507,.F.);
#507 = EDGE_CURVE('',#469,#500,#508,.T.);
#508 = LINE('',#509,#510);
#509 = CARTESIAN_POINT('',(158.9384,-99.833532,0.));
#510 = VECTOR('',#511,1.);
#511 = DIRECTION('',(0.,1.,0.));
#512 = PLANE('',#513);
#513 = AXIS2_PLACEMENT_3D('',#514,#515,#516);
#514 = CARTESIAN_POINT('',(158.9384,-99.833532,0.));
#515 = DIRECTION('',(-1.,0.,0.));
#516 = DIRECTION('',(0.,1.,0.));
#517 = ADVANCED_FACE('',(#518),#543,.T.);
#518 = FACE_BOUND('',#519,.T.);
#519 = EDGE_LOOP('',(#520,#521,#529,#537));
#520 = ORIENTED_EDGE('',*,*,#499,.T.);
#521 = ORIENTED_EDGE('',*,*,#522,.T.);
#522 = EDGE_CURVE('',#492,#523,#525,.T.);
#523 = VERTEX_POINT('',#524);
#524 = CARTESIAN_POINT('',(154.542746,-86.423614,1.51));
#525 = LINE('',#526,#527);
#526 = CARTESIAN_POINT('',(158.9384,-90.819267,1.51));
#527 = VECTOR('',#528,1.);
#528 = DIRECTION('',(-0.707106861619,0.707106700754,0.));
#529 = ORIENTED_EDGE('',*,*,#530,.F.);
#530 = EDGE_CURVE('',#531,#523,#533,.T.);
#531 = VERTEX_POINT('',#532);
#532 = CARTESIAN_POINT('',(154.542746,-86.423614,0.));
#533 = LINE('',#534,#535);
#534 = CARTESIAN_POINT('',(154.542746,-86.423614,0.));
#535 = VECTOR('',#536,1.);
#536 = DIRECTION('',(0.,0.,1.));
#537 = ORIENTED_EDGE('',*,*,#538,.F.);
#538 = EDGE_CURVE('',#500,#531,#539,.T.);
#539 = LINE('',#540,#541);
#540 = CARTESIAN_POINT('',(158.9384,-90.819267,0.));
#541 = VECTOR('',#542,1.);
#542 = DIRECTION('',(-0.707106861619,0.707106700754,0.));
#543 = PLANE('',#544);
#544 = AXIS2_PLACEMENT_3D('',#545,#546,#547);
#545 = CARTESIAN_POINT('',(158.9384,-90.819267,0.));
#546 = DIRECTION('',(-0.707106700754,-0.707106861619,0.));
#547 = DIRECTION('',(-0.707106861619,0.707106700754,0.));
#548 = ADVANCED_FACE('',(#549),#574,.T.);
#549 = FACE_BOUND('',#550,.T.);
#550 = EDGE_LOOP('',(#551,#552,#560,#568));
#551 = ORIENTED_EDGE('',*,*,#530,.T.);
#552 = ORIENTED_EDGE('',*,*,#553,.T.);
#553 = EDGE_CURVE('',#523,#554,#556,.T.);
#554 = VERTEX_POINT('',#555);
#555 = CARTESIAN_POINT('',(150.0254,-85.649211,1.51));
#556 = LINE('',#557,#558);
#557 = CARTESIAN_POINT('',(154.542746,-86.423614,1.51));
#558 = VECTOR('',#559,1.);
#559 = DIRECTION('',(-0.985622224707,0.168963990733,0.));
#560 = ORIENTED_EDGE('',*,*,#561,.F.);
#561 = EDGE_CURVE('',#562,#554,#564,.T.);
#562 = VERTEX_POINT('',#563);
#563 = CARTESIAN_POINT('',(150.0254,-85.649211,0.));
#564 = LINE('',#565,#566);
#565 = CARTESIAN_POINT('',(150.0254,-85.649211,0.));
#566 = VECTOR('',#567,1.);
#567 = DIRECTION('',(0.,0.,1.));
#568 = ORIENTED_EDGE('',*,*,#569,.F.);
#569 = EDGE_CURVE('',#531,#562,#570,.T.);
#570 = LINE('',#571,#572);
#571 = CARTESIAN_POINT('',(154.542746,-86.423614,0.));
#572 = VECTOR('',#573,1.);
#573 = DIRECTION('',(-0.985622224707,0.168963990733,0.));
#574 = PLANE('',#575);
#575 = AXIS2_PLACEMENT_3D('',#576,#577,#578);
#576 = CARTESIAN_POINT('',(154.542746,-86.423614,0.));
#577 = DIRECTION('',(-0.168963990733,-0.985622224707,0.));
#578 = DIRECTION('',(-0.985622224707,0.168963990733,0.));
#579 = ADVANCED_FACE('',(#580),#596,.T.);
#580 = FACE_BOUND('',#581,.T.);
#581 = EDGE_LOOP('',(#582,#583,#589,#590));
#582 = ORIENTED_EDGE('',*,*,#561,.T.);
#583 = ORIENTED_EDGE('',*,*,#584,.T.);
#584 = EDGE_CURVE('',#554,#298,#585,.T.);
#585 = LINE('',#586,#587);
#586 = CARTESIAN_POINT('',(150.0254,-85.649211,1.51));
#587 = VECTOR('',#588,1.);
#588 = DIRECTION('',(-0.985622230936,-0.168963954397,0.));
#589 = ORIENTED_EDGE('',*,*,#295,.F.);
#590 = ORIENTED_EDGE('',*,*,#591,.F.);
#591 = EDGE_CURVE('',#562,#296,#592,.T.);
#592 = LINE('',#593,#594);
#593 = CARTESIAN_POINT('',(150.0254,-85.649211,0.));
#594 = VECTOR('',#595,1.);
#595 = DIRECTION('',(-0.985622230936,-0.168963954397,0.));
#596 = PLANE('',#597);
#597 = AXIS2_PLACEMENT_3D('',#598,#599,#600);
#598 = CARTESIAN_POINT('',(150.0254,-85.649211,0.));
#599 = DIRECTION('',(0.168963954397,-0.985622230936,0.));
#600 = DIRECTION('',(-0.985622230936,-0.168963954397,0.));
#601 = ADVANCED_FACE('',(#602,#612),#624,.F.);
#602 = FACE_BOUND('',#603,.T.);
#603 = EDGE_LOOP('',(#604,#605,#606,#607,#608,#609,#610,#611));
#604 = ORIENTED_EDGE('',*,*,#66,.T.);
#605 = ORIENTED_EDGE('',*,*,#98,.T.);
#606 = ORIENTED_EDGE('',*,*,#130,.T.);
#607 = ORIENTED_EDGE('',*,*,#162,.T.);
#608 = ORIENTED_EDGE('',*,*,#194,.T.);
#609 = ORIENTED_EDGE('',*,*,#226,.T.);
#610 = ORIENTED_EDGE('',*,*,#258,.T.);
#611 = ORIENTED_EDGE('',*,*,#281,.T.);
#612 = FACE_BOUND('',#613,.T.);
#613 = EDGE_LOOP('',(#614,#615,#616,#617,#618,#619,#620,#621,#622,#623)
  );
#614 = ORIENTED_EDGE('',*,*,#321,.T.);
#615 = ORIENTED_EDGE('',*,*,#352,.T.);
#616 = ORIENTED_EDGE('',*,*,#383,.T.);
#617 = ORIENTED_EDGE('',*,*,#414,.T.);
#618 = ORIENTED_EDGE('',*,*,#445,.T.);
#619 = ORIENTED_EDGE('',*,*,#476,.T.);
#620 = ORIENTED_EDGE('',*,*,#507,.T.);
#621 = ORIENTED_EDGE('',*,*,#538,.T.);
#622 = ORIENTED_EDGE('',*,*,#569,.T.);
#623 = ORIENTED_EDGE('',*,*,#591,.T.);
#624 = PLANE('',#625);
#625 = AXIS2_PLACEMENT_3D('',#626,#627,#628);
#626 = CARTESIAN_POINT('',(0.,0.,0.));
#627 = DIRECTION('',(0.,0.,1.));
#628 = DIRECTION('',(1.,0.,-0.));
#629 = ADVANCED_FACE('',(#630,#640),#652,.T.);
#630 = FACE_BOUND('',#631,.F.);
#631 = EDGE_LOOP('',(#632,#633,#634,#635,#636,#637,#638,#639));
#632 = ORIENTED_EDGE('',*,*,#49,.T.);
#633 = ORIENTED_EDGE('',*,*,#82,.T.);
#634 = ORIENTED_EDGE('',*,*,#113,.T.);
#635 = ORIENTED_EDGE('',*,*,#146,.T.);
#636 = ORIENTED_EDGE('',*,*,#177,.T.);
#637 = ORIENTED_EDGE('',*,*,#210,.T.);
#638 = ORIENTED_EDGE('',*,*,#241,.T.);
#639 = ORIENTED_EDGE('',*,*,#274,.T.);
#640 = FACE_BOUND('',#641,.F.);
#641 = EDGE_LOOP('',(#642,#643,#644,#645,#646,#647,#648,#649,#650,#651)
  );
#642 = ORIENTED_EDGE('',*,*,#305,.T.);
#643 = ORIENTED_EDGE('',*,*,#336,.T.);
#644 = ORIENTED_EDGE('',*,*,#367,.T.);
#645 = ORIENTED_EDGE('',*,*,#398,.T.);
#646 = ORIENTED_EDGE('',*,*,#429,.T.);
#647 = ORIENTED_EDGE('',*,*,#460,.T.);
#648 = ORIENTED_EDGE('',*,*,#491,.T.);
#649 = ORIENTED_EDGE('',*,*,#522,.T.);
#650 = ORIENTED_EDGE('',*,*,#553,.T.);
#651 = ORIENTED_EDGE('',*,*,#584,.T.);
#652 = PLANE('',#653);
#653 = AXIS2_PLACEMENT_3D('',#654,#655,#656);
#654 = CARTESIAN_POINT('',(0.,0.,1.51));
#655 = DIRECTION('',(0.,0.,1.));
#656 = DIRECTION('',(1.,0.,-0.));
#657 = ( GEOMETRIC_REPRESENTATION_CONTEXT(3) 
GLOBAL_UNCERTAINTY_ASSIGNED_CONTEXT((#661)) GLOBAL_UNIT_ASSIGNED_CONTEXT
((#658,#659,#660)) REPRESENTATION_CONTEXT('Context #1',
  '3D Context with UNIT and UNCERTAINTY') );
#658 = ( LENGTH_UNIT() NAMED_UNIT(*) SI_UNIT(.MILLI.,.METRE.) );
#659 = ( NAMED_UNIT(*) PLANE_ANGLE_UNIT() SI_UNIT($,.RADIAN.) );
#660 = ( NAMED_UNIT(*) SI_UNIT($,.STERADIAN.) SOLID_ANGLE_UNIT() );
#661 = UNCERTAINTY_MEASURE_WITH_UNIT(LENGTH_MEASURE(1.E-07),#658,
  'distance_accuracy_value','confusion accuracy');
#662 = CONTEXT_DEPENDENT_SHAPE_REPRESENTATION(#663,#665);
#663 = ( REPRESENTATION_RELATIONSHIP('','',#32,#10) 
REPRESENTATION_RELATIONSHIP_WITH_TRANSFORMATION(#664) 
SHAPE_REPRESENTATION_RELATIONSHIP() );
#664 = ITEM_DEFINED_TRANSFORMATION('','',#11,#15);
#665 = PRODUCT_DEFINITION_SHAPE('Placement','Placement of an item',#666
  );
#666 = NEXT_ASSEMBLY_USAGE_OCCURRENCE('1','=>[0:1:1:2]','',#5,#27,$);
#667 = PRODUCT_RELATED_PRODUCT_CATEGORY('part',$,(#29));
#668 = MECHANICAL_DESIGN_GEOMETRIC_PRESENTATION_REPRESENTATION('',(#669)
  ,#657);
#669 = STYLED_ITEM('color',(#670),#33);
#670 = PRESENTATION_STYLE_ASSIGNMENT((#671));
#671 = SURFACE_STYLE_USAGE(.BOTH.,#672);
#672 = SURFACE_SIDE_STYLE('',(#673));
#673 = SURFACE_STYLE_FILL_AREA(#674);
#674 = FILL_AREA_STYLE('',(#675));
#675 = FILL_AREA_STYLE_COLOUR('',#676);
#676 = COLOUR_RGB('',0.313304153717,0.484529207832,0.410020903123);
ENDSEC;
END-ISO-10303-21;
