ISO-10303-21;
HEADER;
FILE_DESCRIPTION(('KiCad electronic assembly'),'2;1');
FILE_NAME('ring_ir_prog_anvil.step','2026-10-08T01:52:59',('Pcbnew'),(
    'Kicad'),'Open CASCADE STEP processor 7.9','KiCad to STEP converter'
  ,'Unknown');
FILE_SCHEMA(('AUTOMOTIVE_DESIGN { 1 0 10303 214 1 1 1 1 }'));
ENDSEC;
DATA;
#1 = APPLICATION_PROTOCOL_DEFINITION('international standard',
  'automotive_design',2000,#2);
#2 = APPLICATION_CONTEXT(
  'core data for automotive mechanical design processes');
#3 = SHAPE_DEFINITION_REPRESENTATION(#4,#10);
#4 = PRODUCT_DEFINITION_SHAPE('','',#5);
#5 = PRODUCT_DEFINITION('design','',#6,#9);
#6 = PRODUCT_DEFINITION_FORMATION('','',#7);
#7 = PRODUCT('ring_ir_prog_anvil 1','ring_ir_prog_anvil 1','',(#8));
#8 = PRODUCT_CONTEXT('',#2,'mechanical');
#9 = PRODUCT_DEFINITION_CONTEXT('part definition',#2,'design');
#10 = SHAPE_REPRESENTATION('',(#11,#15),#19);
#11 = AXIS2_PLACEMENT_3D('',#12,#13,#14);
#12 = CARTESIAN_POINT('',(0.,0.,0.));
#13 = DIRECTION('',(0.,0.,1.));
#14 = DIRECTION('',(1.,0.,-0.));
#15 = AXIS2_PLACEMENT_3D('',#16,#17,#18);
#16 = CARTESIAN_POINT('',(0.,0.,0.));
#17 = DIRECTION('',(0.,0.,1.));
#18 = DIRECTION('',(1.,0.,-0.));
#19 = ( GEOMETRIC_REPRESENTATION_CONTEXT(3) 
GLOBAL_UNCERTAINTY_ASSIGNED_CONTEXT((#23)) GLOBAL_UNIT_ASSIGNED_CONTEXT(
(#20,#21,#22)) REPRESENTATION_CONTEXT('Context #1',
  '3D Context with UNIT and UNCERTAINTY') );
#20 = ( LENGTH_UNIT() NAMED_UNIT(*) SI_UNIT(.MILLI.,.METRE.) );
#21 = ( NAMED_UNIT(*) PLANE_ANGLE_UNIT() SI_UNIT($,.RADIAN.) );
#22 = ( NAMED_UNIT(*) SI_UNIT($,.STERADIAN.) SOLID_ANGLE_UNIT() );
#23 = UNCERTAINTY_MEASURE_WITH_UNIT(LENGTH_MEASURE(1.E-07),#20,
  'distance_accuracy_value','confusion accuracy');
#24 = PRODUCT_RELATED_PRODUCT_CATEGORY('part',$,(#7));
#25 = SHAPE_DEFINITION_REPRESENTATION(#26,#32);
#26 = PRODUCT_DEFINITION_SHAPE('','',#27);
#27 = PRODUCT_DEFINITION('design','',#28,#31);
#28 = PRODUCT_DEFINITION_FORMATION('','',#29);
#29 = PRODUCT('ring_ir_prog_anvil_PCB','ring_ir_prog_anvil_PCB','',(#30)
  );
#30 = PRODUCT_CONTEXT('',#2,'mechanical');
#31 = PRODUCT_DEFINITION_CONTEXT('part definition',#2,'design');
#32 = ADVANCED_BREP_SHAPE_REPRESENTATION('',(#11,#33),#638);
#33 = MANIFOLD_SOLID_BREP('',#34);
#34 = CLOSED_SHELL('',(#35,#77,#108,#139,#272,#405,#422,#439,#456,#473,
    #485,#502,#524,#541,#558,#575,#592,#609,#626));
#35 = ADVANCED_FACE('',(#36),#72,.T.);
#36 = FACE_BOUND('',#37,.T.);
#37 = EDGE_LOOP('',(#38,#48,#57,#65));
#38 = ORIENTED_EDGE('',*,*,#39,.T.);
#39 = EDGE_CURVE('',#40,#42,#44,.T.);
#40 = VERTEX_POINT('',#41);
#41 = CARTESIAN_POINT('',(160.2884,-83.3014,0.));
#42 = VERTEX_POINT('',#43);
#43 = CARTESIAN_POINT('',(160.2884,-83.3014,1.51));
#44 = LINE('',#45,#46);
#45 = CARTESIAN_POINT('',(160.2884,-83.3014,0.));
#46 = VECTOR('',#47,1.);
#47 = DIRECTION('',(0.,0.,1.));
#48 = ORIENTED_EDGE('',*,*,#49,.T.);
#49 = EDGE_CURVE('',#42,#50,#52,.T.);
#50 = VERTEX_POINT('',#51);
#51 = CARTESIAN_POINT('',(161.2884,-84.3014,1.51));
#52 = CIRCLE('',#53,1.000000960032);
#53 = AXIS2_PLACEMENT_3D('',#54,#55,#56);
#54 = CARTESIAN_POINT('',(160.28839903996,-84.30140096003,1.51));
#55 = DIRECTION('',(0.,0.,-1.));
#56 = DIRECTION('',(9.600304784947E-07,1.,0.));
#57 = ORIENTED_EDGE('',*,*,#58,.F.);
#58 = EDGE_CURVE('',#59,#50,#61,.T.);
#59 = VERTEX_POINT('',#60);
#60 = CARTESIAN_POINT('',(161.2884,-84.3014,0.));
#61 = LINE('',#62,#63);
#62 = CARTESIAN_POINT('',(161.2884,-84.3014,0.));
#63 = VECTOR('',#64,1.);
#64 = DIRECTION('',(0.,0.,1.));
#65 = ORIENTED_EDGE('',*,*,#66,.F.);
#66 = EDGE_CURVE('',#40,#59,#67,.T.);
#67 = CIRCLE('',#68,1.000000960032);
#68 = AXIS2_PLACEMENT_3D('',#69,#70,#71);
#69 = CARTESIAN_POINT('',(160.28839903996,-84.30140096003,0.));
#70 = DIRECTION('',(0.,0.,-1.));
#71 = DIRECTION('',(9.600304784947E-07,1.,0.));
#72 = CYLINDRICAL_SURFACE('',#73,1.000000960032);
#73 = AXIS2_PLACEMENT_3D('',#74,#75,#76);
#74 = CARTESIAN_POINT('',(160.28839903996,-84.30140096003,0.));
#75 = DIRECTION('',(0.,0.,-1.));
#76 = DIRECTION('',(9.600304784947E-07,1.,0.));
#77 = ADVANCED_FACE('',(#78),#103,.T.);
#78 = FACE_BOUND('',#79,.T.);
#79 = EDGE_LOOP('',(#80,#90,#96,#97));
#80 = ORIENTED_EDGE('',*,*,#81,.T.);
#81 = EDGE_CURVE('',#82,#84,#86,.T.);
#82 = VERTEX_POINT('',#83);
#83 = CARTESIAN_POINT('',(139.7624,-83.3014,0.));
#84 = VERTEX_POINT('',#85);
#85 = CARTESIAN_POINT('',(139.7624,-83.3014,1.51));
#86 = LINE('',#87,#88);
#87 = CARTESIAN_POINT('',(139.7624,-83.3014,0.));
#88 = VECTOR('',#89,1.);
#89 = DIRECTION('',(0.,0.,1.));
#90 = ORIENTED_EDGE('',*,*,#91,.T.);
#91 = EDGE_CURVE('',#84,#42,#92,.T.);
#92 = LINE('',#93,#94);
#93 = CARTESIAN_POINT('',(139.7624,-83.3014,1.51));
#94 = VECTOR('',#95,1.);
#95 = DIRECTION('',(1.,0.,0.));
#96 = ORIENTED_EDGE('',*,*,#39,.F.);
#97 = ORIENTED_EDGE('',*,*,#98,.F.);
#98 = EDGE_CURVE('',#82,#40,#99,.T.);
#99 = LINE('',#100,#101);
#100 = CARTESIAN_POINT('',(139.7624,-83.3014,0.));
#101 = VECTOR('',#102,1.);
#102 = DIRECTION('',(1.,0.,0.));
#103 = PLANE('',#104);
#104 = AXIS2_PLACEMENT_3D('',#105,#106,#107);
#105 = CARTESIAN_POINT('',(139.7624,-83.3014,0.));
#106 = DIRECTION('',(0.,1.,0.));
#107 = DIRECTION('',(1.,0.,0.));
#108 = ADVANCED_FACE('',(#109),#134,.T.);
#109 = FACE_BOUND('',#110,.T.);
#110 = EDGE_LOOP('',(#111,#112,#120,#128));
#111 = ORIENTED_EDGE('',*,*,#58,.T.);
#112 = ORIENTED_EDGE('',*,*,#113,.T.);
#113 = EDGE_CURVE('',#50,#114,#116,.T.);
#114 = VERTEX_POINT('',#115);
#115 = CARTESIAN_POINT('',(161.2884,-113.3514,1.51));
#116 = LINE('',#117,#118);
#117 = CARTESIAN_POINT('',(161.2884,-84.3014,1.51));
#118 = VECTOR('',#119,1.);
#119 = DIRECTION('',(0.,-1.,0.));
#120 = ORIENTED_EDGE('',*,*,#121,.F.);
#121 = EDGE_CURVE('',#122,#114,#124,.T.);
#122 = VERTEX_POINT('',#123);
#123 = CARTESIAN_POINT('',(161.2884,-113.3514,0.));
#124 = LINE('',#125,#126);
#125 = CARTESIAN_POINT('',(161.2884,-113.3514,0.));
#126 = VECTOR('',#127,1.);
#127 = DIRECTION('',(0.,0.,1.));
#128 = ORIENTED_EDGE('',*,*,#129,.F.);
#129 = EDGE_CURVE('',#59,#122,#130,.T.);
#130 = LINE('',#131,#132);
#131 = CARTESIAN_POINT('',(161.2884,-84.3014,0.));
#132 = VECTOR('',#133,1.);
#133 = DIRECTION('',(0.,-1.,0.));
#134 = PLANE('',#135);
#135 = AXIS2_PLACEMENT_3D('',#136,#137,#138);
#136 = CARTESIAN_POINT('',(161.2884,-84.3014,0.));
#137 = DIRECTION('',(1.,0.,-0.));
#138 = DIRECTION('',(0.,-1.,0.));
#139 = ADVANCED_FACE('',(#140,#186,#197),#267,.F.);
#140 = FACE_BOUND('',#141,.F.);
#141 = EDGE_LOOP('',(#142,#143,#144,#153,#161,#170,#178,#185));
#142 = ORIENTED_EDGE('',*,*,#66,.F.);
#143 = ORIENTED_EDGE('',*,*,#98,.F.);
#144 = ORIENTED_EDGE('',*,*,#145,.F.);
#145 = EDGE_CURVE('',#146,#82,#148,.T.);
#146 = VERTEX_POINT('',#147);
#147 = CARTESIAN_POINT('',(138.7624,-84.3014,0.));
#148 = CIRCLE('',#149,0.999999252925);
#149 = AXIS2_PLACEMENT_3D('',#150,#151,#152);
#150 = CARTESIAN_POINT('',(139.76239925292,-84.30139925292,0.));
#151 = DIRECTION('',(0.,0.,-1.));
#152 = DIRECTION('',(-1.,-7.470757633756E-07,-0.));
#153 = ORIENTED_EDGE('',*,*,#154,.F.);
#154 = EDGE_CURVE('',#155,#146,#157,.T.);
#155 = VERTEX_POINT('',#156);
#156 = CARTESIAN_POINT('',(138.7624,-113.3514,0.));
#157 = LINE('',#158,#159);
#158 = CARTESIAN_POINT('',(138.7624,-113.3514,0.));
#159 = VECTOR('',#160,1.);
#160 = DIRECTION('',(0.,1.,0.));
#161 = ORIENTED_EDGE('',*,*,#162,.F.);
#162 = EDGE_CURVE('',#163,#155,#165,.T.);
#163 = VERTEX_POINT('',#164);
#164 = CARTESIAN_POINT('',(139.7624,-114.3514,0.));
#165 = CIRCLE('',#166,1.000000960032);
#166 = AXIS2_PLACEMENT_3D('',#167,#168,#169);
#167 = CARTESIAN_POINT('',(139.76240096003,-113.3513990399,0.));
#168 = DIRECTION('',(0.,0.,-1.));
#169 = DIRECTION('',(-9.600305069164E-07,-1.,-0.));
#170 = ORIENTED_EDGE('',*,*,#171,.F.);
#171 = EDGE_CURVE('',#172,#163,#174,.T.);
#172 = VERTEX_POINT('',#173);
#173 = CARTESIAN_POINT('',(160.2884,-114.3514,0.));
#174 = LINE('',#175,#176);
#175 = CARTESIAN_POINT('',(160.2884,-114.3514,0.));
#176 = VECTOR('',#177,1.);
#177 = DIRECTION('',(-1.,0.,0.));
#178 = ORIENTED_EDGE('',*,*,#179,.F.);
#179 = EDGE_CURVE('',#122,#172,#180,.T.);
#180 = CIRCLE('',#181,1.00000266715);
#181 = AXIS2_PLACEMENT_3D('',#182,#183,#184);
#182 = CARTESIAN_POINT('',(160.28839733285,-113.3513973328,0.));
#183 = DIRECTION('',(0.,0.,-1.));
#184 = DIRECTION('',(0.999999999996,-2.667139176832E-06,0.));
#185 = ORIENTED_EDGE('',*,*,#129,.F.);
#186 = FACE_BOUND('',#187,.F.);
#187 = EDGE_LOOP('',(#188));
#188 = ORIENTED_EDGE('',*,*,#189,.T.);
#189 = EDGE_CURVE('',#190,#190,#192,.T.);
#190 = VERTEX_POINT('',#191);
#191 = CARTESIAN_POINT('',(150.,-111.2014,0.));
#192 = CIRCLE('',#193,0.35);
#193 = AXIS2_PLACEMENT_3D('',#194,#195,#196);
#194 = CARTESIAN_POINT('',(150.,-110.8514,0.));
#195 = DIRECTION('',(-0.,0.,-1.));
#196 = DIRECTION('',(-0.,-1.,0.));
#197 = FACE_BOUND('',#198,.F.);
#198 = EDGE_LOOP('',(#199,#210,#218,#227,#235,#244,#252,#261));
#199 = ORIENTED_EDGE('',*,*,#200,.F.);
#200 = EDGE_CURVE('',#201,#203,#205,.T.);
#201 = VERTEX_POINT('',#202);
#202 = CARTESIAN_POINT('',(142.4074,-88.1584,0.));
#203 = VERTEX_POINT('',#204);
#204 = CARTESIAN_POINT('',(141.9074,-88.6584,0.));
#205 = CIRCLE('',#206,0.49999791937);
#206 = AXIS2_PLACEMENT_3D('',#207,#208,#209);
#207 = CARTESIAN_POINT('',(142.40739791936,-88.65839791936,0.));
#208 = DIRECTION('',(0.,0.,1.));
#209 = DIRECTION('',(4.16128589391E-06,0.999999999991,-0.));
#210 = ORIENTED_EDGE('',*,*,#211,.F.);
#211 = EDGE_CURVE('',#212,#201,#214,.T.);
#212 = VERTEX_POINT('',#213);
#213 = CARTESIAN_POINT('',(157.3894,-88.1584,0.));
#214 = LINE('',#215,#216);
#215 = CARTESIAN_POINT('',(157.3894,-88.1584,0.));
#216 = VECTOR('',#217,1.);
#217 = DIRECTION('',(-1.,0.,0.));
#218 = ORIENTED_EDGE('',*,*,#219,.F.);
#219 = EDGE_CURVE('',#220,#212,#222,.T.);
#220 = VERTEX_POINT('',#221);
#221 = CARTESIAN_POINT('',(157.8894,-88.6584,0.));
#222 = CIRCLE('',#223,0.499999626461);
#223 = AXIS2_PLACEMENT_3D('',#224,#225,#226);
#224 = CARTESIAN_POINT('',(157.38940037353,-88.65839962646,0.));
#225 = DIRECTION('',(0.,0.,1.));
#226 = DIRECTION('',(1.,-7.470781792245E-07,0.));
#227 = ORIENTED_EDGE('',*,*,#228,.F.);
#228 = EDGE_CURVE('',#229,#220,#231,.T.);
#229 = VERTEX_POINT('',#230);
#230 = CARTESIAN_POINT('',(157.8894,-101.0464,0.));
#231 = LINE('',#232,#233);
#232 = CARTESIAN_POINT('',(157.8894,-101.0464,0.));
#233 = VECTOR('',#234,1.);
#234 = DIRECTION('',(0.,1.,0.));
#235 = ORIENTED_EDGE('',*,*,#236,.F.);
#236 = EDGE_CURVE('',#237,#229,#239,.T.);
#237 = VERTEX_POINT('',#238);
#238 = CARTESIAN_POINT('',(157.3894,-101.5464,0.));
#239 = CIRCLE('',#240,0.500001333575);
#240 = AXIS2_PLACEMENT_3D('',#241,#242,#243);
#241 = CARTESIAN_POINT('',(157.38939866642,-101.0463986664,0.));
#242 = DIRECTION('',(0.,0.,1.));
#243 = DIRECTION('',(2.667139247886E-06,-0.999999999996,0.));
#244 = ORIENTED_EDGE('',*,*,#245,.F.);
#245 = EDGE_CURVE('',#246,#237,#248,.T.);
#246 = VERTEX_POINT('',#247);
#247 = CARTESIAN_POINT('',(142.4074,-101.5464,0.));
#248 = LINE('',#249,#250);
#249 = CARTESIAN_POINT('',(142.4074,-101.5464,0.));
#250 = VECTOR('',#251,1.);
#251 = DIRECTION('',(1.,0.,0.));
#252 = ORIENTED_EDGE('',*,*,#253,.F.);
#253 = EDGE_CURVE('',#254,#246,#256,.T.);
#254 = VERTEX_POINT('',#255);
#255 = CARTESIAN_POINT('',(141.9074,-101.0464,0.));
#256 = CIRCLE('',#257,0.499999626461);
#257 = AXIS2_PLACEMENT_3D('',#258,#259,#260);
#258 = CARTESIAN_POINT('',(142.40739962646,-101.0464003735,0.));
#259 = DIRECTION('',(0.,0.,1.));
#260 = DIRECTION('',(-1.,7.470781223811E-07,0.));
#261 = ORIENTED_EDGE('',*,*,#262,.F.);
#262 = EDGE_CURVE('',#203,#254,#263,.T.);
#263 = LINE('',#264,#265);
#264 = CARTESIAN_POINT('',(141.9074,-88.6584,0.));
#265 = VECTOR('',#266,1.);
#266 = DIRECTION('',(0.,-1.,0.));
#267 = PLANE('',#268);
#268 = AXIS2_PLACEMENT_3D('',#269,#270,#271);
#269 = CARTESIAN_POINT('',(0.,0.,0.));
#270 = DIRECTION('',(0.,0.,1.));
#271 = DIRECTION('',(1.,0.,-0.));
#272 = ADVANCED_FACE('',(#273,#319,#330),#400,.T.);
#273 = FACE_BOUND('',#274,.T.);
#274 = EDGE_LOOP('',(#275,#276,#277,#286,#294,#303,#311,#318));
#275 = ORIENTED_EDGE('',*,*,#49,.F.);
#276 = ORIENTED_EDGE('',*,*,#91,.F.);
#277 = ORIENTED_EDGE('',*,*,#278,.F.);
#278 = EDGE_CURVE('',#279,#84,#281,.T.);
#279 = VERTEX_POINT('',#280);
#280 = CARTESIAN_POINT('',(138.7624,-84.3014,1.51));
#281 = CIRCLE('',#282,0.999999252925);
#282 = AXIS2_PLACEMENT_3D('',#283,#284,#285);
#283 = CARTESIAN_POINT('',(139.76239925292,-84.30139925292,1.51));
#284 = DIRECTION('',(0.,0.,-1.));
#285 = DIRECTION('',(-1.,-7.470757633756E-07,-0.));
#286 = ORIENTED_EDGE('',*,*,#287,.F.);
#287 = EDGE_CURVE('',#288,#279,#290,.T.);
#288 = VERTEX_POINT('',#289);
#289 = CARTESIAN_POINT('',(138.7624,-113.3514,1.51));
#290 = LINE('',#291,#292);
#291 = CARTESIAN_POINT('',(138.7624,-113.3514,1.51));
#292 = VECTOR('',#293,1.);
#293 = DIRECTION('',(0.,1.,0.));
#294 = ORIENTED_EDGE('',*,*,#295,.F.);
#295 = EDGE_CURVE('',#296,#288,#298,.T.);
#296 = VERTEX_POINT('',#297);
#297 = CARTESIAN_POINT('',(139.7624,-114.3514,1.51));
#298 = CIRCLE('',#299,1.000000960032);
#299 = AXIS2_PLACEMENT_3D('',#300,#301,#302);
#300 = CARTESIAN_POINT('',(139.76240096003,-113.3513990399,1.51));
#301 = DIRECTION('',(0.,0.,-1.));
#302 = DIRECTION('',(-9.600305069164E-07,-1.,-0.));
#303 = ORIENTED_EDGE('',*,*,#304,.F.);
#304 = EDGE_CURVE('',#305,#296,#307,.T.);
#305 = VERTEX_POINT('',#306);
#306 = CARTESIAN_POINT('',(160.2884,-114.3514,1.51));
#307 = LINE('',#308,#309);
#308 = CARTESIAN_POINT('',(160.2884,-114.3514,1.51));
#309 = VECTOR('',#310,1.);
#310 = DIRECTION('',(-1.,0.,0.));
#311 = ORIENTED_EDGE('',*,*,#312,.F.);
#312 = EDGE_CURVE('',#114,#305,#313,.T.);
#313 = CIRCLE('',#314,1.00000266715);
#314 = AXIS2_PLACEMENT_3D('',#315,#316,#317);
#315 = CARTESIAN_POINT('',(160.28839733285,-113.3513973328,1.51));
#316 = DIRECTION('',(0.,0.,-1.));
#317 = DIRECTION('',(0.999999999996,-2.667139176832E-06,0.));
#318 = ORIENTED_EDGE('',*,*,#113,.F.);
#319 = FACE_BOUND('',#320,.T.);
#320 = EDGE_LOOP('',(#321));
#321 = ORIENTED_EDGE('',*,*,#322,.T.);
#322 = EDGE_CURVE('',#323,#323,#325,.T.);
#323 = VERTEX_POINT('',#324);
#324 = CARTESIAN_POINT('',(150.,-111.2014,1.51));
#325 = CIRCLE('',#326,0.35);
#326 = AXIS2_PLACEMENT_3D('',#327,#328,#329);
#327 = CARTESIAN_POINT('',(150.,-110.8514,1.51));
#328 = DIRECTION('',(-0.,0.,-1.));
#329 = DIRECTION('',(-0.,-1.,0.));
#330 = FACE_BOUND('',#331,.T.);
#331 = EDGE_LOOP('',(#332,#343,#351,#360,#368,#377,#385,#394));
#332 = ORIENTED_EDGE('',*,*,#333,.F.);
#333 = EDGE_CURVE('',#334,#336,#338,.T.);
#334 = VERTEX_POINT('',#335);
#335 = CARTESIAN_POINT('',(142.4074,-88.1584,1.51));
#336 = VERTEX_POINT('',#337);
#337 = CARTESIAN_POINT('',(141.9074,-88.6584,1.51));
#338 = CIRCLE('',#339,0.49999791937);
#339 = AXIS2_PLACEMENT_3D('',#340,#341,#342);
#340 = CARTESIAN_POINT('',(142.40739791936,-88.65839791936,1.51));
#341 = DIRECTION('',(0.,0.,1.));
#342 = DIRECTION('',(4.16128589391E-06,0.999999999991,-0.));
#343 = ORIENTED_EDGE('',*,*,#344,.F.);
#344 = EDGE_CURVE('',#345,#334,#347,.T.);
#345 = VERTEX_POINT('',#346);
#346 = CARTESIAN_POINT('',(157.3894,-88.1584,1.51));
#347 = LINE('',#348,#349);
#348 = CARTESIAN_POINT('',(157.3894,-88.1584,1.51));
#349 = VECTOR('',#350,1.);
#350 = DIRECTION('',(-1.,0.,0.));
#351 = ORIENTED_EDGE('',*,*,#352,.F.);
#352 = EDGE_CURVE('',#353,#345,#355,.T.);
#353 = VERTEX_POINT('',#354);
#354 = CARTESIAN_POINT('',(157.8894,-88.6584,1.51));
#355 = CIRCLE('',#356,0.499999626461);
#356 = AXIS2_PLACEMENT_3D('',#357,#358,#359);
#357 = CARTESIAN_POINT('',(157.38940037353,-88.65839962646,1.51));
#358 = DIRECTION('',(0.,0.,1.));
#359 = DIRECTION('',(1.,-7.470781792245E-07,0.));
#360 = ORIENTED_EDGE('',*,*,#361,.F.);
#361 = EDGE_CURVE('',#362,#353,#364,.T.);
#362 = VERTEX_POINT('',#363);
#363 = CARTESIAN_POINT('',(157.8894,-101.0464,1.51));
#364 = LINE('',#365,#366);
#365 = CARTESIAN_POINT('',(157.8894,-101.0464,1.51));
#366 = VECTOR('',#367,1.);
#367 = DIRECTION('',(0.,1.,0.));
#368 = ORIENTED_EDGE('',*,*,#369,.F.);
#369 = EDGE_CURVE('',#370,#362,#372,.T.);
#370 = VERTEX_POINT('',#371);
#371 = CARTESIAN_POINT('',(157.3894,-101.5464,1.51));
#372 = CIRCLE('',#373,0.500001333575);
#373 = AXIS2_PLACEMENT_3D('',#374,#375,#376);
#374 = CARTESIAN_POINT('',(157.38939866642,-101.0463986664,1.51));
#375 = DIRECTION('',(0.,0.,1.));
#376 = DIRECTION('',(2.667139247886E-06,-0.999999999996,0.));
#377 = ORIENTED_EDGE('',*,*,#378,.F.);
#378 = EDGE_CURVE('',#379,#370,#381,.T.);
#379 = VERTEX_POINT('',#380);
#380 = CARTESIAN_POINT('',(142.4074,-101.5464,1.51));
#381 = LINE('',#382,#383);
#382 = CARTESIAN_POINT('',(142.4074,-101.5464,1.51));
#383 = VECTOR('',#384,1.);
#384 = DIRECTION('',(1.,0.,0.));
#385 = ORIENTED_EDGE('',*,*,#386,.F.);
#386 = EDGE_CURVE('',#387,#379,#389,.T.);
#387 = VERTEX_POINT('',#388);
#388 = CARTESIAN_POINT('',(141.9074,-101.0464,1.51));
#389 = CIRCLE('',#390,0.499999626461);
#390 = AXIS2_PLACEMENT_3D('',#391,#392,#393);
#391 = CARTESIAN_POINT('',(142.40739962646,-101.0464003735,1.51));
#392 = DIRECTION('',(0.,0.,1.));
#393 = DIRECTION('',(-1.,7.470781223811E-07,0.));
#394 = ORIENTED_EDGE('',*,*,#395,.F.);
#395 = EDGE_CURVE('',#336,#387,#396,.T.);
#396 = LINE('',#397,#398);
#397 = CARTESIAN_POINT('',(141.9074,-88.6584,1.51));
#398 = VECTOR('',#399,1.);
#399 = DIRECTION('',(0.,-1.,0.));
#400 = PLANE('',#401);
#401 = AXIS2_PLACEMENT_3D('',#402,#403,#404);
#402 = CARTESIAN_POINT('',(0.,0.,1.51));
#403 = DIRECTION('',(0.,0.,1.));
#404 = DIRECTION('',(1.,0.,-0.));
#405 = ADVANCED_FACE('',(#406),#417,.T.);
#406 = FACE_BOUND('',#407,.T.);
#407 = EDGE_LOOP('',(#408,#414,#415,#416));
#408 = ORIENTED_EDGE('',*,*,#409,.T.);
#409 = EDGE_CURVE('',#146,#279,#410,.T.);
#410 = LINE('',#411,#412);
#411 = CARTESIAN_POINT('',(138.7624,-84.3014,0.));
#412 = VECTOR('',#413,1.);
#413 = DIRECTION('',(0.,0.,1.));
#414 = ORIENTED_EDGE('',*,*,#278,.T.);
#415 = ORIENTED_EDGE('',*,*,#81,.F.);
#416 = ORIENTED_EDGE('',*,*,#145,.F.);
#417 = CYLINDRICAL_SURFACE('',#418,0.999999252925);
#418 = AXIS2_PLACEMENT_3D('',#419,#420,#421);
#419 = CARTESIAN_POINT('',(139.76239925292,-84.30139925292,0.));
#420 = DIRECTION('',(0.,0.,-1.));
#421 = DIRECTION('',(-1.,-7.470757633756E-07,-0.));
#422 = ADVANCED_FACE('',(#423),#434,.T.);
#423 = FACE_BOUND('',#424,.T.);
#424 = EDGE_LOOP('',(#425,#426,#427,#433));
#425 = ORIENTED_EDGE('',*,*,#121,.T.);
#426 = ORIENTED_EDGE('',*,*,#312,.T.);
#427 = ORIENTED_EDGE('',*,*,#428,.F.);
#428 = EDGE_CURVE('',#172,#305,#429,.T.);
#429 = LINE('',#430,#431);
#430 = CARTESIAN_POINT('',(160.2884,-114.3514,0.));
#431 = VECTOR('',#432,1.);
#432 = DIRECTION('',(0.,0.,1.));
#433 = ORIENTED_EDGE('',*,*,#179,.F.);
#434 = CYLINDRICAL_SURFACE('',#435,1.00000266715);
#435 = AXIS2_PLACEMENT_3D('',#436,#437,#438);
#436 = CARTESIAN_POINT('',(160.28839733285,-113.3513973328,0.));
#437 = DIRECTION('',(0.,0.,-1.));
#438 = DIRECTION('',(0.999999999996,-2.667139176832E-06,0.));
#439 = ADVANCED_FACE('',(#440),#451,.T.);
#440 = FACE_BOUND('',#441,.T.);
#441 = EDGE_LOOP('',(#442,#448,#449,#450));
#442 = ORIENTED_EDGE('',*,*,#443,.T.);
#443 = EDGE_CURVE('',#155,#288,#444,.T.);
#444 = LINE('',#445,#446);
#445 = CARTESIAN_POINT('',(138.7624,-113.3514,0.));
#446 = VECTOR('',#447,1.);
#447 = DIRECTION('',(0.,0.,1.));
#448 = ORIENTED_EDGE('',*,*,#287,.T.);
#449 = ORIENTED_EDGE('',*,*,#409,.F.);
#450 = ORIENTED_EDGE('',*,*,#154,.F.);
#451 = PLANE('',#452);
#452 = AXIS2_PLACEMENT_3D('',#453,#454,#455);
#453 = CARTESIAN_POINT('',(138.7624,-113.3514,0.));
#454 = DIRECTION('',(-1.,0.,0.));
#455 = DIRECTION('',(0.,1.,0.));
#456 = ADVANCED_FACE('',(#457),#468,.T.);
#457 = FACE_BOUND('',#458,.T.);
#458 = EDGE_LOOP('',(#459,#460,#461,#467));
#459 = ORIENTED_EDGE('',*,*,#428,.T.);
#460 = ORIENTED_EDGE('',*,*,#304,.T.);
#461 = ORIENTED_EDGE('',*,*,#462,.F.);
#462 = EDGE_CURVE('',#163,#296,#463,.T.);
#463 = LINE('',#464,#465);
#464 = CARTESIAN_POINT('',(139.7624,-114.3514,0.));
#465 = VECTOR('',#466,1.);
#466 = DIRECTION('',(0.,0.,1.));
#467 = ORIENTED_EDGE('',*,*,#171,.F.);
#468 = PLANE('',#469);
#469 = AXIS2_PLACEMENT_3D('',#470,#471,#472);
#470 = CARTESIAN_POINT('',(160.2884,-114.3514,0.));
#471 = DIRECTION('',(0.,-1.,0.));
#472 = DIRECTION('',(-1.,0.,0.));
#473 = ADVANCED_FACE('',(#474),#480,.T.);
#474 = FACE_BOUND('',#475,.T.);
#475 = EDGE_LOOP('',(#476,#477,#478,#479));
#476 = ORIENTED_EDGE('',*,*,#462,.T.);
#477 = ORIENTED_EDGE('',*,*,#295,.T.);
#478 = ORIENTED_EDGE('',*,*,#443,.F.);
#479 = ORIENTED_EDGE('',*,*,#162,.F.);
#480 = CYLINDRICAL_SURFACE('',#481,1.000000960032);
#481 = AXIS2_PLACEMENT_3D('',#482,#483,#484);
#482 = CARTESIAN_POINT('',(139.76240096003,-113.3513990399,0.));
#483 = DIRECTION('',(0.,0.,-1.));
#484 = DIRECTION('',(-9.600305069164E-07,-1.,-0.));
#485 = ADVANCED_FACE('',(#486),#497,.F.);
#486 = FACE_BOUND('',#487,.T.);
#487 = EDGE_LOOP('',(#488,#489,#495,#496));
#488 = ORIENTED_EDGE('',*,*,#189,.T.);
#489 = ORIENTED_EDGE('',*,*,#490,.T.);
#490 = EDGE_CURVE('',#190,#323,#491,.T.);
#491 = LINE('',#492,#493);
#492 = CARTESIAN_POINT('',(150.,-111.2014,-4.6E-02));
#493 = VECTOR('',#494,1.);
#494 = DIRECTION('',(0.,0.,1.));
#495 = ORIENTED_EDGE('',*,*,#322,.F.);
#496 = ORIENTED_EDGE('',*,*,#490,.F.);
#497 = CYLINDRICAL_SURFACE('',#498,0.35);
#498 = AXIS2_PLACEMENT_3D('',#499,#500,#501);
#499 = CARTESIAN_POINT('',(150.,-110.8514,-4.6E-02));
#500 = DIRECTION('',(-0.,-0.,-1.));
#501 = DIRECTION('',(-0.,-1.,0.));
#502 = ADVANCED_FACE('',(#503),#519,.F.);
#503 = FACE_BOUND('',#504,.T.);
#504 = EDGE_LOOP('',(#505,#511,#512,#518));
#505 = ORIENTED_EDGE('',*,*,#506,.T.);
#506 = EDGE_CURVE('',#201,#334,#507,.T.);
#507 = LINE('',#508,#509);
#508 = CARTESIAN_POINT('',(142.4074,-88.1584,0.));
#509 = VECTOR('',#510,1.);
#510 = DIRECTION('',(0.,0.,1.));
#511 = ORIENTED_EDGE('',*,*,#333,.T.);
#512 = ORIENTED_EDGE('',*,*,#513,.F.);
#513 = EDGE_CURVE('',#203,#336,#514,.T.);
#514 = LINE('',#515,#516);
#515 = CARTESIAN_POINT('',(141.9074,-88.6584,0.));
#516 = VECTOR('',#517,1.);
#517 = DIRECTION('',(0.,0.,1.));
#518 = ORIENTED_EDGE('',*,*,#200,.F.);
#519 = CYLINDRICAL_SURFACE('',#520,0.49999791937);
#520 = AXIS2_PLACEMENT_3D('',#521,#522,#523);
#521 = CARTESIAN_POINT('',(142.40739791936,-88.65839791936,0.));
#522 = DIRECTION('',(-0.,-0.,-1.));
#523 = DIRECTION('',(4.16128589391E-06,0.999999999991,-0.));
#524 = ADVANCED_FACE('',(#525),#536,.T.);
#525 = FACE_BOUND('',#526,.T.);
#526 = EDGE_LOOP('',(#527,#533,#534,#535));
#527 = ORIENTED_EDGE('',*,*,#528,.T.);
#528 = EDGE_CURVE('',#212,#345,#529,.T.);
#529 = LINE('',#530,#531);
#530 = CARTESIAN_POINT('',(157.3894,-88.1584,0.));
#531 = VECTOR('',#532,1.);
#532 = DIRECTION('',(0.,0.,1.));
#533 = ORIENTED_EDGE('',*,*,#344,.T.);
#534 = ORIENTED_EDGE('',*,*,#506,.F.);
#535 = ORIENTED_EDGE('',*,*,#211,.F.);
#536 = PLANE('',#537);
#537 = AXIS2_PLACEMENT_3D('',#538,#539,#540);
#538 = CARTESIAN_POINT('',(157.3894,-88.1584,0.));
#539 = DIRECTION('',(0.,-1.,0.));
#540 = DIRECTION('',(-1.,0.,0.));
#541 = ADVANCED_FACE('',(#542),#553,.T.);
#542 = FACE_BOUND('',#543,.T.);
#543 = EDGE_LOOP('',(#544,#545,#546,#552));
#544 = ORIENTED_EDGE('',*,*,#513,.T.);
#545 = ORIENTED_EDGE('',*,*,#395,.T.);
#546 = ORIENTED_EDGE('',*,*,#547,.F.);
#547 = EDGE_CURVE('',#254,#387,#548,.T.);
#548 = LINE('',#549,#550);
#549 = CARTESIAN_POINT('',(141.9074,-101.0464,0.));
#550 = VECTOR('',#551,1.);
#551 = DIRECTION('',(0.,0.,1.));
#552 = ORIENTED_EDGE('',*,*,#262,.F.);
#553 = PLANE('',#554);
#554 = AXIS2_PLACEMENT_3D('',#555,#556,#557);
#555 = CARTESIAN_POINT('',(141.9074,-88.6584,0.));
#556 = DIRECTION('',(1.,0.,-0.));
#557 = DIRECTION('',(0.,-1.,0.));
#558 = ADVANCED_FACE('',(#559),#570,.F.);
#559 = FACE_BOUND('',#560,.T.);
#560 = EDGE_LOOP('',(#561,#567,#568,#569));
#561 = ORIENTED_EDGE('',*,*,#562,.T.);
#562 = EDGE_CURVE('',#220,#353,#563,.T.);
#563 = LINE('',#564,#565);
#564 = CARTESIAN_POINT('',(157.8894,-88.6584,0.));
#565 = VECTOR('',#566,1.);
#566 = DIRECTION('',(0.,0.,1.));
#567 = ORIENTED_EDGE('',*,*,#352,.T.);
#568 = ORIENTED_EDGE('',*,*,#528,.F.);
#569 = ORIENTED_EDGE('',*,*,#219,.F.);
#570 = CYLINDRICAL_SURFACE('',#571,0.499999626461);
#571 = AXIS2_PLACEMENT_3D('',#572,#573,#574);
#572 = CARTESIAN_POINT('',(157.38940037353,-88.65839962646,0.));
#573 = DIRECTION('',(-0.,-0.,-1.));
#574 = DIRECTION('',(1.,-7.470781792245E-07,0.));
#575 = ADVANCED_FACE('',(#576),#587,.F.);
#576 = FACE_BOUND('',#577,.T.);
#577 = EDGE_LOOP('',(#578,#579,#580,#586));
#578 = ORIENTED_EDGE('',*,*,#547,.T.);
#579 = ORIENTED_EDGE('',*,*,#386,.T.);
#580 = ORIENTED_EDGE('',*,*,#581,.F.);
#581 = EDGE_CURVE('',#246,#379,#582,.T.);
#582 = LINE('',#583,#584);
#583 = CARTESIAN_POINT('',(142.4074,-101.5464,0.));
#584 = VECTOR('',#585,1.);
#585 = DIRECTION('',(0.,0.,1.));
#586 = ORIENTED_EDGE('',*,*,#253,.F.);
#587 = CYLINDRICAL_SURFACE('',#588,0.499999626461);
#588 = AXIS2_PLACEMENT_3D('',#589,#590,#591);
#589 = CARTESIAN_POINT('',(142.40739962646,-101.0464003735,0.));
#590 = DIRECTION('',(-0.,-0.,-1.));
#591 = DIRECTION('',(-1.,7.470781223811E-07,0.));
#592 = ADVANCED_FACE('',(#593),#604,.T.);
#593 = FACE_BOUND('',#594,.T.);
#594 = EDGE_LOOP('',(#595,#601,#602,#603));
#595 = ORIENTED_EDGE('',*,*,#596,.T.);
#596 = EDGE_CURVE('',#229,#362,#597,.T.);
#597 = LINE('',#598,#599);
#598 = CARTESIAN_POINT('',(157.8894,-101.0464,0.));
#599 = VECTOR('',#600,1.);
#600 = DIRECTION('',(0.,0.,1.));
#601 = ORIENTED_EDGE('',*,*,#361,.T.);
#602 = ORIENTED_EDGE('',*,*,#562,.F.);
#603 = ORIENTED_EDGE('',*,*,#228,.F.);
#604 = PLANE('',#605);
#605 = AXIS2_PLACEMENT_3D('',#606,#607,#608);
#606 = CARTESIAN_POINT('',(157.8894,-101.0464,0.));
#607 = DIRECTION('',(-1.,0.,0.));
#608 = DIRECTION('',(0.,1.,0.));
#609 = ADVANCED_FACE('',(#610),#621,.T.);
#610 = FACE_BOUND('',#611,.T.);
#611 = EDGE_LOOP('',(#612,#613,#614,#620));
#612 = ORIENTED_EDGE('',*,*,#581,.T.);
#613 = ORIENTED_EDGE('',*,*,#378,.T.);
#614 = ORIENTED_EDGE('',*,*,#615,.F.);
#615 = EDGE_CURVE('',#237,#370,#616,.T.);
#616 = LINE('',#617,#618);
#617 = CARTESIAN_POINT('',(157.3894,-101.5464,0.));
#618 = VECTOR('',#619,1.);
#619 = DIRECTION('',(0.,0.,1.));
#620 = ORIENTED_EDGE('',*,*,#245,.F.);
#621 = PLANE('',#622);
#622 = AXIS2_PLACEMENT_3D('',#623,#624,#625);
#623 = CARTESIAN_POINT('',(142.4074,-101.5464,0.));
#624 = DIRECTION('',(0.,1.,0.));
#625 = DIRECTION('',(1.,0.,0.));
#626 = ADVANCED_FACE('',(#627),#633,.F.);
#627 = FACE_BOUND('',#628,.T.);
#628 = EDGE_LOOP('',(#629,#630,#631,#632));
#629 = ORIENTED_EDGE('',*,*,#615,.T.);
#630 = ORIENTED_EDGE('',*,*,#369,.T.);
#631 = ORIENTED_EDGE('',*,*,#596,.F.);
#632 = ORIENTED_EDGE('',*,*,#236,.F.);
#633 = CYLINDRICAL_SURFACE('',#634,0.500001333575);
#634 = AXIS2_PLACEMENT_3D('',#635,#636,#637);
#635 = CARTESIAN_POINT('',(157.38939866642,-101.0463986664,0.));
#636 = DIRECTION('',(-0.,-0.,-1.));
#637 = DIRECTION('',(2.667139247886E-06,-0.999999999996,0.));
#638 = ( GEOMETRIC_REPRESENTATION_CONTEXT(3) 
GLOBAL_UNCERTAINTY_ASSIGNED_CONTEXT((#642)) GLOBAL_UNIT_ASSIGNED_CONTEXT
((#639,#640,#641)) REPRESENTATION_CONTEXT('Context #1',
  '3D Context with UNIT and UNCERTAINTY') );
#639 = ( LENGTH_UNIT() NAMED_UNIT(*) SI_UNIT(.MILLI.,.METRE.) );
#640 = ( NAMED_UNIT(*) PLANE_ANGLE_UNIT() SI_UNIT($,.RADIAN.) );
#641 = ( NAMED_UNIT(*) SI_UNIT($,.STERADIAN.) SOLID_ANGLE_UNIT() );
#642 = UNCERTAINTY_MEASURE_WITH_UNIT(LENGTH_MEASURE(1.E-07),#639,
  'distance_accuracy_value','confusion accuracy');
#643 = CONTEXT_DEPENDENT_SHAPE_REPRESENTATION(#644,#646);
#644 = ( REPRESENTATION_RELATIONSHIP('','',#32,#10) 
REPRESENTATION_RELATIONSHIP_WITH_TRANSFORMATION(#645) 
SHAPE_REPRESENTATION_RELATIONSHIP() );
#645 = ITEM_DEFINED_TRANSFORMATION('','',#11,#15);
#646 = PRODUCT_DEFINITION_SHAPE('Placement','Placement of an item',#647
  );
#647 = NEXT_ASSEMBLY_USAGE_OCCURRENCE('1','=>[0:1:1:2]','',#5,#27,$);
#648 = PRODUCT_RELATED_PRODUCT_CATEGORY('part',$,(#29));
#649 = MECHANICAL_DESIGN_GEOMETRIC_PRESENTATION_REPRESENTATION('',(#650)
  ,#638);
#650 = STYLED_ITEM('color',(#651),#33);
#651 = PRESENTATION_STYLE_ASSIGNMENT((#652));
#652 = SURFACE_STYLE_USAGE(.BOTH.,#653);
#653 = SURFACE_SIDE_STYLE('',(#654));
#654 = SURFACE_STYLE_FILL_AREA(#655);
#655 = FILL_AREA_STYLE('',(#656));
#656 = FILL_AREA_STYLE_COLOUR('',#657);
#657 = COLOUR_RGB('',0.313304153717,0.484529207832,0.410020903123);
ENDSEC;
END-ISO-10303-21;
