%TF.GenerationSoftware,KiCad,Pcbnew,(6.0.0-rc1-124-g18b4ebcc17)*%
%TF.CreationDate,2022-01-01T14:30:36+10:30*%
%TF.ProjectId,ring_pcb,72696e67-5f70-4636-922e-6b696361645f,rev?*%
%TF.SameCoordinates,Original*%
%TF.FileFunction,Copper,L1,Top*%
%TF.FilePolarity,Positive*%
%FSLAX46Y46*%
G04 Gerber Fmt 4.6, Leading zero omitted, Abs format (unit mm)*
G04 Created by KiCad (PCBNEW (6.0.0-rc1-124-g18b4ebcc17)) date 2022-01-01 14:30:36*
%MOMM*%
%LPD*%
G01*
G04 APERTURE LIST*
G04 Aperture macros list*
%AMRoundRect*
0 Rectangle with rounded corners*
0 $1 Rounding radius*
0 $2 $3 $4 $5 $6 $7 $8 $9 X,Y pos of 4 corners*
0 Add a 4 corners polygon primitive as box body*
4,1,4,$2,$3,$4,$5,$6,$7,$8,$9,$2,$3,0*
0 Add four circle primitives for the rounded corners*
1,1,$1+$1,$2,$3*
1,1,$1+$1,$4,$5*
1,1,$1+$1,$6,$7*
1,1,$1+$1,$8,$9*
0 Add four rect primitives between the rounded corners*
20,1,$1+$1,$2,$3,$4,$5,0*
20,1,$1+$1,$4,$5,$6,$7,0*
20,1,$1+$1,$6,$7,$8,$9,0*
20,1,$1+$1,$8,$9,$2,$3,0*%
G04 Aperture macros list end*
%TA.AperFunction,SMDPad,CuDef*%
%ADD10R,1.500000X1.500000*%
%TD*%
%TA.AperFunction,SMDPad,CuDef*%
%ADD11RoundRect,0.250000X0.176777X-0.707107X0.707107X-0.176777X-0.176777X0.707107X-0.707107X0.176777X0*%
%TD*%
%TA.AperFunction,SMDPad,CuDef*%
%ADD12RoundRect,0.250000X-0.707107X-0.176777X-0.176777X-0.707107X0.707107X0.176777X0.176777X0.707107X0*%
%TD*%
%TA.AperFunction,SMDPad,CuDef*%
%ADD13RoundRect,0.250000X-0.176777X0.707107X-0.707107X0.176777X0.176777X-0.707107X0.707107X-0.176777X0*%
%TD*%
%TA.AperFunction,SMDPad,CuDef*%
%ADD14RoundRect,0.250000X0.707107X0.176777X0.176777X0.707107X-0.707107X-0.176777X-0.176777X-0.707107X0*%
%TD*%
%TA.AperFunction,SMDPad,CuDef*%
%ADD15RoundRect,0.250000X-0.375000X-0.625000X0.375000X-0.625000X0.375000X0.625000X-0.375000X0.625000X0*%
%TD*%
%TA.AperFunction,SMDPad,CuDef*%
%ADD16RoundRect,0.250000X0.375000X0.625000X-0.375000X0.625000X-0.375000X-0.625000X0.375000X-0.625000X0*%
%TD*%
%TA.AperFunction,ViaPad*%
%ADD17C,0.800000*%
%TD*%
%TA.AperFunction,Conductor*%
%ADD18C,0.250000*%
%TD*%
G04 APERTURE END LIST*
D10*
%TO.P,TP8,1,1*%
%TO.N,GND*%
X137160000Y-106172000D03*
%TD*%
%TO.P,TP11,1,1*%
%TO.N,GND*%
X134569200Y-106172000D03*
%TD*%
D11*
%TO.P,D1,1,K*%
%TO.N,GND*%
X138710051Y-96874949D03*
%TO.P,D1,2,A*%
%TO.N,/N1*%
X140689949Y-94895051D03*
%TD*%
D12*
%TO.P,D2,1,K*%
%TO.N,GND*%
X138710051Y-101245051D03*
%TO.P,D2,2,A*%
%TO.N,/N2*%
X140689949Y-103224949D03*
%TD*%
D10*
%TO.P,TP10,1,1*%
%TO.N,GND*%
X139750800Y-91948000D03*
%TD*%
%TO.P,TP9,1,1*%
%TO.N,GND*%
X139750800Y-106172000D03*
%TD*%
D13*
%TO.P,D3,1,K*%
%TO.N,GND*%
X135609949Y-101245051D03*
%TO.P,D3,2,A*%
%TO.N,/N3*%
X133630051Y-103224949D03*
%TD*%
D14*
%TO.P,D6,1,K*%
%TO.N,GND*%
X135609949Y-96874949D03*
%TO.P,D6,2,A*%
%TO.N,/N6*%
X133630051Y-94895051D03*
%TD*%
D10*
%TO.P,TP12,1,1*%
%TO.N,GND*%
X134569200Y-91948000D03*
%TD*%
%TO.P,TP7,1,1*%
%TO.N,GND*%
X137160000Y-91948000D03*
%TD*%
D15*
%TO.P,D4,1,K*%
%TO.N,GND*%
X140205000Y-99060000D03*
%TO.P,D4,2,A*%
%TO.N,/N4*%
X143005000Y-99060000D03*
%TD*%
D16*
%TO.P,D5,1,K*%
%TO.N,GND*%
X134115000Y-99060000D03*
%TO.P,D5,2,A*%
%TO.N,/N5*%
X131315000Y-99060000D03*
%TD*%
D17*
%TO.N,/N1*%
X137958497Y-97855100D03*
%TO.N,/N3*%
X136412301Y-100315698D03*
%TO.N,/N4*%
X138980500Y-99060000D03*
%TO.N,/N5*%
X135339500Y-99060000D03*
%TO.N,/N6*%
X136412302Y-97804301D03*
%TO.N,/N2*%
X138040874Y-100182523D03*
%TD*%
D18*
%TO.N,/N1*%
X137958497Y-97855100D02*
X137428424Y-97325027D01*
X137428424Y-97325027D02*
X137428424Y-96460200D01*
X137428424Y-96460200D02*
X139793673Y-94094951D01*
X139889849Y-94094951D02*
X140689949Y-94895051D01*
X139793673Y-94094951D02*
X139889849Y-94094951D01*
%TO.N,/N3*%
X132892800Y-104648000D02*
X133903376Y-104648000D01*
X136891576Y-101659800D02*
X136891576Y-100794973D01*
X133903376Y-104648000D02*
X136891576Y-101659800D01*
X133630051Y-103224949D02*
X132892800Y-103962200D01*
X132892800Y-103962200D02*
X132892800Y-104648000D01*
X136891576Y-100794973D02*
X136412301Y-100315698D01*
%TO.N,/N4*%
X143005000Y-99060000D02*
X141805480Y-97860480D01*
X141805480Y-97860480D02*
X139592026Y-97860480D01*
X138980500Y-98472006D02*
X138980500Y-99060000D01*
X139592026Y-97860480D02*
X138980500Y-98472006D01*
%TO.N,/N5*%
X134727974Y-100259520D02*
X135339500Y-99647994D01*
X135339500Y-99647994D02*
X135339500Y-99060000D01*
X130175000Y-99060000D02*
X130175000Y-99695000D01*
X130175000Y-99695000D02*
X130739520Y-100259520D01*
X130739520Y-100259520D02*
X134727974Y-100259520D01*
X131315000Y-99060000D02*
X130175000Y-99060000D01*
%TO.N,/N6*%
X136020203Y-98196400D02*
X136412302Y-97804301D01*
X132892800Y-95854176D02*
X135235024Y-98196400D01*
X132892800Y-95632302D02*
X132892800Y-95808800D01*
X133630051Y-94895051D02*
X132892800Y-95632302D01*
X135235024Y-98196400D02*
X136020203Y-98196400D01*
X132892800Y-95808800D02*
X132892800Y-95854176D01*
%TO.N,/N2*%
X137428424Y-101659800D02*
X138993573Y-103224949D01*
X138040874Y-100182523D02*
X137428424Y-100794973D01*
X138993573Y-103224949D02*
X140689949Y-103224949D01*
X137428424Y-100794973D02*
X137428424Y-101659800D01*
%TD*%
%TA.AperFunction,Conductor*%
%TO.N,GND*%
G36*
X141217311Y-91136185D02*
G01*
X141223894Y-91142314D01*
X145505095Y-95423515D01*
X145539121Y-95485827D01*
X145542000Y-95512610D01*
X145542000Y-102607390D01*
X145521998Y-102675511D01*
X145505095Y-102696485D01*
X141223895Y-106977685D01*
X141161583Y-107011711D01*
X141090768Y-107006646D01*
X141033932Y-106964099D01*
X141009121Y-106897579D01*
X141008800Y-106888590D01*
X141008800Y-106444115D01*
X141004325Y-106428876D01*
X141002935Y-106427671D01*
X140995252Y-106426000D01*
X138510916Y-106426000D01*
X138496466Y-106430243D01*
X138434185Y-106432468D01*
X138404452Y-106426000D01*
X135920116Y-106426000D01*
X135905666Y-106430243D01*
X135843385Y-106432468D01*
X135813652Y-106426000D01*
X133329316Y-106426000D01*
X133314077Y-106430475D01*
X133312872Y-106431865D01*
X133311201Y-106439548D01*
X133311201Y-106888591D01*
X133291199Y-106956712D01*
X133237543Y-107003205D01*
X133167269Y-107013309D01*
X133102689Y-106983815D01*
X133096106Y-106977686D01*
X128814905Y-102696485D01*
X128780879Y-102634173D01*
X128778000Y-102607390D01*
X128778000Y-99019906D01*
X129537725Y-99019906D01*
X129541251Y-99075951D01*
X129541500Y-99083862D01*
X129541500Y-99616233D01*
X129540973Y-99627416D01*
X129539298Y-99634909D01*
X129539547Y-99642835D01*
X129539547Y-99642836D01*
X129541438Y-99702986D01*
X129541500Y-99706945D01*
X129541500Y-99734856D01*
X129541997Y-99738790D01*
X129541997Y-99738791D01*
X129542005Y-99738856D01*
X129542938Y-99750693D01*
X129544327Y-99794889D01*
X129548998Y-99810967D01*
X129549978Y-99814339D01*
X129553987Y-99833700D01*
X129556526Y-99853797D01*
X129559445Y-99861168D01*
X129559445Y-99861170D01*
X129572804Y-99894912D01*
X129576649Y-99906142D01*
X129588982Y-99948593D01*
X129593015Y-99955412D01*
X129593017Y-99955417D01*
X129599293Y-99966028D01*
X129607988Y-99983776D01*
X129615448Y-100002617D01*
X129620110Y-100009033D01*
X129620110Y-100009034D01*
X129641436Y-100038387D01*
X129647952Y-100048307D01*
X129670458Y-100086362D01*
X129684779Y-100100683D01*
X129697619Y-100115716D01*
X129709528Y-100132107D01*
X129741194Y-100158303D01*
X129743593Y-100160288D01*
X129752374Y-100168278D01*
X130235873Y-100651778D01*
X130243407Y-100660057D01*
X130247520Y-100666538D01*
X130297171Y-100713163D01*
X130300013Y-100715918D01*
X130319750Y-100735655D01*
X130322947Y-100738135D01*
X130331967Y-100745838D01*
X130364199Y-100776106D01*
X130371145Y-100779925D01*
X130371148Y-100779927D01*
X130381954Y-100785868D01*
X130398473Y-100796719D01*
X130414479Y-100809134D01*
X130421748Y-100812279D01*
X130421752Y-100812282D01*
X130455057Y-100826694D01*
X130465707Y-100831911D01*
X130504460Y-100853215D01*
X130512135Y-100855186D01*
X130512136Y-100855186D01*
X130524082Y-100858253D01*
X130542787Y-100864657D01*
X130561375Y-100872701D01*
X130569198Y-100873940D01*
X130569208Y-100873943D01*
X130605044Y-100879619D01*
X130616664Y-100882025D01*
X130648479Y-100890193D01*
X130659490Y-100893020D01*
X130679744Y-100893020D01*
X130699454Y-100894571D01*
X130719463Y-100897740D01*
X130727355Y-100896994D01*
X130763481Y-100893579D01*
X130775339Y-100893020D01*
X134018773Y-100893020D01*
X134086894Y-100913022D01*
X134133387Y-100966678D01*
X134144773Y-101018910D01*
X134144888Y-101149996D01*
X134146583Y-101164431D01*
X134184017Y-101322171D01*
X134188990Y-101335834D01*
X134261901Y-101481118D01*
X134269329Y-101492601D01*
X134329212Y-101566155D01*
X134333522Y-101570928D01*
X134616380Y-101853786D01*
X134630324Y-101861400D01*
X134632157Y-101861269D01*
X134638772Y-101857018D01*
X135520854Y-100974936D01*
X135583166Y-100940910D01*
X135653981Y-100945975D01*
X135699044Y-100974936D01*
X135880064Y-101155956D01*
X135914090Y-101218268D01*
X135909025Y-101289083D01*
X135880064Y-101334146D01*
X135001215Y-102212995D01*
X134993601Y-102226939D01*
X134993732Y-102228772D01*
X134997983Y-102235387D01*
X135119938Y-102357342D01*
X135153964Y-102419654D01*
X135148899Y-102490469D01*
X135119939Y-102535532D01*
X134920886Y-102734585D01*
X134858576Y-102768609D01*
X134787760Y-102763545D01*
X134742697Y-102734584D01*
X133953977Y-101945864D01*
X133871429Y-101878835D01*
X133865268Y-101875756D01*
X133865264Y-101875754D01*
X133719752Y-101803047D01*
X133719753Y-101803047D01*
X133713210Y-101799778D01*
X133647185Y-101784232D01*
X133548171Y-101760917D01*
X133548167Y-101760917D01*
X133541047Y-101759240D01*
X133533731Y-101759246D01*
X133533728Y-101759246D01*
X133452421Y-101759317D01*
X133364177Y-101759394D01*
X133278131Y-101779814D01*
X133199206Y-101798543D01*
X133199205Y-101798543D01*
X133192085Y-101800233D01*
X133034005Y-101879567D01*
X133028672Y-101883909D01*
X133028670Y-101883910D01*
X132955066Y-101943833D01*
X132955065Y-101943834D01*
X132952572Y-101945864D01*
X132350966Y-102547470D01*
X132348912Y-102550000D01*
X132348908Y-102550004D01*
X132317593Y-102588570D01*
X132283937Y-102630018D01*
X132280858Y-102636179D01*
X132280856Y-102636183D01*
X132231689Y-102734584D01*
X132204880Y-102788237D01*
X132193847Y-102835093D01*
X132177039Y-102906477D01*
X132164342Y-102960399D01*
X132164496Y-103137269D01*
X132166186Y-103144390D01*
X132195345Y-103267262D01*
X132205335Y-103309361D01*
X132208617Y-103315900D01*
X132208617Y-103315901D01*
X132281582Y-103461291D01*
X132281585Y-103461295D01*
X132284669Y-103467441D01*
X132322512Y-103513924D01*
X132350008Y-103579379D01*
X132340436Y-103643513D01*
X132325621Y-103677749D01*
X132320409Y-103688387D01*
X132299105Y-103727140D01*
X132297134Y-103734815D01*
X132297134Y-103734816D01*
X132294067Y-103746762D01*
X132287663Y-103765466D01*
X132283727Y-103774563D01*
X132279619Y-103784055D01*
X132278380Y-103791878D01*
X132278377Y-103791888D01*
X132272701Y-103827724D01*
X132270295Y-103839344D01*
X132265390Y-103858449D01*
X132259300Y-103882170D01*
X132259300Y-103902424D01*
X132257749Y-103922134D01*
X132254580Y-103942143D01*
X132255326Y-103950035D01*
X132258741Y-103986161D01*
X132259300Y-103998019D01*
X132259300Y-104576207D01*
X132257068Y-104599816D01*
X132255525Y-104607906D01*
X132256023Y-104615817D01*
X132259051Y-104663951D01*
X132259300Y-104671862D01*
X132259300Y-104687856D01*
X132261306Y-104703730D01*
X132262048Y-104711590D01*
X132265575Y-104767650D01*
X132268025Y-104775191D01*
X132268121Y-104775487D01*
X132273294Y-104798631D01*
X132273332Y-104798935D01*
X132273333Y-104798940D01*
X132274326Y-104806797D01*
X132277242Y-104814162D01*
X132277243Y-104814166D01*
X132294999Y-104859011D01*
X132297671Y-104866430D01*
X132315036Y-104919875D01*
X132319286Y-104926571D01*
X132319286Y-104926572D01*
X132319450Y-104926831D01*
X132330215Y-104947958D01*
X132330329Y-104948246D01*
X132330332Y-104948251D01*
X132333248Y-104955617D01*
X132337904Y-104962025D01*
X132337907Y-104962031D01*
X132366258Y-105001052D01*
X132370701Y-105007589D01*
X132400800Y-105055018D01*
X132406578Y-105060444D01*
X132406579Y-105060445D01*
X132406807Y-105060659D01*
X132422488Y-105078446D01*
X132427328Y-105085107D01*
X132433437Y-105090161D01*
X132433438Y-105090162D01*
X132470596Y-105120903D01*
X132476530Y-105126134D01*
X132511698Y-105159158D01*
X132511701Y-105159160D01*
X132517479Y-105164586D01*
X132524703Y-105168558D01*
X132544306Y-105181881D01*
X132544546Y-105182080D01*
X132544553Y-105182084D01*
X132550656Y-105187133D01*
X132590200Y-105205741D01*
X132601476Y-105211047D01*
X132608508Y-105214629D01*
X132657740Y-105241695D01*
X132665415Y-105243665D01*
X132665421Y-105243668D01*
X132665719Y-105243744D01*
X132688028Y-105251776D01*
X132688303Y-105251906D01*
X132688311Y-105251909D01*
X132695482Y-105255283D01*
X132750649Y-105265806D01*
X132758358Y-105267529D01*
X132792351Y-105276257D01*
X132805093Y-105279529D01*
X132805094Y-105279529D01*
X132812770Y-105281500D01*
X132821007Y-105281500D01*
X132844616Y-105283732D01*
X132844919Y-105283790D01*
X132844923Y-105283790D01*
X132852706Y-105285275D01*
X132908751Y-105281749D01*
X132916662Y-105281500D01*
X133185200Y-105281500D01*
X133253321Y-105301502D01*
X133299814Y-105355158D01*
X133311200Y-105407500D01*
X133311200Y-105899885D01*
X133315675Y-105915124D01*
X133317065Y-105916329D01*
X133324748Y-105918000D01*
X135809084Y-105918000D01*
X135823534Y-105913757D01*
X135885815Y-105911532D01*
X135915548Y-105918000D01*
X136887885Y-105918000D01*
X136903124Y-105913525D01*
X136904329Y-105912135D01*
X136906000Y-105904452D01*
X136906000Y-105899885D01*
X137414000Y-105899885D01*
X137418475Y-105915124D01*
X137419865Y-105916329D01*
X137427548Y-105918000D01*
X138399884Y-105918000D01*
X138414334Y-105913757D01*
X138476615Y-105911532D01*
X138506348Y-105918000D01*
X139478685Y-105918000D01*
X139493924Y-105913525D01*
X139495129Y-105912135D01*
X139496800Y-105904452D01*
X139496800Y-104932116D01*
X139492325Y-104916877D01*
X139490935Y-104915672D01*
X139483252Y-104914001D01*
X138956131Y-104914001D01*
X138949310Y-104914371D01*
X138898448Y-104919895D01*
X138883196Y-104923521D01*
X138762746Y-104968676D01*
X138747151Y-104977214D01*
X138645076Y-105053715D01*
X138632519Y-105066272D01*
X138556227Y-105168069D01*
X138499367Y-105210584D01*
X138428549Y-105215610D01*
X138366255Y-105181550D01*
X138354573Y-105168069D01*
X138278281Y-105066272D01*
X138265724Y-105053715D01*
X138163649Y-104977214D01*
X138148054Y-104968676D01*
X138027606Y-104923522D01*
X138012351Y-104919895D01*
X137961486Y-104914369D01*
X137954672Y-104914000D01*
X137432115Y-104914000D01*
X137416876Y-104918475D01*
X137415671Y-104919865D01*
X137414000Y-104927548D01*
X137414000Y-105899885D01*
X136906000Y-105899885D01*
X136906000Y-104932116D01*
X136901525Y-104916877D01*
X136900135Y-104915672D01*
X136892452Y-104914001D01*
X136365331Y-104914001D01*
X136358510Y-104914371D01*
X136307648Y-104919895D01*
X136292396Y-104923521D01*
X136171946Y-104968676D01*
X136156351Y-104977214D01*
X136054276Y-105053715D01*
X136041719Y-105066272D01*
X135965427Y-105168069D01*
X135908567Y-105210584D01*
X135837749Y-105215610D01*
X135775455Y-105181550D01*
X135763773Y-105168069D01*
X135687481Y-105066272D01*
X135674924Y-105053715D01*
X135572849Y-104977214D01*
X135557254Y-104968676D01*
X135436806Y-104923522D01*
X135421551Y-104919895D01*
X135370686Y-104914369D01*
X135363873Y-104914000D01*
X134837470Y-104914001D01*
X134769349Y-104893999D01*
X134722856Y-104840344D01*
X134712752Y-104770070D01*
X134742245Y-104705489D01*
X134748375Y-104698906D01*
X137070905Y-102376376D01*
X137133217Y-102342350D01*
X137204032Y-102347415D01*
X137249095Y-102376376D01*
X138489921Y-103617202D01*
X138497461Y-103625488D01*
X138501573Y-103631967D01*
X138507350Y-103637392D01*
X138551224Y-103678592D01*
X138554066Y-103681347D01*
X138573803Y-103701084D01*
X138577000Y-103703564D01*
X138586020Y-103711267D01*
X138618252Y-103741535D01*
X138625198Y-103745354D01*
X138625201Y-103745356D01*
X138636007Y-103751297D01*
X138652526Y-103762148D01*
X138668532Y-103774563D01*
X138675801Y-103777708D01*
X138675805Y-103777711D01*
X138709110Y-103792123D01*
X138719760Y-103797340D01*
X138758513Y-103818644D01*
X138766188Y-103820615D01*
X138766189Y-103820615D01*
X138778135Y-103823682D01*
X138796840Y-103830086D01*
X138815428Y-103838130D01*
X138823251Y-103839369D01*
X138823261Y-103839372D01*
X138859097Y-103845048D01*
X138870717Y-103847454D01*
X138905862Y-103856477D01*
X138913543Y-103858449D01*
X138933797Y-103858449D01*
X138953507Y-103860000D01*
X138973516Y-103863169D01*
X138981408Y-103862423D01*
X139017534Y-103859008D01*
X139029392Y-103858449D01*
X139315382Y-103858449D01*
X139383503Y-103878451D01*
X139408881Y-103899992D01*
X139410864Y-103902428D01*
X140012470Y-104504034D01*
X140095018Y-104571063D01*
X140101179Y-104574142D01*
X140101183Y-104574144D01*
X140168753Y-104607906D01*
X140253237Y-104650120D01*
X140317935Y-104665354D01*
X140379658Y-104700437D01*
X140412615Y-104763320D01*
X140406344Y-104834039D01*
X140362834Y-104890141D01*
X140289056Y-104914000D01*
X140022915Y-104914000D01*
X140007676Y-104918475D01*
X140006471Y-104919865D01*
X140004800Y-104927548D01*
X140004800Y-105899885D01*
X140009275Y-105915124D01*
X140010665Y-105916329D01*
X140018348Y-105918000D01*
X140990684Y-105918000D01*
X141005923Y-105913525D01*
X141007128Y-105912135D01*
X141008799Y-105904452D01*
X141008799Y-105377331D01*
X141008429Y-105370510D01*
X141002905Y-105319648D01*
X140999279Y-105304396D01*
X140954124Y-105183946D01*
X140945586Y-105168351D01*
X140869085Y-105066276D01*
X140856524Y-105053715D01*
X140754449Y-104977214D01*
X140738854Y-104968676D01*
X140618631Y-104923606D01*
X140561867Y-104880964D01*
X140537167Y-104814403D01*
X140552375Y-104745054D01*
X140602661Y-104694936D01*
X140633768Y-104683029D01*
X140767240Y-104651355D01*
X140767241Y-104651355D01*
X140774361Y-104649665D01*
X140780901Y-104646383D01*
X140926291Y-104573418D01*
X140926295Y-104573415D01*
X140932441Y-104570331D01*
X140937777Y-104565987D01*
X141011382Y-104506064D01*
X141011387Y-104506060D01*
X141013875Y-104504034D01*
X141969034Y-103548875D01*
X142036063Y-103466327D01*
X142039142Y-103460166D01*
X142039144Y-103460162D01*
X142111851Y-103314650D01*
X142115120Y-103308108D01*
X142130666Y-103242083D01*
X142153981Y-103143069D01*
X142153981Y-103143065D01*
X142155658Y-103135945D01*
X142155637Y-103110945D01*
X142155517Y-102974075D01*
X142155504Y-102959075D01*
X142114665Y-102786983D01*
X142102903Y-102763545D01*
X142038417Y-102635052D01*
X142035331Y-102628903D01*
X142002495Y-102588570D01*
X141971065Y-102549964D01*
X141971059Y-102549958D01*
X141969034Y-102547470D01*
X141367428Y-101945864D01*
X141284880Y-101878835D01*
X141278719Y-101875756D01*
X141278715Y-101875754D01*
X141133203Y-101803047D01*
X141133204Y-101803047D01*
X141126661Y-101799778D01*
X141060093Y-101784104D01*
X140961623Y-101760917D01*
X140961619Y-101760917D01*
X140954499Y-101759240D01*
X140947183Y-101759246D01*
X140947180Y-101759246D01*
X140865873Y-101759317D01*
X140777629Y-101759394D01*
X140691583Y-101779814D01*
X140612658Y-101798543D01*
X140612657Y-101798543D01*
X140605537Y-101800233D01*
X140598998Y-101803515D01*
X140598997Y-101803515D01*
X140453607Y-101876480D01*
X140453603Y-101876483D01*
X140447457Y-101879567D01*
X140442122Y-101883910D01*
X140442121Y-101883911D01*
X140368518Y-101943833D01*
X140366023Y-101945864D01*
X139757343Y-102554544D01*
X139695031Y-102588570D01*
X139668248Y-102591449D01*
X139308167Y-102591449D01*
X139240046Y-102571447D01*
X139219072Y-102554544D01*
X139200062Y-102535534D01*
X139166036Y-102473222D01*
X139171101Y-102402407D01*
X139200062Y-102357344D01*
X139318786Y-102238620D01*
X139326400Y-102224676D01*
X139326269Y-102222843D01*
X139322018Y-102216228D01*
X138439936Y-101334146D01*
X138405910Y-101271834D01*
X138410975Y-101201019D01*
X138439936Y-101155956D01*
X138620956Y-100974936D01*
X138683268Y-100940910D01*
X138754083Y-100945975D01*
X138799146Y-100974936D01*
X139677995Y-101853785D01*
X139691939Y-101861399D01*
X139693772Y-101861268D01*
X139700387Y-101857017D01*
X139986452Y-101570952D01*
X139990801Y-101566129D01*
X140051400Y-101491499D01*
X140058822Y-101479988D01*
X140131473Y-101334591D01*
X140136427Y-101320909D01*
X140173583Y-101163112D01*
X140175254Y-101148670D01*
X140175112Y-100986552D01*
X140173417Y-100972117D01*
X140135983Y-100814378D01*
X140131010Y-100800715D01*
X140058100Y-100655433D01*
X140050670Y-100643947D01*
X139990780Y-100570384D01*
X139986494Y-100565636D01*
X139981666Y-100560809D01*
X139947636Y-100498499D01*
X139947635Y-100444923D01*
X139951000Y-100429455D01*
X139951000Y-100424884D01*
X140459000Y-100424884D01*
X140463475Y-100440123D01*
X140464865Y-100441328D01*
X140472548Y-100442999D01*
X140627095Y-100442999D01*
X140633614Y-100442662D01*
X140729206Y-100432743D01*
X140742600Y-100429851D01*
X140896784Y-100378412D01*
X140909962Y-100372239D01*
X141047807Y-100286937D01*
X141059208Y-100277901D01*
X141173739Y-100163171D01*
X141182751Y-100151760D01*
X141267816Y-100013757D01*
X141273963Y-100000576D01*
X141325138Y-99846290D01*
X141328005Y-99832914D01*
X141337672Y-99738562D01*
X141338000Y-99732146D01*
X141338000Y-99332115D01*
X141333525Y-99316876D01*
X141332135Y-99315671D01*
X141324452Y-99314000D01*
X140477115Y-99314000D01*
X140461876Y-99318475D01*
X140460671Y-99319865D01*
X140459000Y-99327548D01*
X140459000Y-100424884D01*
X139951000Y-100424884D01*
X139951000Y-98932000D01*
X139971002Y-98863879D01*
X140024658Y-98817386D01*
X140077000Y-98806000D01*
X141319884Y-98806000D01*
X141335123Y-98801525D01*
X141336328Y-98800135D01*
X141337999Y-98792452D01*
X141337999Y-98619980D01*
X141358001Y-98551859D01*
X141411657Y-98505366D01*
X141463999Y-98493980D01*
X141490886Y-98493980D01*
X141559007Y-98513982D01*
X141579981Y-98530885D01*
X141834595Y-98785499D01*
X141868621Y-98847811D01*
X141871500Y-98874594D01*
X141871500Y-99735400D01*
X141871837Y-99738646D01*
X141871837Y-99738650D01*
X141881618Y-99832914D01*
X141882474Y-99841166D01*
X141938450Y-100008946D01*
X142031522Y-100159348D01*
X142156697Y-100284305D01*
X142162927Y-100288145D01*
X142162928Y-100288146D01*
X142300090Y-100372694D01*
X142307262Y-100377115D01*
X142387005Y-100403564D01*
X142468611Y-100430632D01*
X142468613Y-100430632D01*
X142475139Y-100432797D01*
X142481975Y-100433497D01*
X142481978Y-100433498D01*
X142525031Y-100437909D01*
X142579600Y-100443500D01*
X143430400Y-100443500D01*
X143433646Y-100443163D01*
X143433650Y-100443163D01*
X143529308Y-100433238D01*
X143529312Y-100433237D01*
X143536166Y-100432526D01*
X143542702Y-100430345D01*
X143542704Y-100430345D01*
X143674806Y-100386272D01*
X143703946Y-100376550D01*
X143854348Y-100283478D01*
X143979305Y-100158303D01*
X144072115Y-100007738D01*
X144127797Y-99839861D01*
X144129437Y-99823861D01*
X144137541Y-99744760D01*
X144138500Y-99735400D01*
X144138500Y-98384600D01*
X144131683Y-98318895D01*
X144128238Y-98285692D01*
X144128237Y-98285688D01*
X144127526Y-98278834D01*
X144071550Y-98111054D01*
X143978478Y-97960652D01*
X143853303Y-97835695D01*
X143847072Y-97831854D01*
X143708968Y-97746725D01*
X143708966Y-97746724D01*
X143702738Y-97742885D01*
X143622995Y-97716436D01*
X143541389Y-97689368D01*
X143541387Y-97689368D01*
X143534861Y-97687203D01*
X143528025Y-97686503D01*
X143528022Y-97686502D01*
X143484969Y-97682091D01*
X143430400Y-97676500D01*
X142579600Y-97676500D01*
X142576559Y-97676816D01*
X142507532Y-97660367D01*
X142480992Y-97640087D01*
X142309132Y-97468227D01*
X142301592Y-97459941D01*
X142297480Y-97453462D01*
X142275419Y-97432745D01*
X142247829Y-97406837D01*
X142244987Y-97404082D01*
X142225250Y-97384345D01*
X142222053Y-97381865D01*
X142213031Y-97374160D01*
X142180801Y-97343894D01*
X142173855Y-97340075D01*
X142173852Y-97340073D01*
X142163046Y-97334132D01*
X142146527Y-97323281D01*
X142146063Y-97322921D01*
X142130521Y-97310866D01*
X142123252Y-97307721D01*
X142123248Y-97307718D01*
X142089943Y-97293306D01*
X142079293Y-97288089D01*
X142040540Y-97266785D01*
X142020917Y-97261747D01*
X142002214Y-97255343D01*
X141990900Y-97250447D01*
X141990899Y-97250447D01*
X141983625Y-97247299D01*
X141975802Y-97246060D01*
X141975792Y-97246057D01*
X141939956Y-97240381D01*
X141928336Y-97237975D01*
X141893191Y-97228952D01*
X141893190Y-97228952D01*
X141885510Y-97226980D01*
X141865256Y-97226980D01*
X141845545Y-97225429D01*
X141833366Y-97223500D01*
X141825537Y-97222260D01*
X141817645Y-97223006D01*
X141781519Y-97226421D01*
X141769661Y-97226980D01*
X140301227Y-97226980D01*
X140233106Y-97206978D01*
X140186613Y-97153322D01*
X140175227Y-97101090D01*
X140175112Y-96970004D01*
X140173417Y-96955569D01*
X140135983Y-96797829D01*
X140131010Y-96784166D01*
X140058099Y-96638882D01*
X140050671Y-96627399D01*
X139990788Y-96553845D01*
X139986478Y-96549072D01*
X139703620Y-96266214D01*
X139689676Y-96258600D01*
X139687843Y-96258731D01*
X139681228Y-96262982D01*
X138799146Y-97145064D01*
X138736834Y-97179090D01*
X138666019Y-97174025D01*
X138620956Y-97145064D01*
X138439936Y-96964044D01*
X138405910Y-96901732D01*
X138410975Y-96830917D01*
X138439936Y-96785854D01*
X139318785Y-95907005D01*
X139326399Y-95893061D01*
X139326268Y-95891228D01*
X139322017Y-95884613D01*
X139200062Y-95762658D01*
X139166036Y-95700346D01*
X139171101Y-95629531D01*
X139200061Y-95584468D01*
X139399114Y-95385415D01*
X139461424Y-95351391D01*
X139532240Y-95356455D01*
X139577303Y-95385416D01*
X140366023Y-96174136D01*
X140448571Y-96241165D01*
X140454732Y-96244244D01*
X140454736Y-96244246D01*
X140558982Y-96296334D01*
X140606790Y-96320222D01*
X140655065Y-96331589D01*
X140771829Y-96359083D01*
X140771833Y-96359083D01*
X140778953Y-96360760D01*
X140786269Y-96360754D01*
X140786272Y-96360754D01*
X140867579Y-96360683D01*
X140955823Y-96360606D01*
X141095481Y-96327464D01*
X141120794Y-96321457D01*
X141120795Y-96321457D01*
X141127915Y-96319767D01*
X141174608Y-96296334D01*
X141279846Y-96243519D01*
X141285995Y-96240433D01*
X141291330Y-96236090D01*
X141364934Y-96176167D01*
X141364940Y-96176161D01*
X141367428Y-96174136D01*
X141969034Y-95572530D01*
X142036063Y-95489982D01*
X142039142Y-95483821D01*
X142039144Y-95483817D01*
X142102782Y-95356455D01*
X142115120Y-95331763D01*
X142142274Y-95216443D01*
X142153981Y-95166725D01*
X142153981Y-95166721D01*
X142155658Y-95159601D01*
X142155643Y-95141781D01*
X142155512Y-94992338D01*
X142155504Y-94982731D01*
X142127151Y-94863253D01*
X142116355Y-94817760D01*
X142116355Y-94817759D01*
X142114665Y-94810639D01*
X142111383Y-94804099D01*
X142038418Y-94658709D01*
X142038415Y-94658705D01*
X142035331Y-94652559D01*
X141969034Y-94571125D01*
X141013875Y-93615966D01*
X141008680Y-93611747D01*
X140936679Y-93553283D01*
X140931327Y-93548937D01*
X140925166Y-93545858D01*
X140925162Y-93545856D01*
X140794418Y-93480528D01*
X140773108Y-93469880D01*
X140765989Y-93468204D01*
X140765987Y-93468203D01*
X140633821Y-93437083D01*
X140572097Y-93402000D01*
X140539140Y-93339117D01*
X140545411Y-93268398D01*
X140588921Y-93212296D01*
X140618469Y-93196455D01*
X140738854Y-93151324D01*
X140754449Y-93142786D01*
X140856524Y-93066285D01*
X140869085Y-93053724D01*
X140945586Y-92951649D01*
X140954124Y-92936054D01*
X140999278Y-92815606D01*
X141002905Y-92800351D01*
X141008431Y-92749486D01*
X141008800Y-92742672D01*
X141008800Y-92220115D01*
X141004325Y-92204876D01*
X141002935Y-92203671D01*
X140995252Y-92202000D01*
X140022915Y-92202000D01*
X140007676Y-92206475D01*
X140006471Y-92207865D01*
X140004800Y-92215548D01*
X140004800Y-93187884D01*
X140009275Y-93203123D01*
X140010665Y-93204328D01*
X140018348Y-93205999D01*
X140289221Y-93205999D01*
X140357342Y-93226001D01*
X140403835Y-93279657D01*
X140413939Y-93349931D01*
X140384445Y-93414511D01*
X140318314Y-93454594D01*
X140259104Y-93468645D01*
X140259103Y-93468645D01*
X140251983Y-93470335D01*
X140245444Y-93473617D01*
X140245443Y-93473617D01*
X140242982Y-93474852D01*
X140210375Y-93491216D01*
X140140521Y-93503895D01*
X140122538Y-93500647D01*
X140105274Y-93496215D01*
X140086583Y-93489814D01*
X140075269Y-93484918D01*
X140075268Y-93484918D01*
X140067994Y-93481770D01*
X140060171Y-93480531D01*
X140060161Y-93480528D01*
X140024325Y-93474852D01*
X140012705Y-93472446D01*
X139977560Y-93463423D01*
X139977559Y-93463423D01*
X139969879Y-93461451D01*
X139949625Y-93461451D01*
X139929914Y-93459900D01*
X139917735Y-93457971D01*
X139909906Y-93456731D01*
X139875090Y-93460022D01*
X139857222Y-93460022D01*
X139853764Y-93459249D01*
X139845838Y-93459498D01*
X139845837Y-93459498D01*
X139785687Y-93461389D01*
X139781728Y-93461451D01*
X139753817Y-93461451D01*
X139749883Y-93461948D01*
X139749882Y-93461948D01*
X139749817Y-93461956D01*
X139737980Y-93462889D01*
X139706163Y-93463889D01*
X139701702Y-93464029D01*
X139693783Y-93464278D01*
X139680269Y-93468204D01*
X139674331Y-93469929D01*
X139654979Y-93473937D01*
X139647908Y-93474831D01*
X139634876Y-93476477D01*
X139627507Y-93479394D01*
X139627505Y-93479395D01*
X139593770Y-93492751D01*
X139582542Y-93496596D01*
X139540080Y-93508933D01*
X139533258Y-93512967D01*
X139533252Y-93512970D01*
X139522641Y-93519245D01*
X139504891Y-93527941D01*
X139493429Y-93532479D01*
X139493424Y-93532482D01*
X139486056Y-93535399D01*
X139479641Y-93540060D01*
X139450298Y-93561378D01*
X139440380Y-93567894D01*
X139421692Y-93578946D01*
X139402310Y-93590409D01*
X139387986Y-93604733D01*
X139372954Y-93617572D01*
X139356566Y-93629479D01*
X139328385Y-93663544D01*
X139320395Y-93672324D01*
X137036171Y-95956548D01*
X137027885Y-95964088D01*
X137021406Y-95968200D01*
X137015981Y-95973977D01*
X136974781Y-96017851D01*
X136972026Y-96020693D01*
X136952289Y-96040430D01*
X136949809Y-96043627D01*
X136942111Y-96052642D01*
X136931130Y-96064335D01*
X136869921Y-96100301D01*
X136798981Y-96097466D01*
X136778892Y-96088670D01*
X136766352Y-96081822D01*
X136764518Y-96081954D01*
X136757903Y-96086205D01*
X135699044Y-97145064D01*
X135636732Y-97179090D01*
X135565917Y-97174025D01*
X135520854Y-97145064D01*
X134642005Y-96266215D01*
X134628061Y-96258601D01*
X134626228Y-96258732D01*
X134619613Y-96262983D01*
X134497658Y-96384938D01*
X134435346Y-96418964D01*
X134364531Y-96413899D01*
X134319468Y-96384939D01*
X134120415Y-96185886D01*
X134086391Y-96123576D01*
X134091455Y-96052760D01*
X134120416Y-96007697D01*
X134232789Y-95895324D01*
X134993600Y-95895324D01*
X134993731Y-95897157D01*
X134997982Y-95903772D01*
X135597137Y-96502927D01*
X135611081Y-96510541D01*
X135612914Y-96510410D01*
X135619529Y-96506159D01*
X136395460Y-95730228D01*
X136403074Y-95716284D01*
X136402943Y-95714451D01*
X136398692Y-95707836D01*
X136289404Y-95598548D01*
X136284581Y-95594199D01*
X136209951Y-95533600D01*
X136198440Y-95526178D01*
X136053043Y-95453527D01*
X136039361Y-95448573D01*
X135881564Y-95411417D01*
X135867122Y-95409746D01*
X135705004Y-95409888D01*
X135690569Y-95411583D01*
X135532829Y-95449017D01*
X135519166Y-95453990D01*
X135373882Y-95526901D01*
X135362399Y-95534329D01*
X135288845Y-95594212D01*
X135284072Y-95598522D01*
X135001214Y-95881380D01*
X134993600Y-95895324D01*
X134232789Y-95895324D01*
X134909136Y-95218977D01*
X134926023Y-95198181D01*
X134971819Y-95141781D01*
X134976165Y-95136429D01*
X134979244Y-95130268D01*
X134979246Y-95130264D01*
X135051953Y-94984752D01*
X135055222Y-94978210D01*
X135085287Y-94850525D01*
X135094083Y-94813171D01*
X135094083Y-94813167D01*
X135095760Y-94806047D01*
X135095606Y-94629177D01*
X135054767Y-94457085D01*
X134975433Y-94299005D01*
X134971090Y-94293670D01*
X134911167Y-94220066D01*
X134911161Y-94220060D01*
X134909136Y-94217572D01*
X134307530Y-93615966D01*
X134302335Y-93611747D01*
X134230334Y-93553283D01*
X134224982Y-93548937D01*
X134218821Y-93545858D01*
X134218817Y-93545856D01*
X134088073Y-93480528D01*
X134066763Y-93469880D01*
X134002065Y-93454646D01*
X133940342Y-93419563D01*
X133907385Y-93356680D01*
X133913656Y-93285961D01*
X133957166Y-93229859D01*
X134030944Y-93206000D01*
X134297085Y-93206000D01*
X134312324Y-93201525D01*
X134313529Y-93200135D01*
X134315200Y-93192452D01*
X134315200Y-93187884D01*
X134823200Y-93187884D01*
X134827675Y-93203123D01*
X134829065Y-93204328D01*
X134836748Y-93205999D01*
X135363869Y-93205999D01*
X135370690Y-93205629D01*
X135421552Y-93200105D01*
X135436804Y-93196479D01*
X135557254Y-93151324D01*
X135572849Y-93142786D01*
X135674924Y-93066285D01*
X135687481Y-93053728D01*
X135763773Y-92951931D01*
X135820633Y-92909416D01*
X135891451Y-92904390D01*
X135953745Y-92938450D01*
X135965427Y-92951931D01*
X136041719Y-93053728D01*
X136054276Y-93066285D01*
X136156351Y-93142786D01*
X136171946Y-93151324D01*
X136292394Y-93196478D01*
X136307649Y-93200105D01*
X136358514Y-93205631D01*
X136365328Y-93206000D01*
X136887885Y-93206000D01*
X136903124Y-93201525D01*
X136904329Y-93200135D01*
X136906000Y-93192452D01*
X136906000Y-93187884D01*
X137414000Y-93187884D01*
X137418475Y-93203123D01*
X137419865Y-93204328D01*
X137427548Y-93205999D01*
X137954669Y-93205999D01*
X137961490Y-93205629D01*
X138012352Y-93200105D01*
X138027604Y-93196479D01*
X138148054Y-93151324D01*
X138163649Y-93142786D01*
X138265724Y-93066285D01*
X138278281Y-93053728D01*
X138354573Y-92951931D01*
X138411433Y-92909416D01*
X138482251Y-92904390D01*
X138544545Y-92938450D01*
X138556227Y-92951931D01*
X138632519Y-93053728D01*
X138645076Y-93066285D01*
X138747151Y-93142786D01*
X138762746Y-93151324D01*
X138883194Y-93196478D01*
X138898449Y-93200105D01*
X138949314Y-93205631D01*
X138956128Y-93206000D01*
X139478685Y-93206000D01*
X139493924Y-93201525D01*
X139495129Y-93200135D01*
X139496800Y-93192452D01*
X139496800Y-92220115D01*
X139492325Y-92204876D01*
X139490935Y-92203671D01*
X139483252Y-92202000D01*
X138510916Y-92202000D01*
X138496466Y-92206243D01*
X138434185Y-92208468D01*
X138404452Y-92202000D01*
X137432115Y-92202000D01*
X137416876Y-92206475D01*
X137415671Y-92207865D01*
X137414000Y-92215548D01*
X137414000Y-93187884D01*
X136906000Y-93187884D01*
X136906000Y-92220115D01*
X136901525Y-92204876D01*
X136900135Y-92203671D01*
X136892452Y-92202000D01*
X135920116Y-92202000D01*
X135905666Y-92206243D01*
X135843385Y-92208468D01*
X135813652Y-92202000D01*
X134841315Y-92202000D01*
X134826076Y-92206475D01*
X134824871Y-92207865D01*
X134823200Y-92215548D01*
X134823200Y-93187884D01*
X134315200Y-93187884D01*
X134315200Y-92220115D01*
X134310725Y-92204876D01*
X134309335Y-92203671D01*
X134301652Y-92202000D01*
X133329316Y-92202000D01*
X133314077Y-92206475D01*
X133312872Y-92207865D01*
X133311201Y-92215548D01*
X133311201Y-92742669D01*
X133311571Y-92749490D01*
X133317095Y-92800352D01*
X133320721Y-92815604D01*
X133365876Y-92936054D01*
X133374414Y-92951649D01*
X133450915Y-93053724D01*
X133463476Y-93066285D01*
X133565551Y-93142786D01*
X133581146Y-93151324D01*
X133701369Y-93196394D01*
X133758133Y-93239036D01*
X133782833Y-93305597D01*
X133767625Y-93374946D01*
X133717339Y-93425064D01*
X133686232Y-93436971D01*
X133552760Y-93468645D01*
X133552759Y-93468645D01*
X133545639Y-93470335D01*
X133539100Y-93473617D01*
X133539099Y-93473617D01*
X133393709Y-93546582D01*
X133393705Y-93546585D01*
X133387559Y-93549669D01*
X133382224Y-93554012D01*
X133382223Y-93554013D01*
X133308653Y-93613908D01*
X133306125Y-93615966D01*
X132350966Y-94571125D01*
X132283937Y-94653673D01*
X132280858Y-94659834D01*
X132280856Y-94659838D01*
X132225479Y-94770667D01*
X132204880Y-94811892D01*
X132203204Y-94819011D01*
X132166830Y-94973490D01*
X132164342Y-94984055D01*
X132164348Y-94991371D01*
X132164348Y-94991374D01*
X132164402Y-95052556D01*
X132164496Y-95160925D01*
X132205335Y-95333017D01*
X132208617Y-95339556D01*
X132208617Y-95339557D01*
X132257118Y-95436200D01*
X132269796Y-95506055D01*
X132266546Y-95524050D01*
X132261271Y-95544593D01*
X132261270Y-95544597D01*
X132259300Y-95552272D01*
X132259300Y-95572526D01*
X132257749Y-95592236D01*
X132254580Y-95612245D01*
X132255326Y-95620137D01*
X132258741Y-95656263D01*
X132259300Y-95668121D01*
X132259300Y-95775409D01*
X132258773Y-95786592D01*
X132257098Y-95794085D01*
X132257347Y-95802011D01*
X132257347Y-95802012D01*
X132259238Y-95862162D01*
X132259300Y-95866121D01*
X132259300Y-95894032D01*
X132259797Y-95897966D01*
X132259797Y-95897967D01*
X132259805Y-95898032D01*
X132260738Y-95909869D01*
X132262127Y-95954065D01*
X132266234Y-95968200D01*
X132267778Y-95973515D01*
X132271787Y-95992876D01*
X132274326Y-96012973D01*
X132277245Y-96020344D01*
X132277245Y-96020346D01*
X132290604Y-96054088D01*
X132294449Y-96065318D01*
X132306782Y-96107769D01*
X132310815Y-96114588D01*
X132310817Y-96114593D01*
X132317093Y-96125204D01*
X132325788Y-96142952D01*
X132333248Y-96161793D01*
X132337910Y-96168209D01*
X132337910Y-96168210D01*
X132359236Y-96197563D01*
X132365752Y-96207483D01*
X132383102Y-96236819D01*
X132388258Y-96245538D01*
X132402579Y-96259859D01*
X132415419Y-96274892D01*
X132427328Y-96291283D01*
X132433434Y-96296334D01*
X132461405Y-96319474D01*
X132470184Y-96327464D01*
X133624842Y-97482123D01*
X133658868Y-97544435D01*
X133653803Y-97615251D01*
X133611256Y-97672086D01*
X133575623Y-97690742D01*
X133423216Y-97741588D01*
X133410038Y-97747761D01*
X133272193Y-97833063D01*
X133260792Y-97842099D01*
X133146261Y-97956829D01*
X133137249Y-97968240D01*
X133052184Y-98106243D01*
X133046037Y-98119424D01*
X132994862Y-98273710D01*
X132991995Y-98287086D01*
X132982328Y-98381438D01*
X132982000Y-98387855D01*
X132982000Y-98787885D01*
X132986475Y-98803124D01*
X132987865Y-98804329D01*
X132995548Y-98806000D01*
X134243000Y-98806000D01*
X134311121Y-98826002D01*
X134357614Y-98879658D01*
X134369000Y-98932000D01*
X134369000Y-99188000D01*
X134348998Y-99256121D01*
X134295342Y-99302614D01*
X134243000Y-99314000D01*
X133000116Y-99314000D01*
X132984877Y-99318475D01*
X132983672Y-99319865D01*
X132982001Y-99327548D01*
X132982001Y-99500020D01*
X132961999Y-99568141D01*
X132908343Y-99614634D01*
X132856001Y-99626020D01*
X132574500Y-99626020D01*
X132506379Y-99606018D01*
X132459886Y-99552362D01*
X132448500Y-99500020D01*
X132448500Y-98384600D01*
X132441683Y-98318895D01*
X132438238Y-98285692D01*
X132438237Y-98285688D01*
X132437526Y-98278834D01*
X132381550Y-98111054D01*
X132288478Y-97960652D01*
X132163303Y-97835695D01*
X132157072Y-97831854D01*
X132018968Y-97746725D01*
X132018966Y-97746724D01*
X132012738Y-97742885D01*
X131932995Y-97716436D01*
X131851389Y-97689368D01*
X131851387Y-97689368D01*
X131844861Y-97687203D01*
X131838025Y-97686503D01*
X131838022Y-97686502D01*
X131794969Y-97682091D01*
X131740400Y-97676500D01*
X130889600Y-97676500D01*
X130886354Y-97676837D01*
X130886350Y-97676837D01*
X130790692Y-97686762D01*
X130790688Y-97686763D01*
X130783834Y-97687474D01*
X130777298Y-97689655D01*
X130777296Y-97689655D01*
X130743843Y-97700816D01*
X130616054Y-97743450D01*
X130465652Y-97836522D01*
X130340695Y-97961697D01*
X130247885Y-98112262D01*
X130192203Y-98280139D01*
X130191502Y-98286977D01*
X130191502Y-98286979D01*
X130188232Y-98318895D01*
X130161390Y-98384622D01*
X130103275Y-98425404D01*
X130070800Y-98431803D01*
X130063263Y-98432277D01*
X130063262Y-98432277D01*
X130055350Y-98432775D01*
X130047809Y-98435225D01*
X130047513Y-98435321D01*
X130024369Y-98440494D01*
X130024065Y-98440532D01*
X130024060Y-98440533D01*
X130016203Y-98441526D01*
X130008838Y-98444442D01*
X130008834Y-98444443D01*
X129963989Y-98462199D01*
X129956570Y-98464871D01*
X129903125Y-98482236D01*
X129896429Y-98486486D01*
X129896428Y-98486486D01*
X129896169Y-98486650D01*
X129875042Y-98497415D01*
X129874754Y-98497529D01*
X129874749Y-98497532D01*
X129867383Y-98500448D01*
X129860975Y-98505104D01*
X129860969Y-98505107D01*
X129821948Y-98533458D01*
X129815411Y-98537901D01*
X129767982Y-98568000D01*
X129762556Y-98573778D01*
X129762555Y-98573779D01*
X129762341Y-98574007D01*
X129744554Y-98589688D01*
X129744309Y-98589866D01*
X129744307Y-98589868D01*
X129737893Y-98594528D01*
X129732839Y-98600637D01*
X129732838Y-98600638D01*
X129702097Y-98637796D01*
X129696866Y-98643730D01*
X129663842Y-98678898D01*
X129663840Y-98678901D01*
X129658414Y-98684679D01*
X129654445Y-98691899D01*
X129641119Y-98711506D01*
X129640920Y-98711746D01*
X129640916Y-98711753D01*
X129635867Y-98717856D01*
X129620135Y-98751289D01*
X129611953Y-98768676D01*
X129608371Y-98775708D01*
X129581305Y-98824940D01*
X129579335Y-98832615D01*
X129579332Y-98832621D01*
X129579256Y-98832919D01*
X129571224Y-98855228D01*
X129571094Y-98855503D01*
X129571091Y-98855511D01*
X129567717Y-98862682D01*
X129566231Y-98870474D01*
X129557195Y-98917843D01*
X129555471Y-98925558D01*
X129541500Y-98979970D01*
X129541500Y-98988207D01*
X129539268Y-99011816D01*
X129537725Y-99019906D01*
X128778000Y-99019906D01*
X128778000Y-95512610D01*
X128798002Y-95444489D01*
X128814905Y-95423515D01*
X133096105Y-91142315D01*
X133158417Y-91108289D01*
X133229232Y-91113354D01*
X133286068Y-91155901D01*
X133310879Y-91222421D01*
X133311200Y-91231410D01*
X133311200Y-91675885D01*
X133315675Y-91691124D01*
X133317065Y-91692329D01*
X133324748Y-91694000D01*
X135809084Y-91694000D01*
X135823534Y-91689757D01*
X135885815Y-91687532D01*
X135915548Y-91694000D01*
X138399884Y-91694000D01*
X138414334Y-91689757D01*
X138476615Y-91687532D01*
X138506348Y-91694000D01*
X140990684Y-91694000D01*
X141005923Y-91689525D01*
X141007128Y-91688135D01*
X141008799Y-91680452D01*
X141008799Y-91231409D01*
X141028801Y-91163288D01*
X141082457Y-91116795D01*
X141152731Y-91106691D01*
X141217311Y-91136185D01*
G37*
%TD.AperFunction*%
%TD*%
M02*
