G04 #@! TF.GenerationSoftware,KiCad,Pcbnew,(5.99.0-8018-g9a0f685a75)*
G04 #@! TF.CreationDate,2021-11-19T00:05:58+10:30*
G04 #@! TF.ProjectId,ring_pcb,72696e67-5f70-4636-922e-6b696361645f,rev?*
G04 #@! TF.SameCoordinates,Original*
G04 #@! TF.FileFunction,Legend,Bot*
G04 #@! TF.FilePolarity,Positive*
%FSLAX46Y46*%
G04 Gerber Fmt 4.6, Leading zero omitted, Abs format (unit mm)*
G04 Created by KiCad (PCBNEW (5.99.0-8018-g9a0f685a75)) date 2021-11-19 00:05:58*
%MOMM*%
%LPD*%
G01*
G04 APERTURE LIST*
%ADD10C,0.150000*%
G04 APERTURE END LIST*
D10*
X140788571Y-98365428D02*
X141074285Y-98365428D01*
X141074285Y-97765428D01*
X140331428Y-98365428D02*
X140331428Y-98051142D01*
X140360000Y-97994000D01*
X140417142Y-97965428D01*
X140531428Y-97965428D01*
X140588571Y-97994000D01*
X140331428Y-98336857D02*
X140388571Y-98365428D01*
X140531428Y-98365428D01*
X140588571Y-98336857D01*
X140617142Y-98279714D01*
X140617142Y-98222571D01*
X140588571Y-98165428D01*
X140531428Y-98136857D01*
X140388571Y-98136857D01*
X140331428Y-98108285D01*
X140045714Y-97965428D02*
X140045714Y-98365428D01*
X140045714Y-98022571D02*
X140017142Y-97994000D01*
X139960000Y-97965428D01*
X139874285Y-97965428D01*
X139817142Y-97994000D01*
X139788571Y-98051142D01*
X139788571Y-98365428D01*
X139588571Y-97965428D02*
X139360000Y-97965428D01*
X139502857Y-97765428D02*
X139502857Y-98279714D01*
X139474285Y-98336857D01*
X139417142Y-98365428D01*
X139360000Y-98365428D01*
X138931428Y-98336857D02*
X138988571Y-98365428D01*
X139102857Y-98365428D01*
X139160000Y-98336857D01*
X139188571Y-98279714D01*
X139188571Y-98051142D01*
X139160000Y-97994000D01*
X139102857Y-97965428D01*
X138988571Y-97965428D01*
X138931428Y-97994000D01*
X138902857Y-98051142D01*
X138902857Y-98108285D01*
X139188571Y-98165428D01*
X138645714Y-98365428D02*
X138645714Y-97965428D01*
X138645714Y-98079714D02*
X138617142Y-98022571D01*
X138588571Y-97994000D01*
X138531428Y-97965428D01*
X138474285Y-97965428D01*
X138274285Y-97965428D02*
X138274285Y-98365428D01*
X138274285Y-98022571D02*
X138245714Y-97994000D01*
X138188571Y-97965428D01*
X138102857Y-97965428D01*
X138045714Y-97994000D01*
X138017142Y-98051142D01*
X138017142Y-98365428D01*
X136931428Y-98365428D02*
X137131428Y-98079714D01*
X137274285Y-98365428D02*
X137274285Y-97765428D01*
X137045714Y-97765428D01*
X136988571Y-97794000D01*
X136960000Y-97822571D01*
X136931428Y-97879714D01*
X136931428Y-97965428D01*
X136960000Y-98022571D01*
X136988571Y-98051142D01*
X137045714Y-98079714D01*
X137274285Y-98079714D01*
X136674285Y-98365428D02*
X136674285Y-97965428D01*
X136674285Y-97765428D02*
X136702857Y-97794000D01*
X136674285Y-97822571D01*
X136645714Y-97794000D01*
X136674285Y-97765428D01*
X136674285Y-97822571D01*
X136388571Y-97965428D02*
X136388571Y-98365428D01*
X136388571Y-98022571D02*
X136360000Y-97994000D01*
X136302857Y-97965428D01*
X136217142Y-97965428D01*
X136160000Y-97994000D01*
X136131428Y-98051142D01*
X136131428Y-98365428D01*
X135588571Y-97965428D02*
X135588571Y-98451142D01*
X135617142Y-98508285D01*
X135645714Y-98536857D01*
X135702857Y-98565428D01*
X135788571Y-98565428D01*
X135845714Y-98536857D01*
X135588571Y-98336857D02*
X135645714Y-98365428D01*
X135760000Y-98365428D01*
X135817142Y-98336857D01*
X135845714Y-98308285D01*
X135874285Y-98251142D01*
X135874285Y-98079714D01*
X135845714Y-98022571D01*
X135817142Y-97994000D01*
X135760000Y-97965428D01*
X135645714Y-97965428D01*
X135588571Y-97994000D01*
X134902857Y-97965428D02*
X134760000Y-98365428D01*
X134617142Y-97965428D01*
X134274285Y-97765428D02*
X134217142Y-97765428D01*
X134160000Y-97794000D01*
X134131428Y-97822571D01*
X134102857Y-97879714D01*
X134074285Y-97994000D01*
X134074285Y-98136857D01*
X134102857Y-98251142D01*
X134131428Y-98308285D01*
X134160000Y-98336857D01*
X134217142Y-98365428D01*
X134274285Y-98365428D01*
X134331428Y-98336857D01*
X134360000Y-98308285D01*
X134388571Y-98251142D01*
X134417142Y-98136857D01*
X134417142Y-97994000D01*
X134388571Y-97879714D01*
X134360000Y-97822571D01*
X134331428Y-97794000D01*
X134274285Y-97765428D01*
X133817142Y-98308285D02*
X133788571Y-98336857D01*
X133817142Y-98365428D01*
X133845714Y-98336857D01*
X133817142Y-98308285D01*
X133817142Y-98365428D01*
X133217142Y-98365428D02*
X133560000Y-98365428D01*
X133388571Y-98365428D02*
X133388571Y-97765428D01*
X133445714Y-97851142D01*
X133502857Y-97908285D01*
X133560000Y-97936857D01*
X139474285Y-98731428D02*
X139360000Y-98731428D01*
X139302857Y-98760000D01*
X139245714Y-98817142D01*
X139217142Y-98931428D01*
X139217142Y-99131428D01*
X139245714Y-99245714D01*
X139302857Y-99302857D01*
X139360000Y-99331428D01*
X139474285Y-99331428D01*
X139531428Y-99302857D01*
X139588571Y-99245714D01*
X139617142Y-99131428D01*
X139617142Y-98931428D01*
X139588571Y-98817142D01*
X139531428Y-98760000D01*
X139474285Y-98731428D01*
X138988571Y-99302857D02*
X138902857Y-99331428D01*
X138760000Y-99331428D01*
X138702857Y-99302857D01*
X138674285Y-99274285D01*
X138645714Y-99217142D01*
X138645714Y-99160000D01*
X138674285Y-99102857D01*
X138702857Y-99074285D01*
X138760000Y-99045714D01*
X138874285Y-99017142D01*
X138931428Y-98988571D01*
X138960000Y-98960000D01*
X138988571Y-98902857D01*
X138988571Y-98845714D01*
X138960000Y-98788571D01*
X138931428Y-98760000D01*
X138874285Y-98731428D01*
X138731428Y-98731428D01*
X138645714Y-98760000D01*
X138388571Y-99331428D02*
X138388571Y-98731428D01*
X138388571Y-99017142D02*
X138045714Y-99017142D01*
X138045714Y-99331428D02*
X138045714Y-98731428D01*
X137817142Y-98731428D02*
X137674285Y-99331428D01*
X137560000Y-98902857D01*
X137445714Y-99331428D01*
X137302857Y-98731428D01*
X136702857Y-98731428D02*
X136360000Y-98731428D01*
X136531428Y-99331428D02*
X136531428Y-98731428D01*
X136188571Y-99160000D02*
X135902857Y-99160000D01*
X136245714Y-99331428D02*
X136045714Y-98731428D01*
X135845714Y-99331428D01*
X135645714Y-99331428D02*
X135645714Y-98731428D01*
X135417142Y-98731428D01*
X135360000Y-98760000D01*
X135331428Y-98788571D01*
X135302857Y-98845714D01*
X135302857Y-98931428D01*
X135331428Y-98988571D01*
X135360000Y-99017142D01*
X135417142Y-99045714D01*
X135645714Y-99045714D01*
X134702857Y-99331428D02*
X134902857Y-99045714D01*
X135045714Y-99331428D02*
X135045714Y-98731428D01*
X134817142Y-98731428D01*
X134760000Y-98760000D01*
X134731428Y-98788571D01*
X134702857Y-98845714D01*
X134702857Y-98931428D01*
X134731428Y-98988571D01*
X134760000Y-99017142D01*
X134817142Y-99045714D01*
X135045714Y-99045714D01*
X141645714Y-100297428D02*
X141645714Y-99697428D01*
X141645714Y-100268857D02*
X141702857Y-100297428D01*
X141817142Y-100297428D01*
X141874285Y-100268857D01*
X141902857Y-100240285D01*
X141931428Y-100183142D01*
X141931428Y-100011714D01*
X141902857Y-99954571D01*
X141874285Y-99926000D01*
X141817142Y-99897428D01*
X141702857Y-99897428D01*
X141645714Y-99926000D01*
X141131428Y-100268857D02*
X141188571Y-100297428D01*
X141302857Y-100297428D01*
X141360000Y-100268857D01*
X141388571Y-100211714D01*
X141388571Y-99983142D01*
X141360000Y-99926000D01*
X141302857Y-99897428D01*
X141188571Y-99897428D01*
X141131428Y-99926000D01*
X141102857Y-99983142D01*
X141102857Y-100040285D01*
X141388571Y-100097428D01*
X140874285Y-100268857D02*
X140817142Y-100297428D01*
X140702857Y-100297428D01*
X140645714Y-100268857D01*
X140617142Y-100211714D01*
X140617142Y-100183142D01*
X140645714Y-100126000D01*
X140702857Y-100097428D01*
X140788571Y-100097428D01*
X140845714Y-100068857D01*
X140874285Y-100011714D01*
X140874285Y-99983142D01*
X140845714Y-99926000D01*
X140788571Y-99897428D01*
X140702857Y-99897428D01*
X140645714Y-99926000D01*
X140360000Y-100297428D02*
X140360000Y-99897428D01*
X140360000Y-99697428D02*
X140388571Y-99726000D01*
X140360000Y-99754571D01*
X140331428Y-99726000D01*
X140360000Y-99697428D01*
X140360000Y-99754571D01*
X139817142Y-99897428D02*
X139817142Y-100383142D01*
X139845714Y-100440285D01*
X139874285Y-100468857D01*
X139931428Y-100497428D01*
X140017142Y-100497428D01*
X140074285Y-100468857D01*
X139817142Y-100268857D02*
X139874285Y-100297428D01*
X139988571Y-100297428D01*
X140045714Y-100268857D01*
X140074285Y-100240285D01*
X140102857Y-100183142D01*
X140102857Y-100011714D01*
X140074285Y-99954571D01*
X140045714Y-99926000D01*
X139988571Y-99897428D01*
X139874285Y-99897428D01*
X139817142Y-99926000D01*
X139531428Y-99897428D02*
X139531428Y-100297428D01*
X139531428Y-99954571D02*
X139502857Y-99926000D01*
X139445714Y-99897428D01*
X139360000Y-99897428D01*
X139302857Y-99926000D01*
X139274285Y-99983142D01*
X139274285Y-100297428D01*
X138760000Y-100268857D02*
X138817142Y-100297428D01*
X138931428Y-100297428D01*
X138988571Y-100268857D01*
X139017142Y-100211714D01*
X139017142Y-99983142D01*
X138988571Y-99926000D01*
X138931428Y-99897428D01*
X138817142Y-99897428D01*
X138760000Y-99926000D01*
X138731428Y-99983142D01*
X138731428Y-100040285D01*
X139017142Y-100097428D01*
X138217142Y-100297428D02*
X138217142Y-99697428D01*
X138217142Y-100268857D02*
X138274285Y-100297428D01*
X138388571Y-100297428D01*
X138445714Y-100268857D01*
X138474285Y-100240285D01*
X138502857Y-100183142D01*
X138502857Y-100011714D01*
X138474285Y-99954571D01*
X138445714Y-99926000D01*
X138388571Y-99897428D01*
X138274285Y-99897428D01*
X138217142Y-99926000D01*
X137474285Y-100297428D02*
X137474285Y-99697428D01*
X137474285Y-99926000D02*
X137417142Y-99897428D01*
X137302857Y-99897428D01*
X137245714Y-99926000D01*
X137217142Y-99954571D01*
X137188571Y-100011714D01*
X137188571Y-100183142D01*
X137217142Y-100240285D01*
X137245714Y-100268857D01*
X137302857Y-100297428D01*
X137417142Y-100297428D01*
X137474285Y-100268857D01*
X136988571Y-99897428D02*
X136845714Y-100297428D01*
X136702857Y-99897428D02*
X136845714Y-100297428D01*
X136902857Y-100440285D01*
X136931428Y-100468857D01*
X136988571Y-100497428D01*
X136074285Y-99897428D02*
X135960000Y-100297428D01*
X135845714Y-100011714D01*
X135731428Y-100297428D01*
X135617142Y-99897428D01*
X135388571Y-100297428D02*
X135388571Y-99697428D01*
X135131428Y-100297428D02*
X135131428Y-99983142D01*
X135160000Y-99926000D01*
X135217142Y-99897428D01*
X135302857Y-99897428D01*
X135360000Y-99926000D01*
X135388571Y-99954571D01*
X134588571Y-100297428D02*
X134588571Y-99983142D01*
X134617142Y-99926000D01*
X134674285Y-99897428D01*
X134788571Y-99897428D01*
X134845714Y-99926000D01*
X134588571Y-100268857D02*
X134645714Y-100297428D01*
X134788571Y-100297428D01*
X134845714Y-100268857D01*
X134874285Y-100211714D01*
X134874285Y-100154571D01*
X134845714Y-100097428D01*
X134788571Y-100068857D01*
X134645714Y-100068857D01*
X134588571Y-100040285D01*
X134388571Y-99897428D02*
X134160000Y-99897428D01*
X134302857Y-99697428D02*
X134302857Y-100211714D01*
X134274285Y-100268857D01*
X134217142Y-100297428D01*
X134160000Y-100297428D01*
X133960000Y-99897428D02*
X133960000Y-100297428D01*
X133960000Y-99954571D02*
X133931428Y-99926000D01*
X133874285Y-99897428D01*
X133788571Y-99897428D01*
X133731428Y-99926000D01*
X133702857Y-99983142D01*
X133702857Y-100297428D01*
X133417142Y-100297428D02*
X133417142Y-99897428D01*
X133417142Y-99697428D02*
X133445714Y-99726000D01*
X133417142Y-99754571D01*
X133388571Y-99726000D01*
X133417142Y-99697428D01*
X133417142Y-99754571D01*
X132874285Y-100268857D02*
X132931428Y-100297428D01*
X133045714Y-100297428D01*
X133102857Y-100268857D01*
X133131428Y-100240285D01*
X133160000Y-100183142D01*
X133160000Y-100011714D01*
X133131428Y-99954571D01*
X133102857Y-99926000D01*
X133045714Y-99897428D01*
X132931428Y-99897428D01*
X132874285Y-99926000D01*
X132617142Y-100297428D02*
X132617142Y-99697428D01*
X132560000Y-100068857D02*
X132388571Y-100297428D01*
X132388571Y-99897428D02*
X132617142Y-100126000D01*
M02*
