%TF.GenerationSoftware,KiCad,Pcbnew,(6.0.0-rc1-124-g18b4ebcc17)*%
%TF.CreationDate,2022-01-01T14:30:36+10:30*%
%TF.ProjectId,ring_pcb,72696e67-5f70-4636-922e-6b696361645f,rev?*%
%TF.SameCoordinates,Original*%
%TF.FileFunction,Legend,Top*%
%TF.FilePolarity,Positive*%
%FSLAX46Y46*%
G04 Gerber Fmt 4.6, Leading zero omitted, Abs format (unit mm)*
G04 Created by KiCad (PCBNEW (6.0.0-rc1-124-g18b4ebcc17)) date 2022-01-01 14:30:36*
%MOMM*%
%LPD*%
G01*
G04 APERTURE LIST*
%ADD10C,0.200000*%
%ADD11C,0.120000*%
G04 APERTURE END LIST*
D10*
%TO.C,D1*%
X138251441Y-95271501D02*
X137685756Y-94705815D01*
X137820443Y-94571128D01*
X137928192Y-94517253D01*
X138035942Y-94517253D01*
X138116754Y-94544191D01*
X138251441Y-94625003D01*
X138332253Y-94705815D01*
X138413066Y-94840502D01*
X138440003Y-94921314D01*
X138440003Y-95029064D01*
X138386128Y-95136814D01*
X138251441Y-95271501D01*
X139113438Y-94409504D02*
X138790189Y-94732753D01*
X138951814Y-94571128D02*
X138386128Y-94005443D01*
X138413066Y-94140130D01*
X138413066Y-94247879D01*
X138386128Y-94328691D01*
%TO.C,D2*%
X142227634Y-101558424D02*
X141661948Y-102124109D01*
X141527261Y-101989422D01*
X141473386Y-101881673D01*
X141473386Y-101773923D01*
X141500324Y-101693111D01*
X141581136Y-101558424D01*
X141661948Y-101477612D01*
X141796635Y-101396800D01*
X141877447Y-101369862D01*
X141985197Y-101369862D01*
X142092947Y-101423737D01*
X142227634Y-101558424D01*
X141177075Y-101531487D02*
X141123200Y-101531487D01*
X141042388Y-101504549D01*
X140907701Y-101369862D01*
X140880763Y-101289050D01*
X140880763Y-101235175D01*
X140907701Y-101154363D01*
X140961576Y-101100488D01*
X141069325Y-101046613D01*
X141715823Y-101046613D01*
X141365637Y-100696427D01*
%TO.C,D3*%
X135745309Y-104195369D02*
X135179624Y-103629683D01*
X135314311Y-103494996D01*
X135422060Y-103441121D01*
X135529810Y-103441121D01*
X135610622Y-103468059D01*
X135745309Y-103548871D01*
X135826121Y-103629683D01*
X135906934Y-103764370D01*
X135933871Y-103845182D01*
X135933871Y-103952932D01*
X135879996Y-104060682D01*
X135745309Y-104195369D01*
X135691434Y-103117872D02*
X136041621Y-102767686D01*
X136068558Y-103171747D01*
X136149370Y-103090935D01*
X136230182Y-103063998D01*
X136284057Y-103063998D01*
X136364869Y-103090935D01*
X136499556Y-103225622D01*
X136526494Y-103306434D01*
X136526494Y-103360309D01*
X136499556Y-103441121D01*
X136337932Y-103602746D01*
X136257120Y-103629683D01*
X136203245Y-103629683D01*
%TO.C,D6*%
X133769435Y-97088024D02*
X133203749Y-97653709D01*
X133069062Y-97519022D01*
X133015187Y-97411273D01*
X133015187Y-97303523D01*
X133042125Y-97222711D01*
X133122937Y-97088024D01*
X133203749Y-97007212D01*
X133338436Y-96926400D01*
X133419248Y-96899462D01*
X133526998Y-96899462D01*
X133634748Y-96953337D01*
X133769435Y-97088024D01*
X132395627Y-96845587D02*
X132503377Y-96953337D01*
X132584189Y-96980274D01*
X132638064Y-96980274D01*
X132772751Y-96953337D01*
X132907438Y-96872525D01*
X133122937Y-96657025D01*
X133149874Y-96576213D01*
X133149874Y-96522338D01*
X133122937Y-96441526D01*
X133015187Y-96333777D01*
X132934375Y-96306839D01*
X132880500Y-96306839D01*
X132799688Y-96333777D01*
X132665001Y-96468464D01*
X132638064Y-96549276D01*
X132638064Y-96603151D01*
X132665001Y-96683963D01*
X132772751Y-96791712D01*
X132853563Y-96818650D01*
X132907438Y-96818650D01*
X132988250Y-96791712D01*
%TO.C,D4*%
X141014523Y-97601904D02*
X141014523Y-96801904D01*
X141205000Y-96801904D01*
X141319285Y-96840000D01*
X141395476Y-96916190D01*
X141433571Y-96992380D01*
X141471666Y-97144761D01*
X141471666Y-97259047D01*
X141433571Y-97411428D01*
X141395476Y-97487619D01*
X141319285Y-97563809D01*
X141205000Y-97601904D01*
X141014523Y-97601904D01*
X142157380Y-97068571D02*
X142157380Y-97601904D01*
X141966904Y-96763809D02*
X141776428Y-97335238D01*
X142271666Y-97335238D01*
%TO.C,D5*%
X132124523Y-101241904D02*
X132124523Y-100441904D01*
X132315000Y-100441904D01*
X132429285Y-100480000D01*
X132505476Y-100556190D01*
X132543571Y-100632380D01*
X132581666Y-100784761D01*
X132581666Y-100899047D01*
X132543571Y-101051428D01*
X132505476Y-101127619D01*
X132429285Y-101203809D01*
X132315000Y-101241904D01*
X132124523Y-101241904D01*
X133305476Y-100441904D02*
X132924523Y-100441904D01*
X132886428Y-100822857D01*
X132924523Y-100784761D01*
X133000714Y-100746666D01*
X133191190Y-100746666D01*
X133267380Y-100784761D01*
X133305476Y-100822857D01*
X133343571Y-100899047D01*
X133343571Y-101089523D01*
X133305476Y-101165714D01*
X133267380Y-101203809D01*
X133191190Y-101241904D01*
X133000714Y-101241904D01*
X132924523Y-101203809D01*
X132886428Y-101165714D01*
D11*
%TO.C,TP8*%
X136210000Y-107122000D02*
X136210000Y-105222000D01*
X138110000Y-107122000D02*
X136210000Y-107122000D01*
X136210000Y-105222000D02*
X138110000Y-105222000D01*
X138110000Y-105222000D02*
X138110000Y-107122000D01*
%TO.C,TP11*%
X133619200Y-105222000D02*
X135519200Y-105222000D01*
X135519200Y-105222000D02*
X135519200Y-107122000D01*
X135519200Y-107122000D02*
X133619200Y-107122000D01*
X133619200Y-107122000D02*
X133619200Y-105222000D01*
%TO.C,D1*%
X138886827Y-98303305D02*
X141633937Y-95556195D01*
X137281695Y-96698173D02*
X138886827Y-98303305D01*
X140028805Y-93951063D02*
X137281695Y-96698173D01*
%TO.C,D2*%
X137281695Y-101421827D02*
X140028805Y-104168937D01*
X141633937Y-102563805D02*
X138886827Y-99816695D01*
X138886827Y-99816695D02*
X137281695Y-101421827D01*
%TO.C,TP10*%
X138800800Y-92898000D02*
X138800800Y-90998000D01*
X140700800Y-92898000D02*
X138800800Y-92898000D01*
X140700800Y-90998000D02*
X140700800Y-92898000D01*
X138800800Y-90998000D02*
X140700800Y-90998000D01*
%TO.C,TP9*%
X140700800Y-105222000D02*
X140700800Y-107122000D01*
X138800800Y-107122000D02*
X138800800Y-105222000D01*
X140700800Y-107122000D02*
X138800800Y-107122000D01*
X138800800Y-105222000D02*
X140700800Y-105222000D01*
%TO.C,D3*%
X134291195Y-104168937D02*
X137038305Y-101421827D01*
X137038305Y-101421827D02*
X135433173Y-99816695D01*
X135433173Y-99816695D02*
X132686063Y-102563805D01*
%TO.C,D6*%
X135433173Y-98303305D02*
X137038305Y-96698173D01*
X137038305Y-96698173D02*
X134291195Y-93951063D01*
X132686063Y-95556195D02*
X135433173Y-98303305D01*
%TO.C,TP12*%
X133619200Y-92898000D02*
X133619200Y-90998000D01*
X135519200Y-92898000D02*
X133619200Y-92898000D01*
X133619200Y-90998000D02*
X135519200Y-90998000D01*
X135519200Y-90998000D02*
X135519200Y-92898000D01*
%TO.C,TP7*%
X138110000Y-92898000D02*
X136210000Y-92898000D01*
X136210000Y-90998000D02*
X138110000Y-90998000D01*
X136210000Y-92898000D02*
X136210000Y-90998000D01*
X138110000Y-90998000D02*
X138110000Y-92898000D01*
%TO.C,D4*%
X139320000Y-100195000D02*
X143205000Y-100195000D01*
X143205000Y-97925000D02*
X139320000Y-97925000D01*
X139320000Y-97925000D02*
X139320000Y-100195000D01*
%TO.C,D5*%
X135000000Y-97925000D02*
X131115000Y-97925000D01*
X131115000Y-100195000D02*
X135000000Y-100195000D01*
X135000000Y-100195000D02*
X135000000Y-97925000D01*
%TD*%
M02*
