%TF.GenerationSoftware,KiCad,Pcbnew,10.0.3*%
%TF.CreationDate,2026-10-08T01:52:45+10:30*%
%TF.ProjectId,ring_ir_prog_probe,72696e67-5f69-4725-9f70-726f675f7072,rev?*%
%TF.SameCoordinates,Original*%
%TF.FileFunction,Copper,L2,Bot*%
%TF.FilePolarity,Positive*%
%FSLAX46Y46*%
G04 Gerber Fmt 4.6, Leading zero omitted, Abs format (unit mm)*
G04 Created by KiCad (PCBNEW 10.0.3) date 2026-10-08 01:52:45*
%MOMM*%
%LPD*%
G01*
G04 APERTURE LIST*
%TA.AperFunction,ComponentPad*%
%ADD10C,1.900000*%
%TD*%
%TA.AperFunction,ComponentPad*%
%ADD11R,1.700000X1.700000*%
%TD*%
%TA.AperFunction,ComponentPad*%
%ADD12C,1.700000*%
%TD*%
%TA.AperFunction,ComponentPad*%
%ADD13C,1.500000*%
%TD*%
%TA.AperFunction,Conductor*%
%ADD14C,0.250000*%
%TD*%
G04 APERTURE END LIST*
D10*
%TO.P,P3,1*%
%TO.N,/PB2*%
X150000000Y-100000000D03*
%TD*%
%TO.P,P4,1*%
%TO.N,unconnected-(P4-Pad1)*%
X150000000Y-103050000D03*
%TD*%
%TO.P,P1,1*%
%TO.N,/PB0*%
X146950000Y-100000000D03*
%TD*%
%TO.P,P2,1*%
%TO.N,/PB1*%
X146950000Y-103050000D03*
%TD*%
D11*
%TO.P,J1,1*%
%TO.N,/PB1*%
X147460000Y-109539999D03*
D12*
%TO.P,J1,2*%
%TO.N,/VCC*%
X147460000Y-106999999D03*
%TO.P,J1,3*%
%TO.N,/PB2*%
X150000000Y-109539999D03*
%TO.P,J1,4*%
%TO.N,/PB0*%
X150000000Y-106999999D03*
%TO.P,J1,5*%
%TO.N,/PB5*%
X152540000Y-109539999D03*
%TO.P,J1,6*%
%TO.N,/GND*%
X152540000Y-106999999D03*
%TD*%
D10*
%TO.P,P5,1*%
%TO.N,unconnected-(P5-Pad1)*%
X153050000Y-100000000D03*
%TD*%
D13*
%TO.P,J2,1*%
%TO.N,/GND*%
X155600000Y-107000000D03*
%TD*%
D10*
%TO.P,P6,1*%
%TO.N,/PB5*%
X153050000Y-103050000D03*
%TD*%
%TO.P,P9,1*%
%TO.N,/VCC*%
X149898400Y-95453400D03*
%TD*%
%TO.N,/GND*%
D14*
X152540000Y-107000000D02*
X155600000Y-107000000D01*
%TO.N,/PB0*%
X148475000Y-104575000D02*
X148730000Y-104830000D01*
X148730000Y-105730000D02*
X150000000Y-107000000D01*
X148730000Y-104830000D02*
X148730000Y-105730000D01*
X146950000Y-100000000D02*
X148475000Y-101525000D01*
X148475000Y-101525000D02*
X148475000Y-104575000D01*
%TO.N,/PB2*%
X151270000Y-108270000D02*
X150000000Y-109539999D01*
X151525000Y-104575000D02*
X151270000Y-104830000D01*
X151525000Y-101525000D02*
X151525000Y-104575000D01*
X150000000Y-100000000D02*
X151525000Y-101525000D01*
X151270000Y-104830000D02*
X151270000Y-108270000D01*
%TO.N,/VCC*%
X149898400Y-95453400D02*
X146400000Y-95453400D01*
X146400000Y-95453400D02*
X145400000Y-96453400D01*
X145400000Y-96453400D02*
X145400000Y-106000000D01*
X145400000Y-106000000D02*
X146400000Y-107000000D01*
X146400000Y-107000000D02*
X147460000Y-107000000D01*
%TD*%
M02*
