%TF.GenerationSoftware,KiCad,Pcbnew,10.0.3*%
%TF.CreationDate,2026-10-08T10:38:01+10:30*%
%TF.ProjectId,ring_ir_prog_probe,72696e67-5f69-4725-9f70-726f675f7072,rev?*%
%TF.SameCoordinates,Original*%
%TF.FileFunction,Legend,Bot*%
%TF.FilePolarity,Positive*%
%FSLAX46Y46*%
G04 Gerber Fmt 4.6, Leading zero omitted, Abs format (unit mm)*
G04 Created by KiCad (PCBNEW 10.0.3) date 2026-10-08 10:38:01*
%MOMM*%
%LPD*%
G01*
G04 APERTURE LIST*
%ADD10C,0.120000*%
%ADD11R,1.700000X1.700000*%
%ADD12C,1.700000*%
%ADD13C,1.500000*%
%ADD14C,1.900000*%
%ADD15O,3.400000X2.200000*%
G04 APERTURE END LIST*
D10*
X153199999Y-106463855D02*
X153199999Y-105663855D01*
X153199999Y-105663855D02*
X152895237Y-105663855D01*
X152895237Y-105663855D02*
X152819047Y-105701950D01*
X152819047Y-105701950D02*
X152780952Y-105740045D01*
X152780952Y-105740045D02*
X152742856Y-105816236D01*
X152742856Y-105816236D02*
X152742856Y-105930521D01*
X152742856Y-105930521D02*
X152780952Y-106006712D01*
X152780952Y-106006712D02*
X152819047Y-106044807D01*
X152819047Y-106044807D02*
X152895237Y-106082902D01*
X152895237Y-106082902D02*
X153199999Y-106082902D01*
X152399999Y-106463855D02*
X152399999Y-105663855D01*
X152019047Y-106463855D02*
X152019047Y-105663855D01*
X152019047Y-105663855D02*
X151561904Y-106463855D01*
X151561904Y-106463855D02*
X151561904Y-105663855D01*
X151219048Y-106425760D02*
X151104762Y-106463855D01*
X151104762Y-106463855D02*
X150914286Y-106463855D01*
X150914286Y-106463855D02*
X150838095Y-106425760D01*
X150838095Y-106425760D02*
X150800000Y-106387664D01*
X150800000Y-106387664D02*
X150761905Y-106311474D01*
X150761905Y-106311474D02*
X150761905Y-106235283D01*
X150761905Y-106235283D02*
X150800000Y-106159093D01*
X150800000Y-106159093D02*
X150838095Y-106120998D01*
X150838095Y-106120998D02*
X150914286Y-106082902D01*
X150914286Y-106082902D02*
X151066667Y-106044807D01*
X151066667Y-106044807D02*
X151142857Y-106006712D01*
X151142857Y-106006712D02*
X151180952Y-105968617D01*
X151180952Y-105968617D02*
X151219048Y-105892426D01*
X151219048Y-105892426D02*
X151219048Y-105816236D01*
X151219048Y-105816236D02*
X151180952Y-105740045D01*
X151180952Y-105740045D02*
X151142857Y-105701950D01*
X151142857Y-105701950D02*
X151066667Y-105663855D01*
X151066667Y-105663855D02*
X150876190Y-105663855D01*
X150876190Y-105663855D02*
X150761905Y-105701950D01*
X149809523Y-106463855D02*
X149809523Y-105663855D01*
X149809523Y-105663855D02*
X149619047Y-105663855D01*
X149619047Y-105663855D02*
X149504761Y-105701950D01*
X149504761Y-105701950D02*
X149428571Y-105778140D01*
X149428571Y-105778140D02*
X149390476Y-105854331D01*
X149390476Y-105854331D02*
X149352380Y-106006712D01*
X149352380Y-106006712D02*
X149352380Y-106120998D01*
X149352380Y-106120998D02*
X149390476Y-106273379D01*
X149390476Y-106273379D02*
X149428571Y-106349569D01*
X149428571Y-106349569D02*
X149504761Y-106425760D01*
X149504761Y-106425760D02*
X149619047Y-106463855D01*
X149619047Y-106463855D02*
X149809523Y-106463855D01*
X148857142Y-105663855D02*
X148704761Y-105663855D01*
X148704761Y-105663855D02*
X148628571Y-105701950D01*
X148628571Y-105701950D02*
X148552380Y-105778140D01*
X148552380Y-105778140D02*
X148514285Y-105930521D01*
X148514285Y-105930521D02*
X148514285Y-106197188D01*
X148514285Y-106197188D02*
X148552380Y-106349569D01*
X148552380Y-106349569D02*
X148628571Y-106425760D01*
X148628571Y-106425760D02*
X148704761Y-106463855D01*
X148704761Y-106463855D02*
X148857142Y-106463855D01*
X148857142Y-106463855D02*
X148933333Y-106425760D01*
X148933333Y-106425760D02*
X149009523Y-106349569D01*
X149009523Y-106349569D02*
X149047619Y-106197188D01*
X149047619Y-106197188D02*
X149047619Y-105930521D01*
X149047619Y-105930521D02*
X149009523Y-105778140D01*
X149009523Y-105778140D02*
X148933333Y-105701950D01*
X148933333Y-105701950D02*
X148857142Y-105663855D01*
X148247619Y-105663855D02*
X148057143Y-106463855D01*
X148057143Y-106463855D02*
X147904762Y-105892426D01*
X147904762Y-105892426D02*
X147752381Y-106463855D01*
X147752381Y-106463855D02*
X147561905Y-105663855D01*
X147257142Y-106463855D02*
X147257142Y-105663855D01*
X147257142Y-105663855D02*
X146799999Y-106463855D01*
X146799999Y-106463855D02*
X146799999Y-105663855D01*
%LPC*%
D11*
%TO.C,J1*%
X147460000Y-92400000D03*
D12*
X147460000Y-89860000D03*
X150000000Y-92400000D03*
X150000000Y-89860000D03*
X152540000Y-92400000D03*
X152540000Y-89860000D03*
%TD*%
D13*
%TO.C,J2*%
X155600000Y-89860000D03*
%TD*%
D14*
%TO.C,P9*%
X149898400Y-95453400D03*
%TD*%
%TO.C,P1*%
X146950000Y-100000000D03*
%TD*%
D15*
%TO.C,H2*%
X154500000Y-108100000D03*
%TD*%
D14*
%TO.C,P4*%
X150000000Y-103050000D03*
%TD*%
D15*
%TO.C,H1*%
X145500000Y-108100000D03*
%TD*%
D14*
%TO.C,P3*%
X150000000Y-100000000D03*
%TD*%
%TO.C,P5*%
X153050000Y-100000000D03*
%TD*%
%TO.C,P6*%
X153050000Y-103050000D03*
%TD*%
%TO.C,P2*%
X146950000Y-103050000D03*
%TD*%
%LPD*%
M02*
