%TF.GenerationSoftware,KiCad,Pcbnew,10.0.3*%
%TF.CreationDate,2026-10-08T01:52:45+10:30*%
%TF.ProjectId,ring_ir_prog_probe,72696e67-5f69-4725-9f70-726f675f7072,rev?*%
%TF.SameCoordinates,Original*%
%TF.FileFunction,Legend,Top*%
%TF.FilePolarity,Positive*%
%FSLAX46Y46*%
G04 Gerber Fmt 4.6, Leading zero omitted, Abs format (unit mm)*
G04 Created by KiCad (PCBNEW 10.0.3) date 2026-10-08 01:52:45*
%MOMM*%
%LPD*%
G01*
G04 APERTURE LIST*
%ADD10C,0.120000*%
%ADD11C,0.140000*%
%ADD12C,0.150000*%
%ADD13C,1.900000*%
%ADD14C,2.200000*%
%ADD15R,1.700000X1.700000*%
%ADD16C,1.700000*%
%ADD17C,1.500000*%
G04 APERTURE END LIST*
D10*
X147688571Y-112003855D02*
X147231428Y-112003855D01*
X147460000Y-112003855D02*
X147460000Y-111203855D01*
X147460000Y-111203855D02*
X147383809Y-111318140D01*
X147383809Y-111318140D02*
X147307619Y-111394331D01*
X147307619Y-111394331D02*
X147231428Y-111432426D01*
X149009524Y-105163855D02*
X149009524Y-104363855D01*
X149009524Y-104363855D02*
X149314286Y-104363855D01*
X149314286Y-104363855D02*
X149390476Y-104401950D01*
X149390476Y-104401950D02*
X149428571Y-104440045D01*
X149428571Y-104440045D02*
X149466667Y-104516236D01*
X149466667Y-104516236D02*
X149466667Y-104630521D01*
X149466667Y-104630521D02*
X149428571Y-104706712D01*
X149428571Y-104706712D02*
X149390476Y-104744807D01*
X149390476Y-104744807D02*
X149314286Y-104782902D01*
X149314286Y-104782902D02*
X149009524Y-104782902D01*
X150076190Y-104744807D02*
X150190476Y-104782902D01*
X150190476Y-104782902D02*
X150228571Y-104820998D01*
X150228571Y-104820998D02*
X150266667Y-104897188D01*
X150266667Y-104897188D02*
X150266667Y-105011474D01*
X150266667Y-105011474D02*
X150228571Y-105087664D01*
X150228571Y-105087664D02*
X150190476Y-105125760D01*
X150190476Y-105125760D02*
X150114286Y-105163855D01*
X150114286Y-105163855D02*
X149809524Y-105163855D01*
X149809524Y-105163855D02*
X149809524Y-104363855D01*
X149809524Y-104363855D02*
X150076190Y-104363855D01*
X150076190Y-104363855D02*
X150152381Y-104401950D01*
X150152381Y-104401950D02*
X150190476Y-104440045D01*
X150190476Y-104440045D02*
X150228571Y-104516236D01*
X150228571Y-104516236D02*
X150228571Y-104592426D01*
X150228571Y-104592426D02*
X150190476Y-104668617D01*
X150190476Y-104668617D02*
X150152381Y-104706712D01*
X150152381Y-104706712D02*
X150076190Y-104744807D01*
X150076190Y-104744807D02*
X149809524Y-104744807D01*
X150533333Y-104363855D02*
X151028571Y-104363855D01*
X151028571Y-104363855D02*
X150761905Y-104668617D01*
X150761905Y-104668617D02*
X150876190Y-104668617D01*
X150876190Y-104668617D02*
X150952381Y-104706712D01*
X150952381Y-104706712D02*
X150990476Y-104744807D01*
X150990476Y-104744807D02*
X151028571Y-104820998D01*
X151028571Y-104820998D02*
X151028571Y-105011474D01*
X151028571Y-105011474D02*
X150990476Y-105087664D01*
X150990476Y-105087664D02*
X150952381Y-105125760D01*
X150952381Y-105125760D02*
X150876190Y-105163855D01*
X150876190Y-105163855D02*
X150647619Y-105163855D01*
X150647619Y-105163855D02*
X150571428Y-105125760D01*
X150571428Y-105125760D02*
X150533333Y-105087664D01*
X150489048Y-112003855D02*
X150489048Y-111203855D01*
X150831904Y-111965760D02*
X150946190Y-112003855D01*
X150946190Y-112003855D02*
X151136666Y-112003855D01*
X151136666Y-112003855D02*
X151212857Y-111965760D01*
X151212857Y-111965760D02*
X151250952Y-111927664D01*
X151250952Y-111927664D02*
X151289047Y-111851474D01*
X151289047Y-111851474D02*
X151289047Y-111775283D01*
X151289047Y-111775283D02*
X151250952Y-111699093D01*
X151250952Y-111699093D02*
X151212857Y-111660998D01*
X151212857Y-111660998D02*
X151136666Y-111622902D01*
X151136666Y-111622902D02*
X150984285Y-111584807D01*
X150984285Y-111584807D02*
X150908095Y-111546712D01*
X150908095Y-111546712D02*
X150870000Y-111508617D01*
X150870000Y-111508617D02*
X150831904Y-111432426D01*
X150831904Y-111432426D02*
X150831904Y-111356236D01*
X150831904Y-111356236D02*
X150870000Y-111280045D01*
X150870000Y-111280045D02*
X150908095Y-111241950D01*
X150908095Y-111241950D02*
X150984285Y-111203855D01*
X150984285Y-111203855D02*
X151174762Y-111203855D01*
X151174762Y-111203855D02*
X151289047Y-111241950D01*
X151631905Y-112003855D02*
X151631905Y-111203855D01*
X151631905Y-111203855D02*
X151936667Y-111203855D01*
X151936667Y-111203855D02*
X152012857Y-111241950D01*
X152012857Y-111241950D02*
X152050952Y-111280045D01*
X152050952Y-111280045D02*
X152089048Y-111356236D01*
X152089048Y-111356236D02*
X152089048Y-111470521D01*
X152089048Y-111470521D02*
X152050952Y-111546712D01*
X152050952Y-111546712D02*
X152012857Y-111584807D01*
X152012857Y-111584807D02*
X151936667Y-111622902D01*
X151936667Y-111622902D02*
X151631905Y-111622902D01*
X154159524Y-98863855D02*
X154159524Y-98063855D01*
X154159524Y-98063855D02*
X154464286Y-98063855D01*
X154464286Y-98063855D02*
X154540476Y-98101950D01*
X154540476Y-98101950D02*
X154578571Y-98140045D01*
X154578571Y-98140045D02*
X154616667Y-98216236D01*
X154616667Y-98216236D02*
X154616667Y-98330521D01*
X154616667Y-98330521D02*
X154578571Y-98406712D01*
X154578571Y-98406712D02*
X154540476Y-98444807D01*
X154540476Y-98444807D02*
X154464286Y-98482902D01*
X154464286Y-98482902D02*
X154159524Y-98482902D01*
X155226190Y-98444807D02*
X155340476Y-98482902D01*
X155340476Y-98482902D02*
X155378571Y-98520998D01*
X155378571Y-98520998D02*
X155416667Y-98597188D01*
X155416667Y-98597188D02*
X155416667Y-98711474D01*
X155416667Y-98711474D02*
X155378571Y-98787664D01*
X155378571Y-98787664D02*
X155340476Y-98825760D01*
X155340476Y-98825760D02*
X155264286Y-98863855D01*
X155264286Y-98863855D02*
X154959524Y-98863855D01*
X154959524Y-98863855D02*
X154959524Y-98063855D01*
X154959524Y-98063855D02*
X155226190Y-98063855D01*
X155226190Y-98063855D02*
X155302381Y-98101950D01*
X155302381Y-98101950D02*
X155340476Y-98140045D01*
X155340476Y-98140045D02*
X155378571Y-98216236D01*
X155378571Y-98216236D02*
X155378571Y-98292426D01*
X155378571Y-98292426D02*
X155340476Y-98368617D01*
X155340476Y-98368617D02*
X155302381Y-98406712D01*
X155302381Y-98406712D02*
X155226190Y-98444807D01*
X155226190Y-98444807D02*
X154959524Y-98444807D01*
X156102381Y-98330521D02*
X156102381Y-98863855D01*
X155911905Y-98025760D02*
X155721428Y-98597188D01*
X155721428Y-98597188D02*
X156216667Y-98597188D01*
X154990476Y-108101950D02*
X154914286Y-108063855D01*
X154914286Y-108063855D02*
X154800000Y-108063855D01*
X154800000Y-108063855D02*
X154685714Y-108101950D01*
X154685714Y-108101950D02*
X154609524Y-108178140D01*
X154609524Y-108178140D02*
X154571429Y-108254331D01*
X154571429Y-108254331D02*
X154533333Y-108406712D01*
X154533333Y-108406712D02*
X154533333Y-108520998D01*
X154533333Y-108520998D02*
X154571429Y-108673379D01*
X154571429Y-108673379D02*
X154609524Y-108749569D01*
X154609524Y-108749569D02*
X154685714Y-108825760D01*
X154685714Y-108825760D02*
X154800000Y-108863855D01*
X154800000Y-108863855D02*
X154876191Y-108863855D01*
X154876191Y-108863855D02*
X154990476Y-108825760D01*
X154990476Y-108825760D02*
X155028572Y-108787664D01*
X155028572Y-108787664D02*
X155028572Y-108520998D01*
X155028572Y-108520998D02*
X154876191Y-108520998D01*
X155371429Y-108863855D02*
X155371429Y-108063855D01*
X155371429Y-108063855D02*
X155828572Y-108863855D01*
X155828572Y-108863855D02*
X155828572Y-108063855D01*
X156209524Y-108863855D02*
X156209524Y-108063855D01*
X156209524Y-108063855D02*
X156400000Y-108063855D01*
X156400000Y-108063855D02*
X156514286Y-108101950D01*
X156514286Y-108101950D02*
X156590476Y-108178140D01*
X156590476Y-108178140D02*
X156628571Y-108254331D01*
X156628571Y-108254331D02*
X156666667Y-108406712D01*
X156666667Y-108406712D02*
X156666667Y-108520998D01*
X156666667Y-108520998D02*
X156628571Y-108673379D01*
X156628571Y-108673379D02*
X156590476Y-108749569D01*
X156590476Y-108749569D02*
X156514286Y-108825760D01*
X156514286Y-108825760D02*
X156400000Y-108863855D01*
X156400000Y-108863855D02*
X156209524Y-108863855D01*
D11*
X146700001Y-113309077D02*
X146400001Y-112880505D01*
X146185715Y-113309077D02*
X146185715Y-112409077D01*
X146185715Y-112409077D02*
X146528572Y-112409077D01*
X146528572Y-112409077D02*
X146614287Y-112451934D01*
X146614287Y-112451934D02*
X146657144Y-112494791D01*
X146657144Y-112494791D02*
X146700001Y-112580505D01*
X146700001Y-112580505D02*
X146700001Y-112709077D01*
X146700001Y-112709077D02*
X146657144Y-112794791D01*
X146657144Y-112794791D02*
X146614287Y-112837648D01*
X146614287Y-112837648D02*
X146528572Y-112880505D01*
X146528572Y-112880505D02*
X146185715Y-112880505D01*
X147085715Y-113309077D02*
X147085715Y-112409077D01*
X147514286Y-113309077D02*
X147514286Y-112409077D01*
X147514286Y-112409077D02*
X148028572Y-113309077D01*
X148028572Y-113309077D02*
X148028572Y-112409077D01*
X148928572Y-112451934D02*
X148842858Y-112409077D01*
X148842858Y-112409077D02*
X148714286Y-112409077D01*
X148714286Y-112409077D02*
X148585715Y-112451934D01*
X148585715Y-112451934D02*
X148500000Y-112537648D01*
X148500000Y-112537648D02*
X148457143Y-112623362D01*
X148457143Y-112623362D02*
X148414286Y-112794791D01*
X148414286Y-112794791D02*
X148414286Y-112923362D01*
X148414286Y-112923362D02*
X148457143Y-113094791D01*
X148457143Y-113094791D02*
X148500000Y-113180505D01*
X148500000Y-113180505D02*
X148585715Y-113266220D01*
X148585715Y-113266220D02*
X148714286Y-113309077D01*
X148714286Y-113309077D02*
X148800000Y-113309077D01*
X148800000Y-113309077D02*
X148928572Y-113266220D01*
X148928572Y-113266220D02*
X148971429Y-113223362D01*
X148971429Y-113223362D02*
X148971429Y-112923362D01*
X148971429Y-112923362D02*
X148800000Y-112923362D01*
X150042857Y-113309077D02*
X150042857Y-112409077D01*
X150985714Y-113309077D02*
X150685714Y-112880505D01*
X150471428Y-113309077D02*
X150471428Y-112409077D01*
X150471428Y-112409077D02*
X150814285Y-112409077D01*
X150814285Y-112409077D02*
X150900000Y-112451934D01*
X150900000Y-112451934D02*
X150942857Y-112494791D01*
X150942857Y-112494791D02*
X150985714Y-112580505D01*
X150985714Y-112580505D02*
X150985714Y-112709077D01*
X150985714Y-112709077D02*
X150942857Y-112794791D01*
X150942857Y-112794791D02*
X150900000Y-112837648D01*
X150900000Y-112837648D02*
X150814285Y-112880505D01*
X150814285Y-112880505D02*
X150471428Y-112880505D01*
X152057142Y-113309077D02*
X152057142Y-112409077D01*
X152442856Y-113266220D02*
X152571428Y-113309077D01*
X152571428Y-113309077D02*
X152785713Y-113309077D01*
X152785713Y-113309077D02*
X152871428Y-113266220D01*
X152871428Y-113266220D02*
X152914285Y-113223362D01*
X152914285Y-113223362D02*
X152957142Y-113137648D01*
X152957142Y-113137648D02*
X152957142Y-113051934D01*
X152957142Y-113051934D02*
X152914285Y-112966220D01*
X152914285Y-112966220D02*
X152871428Y-112923362D01*
X152871428Y-112923362D02*
X152785713Y-112880505D01*
X152785713Y-112880505D02*
X152614285Y-112837648D01*
X152614285Y-112837648D02*
X152528570Y-112794791D01*
X152528570Y-112794791D02*
X152485713Y-112751934D01*
X152485713Y-112751934D02*
X152442856Y-112666220D01*
X152442856Y-112666220D02*
X152442856Y-112580505D01*
X152442856Y-112580505D02*
X152485713Y-112494791D01*
X152485713Y-112494791D02*
X152528570Y-112451934D01*
X152528570Y-112451934D02*
X152614285Y-112409077D01*
X152614285Y-112409077D02*
X152828570Y-112409077D01*
X152828570Y-112409077D02*
X152957142Y-112451934D01*
X153342856Y-113309077D02*
X153342856Y-112409077D01*
X153342856Y-112409077D02*
X153685713Y-112409077D01*
X153685713Y-112409077D02*
X153771428Y-112451934D01*
X153771428Y-112451934D02*
X153814285Y-112494791D01*
X153814285Y-112494791D02*
X153857142Y-112580505D01*
X153857142Y-112580505D02*
X153857142Y-112709077D01*
X153857142Y-112709077D02*
X153814285Y-112794791D01*
X153814285Y-112794791D02*
X153771428Y-112837648D01*
X153771428Y-112837648D02*
X153685713Y-112880505D01*
X153685713Y-112880505D02*
X153342856Y-112880505D01*
D12*
X144534819Y-108603332D02*
X145249104Y-108603332D01*
X145249104Y-108603332D02*
X145391961Y-108650951D01*
X145391961Y-108650951D02*
X145487200Y-108746189D01*
X145487200Y-108746189D02*
X145534819Y-108889046D01*
X145534819Y-108889046D02*
X145534819Y-108984284D01*
X145534819Y-107603332D02*
X145534819Y-108174760D01*
X145534819Y-107889046D02*
X144534819Y-107889046D01*
X144534819Y-107889046D02*
X144677676Y-107984284D01*
X144677676Y-107984284D02*
X144772914Y-108079522D01*
X144772914Y-108079522D02*
X144820533Y-108174760D01*
X155266666Y-104806819D02*
X155266666Y-105521104D01*
X155266666Y-105521104D02*
X155219047Y-105663961D01*
X155219047Y-105663961D02*
X155123809Y-105759200D01*
X155123809Y-105759200D02*
X154980952Y-105806819D01*
X154980952Y-105806819D02*
X154885714Y-105806819D01*
X155695238Y-104902057D02*
X155742857Y-104854438D01*
X155742857Y-104854438D02*
X155838095Y-104806819D01*
X155838095Y-104806819D02*
X156076190Y-104806819D01*
X156076190Y-104806819D02*
X156171428Y-104854438D01*
X156171428Y-104854438D02*
X156219047Y-104902057D01*
X156219047Y-104902057D02*
X156266666Y-104997295D01*
X156266666Y-104997295D02*
X156266666Y-105092533D01*
X156266666Y-105092533D02*
X156219047Y-105235390D01*
X156219047Y-105235390D02*
X155647619Y-105806819D01*
X155647619Y-105806819D02*
X156266666Y-105806819D01*
%TO.C,J1*%
D10*
X146080000Y-105619999D02*
X153920000Y-105619999D01*
X146080000Y-108269999D02*
X146080000Y-105619999D01*
X146080000Y-110919999D02*
X146080000Y-109539999D01*
X147460000Y-110919999D02*
X146080000Y-110919999D01*
X148730000Y-108269999D02*
X146080000Y-108269999D01*
X148730000Y-110919999D02*
X148730000Y-108269999D01*
X148730000Y-110919999D02*
X153920000Y-110919999D01*
X153920000Y-110919999D02*
X153920000Y-105619999D01*
%TO.C,J2*%
X156550000Y-107000000D02*
G75*
G02*
X154650000Y-107000000I-950000J0D01*
G01*
X154650000Y-107000000D02*
G75*
G02*
X156550000Y-107000000I950000J0D01*
G01*
%TD*%
%LPC*%
D13*
%TO.C,P3*%
X150000000Y-100000000D03*
%TD*%
%TO.C,P4*%
X150000000Y-103050000D03*
%TD*%
%TO.C,P1*%
X146950000Y-100000000D03*
%TD*%
D14*
%TO.C,H2*%
X153500000Y-118500000D03*
%TD*%
D13*
%TO.C,P2*%
X146950000Y-103050000D03*
%TD*%
D15*
%TO.C,J1*%
X147460000Y-109539999D03*
D16*
X147460000Y-106999999D03*
X150000000Y-109539999D03*
X150000000Y-106999999D03*
X152540000Y-109539999D03*
X152540000Y-106999999D03*
%TD*%
D13*
%TO.C,P5*%
X153050000Y-100000000D03*
%TD*%
D17*
%TO.C,J2*%
X155600000Y-107000000D03*
%TD*%
D13*
%TO.C,P6*%
X153050000Y-103050000D03*
%TD*%
%TO.C,P9*%
X149898400Y-95453400D03*
%TD*%
D14*
%TO.C,H1*%
X146500000Y-115500000D03*
%TD*%
%LPD*%
M02*
