%TF.GenerationSoftware,KiCad,Pcbnew,10.0.3*%
%TF.CreationDate,2026-10-08T01:52:45+10:30*%
%TF.ProjectId,ring_ir_prog_probe,72696e67-5f69-4725-9f70-726f675f7072,rev?*%
%TF.SameCoordinates,Original*%
%TF.FileFunction,Legend,Bot*%
%TF.FilePolarity,Positive*%
%FSLAX46Y46*%
G04 Gerber Fmt 4.6, Leading zero omitted, Abs format (unit mm)*
G04 Created by KiCad (PCBNEW 10.0.3) date 2026-10-08 01:52:45*
%MOMM*%
%LPD*%
G01*
G04 APERTURE LIST*
%ADD10C,0.140000*%
%ADD11C,1.900000*%
%ADD12C,2.200000*%
%ADD13R,1.700000X1.700000*%
%ADD14C,1.700000*%
%ADD15C,1.500000*%
G04 APERTURE END LIST*
D10*
X153599999Y-113309077D02*
X153599999Y-112409077D01*
X153599999Y-112409077D02*
X153257142Y-112409077D01*
X153257142Y-112409077D02*
X153171427Y-112451934D01*
X153171427Y-112451934D02*
X153128570Y-112494791D01*
X153128570Y-112494791D02*
X153085713Y-112580505D01*
X153085713Y-112580505D02*
X153085713Y-112709077D01*
X153085713Y-112709077D02*
X153128570Y-112794791D01*
X153128570Y-112794791D02*
X153171427Y-112837648D01*
X153171427Y-112837648D02*
X153257142Y-112880505D01*
X153257142Y-112880505D02*
X153599999Y-112880505D01*
X152699999Y-113309077D02*
X152699999Y-112409077D01*
X152271428Y-113309077D02*
X152271428Y-112409077D01*
X152271428Y-112409077D02*
X151757142Y-113309077D01*
X151757142Y-113309077D02*
X151757142Y-112409077D01*
X151371428Y-113266220D02*
X151242857Y-113309077D01*
X151242857Y-113309077D02*
X151028571Y-113309077D01*
X151028571Y-113309077D02*
X150942857Y-113266220D01*
X150942857Y-113266220D02*
X150899999Y-113223362D01*
X150899999Y-113223362D02*
X150857142Y-113137648D01*
X150857142Y-113137648D02*
X150857142Y-113051934D01*
X150857142Y-113051934D02*
X150899999Y-112966220D01*
X150899999Y-112966220D02*
X150942857Y-112923362D01*
X150942857Y-112923362D02*
X151028571Y-112880505D01*
X151028571Y-112880505D02*
X151199999Y-112837648D01*
X151199999Y-112837648D02*
X151285714Y-112794791D01*
X151285714Y-112794791D02*
X151328571Y-112751934D01*
X151328571Y-112751934D02*
X151371428Y-112666220D01*
X151371428Y-112666220D02*
X151371428Y-112580505D01*
X151371428Y-112580505D02*
X151328571Y-112494791D01*
X151328571Y-112494791D02*
X151285714Y-112451934D01*
X151285714Y-112451934D02*
X151199999Y-112409077D01*
X151199999Y-112409077D02*
X150985714Y-112409077D01*
X150985714Y-112409077D02*
X150857142Y-112451934D01*
X149785714Y-113309077D02*
X149785714Y-112409077D01*
X149785714Y-112409077D02*
X149571428Y-112409077D01*
X149571428Y-112409077D02*
X149442857Y-112451934D01*
X149442857Y-112451934D02*
X149357142Y-112537648D01*
X149357142Y-112537648D02*
X149314285Y-112623362D01*
X149314285Y-112623362D02*
X149271428Y-112794791D01*
X149271428Y-112794791D02*
X149271428Y-112923362D01*
X149271428Y-112923362D02*
X149314285Y-113094791D01*
X149314285Y-113094791D02*
X149357142Y-113180505D01*
X149357142Y-113180505D02*
X149442857Y-113266220D01*
X149442857Y-113266220D02*
X149571428Y-113309077D01*
X149571428Y-113309077D02*
X149785714Y-113309077D01*
X148714285Y-112409077D02*
X148542857Y-112409077D01*
X148542857Y-112409077D02*
X148457142Y-112451934D01*
X148457142Y-112451934D02*
X148371428Y-112537648D01*
X148371428Y-112537648D02*
X148328571Y-112709077D01*
X148328571Y-112709077D02*
X148328571Y-113009077D01*
X148328571Y-113009077D02*
X148371428Y-113180505D01*
X148371428Y-113180505D02*
X148457142Y-113266220D01*
X148457142Y-113266220D02*
X148542857Y-113309077D01*
X148542857Y-113309077D02*
X148714285Y-113309077D01*
X148714285Y-113309077D02*
X148800000Y-113266220D01*
X148800000Y-113266220D02*
X148885714Y-113180505D01*
X148885714Y-113180505D02*
X148928571Y-113009077D01*
X148928571Y-113009077D02*
X148928571Y-112709077D01*
X148928571Y-112709077D02*
X148885714Y-112537648D01*
X148885714Y-112537648D02*
X148800000Y-112451934D01*
X148800000Y-112451934D02*
X148714285Y-112409077D01*
X148028571Y-112409077D02*
X147814285Y-113309077D01*
X147814285Y-113309077D02*
X147642857Y-112666220D01*
X147642857Y-112666220D02*
X147471428Y-113309077D01*
X147471428Y-113309077D02*
X147257143Y-112409077D01*
X146914286Y-113309077D02*
X146914286Y-112409077D01*
X146914286Y-112409077D02*
X146400000Y-113309077D01*
X146400000Y-113309077D02*
X146400000Y-112409077D01*
%LPC*%
D11*
%TO.C,P3*%
X150000000Y-100000000D03*
%TD*%
%TO.C,P4*%
X150000000Y-103050000D03*
%TD*%
%TO.C,P1*%
X146950000Y-100000000D03*
%TD*%
D12*
%TO.C,H2*%
X153500000Y-118500000D03*
%TD*%
D11*
%TO.C,P2*%
X146950000Y-103050000D03*
%TD*%
D13*
%TO.C,J1*%
X147460000Y-109539999D03*
D14*
X147460000Y-106999999D03*
X150000000Y-109539999D03*
X150000000Y-106999999D03*
X152540000Y-109539999D03*
X152540000Y-106999999D03*
%TD*%
D11*
%TO.C,P5*%
X153050000Y-100000000D03*
%TD*%
D15*
%TO.C,J2*%
X155600000Y-107000000D03*
%TD*%
D11*
%TO.C,P6*%
X153050000Y-103050000D03*
%TD*%
%TO.C,P9*%
X149898400Y-95453400D03*
%TD*%
D12*
%TO.C,H1*%
X146500000Y-115500000D03*
%TD*%
%LPD*%
M02*
