%TF.GenerationSoftware,KiCad,Pcbnew,10.0.3*%
%TF.CreationDate,2026-10-08T01:53:07+10:30*%
%TF.ProjectId,ring_ir_prog_fence,72696e67-5f69-4725-9f70-726f675f6665,rev?*%
%TF.SameCoordinates,Original*%
%TF.FileFunction,Legend,Top*%
%TF.FilePolarity,Positive*%
%FSLAX46Y46*%
G04 Gerber Fmt 4.6, Leading zero omitted, Abs format (unit mm)*
G04 Created by KiCad (PCBNEW 10.0.3) date 2026-10-08 01:53:07*
%MOMM*%
%LPD*%
G01*
G04 APERTURE LIST*
%ADD10C,0.120000*%
G04 APERTURE END LIST*
D10*
X147104761Y-84765255D02*
X146723809Y-84765255D01*
X146723809Y-84765255D02*
X146723809Y-83965255D01*
X147371428Y-84346207D02*
X147638094Y-84346207D01*
X147752380Y-84765255D02*
X147371428Y-84765255D01*
X147371428Y-84765255D02*
X147371428Y-83965255D01*
X147371428Y-83965255D02*
X147752380Y-83965255D01*
X148095238Y-84765255D02*
X148095238Y-83965255D01*
X148095238Y-83965255D02*
X148285714Y-83965255D01*
X148285714Y-83965255D02*
X148400000Y-84003350D01*
X148400000Y-84003350D02*
X148476190Y-84079540D01*
X148476190Y-84079540D02*
X148514285Y-84155731D01*
X148514285Y-84155731D02*
X148552381Y-84308112D01*
X148552381Y-84308112D02*
X148552381Y-84422398D01*
X148552381Y-84422398D02*
X148514285Y-84574779D01*
X148514285Y-84574779D02*
X148476190Y-84650969D01*
X148476190Y-84650969D02*
X148400000Y-84727160D01*
X148400000Y-84727160D02*
X148285714Y-84765255D01*
X148285714Y-84765255D02*
X148095238Y-84765255D01*
X148857142Y-84727160D02*
X148971428Y-84765255D01*
X148971428Y-84765255D02*
X149161904Y-84765255D01*
X149161904Y-84765255D02*
X149238095Y-84727160D01*
X149238095Y-84727160D02*
X149276190Y-84689064D01*
X149276190Y-84689064D02*
X149314285Y-84612874D01*
X149314285Y-84612874D02*
X149314285Y-84536683D01*
X149314285Y-84536683D02*
X149276190Y-84460493D01*
X149276190Y-84460493D02*
X149238095Y-84422398D01*
X149238095Y-84422398D02*
X149161904Y-84384302D01*
X149161904Y-84384302D02*
X149009523Y-84346207D01*
X149009523Y-84346207D02*
X148933333Y-84308112D01*
X148933333Y-84308112D02*
X148895238Y-84270017D01*
X148895238Y-84270017D02*
X148857142Y-84193826D01*
X148857142Y-84193826D02*
X148857142Y-84117636D01*
X148857142Y-84117636D02*
X148895238Y-84041445D01*
X148895238Y-84041445D02*
X148933333Y-84003350D01*
X148933333Y-84003350D02*
X149009523Y-83965255D01*
X149009523Y-83965255D02*
X149200000Y-83965255D01*
X149200000Y-83965255D02*
X149314285Y-84003350D01*
X150266667Y-84765255D02*
X150266667Y-83965255D01*
X150266667Y-83965255D02*
X150457143Y-83965255D01*
X150457143Y-83965255D02*
X150571429Y-84003350D01*
X150571429Y-84003350D02*
X150647619Y-84079540D01*
X150647619Y-84079540D02*
X150685714Y-84155731D01*
X150685714Y-84155731D02*
X150723810Y-84308112D01*
X150723810Y-84308112D02*
X150723810Y-84422398D01*
X150723810Y-84422398D02*
X150685714Y-84574779D01*
X150685714Y-84574779D02*
X150647619Y-84650969D01*
X150647619Y-84650969D02*
X150571429Y-84727160D01*
X150571429Y-84727160D02*
X150457143Y-84765255D01*
X150457143Y-84765255D02*
X150266667Y-84765255D01*
X151219048Y-83965255D02*
X151371429Y-83965255D01*
X151371429Y-83965255D02*
X151447619Y-84003350D01*
X151447619Y-84003350D02*
X151523810Y-84079540D01*
X151523810Y-84079540D02*
X151561905Y-84231921D01*
X151561905Y-84231921D02*
X151561905Y-84498588D01*
X151561905Y-84498588D02*
X151523810Y-84650969D01*
X151523810Y-84650969D02*
X151447619Y-84727160D01*
X151447619Y-84727160D02*
X151371429Y-84765255D01*
X151371429Y-84765255D02*
X151219048Y-84765255D01*
X151219048Y-84765255D02*
X151142857Y-84727160D01*
X151142857Y-84727160D02*
X151066667Y-84650969D01*
X151066667Y-84650969D02*
X151028571Y-84498588D01*
X151028571Y-84498588D02*
X151028571Y-84231921D01*
X151028571Y-84231921D02*
X151066667Y-84079540D01*
X151066667Y-84079540D02*
X151142857Y-84003350D01*
X151142857Y-84003350D02*
X151219048Y-83965255D01*
X151828571Y-83965255D02*
X152019047Y-84765255D01*
X152019047Y-84765255D02*
X152171428Y-84193826D01*
X152171428Y-84193826D02*
X152323809Y-84765255D01*
X152323809Y-84765255D02*
X152514286Y-83965255D01*
X152819048Y-84765255D02*
X152819048Y-83965255D01*
X152819048Y-83965255D02*
X153276191Y-84765255D01*
X153276191Y-84765255D02*
X153276191Y-83965255D01*
X144380952Y-105815255D02*
X144838095Y-105815255D01*
X144609523Y-106615255D02*
X144609523Y-105815255D01*
X145104762Y-106615255D02*
X145104762Y-105815255D01*
X145104762Y-105815255D02*
X145409524Y-105815255D01*
X145409524Y-105815255D02*
X145485714Y-105853350D01*
X145485714Y-105853350D02*
X145523809Y-105891445D01*
X145523809Y-105891445D02*
X145561905Y-105967636D01*
X145561905Y-105967636D02*
X145561905Y-106081921D01*
X145561905Y-106081921D02*
X145523809Y-106158112D01*
X145523809Y-106158112D02*
X145485714Y-106196207D01*
X145485714Y-106196207D02*
X145409524Y-106234302D01*
X145409524Y-106234302D02*
X145104762Y-106234302D01*
X146323809Y-106615255D02*
X145866666Y-106615255D01*
X146095238Y-106615255D02*
X146095238Y-105815255D01*
X146095238Y-105815255D02*
X146019047Y-105929540D01*
X146019047Y-105929540D02*
X145942857Y-106005731D01*
X145942857Y-106005731D02*
X145866666Y-106043826D01*
X146666667Y-106310493D02*
X147276191Y-106310493D01*
X148000000Y-105815255D02*
X147847619Y-105815255D01*
X147847619Y-105815255D02*
X147771428Y-105853350D01*
X147771428Y-105853350D02*
X147733333Y-105891445D01*
X147733333Y-105891445D02*
X147657143Y-106005731D01*
X147657143Y-106005731D02*
X147619047Y-106158112D01*
X147619047Y-106158112D02*
X147619047Y-106462874D01*
X147619047Y-106462874D02*
X147657143Y-106539064D01*
X147657143Y-106539064D02*
X147695238Y-106577160D01*
X147695238Y-106577160D02*
X147771428Y-106615255D01*
X147771428Y-106615255D02*
X147923809Y-106615255D01*
X147923809Y-106615255D02*
X148000000Y-106577160D01*
X148000000Y-106577160D02*
X148038095Y-106539064D01*
X148038095Y-106539064D02*
X148076190Y-106462874D01*
X148076190Y-106462874D02*
X148076190Y-106272398D01*
X148076190Y-106272398D02*
X148038095Y-106196207D01*
X148038095Y-106196207D02*
X148000000Y-106158112D01*
X148000000Y-106158112D02*
X147923809Y-106120017D01*
X147923809Y-106120017D02*
X147771428Y-106120017D01*
X147771428Y-106120017D02*
X147695238Y-106158112D01*
X147695238Y-106158112D02*
X147657143Y-106196207D01*
X147657143Y-106196207D02*
X147619047Y-106272398D01*
X149028572Y-106615255D02*
X149028572Y-105815255D01*
X149028572Y-106196207D02*
X149485715Y-106196207D01*
X149485715Y-106615255D02*
X149485715Y-105815255D01*
X149866667Y-106615255D02*
X149866667Y-105815255D01*
X150247619Y-106615255D02*
X150247619Y-105815255D01*
X150247619Y-105815255D02*
X150704762Y-106615255D01*
X150704762Y-106615255D02*
X150704762Y-105815255D01*
X151504761Y-105853350D02*
X151428571Y-105815255D01*
X151428571Y-105815255D02*
X151314285Y-105815255D01*
X151314285Y-105815255D02*
X151199999Y-105853350D01*
X151199999Y-105853350D02*
X151123809Y-105929540D01*
X151123809Y-105929540D02*
X151085714Y-106005731D01*
X151085714Y-106005731D02*
X151047618Y-106158112D01*
X151047618Y-106158112D02*
X151047618Y-106272398D01*
X151047618Y-106272398D02*
X151085714Y-106424779D01*
X151085714Y-106424779D02*
X151123809Y-106500969D01*
X151123809Y-106500969D02*
X151199999Y-106577160D01*
X151199999Y-106577160D02*
X151314285Y-106615255D01*
X151314285Y-106615255D02*
X151390476Y-106615255D01*
X151390476Y-106615255D02*
X151504761Y-106577160D01*
X151504761Y-106577160D02*
X151542857Y-106539064D01*
X151542857Y-106539064D02*
X151542857Y-106272398D01*
X151542857Y-106272398D02*
X151390476Y-106272398D01*
X151885714Y-106196207D02*
X152152380Y-106196207D01*
X152266666Y-106615255D02*
X151885714Y-106615255D01*
X151885714Y-106615255D02*
X151885714Y-105815255D01*
X151885714Y-105815255D02*
X152266666Y-105815255D01*
X153180952Y-106577160D02*
X153295238Y-106615255D01*
X153295238Y-106615255D02*
X153485714Y-106615255D01*
X153485714Y-106615255D02*
X153561905Y-106577160D01*
X153561905Y-106577160D02*
X153600000Y-106539064D01*
X153600000Y-106539064D02*
X153638095Y-106462874D01*
X153638095Y-106462874D02*
X153638095Y-106386683D01*
X153638095Y-106386683D02*
X153600000Y-106310493D01*
X153600000Y-106310493D02*
X153561905Y-106272398D01*
X153561905Y-106272398D02*
X153485714Y-106234302D01*
X153485714Y-106234302D02*
X153333333Y-106196207D01*
X153333333Y-106196207D02*
X153257143Y-106158112D01*
X153257143Y-106158112D02*
X153219048Y-106120017D01*
X153219048Y-106120017D02*
X153180952Y-106043826D01*
X153180952Y-106043826D02*
X153180952Y-105967636D01*
X153180952Y-105967636D02*
X153219048Y-105891445D01*
X153219048Y-105891445D02*
X153257143Y-105853350D01*
X153257143Y-105853350D02*
X153333333Y-105815255D01*
X153333333Y-105815255D02*
X153523810Y-105815255D01*
X153523810Y-105815255D02*
X153638095Y-105853350D01*
X153980953Y-106615255D02*
X153980953Y-105815255D01*
X154361905Y-106615255D02*
X154361905Y-105815255D01*
X154361905Y-105815255D02*
X154552381Y-105815255D01*
X154552381Y-105815255D02*
X154666667Y-105853350D01*
X154666667Y-105853350D02*
X154742857Y-105929540D01*
X154742857Y-105929540D02*
X154780952Y-106005731D01*
X154780952Y-106005731D02*
X154819048Y-106158112D01*
X154819048Y-106158112D02*
X154819048Y-106272398D01*
X154819048Y-106272398D02*
X154780952Y-106424779D01*
X154780952Y-106424779D02*
X154742857Y-106500969D01*
X154742857Y-106500969D02*
X154666667Y-106577160D01*
X154666667Y-106577160D02*
X154552381Y-106615255D01*
X154552381Y-106615255D02*
X154361905Y-106615255D01*
X155161905Y-106196207D02*
X155428571Y-106196207D01*
X155542857Y-106615255D02*
X155161905Y-106615255D01*
X155161905Y-106615255D02*
X155161905Y-105815255D01*
X155161905Y-105815255D02*
X155542857Y-105815255D01*
%LPC*%
%LPD*%
M02*
