%TF.GenerationSoftware,KiCad,Pcbnew,10.0.3*%
%TF.CreationDate,2026-10-08T01:52:59+10:30*%
%TF.ProjectId,ring_ir_prog_anvil,72696e67-5f69-4725-9f70-726f675f616e,rev?*%
%TF.SameCoordinates,Original*%
%TF.FileFunction,Legend,Top*%
%TF.FilePolarity,Positive*%
%FSLAX46Y46*%
G04 Gerber Fmt 4.6, Leading zero omitted, Abs format (unit mm)*
G04 Created by KiCad (PCBNEW 10.0.3) date 2026-10-08 01:52:59*
%MOMM*%
%LPD*%
G01*
G04 APERTURE LIST*
%ADD10C,0.120000*%
%ADD11C,0.150000*%
%ADD12C,1.500000*%
%ADD13R,6.000000X1.241000*%
G04 APERTURE END LIST*
D10*
X145466667Y-84765255D02*
X145200000Y-84384302D01*
X145009524Y-84765255D02*
X145009524Y-83965255D01*
X145009524Y-83965255D02*
X145314286Y-83965255D01*
X145314286Y-83965255D02*
X145390476Y-84003350D01*
X145390476Y-84003350D02*
X145428571Y-84041445D01*
X145428571Y-84041445D02*
X145466667Y-84117636D01*
X145466667Y-84117636D02*
X145466667Y-84231921D01*
X145466667Y-84231921D02*
X145428571Y-84308112D01*
X145428571Y-84308112D02*
X145390476Y-84346207D01*
X145390476Y-84346207D02*
X145314286Y-84384302D01*
X145314286Y-84384302D02*
X145009524Y-84384302D01*
X145809524Y-84765255D02*
X145809524Y-83965255D01*
X146190476Y-84765255D02*
X146190476Y-83965255D01*
X146190476Y-83965255D02*
X146647619Y-84765255D01*
X146647619Y-84765255D02*
X146647619Y-83965255D01*
X147447618Y-84003350D02*
X147371428Y-83965255D01*
X147371428Y-83965255D02*
X147257142Y-83965255D01*
X147257142Y-83965255D02*
X147142856Y-84003350D01*
X147142856Y-84003350D02*
X147066666Y-84079540D01*
X147066666Y-84079540D02*
X147028571Y-84155731D01*
X147028571Y-84155731D02*
X146990475Y-84308112D01*
X146990475Y-84308112D02*
X146990475Y-84422398D01*
X146990475Y-84422398D02*
X147028571Y-84574779D01*
X147028571Y-84574779D02*
X147066666Y-84650969D01*
X147066666Y-84650969D02*
X147142856Y-84727160D01*
X147142856Y-84727160D02*
X147257142Y-84765255D01*
X147257142Y-84765255D02*
X147333333Y-84765255D01*
X147333333Y-84765255D02*
X147447618Y-84727160D01*
X147447618Y-84727160D02*
X147485714Y-84689064D01*
X147485714Y-84689064D02*
X147485714Y-84422398D01*
X147485714Y-84422398D02*
X147333333Y-84422398D01*
X148819047Y-84765255D02*
X148438095Y-84765255D01*
X148438095Y-84765255D02*
X148438095Y-83965255D01*
X149085714Y-84346207D02*
X149352380Y-84346207D01*
X149466666Y-84765255D02*
X149085714Y-84765255D01*
X149085714Y-84765255D02*
X149085714Y-83965255D01*
X149085714Y-83965255D02*
X149466666Y-83965255D01*
X149809524Y-84765255D02*
X149809524Y-83965255D01*
X149809524Y-83965255D02*
X150000000Y-83965255D01*
X150000000Y-83965255D02*
X150114286Y-84003350D01*
X150114286Y-84003350D02*
X150190476Y-84079540D01*
X150190476Y-84079540D02*
X150228571Y-84155731D01*
X150228571Y-84155731D02*
X150266667Y-84308112D01*
X150266667Y-84308112D02*
X150266667Y-84422398D01*
X150266667Y-84422398D02*
X150228571Y-84574779D01*
X150228571Y-84574779D02*
X150190476Y-84650969D01*
X150190476Y-84650969D02*
X150114286Y-84727160D01*
X150114286Y-84727160D02*
X150000000Y-84765255D01*
X150000000Y-84765255D02*
X149809524Y-84765255D01*
X150571428Y-84727160D02*
X150685714Y-84765255D01*
X150685714Y-84765255D02*
X150876190Y-84765255D01*
X150876190Y-84765255D02*
X150952381Y-84727160D01*
X150952381Y-84727160D02*
X150990476Y-84689064D01*
X150990476Y-84689064D02*
X151028571Y-84612874D01*
X151028571Y-84612874D02*
X151028571Y-84536683D01*
X151028571Y-84536683D02*
X150990476Y-84460493D01*
X150990476Y-84460493D02*
X150952381Y-84422398D01*
X150952381Y-84422398D02*
X150876190Y-84384302D01*
X150876190Y-84384302D02*
X150723809Y-84346207D01*
X150723809Y-84346207D02*
X150647619Y-84308112D01*
X150647619Y-84308112D02*
X150609524Y-84270017D01*
X150609524Y-84270017D02*
X150571428Y-84193826D01*
X150571428Y-84193826D02*
X150571428Y-84117636D01*
X150571428Y-84117636D02*
X150609524Y-84041445D01*
X150609524Y-84041445D02*
X150647619Y-84003350D01*
X150647619Y-84003350D02*
X150723809Y-83965255D01*
X150723809Y-83965255D02*
X150914286Y-83965255D01*
X150914286Y-83965255D02*
X151028571Y-84003350D01*
X151980953Y-84765255D02*
X151980953Y-83965255D01*
X151980953Y-83965255D02*
X152171429Y-83965255D01*
X152171429Y-83965255D02*
X152285715Y-84003350D01*
X152285715Y-84003350D02*
X152361905Y-84079540D01*
X152361905Y-84079540D02*
X152400000Y-84155731D01*
X152400000Y-84155731D02*
X152438096Y-84308112D01*
X152438096Y-84308112D02*
X152438096Y-84422398D01*
X152438096Y-84422398D02*
X152400000Y-84574779D01*
X152400000Y-84574779D02*
X152361905Y-84650969D01*
X152361905Y-84650969D02*
X152285715Y-84727160D01*
X152285715Y-84727160D02*
X152171429Y-84765255D01*
X152171429Y-84765255D02*
X151980953Y-84765255D01*
X152933334Y-83965255D02*
X153085715Y-83965255D01*
X153085715Y-83965255D02*
X153161905Y-84003350D01*
X153161905Y-84003350D02*
X153238096Y-84079540D01*
X153238096Y-84079540D02*
X153276191Y-84231921D01*
X153276191Y-84231921D02*
X153276191Y-84498588D01*
X153276191Y-84498588D02*
X153238096Y-84650969D01*
X153238096Y-84650969D02*
X153161905Y-84727160D01*
X153161905Y-84727160D02*
X153085715Y-84765255D01*
X153085715Y-84765255D02*
X152933334Y-84765255D01*
X152933334Y-84765255D02*
X152857143Y-84727160D01*
X152857143Y-84727160D02*
X152780953Y-84650969D01*
X152780953Y-84650969D02*
X152742857Y-84498588D01*
X152742857Y-84498588D02*
X152742857Y-84231921D01*
X152742857Y-84231921D02*
X152780953Y-84079540D01*
X152780953Y-84079540D02*
X152857143Y-84003350D01*
X152857143Y-84003350D02*
X152933334Y-83965255D01*
X153542857Y-83965255D02*
X153733333Y-84765255D01*
X153733333Y-84765255D02*
X153885714Y-84193826D01*
X153885714Y-84193826D02*
X154038095Y-84765255D01*
X154038095Y-84765255D02*
X154228572Y-83965255D01*
X154533334Y-84765255D02*
X154533334Y-83965255D01*
X154533334Y-83965255D02*
X154990477Y-84765255D01*
X154990477Y-84765255D02*
X154990477Y-83965255D01*
X151590476Y-110453350D02*
X151514286Y-110415255D01*
X151514286Y-110415255D02*
X151400000Y-110415255D01*
X151400000Y-110415255D02*
X151285714Y-110453350D01*
X151285714Y-110453350D02*
X151209524Y-110529540D01*
X151209524Y-110529540D02*
X151171429Y-110605731D01*
X151171429Y-110605731D02*
X151133333Y-110758112D01*
X151133333Y-110758112D02*
X151133333Y-110872398D01*
X151133333Y-110872398D02*
X151171429Y-111024779D01*
X151171429Y-111024779D02*
X151209524Y-111100969D01*
X151209524Y-111100969D02*
X151285714Y-111177160D01*
X151285714Y-111177160D02*
X151400000Y-111215255D01*
X151400000Y-111215255D02*
X151476191Y-111215255D01*
X151476191Y-111215255D02*
X151590476Y-111177160D01*
X151590476Y-111177160D02*
X151628572Y-111139064D01*
X151628572Y-111139064D02*
X151628572Y-110872398D01*
X151628572Y-110872398D02*
X151476191Y-110872398D01*
X151971429Y-111215255D02*
X151971429Y-110415255D01*
X151971429Y-110415255D02*
X152428572Y-111215255D01*
X152428572Y-111215255D02*
X152428572Y-110415255D01*
X152809524Y-111215255D02*
X152809524Y-110415255D01*
X152809524Y-110415255D02*
X153000000Y-110415255D01*
X153000000Y-110415255D02*
X153114286Y-110453350D01*
X153114286Y-110453350D02*
X153190476Y-110529540D01*
X153190476Y-110529540D02*
X153228571Y-110605731D01*
X153228571Y-110605731D02*
X153266667Y-110758112D01*
X153266667Y-110758112D02*
X153266667Y-110872398D01*
X153266667Y-110872398D02*
X153228571Y-111024779D01*
X153228571Y-111024779D02*
X153190476Y-111100969D01*
X153190476Y-111100969D02*
X153114286Y-111177160D01*
X153114286Y-111177160D02*
X153000000Y-111215255D01*
X153000000Y-111215255D02*
X152809524Y-111215255D01*
D11*
X149666666Y-108658219D02*
X149666666Y-109372504D01*
X149666666Y-109372504D02*
X149619047Y-109515361D01*
X149619047Y-109515361D02*
X149523809Y-109610600D01*
X149523809Y-109610600D02*
X149380952Y-109658219D01*
X149380952Y-109658219D02*
X149285714Y-109658219D01*
X150666666Y-109658219D02*
X150095238Y-109658219D01*
X150380952Y-109658219D02*
X150380952Y-108658219D01*
X150380952Y-108658219D02*
X150285714Y-108801076D01*
X150285714Y-108801076D02*
X150190476Y-108896314D01*
X150190476Y-108896314D02*
X150095238Y-108943933D01*
%TO.C,J1*%
D10*
X150950000Y-110851400D02*
G75*
G02*
X149050000Y-110851400I-950000J0D01*
G01*
X149050000Y-110851400D02*
G75*
G02*
X150950000Y-110851400I950000J0D01*
G01*
%TD*%
%LPC*%
D12*
%TO.C,J1*%
X150000000Y-110851400D03*
%TD*%
D13*
%TO.C,P8*%
X150000000Y-103409700D03*
%TD*%
%LPD*%
M02*
