%TF.GenerationSoftware,KiCad,Pcbnew,10.0.3*%
%TF.CreationDate,2026-10-08T01:52:59+10:30*%
%TF.ProjectId,ring_ir_prog_anvil,72696e67-5f69-4725-9f70-726f675f616e,rev?*%
%TF.SameCoordinates,Original*%
%TF.FileFunction,Legend,Bot*%
%TF.FilePolarity,Positive*%
%FSLAX46Y46*%
G04 Gerber Fmt 4.6, Leading zero omitted, Abs format (unit mm)*
G04 Created by KiCad (PCBNEW 10.0.3) date 2026-10-08 01:52:59*
%MOMM*%
%LPD*%
G01*
G04 APERTURE LIST*
%ADD10C,0.120000*%
%ADD11C,1.500000*%
G04 APERTURE END LIST*
D10*
X159542856Y-113515255D02*
X159542856Y-112715255D01*
X158704761Y-113515255D02*
X158971428Y-113134302D01*
X159161904Y-113515255D02*
X159161904Y-112715255D01*
X159161904Y-112715255D02*
X158857142Y-112715255D01*
X158857142Y-112715255D02*
X158780952Y-112753350D01*
X158780952Y-112753350D02*
X158742857Y-112791445D01*
X158742857Y-112791445D02*
X158704761Y-112867636D01*
X158704761Y-112867636D02*
X158704761Y-112981921D01*
X158704761Y-112981921D02*
X158742857Y-113058112D01*
X158742857Y-113058112D02*
X158780952Y-113096207D01*
X158780952Y-113096207D02*
X158857142Y-113134302D01*
X158857142Y-113134302D02*
X159161904Y-113134302D01*
X157790476Y-113286683D02*
X157409523Y-113286683D01*
X157866666Y-113515255D02*
X157599999Y-112715255D01*
X157599999Y-112715255D02*
X157333333Y-113515255D01*
X157066666Y-113515255D02*
X157066666Y-112715255D01*
X157066666Y-112715255D02*
X156609523Y-113515255D01*
X156609523Y-113515255D02*
X156609523Y-112715255D01*
X156342857Y-112715255D02*
X156076190Y-113515255D01*
X156076190Y-113515255D02*
X155809524Y-112715255D01*
X155542857Y-113515255D02*
X155542857Y-112715255D01*
X154780953Y-113515255D02*
X155161905Y-113515255D01*
X155161905Y-113515255D02*
X155161905Y-112715255D01*
X153904762Y-113210493D02*
X153295239Y-113210493D01*
X152419048Y-112715255D02*
X151961905Y-112715255D01*
X152190477Y-113515255D02*
X152190477Y-112715255D01*
X151733334Y-113286683D02*
X151352381Y-113286683D01*
X151809524Y-113515255D02*
X151542857Y-112715255D01*
X151542857Y-112715255D02*
X151276191Y-113515255D01*
X151009524Y-113515255D02*
X151009524Y-112715255D01*
X151009524Y-112715255D02*
X150704762Y-112715255D01*
X150704762Y-112715255D02*
X150628572Y-112753350D01*
X150628572Y-112753350D02*
X150590477Y-112791445D01*
X150590477Y-112791445D02*
X150552381Y-112867636D01*
X150552381Y-112867636D02*
X150552381Y-112981921D01*
X150552381Y-112981921D02*
X150590477Y-113058112D01*
X150590477Y-113058112D02*
X150628572Y-113096207D01*
X150628572Y-113096207D02*
X150704762Y-113134302D01*
X150704762Y-113134302D02*
X151009524Y-113134302D01*
X150209524Y-113096207D02*
X149942858Y-113096207D01*
X149828572Y-113515255D02*
X150209524Y-113515255D01*
X150209524Y-113515255D02*
X150209524Y-112715255D01*
X150209524Y-112715255D02*
X149828572Y-112715255D01*
X148990476Y-112715255D02*
X148533333Y-112715255D01*
X148761905Y-113515255D02*
X148761905Y-112715255D01*
X148114285Y-112715255D02*
X147961904Y-112715255D01*
X147961904Y-112715255D02*
X147885714Y-112753350D01*
X147885714Y-112753350D02*
X147809523Y-112829540D01*
X147809523Y-112829540D02*
X147771428Y-112981921D01*
X147771428Y-112981921D02*
X147771428Y-113248588D01*
X147771428Y-113248588D02*
X147809523Y-113400969D01*
X147809523Y-113400969D02*
X147885714Y-113477160D01*
X147885714Y-113477160D02*
X147961904Y-113515255D01*
X147961904Y-113515255D02*
X148114285Y-113515255D01*
X148114285Y-113515255D02*
X148190476Y-113477160D01*
X148190476Y-113477160D02*
X148266666Y-113400969D01*
X148266666Y-113400969D02*
X148304762Y-113248588D01*
X148304762Y-113248588D02*
X148304762Y-112981921D01*
X148304762Y-112981921D02*
X148266666Y-112829540D01*
X148266666Y-112829540D02*
X148190476Y-112753350D01*
X148190476Y-112753350D02*
X148114285Y-112715255D01*
X146438095Y-113515255D02*
X146819047Y-113515255D01*
X146819047Y-113515255D02*
X146819047Y-112715255D01*
X146019047Y-112715255D02*
X145866666Y-112715255D01*
X145866666Y-112715255D02*
X145790476Y-112753350D01*
X145790476Y-112753350D02*
X145714285Y-112829540D01*
X145714285Y-112829540D02*
X145676190Y-112981921D01*
X145676190Y-112981921D02*
X145676190Y-113248588D01*
X145676190Y-113248588D02*
X145714285Y-113400969D01*
X145714285Y-113400969D02*
X145790476Y-113477160D01*
X145790476Y-113477160D02*
X145866666Y-113515255D01*
X145866666Y-113515255D02*
X146019047Y-113515255D01*
X146019047Y-113515255D02*
X146095238Y-113477160D01*
X146095238Y-113477160D02*
X146171428Y-113400969D01*
X146171428Y-113400969D02*
X146209524Y-113248588D01*
X146209524Y-113248588D02*
X146209524Y-112981921D01*
X146209524Y-112981921D02*
X146171428Y-112829540D01*
X146171428Y-112829540D02*
X146095238Y-112753350D01*
X146095238Y-112753350D02*
X146019047Y-112715255D01*
X145409524Y-112715255D02*
X145219048Y-113515255D01*
X145219048Y-113515255D02*
X145066667Y-112943826D01*
X145066667Y-112943826D02*
X144914286Y-113515255D01*
X144914286Y-113515255D02*
X144723810Y-112715255D01*
X144419047Y-113096207D02*
X144152381Y-113096207D01*
X144038095Y-113515255D02*
X144419047Y-113515255D01*
X144419047Y-113515255D02*
X144419047Y-112715255D01*
X144419047Y-112715255D02*
X144038095Y-112715255D01*
X143238094Y-113515255D02*
X143504761Y-113134302D01*
X143695237Y-113515255D02*
X143695237Y-112715255D01*
X143695237Y-112715255D02*
X143390475Y-112715255D01*
X143390475Y-112715255D02*
X143314285Y-112753350D01*
X143314285Y-112753350D02*
X143276190Y-112791445D01*
X143276190Y-112791445D02*
X143238094Y-112867636D01*
X143238094Y-112867636D02*
X143238094Y-112981921D01*
X143238094Y-112981921D02*
X143276190Y-113058112D01*
X143276190Y-113058112D02*
X143314285Y-113096207D01*
X143314285Y-113096207D02*
X143390475Y-113134302D01*
X143390475Y-113134302D02*
X143695237Y-113134302D01*
X142057142Y-112715255D02*
X142057142Y-113286683D01*
X142057142Y-113286683D02*
X142095237Y-113400969D01*
X142095237Y-113400969D02*
X142171428Y-113477160D01*
X142171428Y-113477160D02*
X142285713Y-113515255D01*
X142285713Y-113515255D02*
X142361904Y-113515255D01*
X141714285Y-113286683D02*
X141333332Y-113286683D01*
X141790475Y-113515255D02*
X141523808Y-112715255D01*
X141523808Y-112715255D02*
X141257142Y-113515255D01*
X141066666Y-112715255D02*
X140876190Y-113515255D01*
X140876190Y-113515255D02*
X140723809Y-112943826D01*
X140723809Y-112943826D02*
X140571428Y-113515255D01*
X140571428Y-113515255D02*
X140380952Y-112715255D01*
%LPC*%
D11*
%TO.C,J1*%
X150000000Y-110851400D03*
%TD*%
%LPD*%
M02*
