%TF.GenerationSoftware,KiCad,Pcbnew,10.0.3*%
%TF.CreationDate,2026-10-08T10:38:44+10:30*%
%TF.ProjectId,ring_ir_prog_anvil,72696e67-5f69-4725-9f70-726f675f616e,rev?*%
%TF.SameCoordinates,Original*%
%TF.FileFunction,Legend,Bot*%
%TF.FilePolarity,Positive*%
%FSLAX46Y46*%
G04 Gerber Fmt 4.6, Leading zero omitted, Abs format (unit mm)*
G04 Created by KiCad (PCBNEW 10.0.3) date 2026-10-08 10:38:44*
%MOMM*%
%LPD*%
G01*
G04 APERTURE LIST*
%ADD10C,0.120000*%
%ADD11C,1.500000*%
G04 APERTURE END LIST*
D10*
X157904761Y-84765255D02*
X157904761Y-83965255D01*
X157066666Y-84765255D02*
X157333333Y-84384302D01*
X157523809Y-84765255D02*
X157523809Y-83965255D01*
X157523809Y-83965255D02*
X157219047Y-83965255D01*
X157219047Y-83965255D02*
X157142857Y-84003350D01*
X157142857Y-84003350D02*
X157104762Y-84041445D01*
X157104762Y-84041445D02*
X157066666Y-84117636D01*
X157066666Y-84117636D02*
X157066666Y-84231921D01*
X157066666Y-84231921D02*
X157104762Y-84308112D01*
X157104762Y-84308112D02*
X157142857Y-84346207D01*
X157142857Y-84346207D02*
X157219047Y-84384302D01*
X157219047Y-84384302D02*
X157523809Y-84384302D01*
X156152381Y-84536683D02*
X155771428Y-84536683D01*
X156228571Y-84765255D02*
X155961904Y-83965255D01*
X155961904Y-83965255D02*
X155695238Y-84765255D01*
X155428571Y-84765255D02*
X155428571Y-83965255D01*
X155428571Y-83965255D02*
X154971428Y-84765255D01*
X154971428Y-84765255D02*
X154971428Y-83965255D01*
X154704762Y-83965255D02*
X154438095Y-84765255D01*
X154438095Y-84765255D02*
X154171429Y-83965255D01*
X153904762Y-84765255D02*
X153904762Y-83965255D01*
X153142858Y-84765255D02*
X153523810Y-84765255D01*
X153523810Y-84765255D02*
X153523810Y-83965255D01*
X152266667Y-84460493D02*
X151657144Y-84460493D01*
X150780953Y-83965255D02*
X150323810Y-83965255D01*
X150552382Y-84765255D02*
X150552382Y-83965255D01*
X150095239Y-84536683D02*
X149714286Y-84536683D01*
X150171429Y-84765255D02*
X149904762Y-83965255D01*
X149904762Y-83965255D02*
X149638096Y-84765255D01*
X149371429Y-84765255D02*
X149371429Y-83965255D01*
X149371429Y-83965255D02*
X149066667Y-83965255D01*
X149066667Y-83965255D02*
X148990477Y-84003350D01*
X148990477Y-84003350D02*
X148952382Y-84041445D01*
X148952382Y-84041445D02*
X148914286Y-84117636D01*
X148914286Y-84117636D02*
X148914286Y-84231921D01*
X148914286Y-84231921D02*
X148952382Y-84308112D01*
X148952382Y-84308112D02*
X148990477Y-84346207D01*
X148990477Y-84346207D02*
X149066667Y-84384302D01*
X149066667Y-84384302D02*
X149371429Y-84384302D01*
X148571429Y-84346207D02*
X148304763Y-84346207D01*
X148190477Y-84765255D02*
X148571429Y-84765255D01*
X148571429Y-84765255D02*
X148571429Y-83965255D01*
X148571429Y-83965255D02*
X148190477Y-83965255D01*
X147352381Y-83965255D02*
X146895238Y-83965255D01*
X147123810Y-84765255D02*
X147123810Y-83965255D01*
X146476190Y-83965255D02*
X146323809Y-83965255D01*
X146323809Y-83965255D02*
X146247619Y-84003350D01*
X146247619Y-84003350D02*
X146171428Y-84079540D01*
X146171428Y-84079540D02*
X146133333Y-84231921D01*
X146133333Y-84231921D02*
X146133333Y-84498588D01*
X146133333Y-84498588D02*
X146171428Y-84650969D01*
X146171428Y-84650969D02*
X146247619Y-84727160D01*
X146247619Y-84727160D02*
X146323809Y-84765255D01*
X146323809Y-84765255D02*
X146476190Y-84765255D01*
X146476190Y-84765255D02*
X146552381Y-84727160D01*
X146552381Y-84727160D02*
X146628571Y-84650969D01*
X146628571Y-84650969D02*
X146666667Y-84498588D01*
X146666667Y-84498588D02*
X146666667Y-84231921D01*
X146666667Y-84231921D02*
X146628571Y-84079540D01*
X146628571Y-84079540D02*
X146552381Y-84003350D01*
X146552381Y-84003350D02*
X146476190Y-83965255D01*
X144723809Y-84765255D02*
X144990476Y-84384302D01*
X145180952Y-84765255D02*
X145180952Y-83965255D01*
X145180952Y-83965255D02*
X144876190Y-83965255D01*
X144876190Y-83965255D02*
X144800000Y-84003350D01*
X144800000Y-84003350D02*
X144761905Y-84041445D01*
X144761905Y-84041445D02*
X144723809Y-84117636D01*
X144723809Y-84117636D02*
X144723809Y-84231921D01*
X144723809Y-84231921D02*
X144761905Y-84308112D01*
X144761905Y-84308112D02*
X144800000Y-84346207D01*
X144800000Y-84346207D02*
X144876190Y-84384302D01*
X144876190Y-84384302D02*
X145180952Y-84384302D01*
X144380952Y-84765255D02*
X144380952Y-83965255D01*
X144038096Y-84727160D02*
X143923810Y-84765255D01*
X143923810Y-84765255D02*
X143733334Y-84765255D01*
X143733334Y-84765255D02*
X143657143Y-84727160D01*
X143657143Y-84727160D02*
X143619048Y-84689064D01*
X143619048Y-84689064D02*
X143580953Y-84612874D01*
X143580953Y-84612874D02*
X143580953Y-84536683D01*
X143580953Y-84536683D02*
X143619048Y-84460493D01*
X143619048Y-84460493D02*
X143657143Y-84422398D01*
X143657143Y-84422398D02*
X143733334Y-84384302D01*
X143733334Y-84384302D02*
X143885715Y-84346207D01*
X143885715Y-84346207D02*
X143961905Y-84308112D01*
X143961905Y-84308112D02*
X144000000Y-84270017D01*
X144000000Y-84270017D02*
X144038096Y-84193826D01*
X144038096Y-84193826D02*
X144038096Y-84117636D01*
X144038096Y-84117636D02*
X144000000Y-84041445D01*
X144000000Y-84041445D02*
X143961905Y-84003350D01*
X143961905Y-84003350D02*
X143885715Y-83965255D01*
X143885715Y-83965255D02*
X143695238Y-83965255D01*
X143695238Y-83965255D02*
X143580953Y-84003350D01*
X143238095Y-84346207D02*
X142971429Y-84346207D01*
X142857143Y-84765255D02*
X143238095Y-84765255D01*
X143238095Y-84765255D02*
X143238095Y-83965255D01*
X143238095Y-83965255D02*
X142857143Y-83965255D01*
X142057142Y-84765255D02*
X142323809Y-84384302D01*
X142514285Y-84765255D02*
X142514285Y-83965255D01*
X142514285Y-83965255D02*
X142209523Y-83965255D01*
X142209523Y-83965255D02*
X142133333Y-84003350D01*
X142133333Y-84003350D02*
X142095238Y-84041445D01*
X142095238Y-84041445D02*
X142057142Y-84117636D01*
X142057142Y-84117636D02*
X142057142Y-84231921D01*
X142057142Y-84231921D02*
X142095238Y-84308112D01*
X142095238Y-84308112D02*
X142133333Y-84346207D01*
X142133333Y-84346207D02*
X142209523Y-84384302D01*
X142209523Y-84384302D02*
X142514285Y-84384302D01*
%LPC*%
D11*
%TO.C,J1*%
X150000000Y-108951400D03*
%TD*%
%LPD*%
M02*
