%TF.GenerationSoftware,KiCad,Pcbnew,10.0.3*%
%TF.CreationDate,2026-10-08T10:38:44+10:30*%
%TF.ProjectId,ring_ir_prog_anvil,72696e67-5f69-4725-9f70-726f675f616e,rev?*%
%TF.SameCoordinates,Original*%
%TF.FileFunction,Legend,Top*%
%TF.FilePolarity,Positive*%
%FSLAX46Y46*%
G04 Gerber Fmt 4.6, Leading zero omitted, Abs format (unit mm)*
G04 Created by KiCad (PCBNEW 10.0.3) date 2026-10-08 10:38:44*
%MOMM*%
%LPD*%
G01*
G04 APERTURE LIST*
%ADD10C,0.120000*%
%ADD11C,0.150000*%
%ADD12R,6.000000X1.241000*%
%ADD13C,1.500000*%
G04 APERTURE END LIST*
D10*
X145466667Y-84765255D02*
X145200000Y-84384302D01*
X145009524Y-84765255D02*
X145009524Y-83965255D01*
X145009524Y-83965255D02*
X145314286Y-83965255D01*
X145314286Y-83965255D02*
X145390476Y-84003350D01*
X145390476Y-84003350D02*
X145428571Y-84041445D01*
X145428571Y-84041445D02*
X145466667Y-84117636D01*
X145466667Y-84117636D02*
X145466667Y-84231921D01*
X145466667Y-84231921D02*
X145428571Y-84308112D01*
X145428571Y-84308112D02*
X145390476Y-84346207D01*
X145390476Y-84346207D02*
X145314286Y-84384302D01*
X145314286Y-84384302D02*
X145009524Y-84384302D01*
X145809524Y-84765255D02*
X145809524Y-83965255D01*
X146190476Y-84765255D02*
X146190476Y-83965255D01*
X146190476Y-83965255D02*
X146647619Y-84765255D01*
X146647619Y-84765255D02*
X146647619Y-83965255D01*
X147447618Y-84003350D02*
X147371428Y-83965255D01*
X147371428Y-83965255D02*
X147257142Y-83965255D01*
X147257142Y-83965255D02*
X147142856Y-84003350D01*
X147142856Y-84003350D02*
X147066666Y-84079540D01*
X147066666Y-84079540D02*
X147028571Y-84155731D01*
X147028571Y-84155731D02*
X146990475Y-84308112D01*
X146990475Y-84308112D02*
X146990475Y-84422398D01*
X146990475Y-84422398D02*
X147028571Y-84574779D01*
X147028571Y-84574779D02*
X147066666Y-84650969D01*
X147066666Y-84650969D02*
X147142856Y-84727160D01*
X147142856Y-84727160D02*
X147257142Y-84765255D01*
X147257142Y-84765255D02*
X147333333Y-84765255D01*
X147333333Y-84765255D02*
X147447618Y-84727160D01*
X147447618Y-84727160D02*
X147485714Y-84689064D01*
X147485714Y-84689064D02*
X147485714Y-84422398D01*
X147485714Y-84422398D02*
X147333333Y-84422398D01*
X148819047Y-84765255D02*
X148438095Y-84765255D01*
X148438095Y-84765255D02*
X148438095Y-83965255D01*
X149085714Y-84346207D02*
X149352380Y-84346207D01*
X149466666Y-84765255D02*
X149085714Y-84765255D01*
X149085714Y-84765255D02*
X149085714Y-83965255D01*
X149085714Y-83965255D02*
X149466666Y-83965255D01*
X149809524Y-84765255D02*
X149809524Y-83965255D01*
X149809524Y-83965255D02*
X150000000Y-83965255D01*
X150000000Y-83965255D02*
X150114286Y-84003350D01*
X150114286Y-84003350D02*
X150190476Y-84079540D01*
X150190476Y-84079540D02*
X150228571Y-84155731D01*
X150228571Y-84155731D02*
X150266667Y-84308112D01*
X150266667Y-84308112D02*
X150266667Y-84422398D01*
X150266667Y-84422398D02*
X150228571Y-84574779D01*
X150228571Y-84574779D02*
X150190476Y-84650969D01*
X150190476Y-84650969D02*
X150114286Y-84727160D01*
X150114286Y-84727160D02*
X150000000Y-84765255D01*
X150000000Y-84765255D02*
X149809524Y-84765255D01*
X150571428Y-84727160D02*
X150685714Y-84765255D01*
X150685714Y-84765255D02*
X150876190Y-84765255D01*
X150876190Y-84765255D02*
X150952381Y-84727160D01*
X150952381Y-84727160D02*
X150990476Y-84689064D01*
X150990476Y-84689064D02*
X151028571Y-84612874D01*
X151028571Y-84612874D02*
X151028571Y-84536683D01*
X151028571Y-84536683D02*
X150990476Y-84460493D01*
X150990476Y-84460493D02*
X150952381Y-84422398D01*
X150952381Y-84422398D02*
X150876190Y-84384302D01*
X150876190Y-84384302D02*
X150723809Y-84346207D01*
X150723809Y-84346207D02*
X150647619Y-84308112D01*
X150647619Y-84308112D02*
X150609524Y-84270017D01*
X150609524Y-84270017D02*
X150571428Y-84193826D01*
X150571428Y-84193826D02*
X150571428Y-84117636D01*
X150571428Y-84117636D02*
X150609524Y-84041445D01*
X150609524Y-84041445D02*
X150647619Y-84003350D01*
X150647619Y-84003350D02*
X150723809Y-83965255D01*
X150723809Y-83965255D02*
X150914286Y-83965255D01*
X150914286Y-83965255D02*
X151028571Y-84003350D01*
X151980953Y-84765255D02*
X151980953Y-83965255D01*
X151980953Y-83965255D02*
X152171429Y-83965255D01*
X152171429Y-83965255D02*
X152285715Y-84003350D01*
X152285715Y-84003350D02*
X152361905Y-84079540D01*
X152361905Y-84079540D02*
X152400000Y-84155731D01*
X152400000Y-84155731D02*
X152438096Y-84308112D01*
X152438096Y-84308112D02*
X152438096Y-84422398D01*
X152438096Y-84422398D02*
X152400000Y-84574779D01*
X152400000Y-84574779D02*
X152361905Y-84650969D01*
X152361905Y-84650969D02*
X152285715Y-84727160D01*
X152285715Y-84727160D02*
X152171429Y-84765255D01*
X152171429Y-84765255D02*
X151980953Y-84765255D01*
X152933334Y-83965255D02*
X153085715Y-83965255D01*
X153085715Y-83965255D02*
X153161905Y-84003350D01*
X153161905Y-84003350D02*
X153238096Y-84079540D01*
X153238096Y-84079540D02*
X153276191Y-84231921D01*
X153276191Y-84231921D02*
X153276191Y-84498588D01*
X153276191Y-84498588D02*
X153238096Y-84650969D01*
X153238096Y-84650969D02*
X153161905Y-84727160D01*
X153161905Y-84727160D02*
X153085715Y-84765255D01*
X153085715Y-84765255D02*
X152933334Y-84765255D01*
X152933334Y-84765255D02*
X152857143Y-84727160D01*
X152857143Y-84727160D02*
X152780953Y-84650969D01*
X152780953Y-84650969D02*
X152742857Y-84498588D01*
X152742857Y-84498588D02*
X152742857Y-84231921D01*
X152742857Y-84231921D02*
X152780953Y-84079540D01*
X152780953Y-84079540D02*
X152857143Y-84003350D01*
X152857143Y-84003350D02*
X152933334Y-83965255D01*
X153542857Y-83965255D02*
X153733333Y-84765255D01*
X153733333Y-84765255D02*
X153885714Y-84193826D01*
X153885714Y-84193826D02*
X154038095Y-84765255D01*
X154038095Y-84765255D02*
X154228572Y-83965255D01*
X154533334Y-84765255D02*
X154533334Y-83965255D01*
X154533334Y-83965255D02*
X154990477Y-84765255D01*
X154990477Y-84765255D02*
X154990477Y-83965255D01*
X149390476Y-110353350D02*
X149314286Y-110315255D01*
X149314286Y-110315255D02*
X149200000Y-110315255D01*
X149200000Y-110315255D02*
X149085714Y-110353350D01*
X149085714Y-110353350D02*
X149009524Y-110429540D01*
X149009524Y-110429540D02*
X148971429Y-110505731D01*
X148971429Y-110505731D02*
X148933333Y-110658112D01*
X148933333Y-110658112D02*
X148933333Y-110772398D01*
X148933333Y-110772398D02*
X148971429Y-110924779D01*
X148971429Y-110924779D02*
X149009524Y-111000969D01*
X149009524Y-111000969D02*
X149085714Y-111077160D01*
X149085714Y-111077160D02*
X149200000Y-111115255D01*
X149200000Y-111115255D02*
X149276191Y-111115255D01*
X149276191Y-111115255D02*
X149390476Y-111077160D01*
X149390476Y-111077160D02*
X149428572Y-111039064D01*
X149428572Y-111039064D02*
X149428572Y-110772398D01*
X149428572Y-110772398D02*
X149276191Y-110772398D01*
X149771429Y-111115255D02*
X149771429Y-110315255D01*
X149771429Y-110315255D02*
X150228572Y-111115255D01*
X150228572Y-111115255D02*
X150228572Y-110315255D01*
X150609524Y-111115255D02*
X150609524Y-110315255D01*
X150609524Y-110315255D02*
X150800000Y-110315255D01*
X150800000Y-110315255D02*
X150914286Y-110353350D01*
X150914286Y-110353350D02*
X150990476Y-110429540D01*
X150990476Y-110429540D02*
X151028571Y-110505731D01*
X151028571Y-110505731D02*
X151066667Y-110658112D01*
X151066667Y-110658112D02*
X151066667Y-110772398D01*
X151066667Y-110772398D02*
X151028571Y-110924779D01*
X151028571Y-110924779D02*
X150990476Y-111000969D01*
X150990476Y-111000969D02*
X150914286Y-111077160D01*
X150914286Y-111077160D02*
X150800000Y-111115255D01*
X150800000Y-111115255D02*
X150609524Y-111115255D01*
D11*
X149666666Y-106758219D02*
X149666666Y-107472504D01*
X149666666Y-107472504D02*
X149619047Y-107615361D01*
X149619047Y-107615361D02*
X149523809Y-107710600D01*
X149523809Y-107710600D02*
X149380952Y-107758219D01*
X149380952Y-107758219D02*
X149285714Y-107758219D01*
X150666666Y-107758219D02*
X150095238Y-107758219D01*
X150380952Y-107758219D02*
X150380952Y-106758219D01*
X150380952Y-106758219D02*
X150285714Y-106901076D01*
X150285714Y-106901076D02*
X150190476Y-106996314D01*
X150190476Y-106996314D02*
X150095238Y-107043933D01*
%TO.C,J1*%
D10*
X150950000Y-108951400D02*
G75*
G02*
X149050000Y-108951400I-950000J0D01*
G01*
X149050000Y-108951400D02*
G75*
G02*
X150950000Y-108951400I950000J0D01*
G01*
%TD*%
%LPC*%
D12*
%TO.C,P8*%
X150000000Y-103409700D03*
%TD*%
D13*
%TO.C,J1*%
X150000000Y-108951400D03*
%TD*%
%LPD*%
M02*
